<svg class="main-svg" xmlns="http://www.w3.org/2000/svg" xmlns:xlink="http://www.w3.org/1999/xlink" width="700" height="500" style="" viewBox="0 0 700 500"><rect x="0" y="0" width="700" height="500" style="fill: rgb(255, 255, 255); fill-opacity: 1;"/><defs id="defs-613183"><g class="clips"><clipPath id="clip613183xyplot" class="plotclip"><rect width="559.0704286964129" height="356.5936679790026"/></clipPath><clipPath class="axesclip" id="clip613183x"><rect x="86.9925634295713" y="0" width="559.0704286964129" height="500"/></clipPath><clipPath class="axesclip" id="clip613183y"><rect x="0" y="63.83858267716535" width="700" height="356.5936679790026"/></clipPath><clipPath class="axesclip" id="clip613183xy"><rect x="86.9925634295713" y="63.83858267716535" width="559.0704286964129" height="356.5936679790026"/></clipPath></g><g class="gradients"/></defs><g class="bglayer"/><g class="layer-below"><g class="imagelayer"/><g class="shapelayer"/></g><g class="cartesianlayer"><g class="subplot xy"><g class="layer-subplot"><g class="shapelayer"/><g class="imagelayer"/></g><g class="gridlayer"><g class="x"><path class="xgrid crisp" transform="translate(102.8125634295713,0)" d="M0,63.83858267716535v356.5936679790026" style="stroke: rgb(0, 0, 0); stroke-opacity: 0.1; stroke-width: 0.5px;"/><path class="xgrid crisp" transform="translate(212.6925634295713,0)" d="M0,63.83858267716535v356.5936679790026" style="stroke: rgb(0, 0, 0); stroke-opacity: 0.1; stroke-width: 0.5px;"/><path class="xgrid crisp" transform="translate(322.57256342957135,0)" d="M0,63.83858267716535v356.5936679790026" style="stroke: rgb(0, 0, 0); stroke-opacity: 0.1; stroke-width: 0.5px;"/><path class="xgrid crisp" transform="translate(432.4525634295713,0)" d="M0,63.83858267716535v356.5936679790026" style="stroke: rgb(0, 0, 0); stroke-opacity: 0.1; stroke-width: 0.5px;"/><path class="xgrid crisp" transform="translate(542.3325634295713,0)" d="M0,63.83858267716535v356.5936679790026" style="stroke: rgb(0, 0, 0); stroke-opacity: 0.1; stroke-width: 0.5px;"/></g><g class="y"><path class="ygrid crisp" transform="translate(0,369.75858267716535)" d="M86.9925634295713,0h559.0704286964129" style="stroke: rgb(0, 0, 0); stroke-opacity: 0.1; stroke-width: 0.5px;"/><path class="ygrid crisp" transform="translate(0,287.32858267716534)" d="M86.9925634295713,0h559.0704286964129" style="stroke: rgb(0, 0, 0); stroke-opacity: 0.1; stroke-width: 0.5px;"/><path class="ygrid crisp" transform="translate(0,204.88858267716535)" d="M86.9925634295713,0h559.0704286964129" style="stroke: rgb(0, 0, 0); stroke-opacity: 0.1; stroke-width: 0.5px;"/><path class="ygrid crisp" transform="translate(0,122.44858267716535)" d="M86.9925634295713,0h559.0704286964129" style="stroke: rgb(0, 0, 0); stroke-opacity: 0.1; stroke-width: 0.5px;"/></g></g><g class="zerolinelayer"/><path class="xlines-below"/><path class="ylines-below"/><g class="overlines-below"/><g class="xaxislayer-below"/><g class="yaxislayer-below"/><g class="overaxes-below"/><g class="plot" transform="translate(86.9925634295713,63.83858267716535)" clip-path="url('#clip613183xyplot')"><g class="scatterlayer mlayer"><g class="trace scatter trace4b783a" style="stroke-miterlimit: 2; opacity: 1;"><g class="fills"/><g class="errorbars"/><g class="lines"><path class="js-line" d="M15.82,22.96L16.35,16.93L16.88,37.8L17.41,40.11L17.93,23.55L18.99,10.09L19.52,35.6L20.05,21.69L20.57,45.43L21.1,15.49L21.63,49.91L22.16,16.73L22.69,115.39L23.74,25.83L24.27,61.93L24.8,27.52L25.33,43.42L25.85,63.8L26.38,18.02L26.91,26.48L27.44,75.88L28.49,36.61L29.02,83.05L31.13,27.85L31.66,26.07L32.19,31.26L32.72,48.86L33.25,78.42L33.77,23.6L34.3,45.11L34.83,26.39L35.36,30.23L35.88,50.58L36.41,53.5L36.94,37.57L37.47,57.01L38,37.73L38.52,42.16L39.05,63.18L39.58,30.57L40.11,91.48L40.64,30.13L41.16,39.75L41.69,72.18L42.75,44.2L43.28,91.62L44.33,40.09L44.86,46.16L45.39,73.03L45.92,53.24L46.44,76.11L47.5,35.01L48.03,52.33L48.56,52.99L49.08,56.11L49.61,127.49L50.14,31.77L50.67,53.59L51.2,112.74L51.72,47.77L52.25,66.22L52.78,105.95L53.31,52.19L53.84,76.82L54.36,63.51L54.89,78.02L55.42,52.58L55.95,76.24L57.53,53.99L58.06,49.13L58.59,46.46L59.11,90.12L59.64,68.1L60.17,79.71L60.7,99.13L61.23,66.22L61.75,66.22L62.28,64.26L62.81,48.41L63.34,66.05L63.87,64.16L64.39,64.95L64.92,97.67L65.98,57.7L66.51,71.73L67.56,77.66L68.09,58.45L69.15,93.82L69.67,63.94L70.2,64.98L70.73,69.63L71.26,64.1L71.79,112.11L72.31,121.41L72.84,74.78L73.37,67.23L73.9,90.44L74.43,91.31L74.95,89.86L75.48,65.77L76.01,141.43L76.54,90.2L77.07,98.49L77.59,75.39L78.12,81.84L78.65,74.04L79.18,90.54L79.71,73.2L80.23,69.56L80.76,106.31L81.29,86.92L81.82,101.47L82.34,79.17L82.87,86.36L83.4,79.9L83.93,81.2L84.46,125.8L85.51,77.85L86.04,93.38L87.1,80.53L87.62,110.15L88.15,88.96L88.68,172.66L89.74,104.12L90.26,106.73L90.79,116.66L91.32,94.94L91.85,90.28L92.38,103.14L92.9,98.34L93.43,107.28L93.96,128.51L94.49,80L95.54,88.9L96.07,106.63L96.6,106.03L97.13,134.83L97.66,89.56L98.18,119.99L98.71,92L99.24,125.73L100.82,92.87L101.35,98.91L101.88,88.39L102.41,97.98L103.46,92.32L103.99,125.34L104.52,97.36L105.05,134.82L106.1,94.98L106.63,122.52L107.16,95.86L107.69,102.32L108.21,107.83L108.74,95.18L109.27,106.81L109.8,209.63L110.33,109.95L110.85,142.41L111.38,119.67L111.91,115.92L112.44,100.91L112.97,123.98L113.49,113.08L114.02,103.39L114.55,168.19L116.13,102.5L116.66,129.5L117.19,128.86L117.72,115.87L118.25,151.53L118.77,114.21L119.3,130.06L119.83,112.83L120.36,107.87L120.89,120.66L121.41,117.28L121.94,118.93L122.47,127.03L123,113.07L124.58,137.17L125.11,117.44L125.64,172.52L126.16,114.96L126.69,140.93L127.22,134.28L127.75,118.89L128.28,144.28L128.8,132.85L129.33,122.81L129.86,154.4L130.39,149.55L130.92,184.88L131.44,132.43L131.97,185.29L132.5,130.04L133.03,149.28L133.56,131.76L134.61,140.67L135.14,129.01L135.67,152.27L136.2,144.96L136.72,125.19L137.25,149L137.78,139.67L138.31,202.04L139.36,126.41L139.89,177.48L140.42,145.57L140.95,164.02L141.48,159.08L142,134.97L142.53,148.53L143.06,129.32L143.59,121.05L144.12,247.09L145.17,148.54L145.7,165.65L146.23,143.94L146.76,147.06L147.28,138.13L147.81,142.33L148.34,170.48L149.39,127.86L149.92,142.98L150.45,158.66L150.98,152.21L151.51,148.5L152.56,155.95L153.09,175.75L153.62,161.2L154.15,164.15L154.67,163.42L155.2,142.67L155.73,173.49L156.79,133.89L157.31,141.19L157.84,166.52L158.37,157.84L158.9,139.72L160.48,214.74L161.01,175.2L161.54,210.89L162.07,152.15L162.59,147.81L163.12,175.03L163.65,159.37L164.18,164.87L164.71,171.78L165.23,159.84L165.76,196.95L166.29,154.75L166.82,171.51L167.35,172.06L167.87,179.91L168.4,148.02L168.93,152.94L169.46,145.47L169.98,173.1L170.51,151.47L171.57,190.7L172.1,174.79L172.62,183.72L173.15,156.55L173.68,171.6L174.21,169.71L174.74,158.75L176.32,204.9L176.85,159.48L177.38,203.54L177.9,162.83L178.43,175.19L178.96,164.61L180.02,177.42L180.54,171.92L181.07,161.48L181.6,193.33L182.13,190.29L182.66,192.07L183.18,166.6L183.71,168.45L184.24,196.43L184.77,175.27L185.3,177.14L185.82,172.66L186.35,175.31L186.88,167.17L187.41,209.52L187.94,204.32L188.46,189.91L188.99,193.34L189.52,172.41L191.1,197.86L191.63,241.27L192.16,184.71L192.69,224.74L193.21,172.26L193.74,183.16L194.27,237.83L194.8,191.03L195.33,209.41L195.85,186.79L196.38,199.14L196.91,188.22L197.44,186.77L197.97,194.06L198.49,185.13L199.02,214.46L199.55,215.79L200.08,219.4L201.13,183.26L201.66,189.32L202.72,211.11L203.25,179.7L204.83,200.31L205.36,245.76L205.89,234.19L206.41,196.02L207.47,182.92L208,207.57L208.53,256.48L209.05,197.81L210.11,230.29L210.64,217.35L211.17,189.28L211.69,233.3L212.22,197.62L212.75,203.11L213.28,235.09L213.81,199.42L214.33,216.3L214.86,188.09L215.39,218.05L215.92,194.33L216.44,241.39L216.97,223.49L217.5,293.38L218.03,198.32L218.56,217.39L219.08,206.1L219.61,203.06L220.14,219.64L220.67,234.74L221.2,224.15L222.25,233.15L222.78,217.32L223.31,203.87L223.84,244.43L224.36,225.16L224.89,232.17L225.42,215.52L225.95,224.95L226.48,200.31L227,224.17L227.53,210.36L229.12,219.23L229.64,211.52L230.17,243.47L230.7,224.63L231.23,226.24L231.76,238.67L232.28,211.07L232.81,218.71L233.34,286.32L233.87,287.68L234.4,236.95L235.45,249.47L235.98,221.41L236.51,249.69L237.04,225.82L237.56,245.83L238.09,216.37L239.15,226.16L239.67,243.95L240.73,218.16L241.26,258.35L242.84,222.24L243.37,240.32L244.43,251.63L244.95,239.27L245.48,217.14L246.01,241.12L246.54,247.95L247.07,240.19L248.12,289L248.65,225.66L249.71,245.04L250.23,240.92L250.76,232.97L251.29,262.57L252.35,232.57L252.87,254.56L253.4,256.84L253.93,272.89L254.46,241.49L254.99,246.87L255.51,240.83L256.04,255.44L256.57,244.68L257.1,226.64L257.63,336.15L258.15,233.77L258.68,267.98L259.21,278.98L259.74,290.87L260.26,237.1L261.85,255.73L262.38,252.29L262.9,318.87L263.43,278.98L263.96,248.93L264.49,261.85L265.02,268.65L265.54,250.96L266.6,258.32L267.13,255.32L267.66,247.24L268.18,252.35L268.71,242.69L269.24,249.46L270.82,290.32L271.35,255.84L271.88,280.05L272.41,260.71L272.94,300.89L273.46,271.4L273.99,283.64L274.52,263.37L275.05,293.27L275.58,288.96L276.1,261.73L276.63,276.4L277.16,274.54L277.69,256.9L279.27,332.91L279.8,264.9L280.86,275.23L281.38,297.83L282.44,272.8L282.97,346.5L283.49,260.77L284.02,302.11L285.08,264.01L285.61,271.46L286.13,255.17L286.66,263.73L287.19,292.71L287.72,282.72L288.25,275.89L288.77,279.54L289.3,267.44L289.83,302.65L290.36,271.54L290.89,266.17L291.41,279.89L291.94,279.76L292.47,274.21L293,342.61L293.53,275.49L294.05,291.93L294.58,270.67L295.11,273.31L295.64,255.01L296.17,290.27L296.69,262.67L297.22,275.72L297.75,262.98L298.28,260.13L298.81,262.52L299.86,259.36L300.39,261.84L300.92,269.12L301.45,268.74L301.97,258.23L302.5,264.61L303.03,262.49L303.56,267.8L304.61,270.03L305.14,262.08L305.67,263.31L306.2,254.07L307.25,260.54L307.78,255.37L308.31,264.81L308.84,256.14L309.36,253.07L309.89,253.82L310.42,261.49L311.48,253.19L312,253.43L312.53,252.3L313.06,255.24L313.59,252.32L314.12,249.64L314.64,249.76L315.17,252.54L315.7,249.12L316.23,249.95L316.76,248.79L317.81,249.27L318.34,247.85L318.87,248.13L319.4,246.01L319.92,247.53L320.45,246.61L323.62,242.62L324.15,242.99L324.68,243.03L325.2,241.24L326.26,240.72L326.79,239.47L335.23,232.13L335.76,231.56L338.4,228.96L338.93,228.56L348.43,219.59L348.96,219.04L427.63,145.3L428.15,144.8L509.99,68.12L510.51,67.63L543.25,37.22" style="vector-effect: non-scaling-stroke; fill: none; stroke: rgb(0, 154, 250); stroke-opacity: 1; stroke-width: 1px; opacity: 1;"/></g><g class="points"/><g class="text"/></g></g></g><g class="overplot"/><path class="xlines-above crisp" d="M85.9925634295713,420.9322506561679H646.0629921259842" style="fill: none; stroke-width: 1px; stroke: rgb(0, 0, 0); stroke-opacity: 1;"/><path class="ylines-above crisp" d="M86.4925634295713,63.83858267716535V420.4322506561679" style="fill: none; stroke-width: 1px; stroke: rgb(0, 0, 0); stroke-opacity: 1;"/><g class="overlines-above"/><g class="xaxislayer-above"><path class="xtick ticks crisp" d="M0,420.4322506561679v-5" transform="translate(102.8125634295713,0)" style="stroke: rgb(0, 0, 0); stroke-opacity: 1; stroke-width: 1px;"/><path class="xtick ticks crisp" d="M0,420.4322506561679v-5" transform="translate(212.6925634295713,0)" style="stroke: rgb(0, 0, 0); stroke-opacity: 1; stroke-width: 1px;"/><path class="xtick ticks crisp" d="M0,420.4322506561679v-5" transform="translate(322.57256342957135,0)" style="stroke: rgb(0, 0, 0); stroke-opacity: 1; stroke-width: 1px;"/><path class="xtick ticks crisp" d="M0,420.4322506561679v-5" transform="translate(432.4525634295713,0)" style="stroke: rgb(0, 0, 0); stroke-opacity: 1; stroke-width: 1px;"/><path class="xtick ticks crisp" d="M0,420.4322506561679v-5" transform="translate(542.3325634295713,0)" style="stroke: rgb(0, 0, 0); stroke-opacity: 1; stroke-width: 1px;"/><g class="xtick"><text text-anchor="middle" x="0" y="434.6322506561679" transform="translate(102.8125634295713,0)" style="font-family: sans-serif; font-size: 11px; fill: rgb(0, 0, 0); fill-opacity: 1; white-space: pre;">-15.0</text></g><g class="xtick"><text text-anchor="middle" x="0" y="434.6322506561679" transform="translate(212.6925634295713,0)" style="font-family: sans-serif; font-size: 11px; fill: rgb(0, 0, 0); fill-opacity: 1; white-space: pre;">-12.5</text></g><g class="xtick"><text text-anchor="middle" x="0" y="434.6322506561679" transform="translate(322.57256342957135,0)" style="font-family: sans-serif; font-size: 11px; fill: rgb(0, 0, 0); fill-opacity: 1; white-space: pre;">-10.0</text></g><g class="xtick"><text text-anchor="middle" x="0" y="434.6322506561679" transform="translate(432.4525634295713,0)" style="font-family: sans-serif; font-size: 11px; fill: rgb(0, 0, 0); fill-opacity: 1; white-space: pre;">-7.5</text></g><g class="xtick"><text text-anchor="middle" x="0" y="434.6322506561679" transform="translate(542.3325634295713,0)" style="font-family: sans-serif; font-size: 11px; fill: rgb(0, 0, 0); fill-opacity: 1; white-space: pre;">-5.0</text></g></g><g class="yaxislayer-above"><path class="ytick ticks crisp" d="M86.9925634295713,0h5" transform="translate(0,369.75858267716535)" style="stroke: rgb(0, 0, 0); stroke-opacity: 1; stroke-width: 1px;"/><path class="ytick ticks crisp" d="M86.9925634295713,0h5" transform="translate(0,287.32858267716534)" style="stroke: rgb(0, 0, 0); stroke-opacity: 1; stroke-width: 1px;"/><path class="ytick ticks crisp" d="M86.9925634295713,0h5" transform="translate(0,204.88858267716535)" style="stroke: rgb(0, 0, 0); stroke-opacity: 1; stroke-width: 1px;"/><path class="ytick ticks crisp" d="M86.9925634295713,0h5" transform="translate(0,122.44858267716535)" style="stroke: rgb(0, 0, 0); stroke-opacity: 1; stroke-width: 1px;"/><g class="ytick"><text text-anchor="end" x="83.7925634295713" y="3.8499999999999996" transform="translate(0,369.75858267716535)" style="font-family: sans-serif; font-size: 11px; fill: rgb(0, 0, 0); fill-opacity: 1; white-space: pre;">-8</text></g><g class="ytick"><text text-anchor="end" x="83.7925634295713" y="3.8499999999999996" transform="translate(0,287.32858267716534)" style="font-family: sans-serif; font-size: 11px; fill: rgb(0, 0, 0); fill-opacity: 1; white-space: pre;">-6</text></g><g class="ytick"><text text-anchor="end" x="83.7925634295713" y="3.8499999999999996" transform="translate(0,204.88858267716535)" style="font-family: sans-serif; font-size: 11px; fill: rgb(0, 0, 0); fill-opacity: 1; white-space: pre;">-4</text></g><g class="ytick"><text text-anchor="end" x="83.7925634295713" y="3.8499999999999996" transform="translate(0,122.44858267716535)" style="font-family: sans-serif; font-size: 11px; fill: rgb(0, 0, 0); fill-opacity: 1; white-space: pre;">-2</text></g></g><g class="overaxes-above"/></g></g><g class="polarlayer"/><g class="ternarylayer"/><g class="geolayer"/><g class="funnelarealayer"/><g class="pielayer"/><g class="treemaplayer"/><g class="sunburstlayer"/><g class="glimages"/><defs id="topdefs-613183"><g class="clips"/></defs><g class="layer-above"><g class="imagelayer"/><g class="shapelayer"/></g><g class="infolayer"><g class="g-gtitle"/><g class="g-xtitle"><text class="xtitle" x="366.52777777777777" y="462.140625" text-anchor="middle" style="font-family: sans-serif; font-size: 15px; fill: rgb(0, 0, 0); opacity: 1; font-weight: normal; white-space: pre;">log10(h)</text></g><g class="g-ytitle"><text class="ytitle" transform="rotate(-90,48.5,242.13541666666663)" x="48.5" y="242.13541666666663" text-anchor="middle" style="font-family: sans-serif; font-size: 15px; fill: rgb(0, 0, 0); opacity: 1; font-weight: normal; white-space: pre;">log10(|Error|)</text></g></g></svg>