<?xml version="1.0" encoding="utf-8"?>
<svg xmlns="http://www.w3.org/2000/svg" xmlns:xlink="http://www.w3.org/1999/xlink" width="600" height="400" viewBox="0 0 2400 1600">
<defs>
  <clipPath id="clip690">
    <rect x="0" y="0" width="2400" height="1600"/>
  </clipPath>
</defs>
<path clip-path="url(#clip690)" d="
M0 1600 L2400 1600 L2400 0 L0 0  Z
  " fill="#ffffff" fill-rule="evenodd" fill-opacity="1"/>
<defs>
  <clipPath id="clip691">
    <rect x="480" y="0" width="1681" height="1600"/>
  </clipPath>
</defs>
<path clip-path="url(#clip690)" d="
M102.74 1505.26 L2352.76 1505.26 L2352.76 47.2441 L102.74 47.2441  Z
  " fill="#ffffff" fill-rule="evenodd" fill-opacity="1"/>
<defs>
  <clipPath id="clip692">
    <rect x="102" y="47" width="2251" height="1459"/>
  </clipPath>
</defs>
<polyline clip-path="url(#clip692)" style="stroke:#000000; stroke-width:2; stroke-opacity:0.1; fill:none" points="
  166.42,1505.26 166.42,47.2441 
  "/>
<polyline clip-path="url(#clip692)" style="stroke:#000000; stroke-width:2; stroke-opacity:0.1; fill:none" points="
  608.64,1505.26 608.64,47.2441 
  "/>
<polyline clip-path="url(#clip692)" style="stroke:#000000; stroke-width:2; stroke-opacity:0.1; fill:none" points="
  1050.86,1505.26 1050.86,47.2441 
  "/>
<polyline clip-path="url(#clip692)" style="stroke:#000000; stroke-width:2; stroke-opacity:0.1; fill:none" points="
  1493.08,1505.26 1493.08,47.2441 
  "/>
<polyline clip-path="url(#clip692)" style="stroke:#000000; stroke-width:2; stroke-opacity:0.1; fill:none" points="
  1935.3,1505.26 1935.3,47.2441 
  "/>
<polyline clip-path="url(#clip690)" style="stroke:#000000; stroke-width:4; stroke-opacity:1; fill:none" points="
  102.74,1505.26 2352.76,1505.26 
  "/>
<polyline clip-path="url(#clip690)" style="stroke:#000000; stroke-width:4; stroke-opacity:1; fill:none" points="
  166.42,1505.26 166.42,1487.76 
  "/>
<polyline clip-path="url(#clip690)" style="stroke:#000000; stroke-width:4; stroke-opacity:1; fill:none" points="
  608.64,1505.26 608.64,1487.76 
  "/>
<polyline clip-path="url(#clip690)" style="stroke:#000000; stroke-width:4; stroke-opacity:1; fill:none" points="
  1050.86,1505.26 1050.86,1487.76 
  "/>
<polyline clip-path="url(#clip690)" style="stroke:#000000; stroke-width:4; stroke-opacity:1; fill:none" points="
  1493.08,1505.26 1493.08,1487.76 
  "/>
<polyline clip-path="url(#clip690)" style="stroke:#000000; stroke-width:4; stroke-opacity:1; fill:none" points="
  1935.3,1505.26 1935.3,1487.76 
  "/>
<path clip-path="url(#clip690)" d="M 0 0 M97.867 1549.1 L127.543 1549.1 L127.543 1553.04 L97.867 1553.04 L97.867 1549.1 Z" fill="#000000" fill-rule="evenodd" fill-opacity="1" /><path clip-path="url(#clip690)" d="M 0 0 M138.445 1562 L146.084 1562 L146.084 1535.63 L137.774 1537.3 L137.774 1533.04 L146.038 1531.37 L150.714 1531.37 L150.714 1562 L158.353 1562 L158.353 1565.93 L138.445 1565.93 L138.445 1562 Z" fill="#000000" fill-rule="evenodd" fill-opacity="1" /><path clip-path="url(#clip690)" d="M 0 0 M167.843 1531.37 L186.2 1531.37 L186.2 1535.31 L172.126 1535.31 L172.126 1543.78 Q173.144 1543.43 174.163 1543.27 Q175.181 1543.08 176.2 1543.08 Q181.987 1543.08 185.367 1546.26 Q188.746 1549.43 188.746 1554.84 Q188.746 1560.42 185.274 1563.52 Q181.802 1566.6 175.482 1566.6 Q173.306 1566.6 171.038 1566.23 Q168.793 1565.86 166.385 1565.12 L166.385 1560.42 Q168.468 1561.56 170.691 1562.11 Q172.913 1562.67 175.39 1562.67 Q179.394 1562.67 181.732 1560.56 Q184.07 1558.46 184.07 1554.84 Q184.07 1551.23 181.732 1549.13 Q179.394 1547.02 175.39 1547.02 Q173.515 1547.02 171.64 1547.44 Q169.788 1547.85 167.843 1548.73 L167.843 1531.37 Z" fill="#000000" fill-rule="evenodd" fill-opacity="1" /><path clip-path="url(#clip690)" d="M 0 0 M197.959 1560.05 L202.843 1560.05 L202.843 1565.93 L197.959 1565.93 L197.959 1560.05 Z" fill="#000000" fill-rule="evenodd" fill-opacity="1" /><path clip-path="url(#clip690)" d="M 0 0 M223.028 1534.45 Q219.417 1534.45 217.589 1538.02 Q215.783 1541.56 215.783 1548.69 Q215.783 1555.79 217.589 1559.36 Q219.417 1562.9 223.028 1562.9 Q226.663 1562.9 228.468 1559.36 Q230.297 1555.79 230.297 1548.69 Q230.297 1541.56 228.468 1538.02 Q226.663 1534.45 223.028 1534.45 M223.028 1530.75 Q228.838 1530.75 231.894 1535.35 Q234.973 1539.94 234.973 1548.69 Q234.973 1557.41 231.894 1562.02 Q228.838 1566.6 223.028 1566.6 Q217.218 1566.6 214.14 1562.02 Q211.084 1557.41 211.084 1548.69 Q211.084 1539.94 214.14 1535.35 Q217.218 1530.75 223.028 1530.75 Z" fill="#000000" fill-rule="evenodd" fill-opacity="1" /><path clip-path="url(#clip690)" d="M 0 0 M540.585 1549.1 L570.261 1549.1 L570.261 1553.04 L540.585 1553.04 L540.585 1549.1 Z" fill="#000000" fill-rule="evenodd" fill-opacity="1" /><path clip-path="url(#clip690)" d="M 0 0 M581.163 1562 L588.802 1562 L588.802 1535.63 L580.492 1537.3 L580.492 1533.04 L588.756 1531.37 L593.432 1531.37 L593.432 1562 L601.071 1562 L601.071 1565.93 L581.163 1565.93 L581.163 1562 Z" fill="#000000" fill-rule="evenodd" fill-opacity="1" /><path clip-path="url(#clip690)" d="M 0 0 M614.543 1562 L630.862 1562 L630.862 1565.93 L608.918 1565.93 L608.918 1562 Q611.58 1559.24 616.163 1554.61 Q620.769 1549.96 621.95 1548.62 Q624.195 1546.09 625.075 1544.36 Q625.978 1542.6 625.978 1540.91 Q625.978 1538.15 624.033 1536.42 Q622.112 1534.68 619.01 1534.68 Q616.811 1534.68 614.357 1535.45 Q611.927 1536.21 609.149 1537.76 L609.149 1533.04 Q611.973 1531.9 614.427 1531.33 Q616.881 1530.75 618.918 1530.75 Q624.288 1530.75 627.482 1533.43 Q630.677 1536.12 630.677 1540.61 Q630.677 1542.74 629.867 1544.66 Q629.08 1546.56 626.973 1549.15 Q626.394 1549.82 623.293 1553.04 Q620.191 1556.23 614.543 1562 Z" fill="#000000" fill-rule="evenodd" fill-opacity="1" /><path clip-path="url(#clip690)" d="M 0 0 M640.677 1560.05 L645.561 1560.05 L645.561 1565.93 L640.677 1565.93 L640.677 1560.05 Z" fill="#000000" fill-rule="evenodd" fill-opacity="1" /><path clip-path="url(#clip690)" d="M 0 0 M655.792 1531.37 L674.149 1531.37 L674.149 1535.31 L660.075 1535.31 L660.075 1543.78 Q661.093 1543.43 662.112 1543.27 Q663.13 1543.08 664.149 1543.08 Q669.936 1543.08 673.316 1546.26 Q676.695 1549.43 676.695 1554.84 Q676.695 1560.42 673.223 1563.52 Q669.751 1566.6 663.431 1566.6 Q661.255 1566.6 658.987 1566.23 Q656.742 1565.86 654.334 1565.12 L654.334 1560.42 Q656.417 1561.56 658.64 1562.11 Q660.862 1562.67 663.339 1562.67 Q667.343 1562.67 669.681 1560.56 Q672.019 1558.46 672.019 1554.84 Q672.019 1551.23 669.681 1549.13 Q667.343 1547.02 663.339 1547.02 Q661.464 1547.02 659.589 1547.44 Q657.737 1547.85 655.792 1548.73 L655.792 1531.37 Z" fill="#000000" fill-rule="evenodd" fill-opacity="1" /><path clip-path="url(#clip690)" d="M 0 0 M982.307 1549.1 L1011.98 1549.1 L1011.98 1553.04 L982.307 1553.04 L982.307 1549.1 Z" fill="#000000" fill-rule="evenodd" fill-opacity="1" /><path clip-path="url(#clip690)" d="M 0 0 M1022.89 1562 L1030.52 1562 L1030.52 1535.63 L1022.21 1537.3 L1022.21 1533.04 L1030.48 1531.37 L1035.15 1531.37 L1035.15 1562 L1042.79 1562 L1042.79 1565.93 L1022.89 1565.93 L1022.89 1562 Z" fill="#000000" fill-rule="evenodd" fill-opacity="1" /><path clip-path="url(#clip690)" d="M 0 0 M1062.24 1534.45 Q1058.63 1534.45 1056.8 1538.02 Q1054.99 1541.56 1054.99 1548.69 Q1054.99 1555.79 1056.8 1559.36 Q1058.63 1562.9 1062.24 1562.9 Q1065.87 1562.9 1067.68 1559.36 Q1069.51 1555.79 1069.51 1548.69 Q1069.51 1541.56 1067.68 1538.02 Q1065.87 1534.45 1062.24 1534.45 M1062.24 1530.75 Q1068.05 1530.75 1071.1 1535.35 Q1074.18 1539.94 1074.18 1548.69 Q1074.18 1557.41 1071.1 1562.02 Q1068.05 1566.6 1062.24 1566.6 Q1056.43 1566.6 1053.35 1562.02 Q1050.29 1557.41 1050.29 1548.69 Q1050.29 1539.94 1053.35 1535.35 Q1056.43 1530.75 1062.24 1530.75 Z" fill="#000000" fill-rule="evenodd" fill-opacity="1" /><path clip-path="url(#clip690)" d="M 0 0 M1082.4 1560.05 L1087.28 1560.05 L1087.28 1565.93 L1082.4 1565.93 L1082.4 1560.05 Z" fill="#000000" fill-rule="evenodd" fill-opacity="1" /><path clip-path="url(#clip690)" d="M 0 0 M1107.47 1534.45 Q1103.86 1534.45 1102.03 1538.02 Q1100.22 1541.56 1100.22 1548.69 Q1100.22 1555.79 1102.03 1559.36 Q1103.86 1562.9 1107.47 1562.9 Q1111.1 1562.9 1112.91 1559.36 Q1114.74 1555.79 1114.74 1548.69 Q1114.74 1541.56 1112.91 1538.02 Q1111.1 1534.45 1107.47 1534.45 M1107.47 1530.75 Q1113.28 1530.75 1116.33 1535.35 Q1119.41 1539.94 1119.41 1548.69 Q1119.41 1557.41 1116.33 1562.02 Q1113.28 1566.6 1107.47 1566.6 Q1101.66 1566.6 1098.58 1562.02 Q1095.52 1557.41 1095.52 1548.69 Q1095.52 1539.94 1098.58 1535.35 Q1101.66 1530.75 1107.47 1530.75 Z" fill="#000000" fill-rule="evenodd" fill-opacity="1" /><path clip-path="url(#clip690)" d="M 0 0 M1440.11 1549.1 L1469.78 1549.1 L1469.78 1553.04 L1440.11 1553.04 L1440.11 1549.1 Z" fill="#000000" fill-rule="evenodd" fill-opacity="1" /><path clip-path="url(#clip690)" d="M 0 0 M1478.69 1531.37 L1500.92 1531.37 L1500.92 1533.36 L1488.37 1565.93 L1483.49 1565.93 L1495.29 1535.31 L1478.69 1535.31 L1478.69 1531.37 Z" fill="#000000" fill-rule="evenodd" fill-opacity="1" /><path clip-path="url(#clip690)" d="M 0 0 M1510.04 1560.05 L1514.92 1560.05 L1514.92 1565.93 L1510.04 1565.93 L1510.04 1560.05 Z" fill="#000000" fill-rule="evenodd" fill-opacity="1" /><path clip-path="url(#clip690)" d="M 0 0 M1525.15 1531.37 L1543.51 1531.37 L1543.51 1535.31 L1529.43 1535.31 L1529.43 1543.78 Q1530.45 1543.43 1531.47 1543.27 Q1532.49 1543.08 1533.51 1543.08 Q1539.3 1543.08 1542.67 1546.26 Q1546.05 1549.43 1546.05 1554.84 Q1546.05 1560.42 1542.58 1563.52 Q1539.11 1566.6 1532.79 1566.6 Q1530.61 1566.6 1528.35 1566.23 Q1526.1 1565.86 1523.69 1565.12 L1523.69 1560.42 Q1525.78 1561.56 1528 1562.11 Q1530.22 1562.67 1532.7 1562.67 Q1536.7 1562.67 1539.04 1560.56 Q1541.38 1558.46 1541.38 1554.84 Q1541.38 1551.23 1539.04 1549.13 Q1536.7 1547.02 1532.7 1547.02 Q1530.82 1547.02 1528.95 1547.44 Q1527.1 1547.85 1525.15 1548.73 L1525.15 1531.37 Z" fill="#000000" fill-rule="evenodd" fill-opacity="1" /><path clip-path="url(#clip690)" d="M 0 0 M1881.83 1549.1 L1911.5 1549.1 L1911.5 1553.04 L1881.83 1553.04 L1881.83 1549.1 Z" fill="#000000" fill-rule="evenodd" fill-opacity="1" /><path clip-path="url(#clip690)" d="M 0 0 M1921.64 1531.37 L1940 1531.37 L1940 1535.31 L1925.93 1535.31 L1925.93 1543.78 Q1926.94 1543.43 1927.96 1543.27 Q1928.98 1543.08 1930 1543.08 Q1935.79 1543.08 1939.17 1546.26 Q1942.55 1549.43 1942.55 1554.84 Q1942.55 1560.42 1939.07 1563.52 Q1935.6 1566.6 1929.28 1566.6 Q1927.11 1566.6 1924.84 1566.23 Q1922.59 1565.86 1920.18 1565.12 L1920.18 1560.42 Q1922.27 1561.56 1924.49 1562.11 Q1926.71 1562.67 1929.19 1562.67 Q1933.19 1562.67 1935.53 1560.56 Q1937.87 1558.46 1937.87 1554.84 Q1937.87 1551.23 1935.53 1549.13 Q1933.19 1547.02 1929.19 1547.02 Q1927.31 1547.02 1925.44 1547.44 Q1923.59 1547.85 1921.64 1548.73 L1921.64 1531.37 Z" fill="#000000" fill-rule="evenodd" fill-opacity="1" /><path clip-path="url(#clip690)" d="M 0 0 M1951.76 1560.05 L1956.64 1560.05 L1956.64 1565.93 L1951.76 1565.93 L1951.76 1560.05 Z" fill="#000000" fill-rule="evenodd" fill-opacity="1" /><path clip-path="url(#clip690)" d="M 0 0 M1976.83 1534.45 Q1973.22 1534.45 1971.39 1538.02 Q1969.58 1541.56 1969.58 1548.69 Q1969.58 1555.79 1971.39 1559.36 Q1973.22 1562.9 1976.83 1562.9 Q1980.46 1562.9 1982.27 1559.36 Q1984.1 1555.79 1984.1 1548.69 Q1984.1 1541.56 1982.27 1538.02 Q1980.46 1534.45 1976.83 1534.45 M1976.83 1530.75 Q1982.64 1530.75 1985.69 1535.35 Q1988.77 1539.94 1988.77 1548.69 Q1988.77 1557.41 1985.69 1562.02 Q1982.64 1566.6 1976.83 1566.6 Q1971.02 1566.6 1967.94 1562.02 Q1964.88 1557.41 1964.88 1548.69 Q1964.88 1539.94 1967.94 1535.35 Q1971.02 1530.75 1976.83 1530.75 Z" fill="#000000" fill-rule="evenodd" fill-opacity="1" /><path clip-path="url(#clip690)" d="M 0 0 M1096.38 1600.6 L1102.23 1600.6 L1102.23 1650.12 L1096.38 1650.12 L1096.38 1600.6 Z" fill="#000000" fill-rule="evenodd" fill-opacity="1" /><path clip-path="url(#clip690)" d="M 0 0 M1128.3 1618.58 Q1123.59 1618.58 1120.85 1622.27 Q1118.11 1625.93 1118.11 1632.33 Q1118.11 1638.73 1120.82 1642.42 Q1123.56 1646.08 1128.3 1646.08 Q1132.98 1646.08 1135.72 1642.39 Q1138.45 1638.7 1138.45 1632.33 Q1138.45 1626 1135.72 1622.31 Q1132.98 1618.58 1128.3 1618.58 M1128.3 1613.62 Q1135.94 1613.62 1140.3 1618.58 Q1144.66 1623.55 1144.66 1632.33 Q1144.66 1641.08 1140.3 1646.08 Q1135.94 1651.05 1128.3 1651.05 Q1120.63 1651.05 1116.27 1646.08 Q1111.94 1641.08 1111.94 1632.33 Q1111.94 1623.55 1116.27 1618.58 Q1120.63 1613.62 1128.3 1613.62 Z" fill="#000000" fill-rule="evenodd" fill-opacity="1" /><path clip-path="url(#clip690)" d="M 0 0 M1177.82 1631.89 Q1177.82 1625.52 1175.18 1622.02 Q1172.57 1618.52 1167.83 1618.52 Q1163.12 1618.52 1160.48 1622.02 Q1157.87 1625.52 1157.87 1631.89 Q1157.87 1638.22 1160.48 1641.72 Q1163.12 1645.22 1167.83 1645.22 Q1172.57 1645.22 1175.18 1641.72 Q1177.82 1638.22 1177.82 1631.89 M1183.68 1645.7 Q1183.68 1654.8 1179.64 1659.23 Q1175.6 1663.68 1167.26 1663.68 Q1164.17 1663.68 1161.43 1663.21 Q1158.7 1662.76 1156.12 1661.8 L1156.12 1656.11 Q1158.7 1657.51 1161.21 1658.18 Q1163.72 1658.84 1166.33 1658.84 Q1172.1 1658.84 1174.96 1655.82 Q1177.82 1652.83 1177.82 1646.75 L1177.82 1643.85 Q1176.01 1647 1173.18 1648.56 Q1170.35 1650.12 1166.4 1650.12 Q1159.84 1650.12 1155.83 1645.13 Q1151.82 1640.13 1151.82 1631.89 Q1151.82 1623.61 1155.83 1618.61 Q1159.84 1613.62 1166.4 1613.62 Q1170.35 1613.62 1173.18 1615.18 Q1176.01 1616.74 1177.82 1619.89 L1177.82 1614.48 L1183.68 1614.48 L1183.68 1645.7 Z" fill="#000000" fill-rule="evenodd" fill-opacity="1" /><path clip-path="url(#clip690)" d="M 0 0 M1197.69 1644.71 L1208.19 1644.71 L1208.19 1608.46 L1196.76 1610.75 L1196.76 1604.9 L1208.13 1602.6 L1214.56 1602.6 L1214.56 1644.71 L1225.06 1644.71 L1225.06 1650.12 L1197.69 1650.12 L1197.69 1644.71 Z" fill="#000000" fill-rule="evenodd" fill-opacity="1" /><path clip-path="url(#clip690)" d="M 0 0 M1251.79 1606.84 Q1246.83 1606.84 1244.31 1611.74 Q1241.83 1616.61 1241.83 1626.41 Q1241.83 1636.18 1244.31 1641.08 Q1246.83 1645.95 1251.79 1645.95 Q1256.79 1645.95 1259.27 1641.08 Q1261.79 1636.18 1261.79 1626.41 Q1261.79 1616.61 1259.27 1611.74 Q1256.79 1606.84 1251.79 1606.84 M1251.79 1601.74 Q1259.78 1601.74 1263.98 1608.08 Q1268.22 1614.38 1268.22 1626.41 Q1268.22 1638.41 1263.98 1644.74 Q1259.78 1651.05 1251.79 1651.05 Q1243.81 1651.05 1239.57 1644.74 Q1235.37 1638.41 1235.37 1626.41 Q1235.37 1614.38 1239.57 1608.08 Q1243.81 1601.74 1251.79 1601.74 Z" fill="#000000" fill-rule="evenodd" fill-opacity="1" /><path clip-path="url(#clip690)" d="M 0 0 M1292.76 1600.66 Q1288.49 1607.98 1286.42 1615.14 Q1284.36 1622.31 1284.36 1629.66 Q1284.36 1637.01 1286.42 1644.24 Q1288.52 1651.43 1292.76 1658.72 L1287.67 1658.72 Q1282.89 1651.24 1280.5 1644.01 Q1278.15 1636.79 1278.15 1629.66 Q1278.15 1622.56 1280.5 1615.37 Q1282.86 1608.17 1287.67 1600.66 L1292.76 1600.66 Z" fill="#000000" fill-rule="evenodd" fill-opacity="1" /><path clip-path="url(#clip690)" d="M 0 0 M1333.75 1628.61 L1333.75 1650.12 L1327.9 1650.12 L1327.9 1628.8 Q1327.9 1623.74 1325.92 1621.22 Q1323.95 1618.71 1320 1618.71 Q1315.26 1618.71 1312.52 1621.73 Q1309.79 1624.76 1309.79 1629.98 L1309.79 1650.12 L1303.9 1650.12 L1303.9 1600.6 L1309.79 1600.6 L1309.79 1620.01 Q1311.89 1616.8 1314.72 1615.21 Q1317.58 1613.62 1321.31 1613.62 Q1327.45 1613.62 1330.6 1617.44 Q1333.75 1621.22 1333.75 1628.61 Z" fill="#000000" fill-rule="evenodd" fill-opacity="1" /><path clip-path="url(#clip690)" d="M 0 0 M1344.51 1600.66 L1349.6 1600.66 Q1354.38 1608.17 1356.73 1615.37 Q1359.12 1622.56 1359.12 1629.66 Q1359.12 1636.79 1356.73 1644.01 Q1354.38 1651.24 1349.6 1658.72 L1344.51 1658.72 Q1348.74 1651.43 1350.81 1644.24 Q1352.91 1637.01 1352.91 1629.66 Q1352.91 1622.31 1350.81 1615.14 Q1348.74 1607.98 1344.51 1600.66 Z" fill="#000000" fill-rule="evenodd" fill-opacity="1" /><polyline clip-path="url(#clip692)" style="stroke:#000000; stroke-width:2; stroke-opacity:0.1; fill:none" points="
  102.74,1298.08 2352.76,1298.08 
  "/>
<polyline clip-path="url(#clip692)" style="stroke:#000000; stroke-width:2; stroke-opacity:0.1; fill:none" points="
  102.74,961.018 2352.76,961.018 
  "/>
<polyline clip-path="url(#clip692)" style="stroke:#000000; stroke-width:2; stroke-opacity:0.1; fill:none" points="
  102.74,623.958 2352.76,623.958 
  "/>
<polyline clip-path="url(#clip692)" style="stroke:#000000; stroke-width:2; stroke-opacity:0.1; fill:none" points="
  102.74,286.898 2352.76,286.898 
  "/>
<polyline clip-path="url(#clip690)" style="stroke:#000000; stroke-width:4; stroke-opacity:1; fill:none" points="
  102.74,1505.26 102.74,47.2441 
  "/>
<polyline clip-path="url(#clip690)" style="stroke:#000000; stroke-width:4; stroke-opacity:1; fill:none" points="
  102.74,1298.08 129.74,1298.08 
  "/>
<polyline clip-path="url(#clip690)" style="stroke:#000000; stroke-width:4; stroke-opacity:1; fill:none" points="
  102.74,961.018 129.74,961.018 
  "/>
<polyline clip-path="url(#clip690)" style="stroke:#000000; stroke-width:4; stroke-opacity:1; fill:none" points="
  102.74,623.958 129.74,623.958 
  "/>
<polyline clip-path="url(#clip690)" style="stroke:#000000; stroke-width:4; stroke-opacity:1; fill:none" points="
  102.74,286.898 129.74,286.898 
  "/>
<path clip-path="url(#clip690)" d="M 0 0 M5.12012 1298.53 L34.7959 1298.53 L34.7959 1302.46 L5.12012 1302.46 L5.12012 1298.53 Z" fill="#000000" fill-rule="evenodd" fill-opacity="1" /><path clip-path="url(#clip690)" d="M 0 0 M54.8884 1298.95 Q51.5551 1298.95 49.6338 1300.73 Q47.7356 1302.51 47.7356 1305.64 Q47.7356 1308.76 49.6338 1310.54 Q51.5551 1312.32 54.8884 1312.32 Q58.2217 1312.32 60.143 1310.54 Q62.0643 1308.74 62.0643 1305.64 Q62.0643 1302.51 60.143 1300.73 Q58.2448 1298.95 54.8884 1298.95 M50.2125 1296.95 Q47.2032 1296.21 45.5134 1294.15 Q43.8468 1292.09 43.8468 1289.13 Q43.8468 1284.99 46.7866 1282.58 Q49.7495 1280.17 54.8884 1280.17 Q60.0504 1280.17 62.9902 1282.58 Q65.93 1284.99 65.93 1289.13 Q65.93 1292.09 64.2402 1294.15 Q62.5735 1296.21 59.5874 1296.95 Q62.967 1297.74 64.842 1300.03 Q66.7402 1302.32 66.7402 1305.64 Q66.7402 1310.66 63.6615 1313.34 Q60.6059 1316.03 54.8884 1316.03 Q49.1708 1316.03 46.0921 1313.34 Q43.0366 1310.66 43.0366 1305.64 Q43.0366 1302.32 44.9347 1300.03 Q46.8329 1297.74 50.2125 1296.95 M48.4995 1289.57 Q48.4995 1292.26 50.1662 1293.76 Q51.856 1295.26 54.8884 1295.26 Q57.8976 1295.26 59.5874 1293.76 Q61.3004 1292.26 61.3004 1289.57 Q61.3004 1286.89 59.5874 1285.38 Q57.8976 1283.88 54.8884 1283.88 Q51.856 1283.88 50.1662 1285.38 Q48.4995 1286.89 48.4995 1289.57 Z" fill="#000000" fill-rule="evenodd" fill-opacity="1" /><path clip-path="url(#clip690)" d="M 0 0 M4.86549 961.469 L34.5413 961.469 L34.5413 965.404 L4.86549 965.404 L4.86549 961.469 Z" fill="#000000" fill-rule="evenodd" fill-opacity="1" /><path clip-path="url(#clip690)" d="M 0 0 M55.2124 959.154 Q52.0643 959.154 50.2125 961.307 Q48.3838 963.46 48.3838 967.21 Q48.3838 970.937 50.2125 973.112 Q52.0643 975.265 55.2124 975.265 Q58.3606 975.265 60.1893 973.112 Q62.0411 970.937 62.0411 967.21 Q62.0411 963.46 60.1893 961.307 Q58.3606 959.154 55.2124 959.154 M64.4948 944.501 L64.4948 948.761 Q62.7355 947.927 60.93 947.488 Q59.1476 947.048 57.3884 947.048 Q52.7588 947.048 50.3051 950.173 Q47.8745 953.298 47.5273 959.617 Q48.893 957.603 50.9532 956.538 Q53.0134 955.45 55.4902 955.45 Q60.6985 955.45 63.7078 958.622 Q66.7402 961.77 66.7402 967.21 Q66.7402 972.534 63.592 975.751 Q60.4439 978.969 55.2124 978.969 Q49.2171 978.969 46.0458 974.386 Q42.8745 969.779 42.8745 961.052 Q42.8745 952.858 46.7634 947.997 Q50.6523 943.113 57.2032 943.113 Q58.9624 943.113 60.7448 943.46 Q62.5504 943.807 64.4948 944.501 Z" fill="#000000" fill-rule="evenodd" fill-opacity="1" /><path clip-path="url(#clip690)" d="M 0 0 M4.54142 624.409 L34.2172 624.409 L34.2172 628.344 L4.54142 628.344 L4.54142 624.409 Z" fill="#000000" fill-rule="evenodd" fill-opacity="1" /><path clip-path="url(#clip690)" d="M 0 0 M57.1569 610.752 L45.3514 629.201 L57.1569 629.201 L57.1569 610.752 M55.93 606.678 L61.8096 606.678 L61.8096 629.201 L66.7402 629.201 L66.7402 633.09 L61.8096 633.09 L61.8096 641.238 L57.1569 641.238 L57.1569 633.09 L41.5551 633.09 L41.5551 628.576 L55.93 606.678 Z" fill="#000000" fill-rule="evenodd" fill-opacity="1" /><path clip-path="url(#clip690)" d="M 0 0 M6.62474 287.35 L36.3005 287.35 L36.3005 291.285 L6.62474 291.285 L6.62474 287.35 Z" fill="#000000" fill-rule="evenodd" fill-opacity="1" /><path clip-path="url(#clip690)" d="M 0 0 M50.4208 300.243 L66.7402 300.243 L66.7402 304.178 L44.7958 304.178 L44.7958 300.243 Q47.4579 297.488 52.0412 292.859 Q56.6476 288.206 57.8282 286.863 Q60.0735 284.34 60.9532 282.604 Q61.8559 280.845 61.8559 279.155 Q61.8559 276.401 59.9115 274.664 Q57.9902 272.928 54.8884 272.928 Q52.6893 272.928 50.2356 273.692 Q47.8051 274.456 45.0273 276.007 L45.0273 271.285 Q47.8514 270.151 50.3051 269.572 Q52.7588 268.993 54.7958 268.993 Q60.1661 268.993 63.3605 271.678 Q66.555 274.364 66.555 278.854 Q66.555 280.984 65.7448 282.905 Q64.9578 284.803 62.8513 287.396 Q62.2726 288.067 59.1708 291.285 Q56.0689 294.479 50.4208 300.243 Z" fill="#000000" fill-rule="evenodd" fill-opacity="1" /><path clip-path="url(#clip690)" d="M 0 0 M-95.2398 988.373 L-95.2398 982.517 L-45.7146 982.517 L-45.7146 988.373 L-95.2398 988.373 Z" fill="#000000" fill-rule="evenodd" fill-opacity="1" /><path clip-path="url(#clip690)" d="M 0 0 M-77.2567 956.449 Q-77.2567 961.16 -73.5645 963.897 Q-69.9043 966.634 -63.5067 966.634 Q-57.1092 966.634 -53.4171 963.929 Q-49.7568 961.192 -49.7568 956.449 Q-49.7568 951.77 -53.4489 949.033 Q-57.141 946.296 -63.5067 946.296 Q-69.8406 946.296 -73.5327 949.033 Q-77.2567 951.77 -77.2567 956.449 M-82.2219 956.449 Q-82.2219 948.81 -77.2567 944.45 Q-72.2914 940.089 -63.5067 940.089 Q-54.7539 940.089 -49.7568 944.45 Q-44.7916 948.81 -44.7916 956.449 Q-44.7916 964.12 -49.7568 968.48 Q-54.7539 972.809 -63.5067 972.809 Q-72.2914 972.809 -77.2567 968.48 Q-82.2219 964.12 -82.2219 956.449 Z" fill="#000000" fill-rule="evenodd" fill-opacity="1" /><path clip-path="url(#clip690)" d="M 0 0 M-63.9523 906.924 Q-70.318 906.924 -73.8192 909.566 Q-77.3203 912.176 -77.3203 916.918 Q-77.3203 921.629 -73.8192 924.271 Q-70.318 926.881 -63.9523 926.881 Q-57.6185 926.881 -54.1173 924.271 Q-50.6162 921.629 -50.6162 916.918 Q-50.6162 912.176 -54.1173 909.566 Q-57.6185 906.924 -63.9523 906.924 M-50.1387 901.068 Q-41.0358 901.068 -36.6116 905.11 Q-32.1556 909.152 -32.1556 917.491 Q-32.1556 920.578 -32.6331 923.316 Q-33.0787 926.053 -34.0335 928.631 L-39.7308 928.631 Q-38.3304 926.053 -37.662 923.539 Q-36.9936 921.024 -36.9936 918.414 Q-36.9936 912.653 -40.0173 909.789 Q-43.0092 906.924 -49.0884 906.924 L-51.9848 906.924 Q-48.8338 908.738 -47.2742 911.571 Q-45.7146 914.404 -45.7146 918.35 Q-45.7146 924.907 -50.7117 928.918 Q-55.7087 932.928 -63.9523 932.928 Q-72.2278 932.928 -77.2248 928.918 Q-82.2219 924.907 -82.2219 918.35 Q-82.2219 914.404 -80.6623 911.571 Q-79.1027 908.738 -75.9517 906.924 L-81.3625 906.924 L-81.3625 901.068 L-50.1387 901.068 Z" fill="#000000" fill-rule="evenodd" fill-opacity="1" /><path clip-path="url(#clip690)" d="M 0 0 M-51.1254 887.063 L-51.1254 876.56 L-87.3781 876.56 L-85.0865 887.986 L-90.9429 887.986 L-93.2346 876.623 L-93.2346 870.194 L-51.1254 870.194 L-51.1254 859.69 L-45.7146 859.69 L-45.7146 887.063 L-51.1254 887.063 Z" fill="#000000" fill-rule="evenodd" fill-opacity="1" /><path clip-path="url(#clip690)" d="M 0 0 M-89.0014 832.955 Q-89.0014 837.92 -84.0998 840.434 Q-79.23 842.917 -69.4268 842.917 Q-59.6555 842.917 -54.7539 840.434 Q-49.8841 837.92 -49.8841 832.955 Q-49.8841 827.957 -54.7539 825.475 Q-59.6555 822.96 -69.4268 822.96 Q-79.23 822.96 -84.0998 825.475 Q-89.0014 827.957 -89.0014 832.955 M-94.094 832.955 Q-94.094 824.966 -87.7601 820.764 Q-81.458 816.531 -69.4268 816.531 Q-57.4275 816.531 -51.0936 820.764 Q-44.7916 824.966 -44.7916 832.955 Q-44.7916 840.943 -51.0936 845.177 Q-57.4275 849.378 -69.4268 849.378 Q-81.458 849.378 -87.7601 845.177 Q-94.094 840.943 -94.094 832.955 Z" fill="#000000" fill-rule="evenodd" fill-opacity="1" /><path clip-path="url(#clip690)" d="M 0 0 M-95.1761 791.991 Q-87.8556 796.256 -80.6941 798.325 Q-73.5327 800.394 -66.1803 800.394 Q-58.8279 800.394 -51.6029 798.325 Q-44.4096 796.224 -37.1209 791.991 L-37.1209 797.084 Q-44.6006 801.858 -51.8257 804.245 Q-59.0507 806.6 -66.1803 806.6 Q-73.2781 806.6 -80.4713 804.245 Q-87.6646 801.89 -95.1761 797.084 L-95.1761 791.991 Z" fill="#000000" fill-rule="evenodd" fill-opacity="1" /><path clip-path="url(#clip690)" d="M 0 0 M-95.5262 773.085 L-30.3414 773.085 L-30.3414 778.496 L-95.5262 778.496 L-95.5262 773.085 Z" fill="#000000" fill-rule="evenodd" fill-opacity="1" /><path clip-path="url(#clip690)" d="M 0 0 M-93.2346 758.412 L-93.2346 728.366 L-87.8237 728.366 L-87.8237 751.983 L-73.7555 751.983 L-73.7555 729.353 L-68.3447 729.353 L-68.3447 751.983 L-51.1254 751.983 L-51.1254 727.793 L-45.7146 727.793 L-45.7146 758.412 L-93.2346 758.412 Z" fill="#000000" fill-rule="evenodd" fill-opacity="1" /><path clip-path="url(#clip690)" d="M 0 0 M-75.888 696.824 Q-76.4609 697.811 -76.7156 698.988 Q-77.002 700.134 -77.002 701.534 Q-77.002 706.5 -73.7555 709.173 Q-70.5408 711.815 -64.4934 711.815 L-45.7146 711.815 L-45.7146 717.703 L-81.3625 717.703 L-81.3625 711.815 L-75.8244 711.815 Q-79.0709 709.969 -80.6305 707.009 Q-82.2219 704.049 -82.2219 699.816 Q-82.2219 699.211 -82.1264 698.479 Q-82.0628 697.747 -81.9036 696.856 L-75.888 696.824 Z" fill="#000000" fill-rule="evenodd" fill-opacity="1" /><path clip-path="url(#clip690)" d="M 0 0 M-75.888 671.17 Q-76.4609 672.157 -76.7156 673.334 Q-77.002 674.48 -77.002 675.881 Q-77.002 680.846 -73.7555 683.52 Q-70.5408 686.161 -64.4934 686.161 L-45.7146 686.161 L-45.7146 692.05 L-81.3625 692.05 L-81.3625 686.161 L-75.8244 686.161 Q-79.0709 684.315 -80.6305 681.355 Q-82.2219 678.395 -82.2219 674.162 Q-82.2219 673.557 -82.1264 672.825 Q-82.0628 672.093 -81.9036 671.202 L-75.888 671.17 Z" fill="#000000" fill-rule="evenodd" fill-opacity="1" /><path clip-path="url(#clip690)" d="M 0 0 M-77.2567 652.646 Q-77.2567 657.356 -73.5645 660.094 Q-69.9043 662.831 -63.5067 662.831 Q-57.1092 662.831 -53.4171 660.126 Q-49.7568 657.388 -49.7568 652.646 Q-49.7568 647.967 -53.4489 645.23 Q-57.141 642.493 -63.5067 642.493 Q-69.8406 642.493 -73.5327 645.23 Q-77.2567 647.967 -77.2567 652.646 M-82.2219 652.646 Q-82.2219 645.007 -77.2567 640.647 Q-72.2914 636.286 -63.5067 636.286 Q-54.7539 636.286 -49.7568 640.647 Q-44.7916 645.007 -44.7916 652.646 Q-44.7916 660.317 -49.7568 664.677 Q-54.7539 669.006 -63.5067 669.006 Q-72.2914 669.006 -77.2567 664.677 Q-82.2219 660.317 -82.2219 652.646 Z" fill="#000000" fill-rule="evenodd" fill-opacity="1" /><path clip-path="url(#clip690)" d="M 0 0 M-75.888 605.922 Q-76.4609 606.908 -76.7156 608.086 Q-77.002 609.232 -77.002 610.632 Q-77.002 615.597 -73.7555 618.271 Q-70.5408 620.913 -64.4934 620.913 L-45.7146 620.913 L-45.7146 626.801 L-81.3625 626.801 L-81.3625 620.913 L-75.8244 620.913 Q-79.0709 619.067 -80.6305 616.107 Q-82.2219 613.147 -82.2219 608.913 Q-82.2219 608.309 -82.1264 607.577 Q-82.0628 606.845 -81.9036 605.953 L-75.888 605.922 Z" fill="#000000" fill-rule="evenodd" fill-opacity="1" /><path clip-path="url(#clip690)" d="M 0 0 M-95.5262 592.235 L-30.3414 592.235 L-30.3414 597.646 L-95.5262 597.646 L-95.5262 592.235 Z" fill="#000000" fill-rule="evenodd" fill-opacity="1" /><path clip-path="url(#clip690)" d="M 0 0 M-95.1761 578.74 L-95.1761 573.647 Q-87.6646 568.873 -80.4713 566.518 Q-73.2781 564.131 -66.1803 564.131 Q-59.0507 564.131 -51.8257 566.518 Q-44.6006 568.873 -37.1209 573.647 L-37.1209 578.74 Q-44.4096 574.507 -51.6029 572.438 Q-58.8279 570.337 -66.1803 570.337 Q-73.5327 570.337 -80.6941 572.438 Q-87.8556 574.507 -95.1761 578.74 Z" fill="#000000" fill-rule="evenodd" fill-opacity="1" /><polyline clip-path="url(#clip692)" style="stroke:#009af9; stroke-width:4; stroke-opacity:1; fill:none" points="
  166.42,141.122 168.545,116.48 170.669,201.785 172.794,211.259 174.919,143.552 177.044,103.272 179.169,88.5087 181.293,192.793 183.418,135.94 185.543,233.009 
  187.668,110.566 189.792,251.33 191.917,115.636 194.042,519.057 196.167,233.367 198.292,152.87 200.416,300.478 202.541,159.781 204.666,224.762 206.791,308.088 
  208.915,120.915 211.04,155.501 213.165,357.493 215.29,265.345 217.415,196.924 219.539,386.824 221.664,319.459 223.789,248.929 225.914,198.707 228.039,161.119 
  230.163,153.817 232.288,175.07 234.413,247.011 236.538,367.885 238.662,143.748 240.787,231.694 242.912,155.163 245.037,170.828 247.162,254.045 249.286,265.986 
  251.411,200.849 253.536,280.354 255.661,201.52 257.785,219.644 259.91,305.586 262.035,172.228 264.16,421.272 266.285,170.446 268.409,209.751 270.534,342.389 
  272.659,269.473 274.784,227.968 276.908,421.84 279.033,332.541 281.158,211.164 283.283,235.988 285.408,345.841 287.532,264.919 289.657,358.437 291.782,272.662 
  293.907,190.395 296.031,261.209 298.156,263.924 300.281,276.674 302.406,568.504 304.531,177.138 306.655,266.373 308.78,508.194 310.905,242.566 313.03,317.985 
  315.155,480.451 317.279,260.635 319.404,361.328 321.529,306.905 323.654,366.229 325.778,262.234 327.903,358.983 330.028,312.36 332.153,287.809 334.278,268.004 
  336.402,248.133 338.527,237.188 340.652,415.727 342.777,325.681 344.901,373.142 347.026,452.556 349.151,318.003 351.276,317.987 353.401,310 355.525,245.169 
  357.65,317.296 359.775,309.572 361.9,312.828 364.024,446.59 366.149,312.301 368.274,283.167 370.399,340.52 372.524,353.375 374.648,364.788 376.773,286.225 
  378.898,340.22 381.023,430.869 383.148,308.693 385.272,312.913 387.397,331.924 389.522,309.344 391.647,505.614 393.771,543.652 395.896,352.991 398.021,322.127 
  400.146,417.048 402.271,420.584 404.395,414.665 406.52,316.164 408.645,625.495 410.77,416.04 412.894,449.924 415.019,355.497 417.144,381.873 419.269,349.961 
  421.394,417.435 423.518,346.523 425.643,331.665 427.768,481.898 429.893,402.621 432.017,462.133 434.142,370.941 436.267,400.331 438.392,373.92 440.517,379.235 
  442.641,561.595 444.766,430.582 446.891,365.558 449.016,429.056 451.141,410.185 453.265,376.497 455.39,497.599 457.515,410.99 459.64,753.225 461.764,545.324 
  463.889,472.969 466.014,483.647 468.139,524.252 470.264,435.441 472.388,416.384 474.513,468.948 476.638,449.346 478.763,485.878 480.887,572.671 483.012,374.328 
  485.137,402.34 487.262,410.747 489.387,483.221 491.511,480.789 493.636,598.542 495.761,413.427 497.886,537.867 500.01,423.409 502.135,561.307 504.26,520.965 
  506.385,449.903 508.51,426.96 510.634,451.679 512.759,408.657 514.884,447.866 517.009,434.828 519.134,424.716 521.258,559.739 523.383,445.323 525.508,598.483 
  527.633,451.571 529.757,435.591 531.882,548.215 534.007,439.194 536.132,465.584 538.257,488.143 540.381,436.407 542.506,483.961 544.631,904.358 546.756,496.802 
  548.88,629.524 551.005,536.55 553.13,521.193 555.255,459.845 557.38,554.153 559.504,509.599 561.629,469.997 563.754,734.94 565.879,605.473 568.003,511.69 
  570.128,466.334 572.253,576.72 574.378,574.101 576.503,521.023 578.627,666.824 580.752,514.225 582.877,579.005 585.002,508.576 587.127,488.296 589.251,540.588 
  591.376,526.79 593.501,533.511 595.626,566.641 597.75,509.564 599.875,538.964 602,587.665 604.125,608.096 606.25,527.437 608.374,752.642 610.499,517.278 
  612.624,623.458 614.749,596.288 616.873,533.347 618.998,637.162 621.123,590.415 623.248,549.389 625.373,678.526 627.497,658.694 629.622,803.173 631.747,588.729 
  633.872,804.836 635.996,578.955 638.121,657.626 640.246,585.975 642.371,612.118 644.496,622.418 646.62,574.722 648.745,669.826 650.87,639.951 652.995,559.108 
  655.12,656.463 657.244,618.302 659.369,873.316 661.494,702.237 663.619,564.12 665.743,772.908 667.868,642.434 669.993,717.873 672.118,697.686 674.243,599.101 
  676.367,654.563 678.492,575.981 680.617,542.188 682.742,1057.52 684.866,761.835 686.991,654.581 689.116,724.542 691.241,635.79 693.366,648.543 695.49,612.006 
  697.615,629.193 699.74,744.278 701.865,597.47 703.989,570.043 706.114,631.849 708.239,695.95 710.364,669.596 712.489,654.404 714.613,667.101 716.738,684.902 
  718.863,765.843 720.988,706.36 723.113,718.392 725.237,715.43 727.362,630.566 729.487,756.608 731.612,647.891 733.736,594.688 735.861,624.551 737.986,728.092 
  740.111,692.628 742.236,618.537 744.36,788.321 746.485,714.668 748.61,925.241 750.735,763.571 752.859,909.497 754.984,669.352 757.109,651.61 759.234,762.883 
  761.359,698.866 763.483,721.356 765.608,749.596 767.733,700.795 769.858,852.534 771.982,679.984 774.107,748.51 776.232,750.77 778.357,782.837 780.482,652.438 
  782.606,672.592 784.731,642.016 786.856,754.997 788.981,666.564 791.106,822.63 793.23,826.985 795.355,761.921 797.48,798.431 799.605,687.336 801.729,748.86 
  803.854,741.155 805.979,696.33 808.104,797.65 810.229,795.038 812.353,885.04 814.478,699.335 816.603,879.463 818.728,712.997 820.852,763.555 822.977,720.284 
  825.102,749.882 827.227,772.665 829.352,750.178 831.476,707.497 833.601,837.73 835.726,825.298 837.851,832.556 839.975,728.426 842.1,735.993 844.225,850.411 
  846.35,763.874 848.475,771.538 850.599,753.204 852.724,764.039 854.849,730.762 856.974,903.925 859.099,882.663 861.223,823.723 863.348,837.775 865.473,752.179 
  867.598,806.523 869.722,826.583 871.847,856.253 873.972,1033.75 876.097,802.466 878.222,966.162 880.346,751.582 882.471,796.133 884.596,1019.66 886.721,828.3 
  888.845,903.48 890.97,810.979 893.095,861.472 895.22,816.826 897.345,810.896 899.469,840.694 901.594,804.198 903.719,924.107 905.844,929.55 907.968,944.295 
  910.093,831.058 912.218,796.558 914.343,821.339 916.468,852.755 918.592,910.427 920.717,781.978 922.842,817.89 924.967,817.016 927.091,866.245 929.216,1052.1 
  931.341,1004.8 933.466,848.7 935.591,808.498 937.715,795.17 939.84,895.934 941.965,1095.91 944.09,856.029 946.215,987.441 948.339,988.847 950.464,935.931 
  952.589,821.173 954.714,1001.14 956.838,855.253 958.963,877.695 961.088,1008.46 963.213,862.599 965.338,931.639 967.462,816.276 969.587,938.804 971.712,841.802 
  973.837,1034.21 975.961,961.044 978.086,1246.8 980.211,858.103 982.336,936.097 984.461,889.942 986.585,877.482 988.71,945.293 990.835,1007.03 992.96,963.715 
  995.084,996.015 997.209,1000.55 999.334,935.797 1001.46,880.805 1003.58,1046.66 1005.71,967.847 1007.83,996.545 1009.96,928.454 1012.08,967.007 1014.21,866.278 
  1016.33,963.819 1018.46,907.356 1020.58,922.291 1022.71,922.109 1024.83,943.598 1026.96,912.102 1029.08,1042.74 1031.21,965.71 1033.33,972.297 1035.46,1023.12 
  1037.58,910.233 1039.7,941.488 1041.83,1217.94 1043.95,1223.5 1046.08,1016.06 1048.2,1052.52 1050.33,1067.26 1052.45,952.524 1054.58,1068.16 1056.7,970.557 
  1058.83,1052.39 1060.95,931.922 1063.08,950.248 1065.2,971.956 1067.33,1044.69 1069.45,996.203 1071.58,939.241 1073.7,1103.56 1075.83,1014.93 1077.95,991.357 
  1080.08,955.914 1082.2,1029.84 1084.33,1054.12 1086.45,1076.09 1088.57,1025.55 1090.7,935.085 1092.82,1033.12 1094.95,1061.02 1097.07,1029.33 1099.2,1112.11 
  1101.32,1228.91 1103.45,969.905 1105.57,998.326 1107.7,1049.13 1109.82,1032.32 1111.95,999.803 1114.07,1120.83 1116.2,1060.83 1118.32,998.157 1120.45,1088.07 
  1122.57,1097.39 1124.7,1163.02 1126.82,1034.63 1128.95,1056.63 1131.07,1031.93 1133.2,1091.67 1135.32,1047.69 1137.44,973.905 1139.57,1421.69 1141.69,1003.05 
  1143.82,1142.96 1145.94,1187.92 1148.07,1236.53 1150.19,1016.67 1152.32,1053.67 1154.44,1072.88 1156.57,1092.87 1158.69,1078.79 1160.82,1351.01 1162.94,1187.93 
  1165.07,1065.04 1167.19,1117.88 1169.32,1145.69 1171.44,1073.37 1173.57,1087.66 1175.69,1103.46 1177.82,1091.16 1179.94,1058.13 1182.07,1079.02 1184.19,1039.53 
  1186.31,1067.22 1188.44,1159.98 1190.56,1174.39 1192.69,1234.3 1194.81,1093.29 1196.94,1192.3 1199.06,1113.22 1201.19,1277.5 1203.31,1156.92 1205.44,1206.99 
  1207.56,1124.1 1209.69,1246.36 1211.81,1228.74 1213.94,1117.39 1216.06,1177.36 1218.19,1169.75 1220.31,1097.62 1222.44,1206.32 1224.56,1351.84 1226.69,1408.44 
  1228.81,1130.34 1230.94,1143.19 1233.06,1172.6 1235.18,1264.99 1237.31,1162.99 1239.43,1162.66 1241.56,1464 1243.68,1113.45 1245.81,1282.51 1247.93,1144.23 
  1250.06,1126.73 1252.18,1157.17 1254.31,1090.56 1256.43,1125.56 1258.56,1244.06 1260.68,1203.22 1262.81,1175.3 1264.93,1190.22 1267.06,1140.74 1269.18,1284.7 
  1271.31,1157.5 1273.43,1135.54 1275.56,1191.65 1277.68,1191.1 1279.81,1168.42 1281.93,1448.07 1284.05,1173.64 1286.18,1240.86 1288.3,1153.95 1290.43,1164.75 
  1292.55,1089.92 1294.68,1234.08 1296.8,1121.22 1298.93,1174.59 1301.05,1122.48 1303.18,1110.84 1305.3,1120.63 1307.43,1116.79 1309.55,1107.7 1311.68,1117.85 
  1313.8,1147.6 1315.93,1146.04 1318.05,1103.09 1320.18,1129.17 1322.3,1120.49 1324.43,1142.2 1326.55,1150.51 1328.68,1151.31 1330.8,1118.83 1332.92,1123.85 
  1335.05,1086.05 1337.17,1109.08 1339.3,1112.51 1341.42,1091.36 1343.55,1129.99 1345.67,1094.54 1347.8,1081.97 1349.92,1085.04 1352.05,1116.4 1354.17,1097.21 
  1356.3,1082.49 1358.42,1083.44 1360.55,1078.83 1362.67,1090.87 1364.8,1078.9 1366.92,1067.97 1369.05,1068.43 1371.17,1079.8 1373.3,1065.81 1375.42,1069.21 
  1377.55,1064.48 1379.67,1066.86 1381.79,1066.45 1383.92,1060.65 1386.04,1061.79 1388.17,1053.12 1390.29,1059.32 1392.42,1055.56 1394.54,1052.56 1396.67,1050.3 
  1398.79,1047.67 1400.92,1043.47 1403.04,1044.25 1405.17,1039.25 1407.29,1040.77 1409.42,1040.91 1411.54,1033.61 1413.67,1032.24 1415.79,1031.48 1417.92,1026.39 
  1420.04,1024.68 1422.17,1022.05 1424.29,1021.6 1426.42,1020.39 1428.54,1018.33 1430.66,1014.93 1432.79,1014.92 1434.91,1013.52 1437.04,1008.98 1439.16,1008.23 
  1441.29,1004.87 1443.41,1004.52 1445.54,1003.06 1447.66,1000.98 1449.79,997.924 1451.91,996.357 1454.04,994.047 1456.16,991.084 1458.29,990.062 1460.41,986.946 
  1462.54,985.445 1464.66,983.398 1466.79,981.751 1468.91,979.932 1471.04,978.065 1473.16,975.619 1475.29,973.493 1477.41,971.749 1479.53,969.197 1481.66,967.032 
  1483.78,965.62 1485.91,963.539 1488.03,961.363 1490.16,959.225 1492.28,957.439 1494.41,954.86 1496.53,953.089 1498.66,951.161 1500.78,948.981 1502.91,947.087 
  1505.03,945.081 1507.16,942.849 1509.28,940.833 1511.41,938.698 1513.53,936.927 1515.66,934.918 1517.78,932.882 1519.91,930.844 1522.03,928.781 1524.16,926.742 
  1526.28,924.785 1528.4,922.621 1530.53,920.84 1532.65,918.732 1534.78,916.504 1536.9,914.705 1539.03,912.599 1541.15,910.522 1543.28,908.536 1545.4,906.473 
  1547.53,904.383 1549.65,902.541 1551.78,900.452 1553.9,898.492 1556.03,896.427 1558.15,894.339 1560.28,892.281 1562.4,890.325 1564.53,888.349 1566.65,886.267 
  1568.78,884.21 1570.9,882.212 1573.02,880.172 1575.15,878.174 1577.27,876.178 1579.4,874.128 1581.52,872.096 1583.65,870.066 1585.77,868.062 1587.9,866.053 
  1590.02,863.975 1592.15,861.982 1594.27,859.923 1596.4,857.943 1598.52,855.919 1600.65,853.877 1602.77,851.854 1604.9,849.835 1607.02,847.804 1609.15,845.779 
  1611.27,843.768 1613.4,841.746 1615.52,839.71 1617.65,837.692 1619.77,835.678 1621.89,833.644 1624.02,831.614 1626.14,829.592 1628.27,827.57 1630.39,825.55 
  1632.52,823.527 1634.64,821.496 1636.77,819.466 1638.89,817.444 1641.02,815.419 1643.14,813.389 1645.27,811.375 1647.39,809.341 1649.52,807.316 1651.64,805.297 
  1653.77,803.269 1655.89,801.248 1658.02,799.224 1660.14,797.196 1662.27,795.178 1664.39,793.146 1666.52,791.127 1668.64,789.103 1670.76,787.08 1672.89,785.052 
  1675.01,783.027 1677.14,781.004 1679.26,778.978 1681.39,776.954 1683.51,774.932 1685.64,772.909 1687.76,770.882 1689.89,768.857 1692.01,766.835 1694.14,764.809 
  1696.26,762.785 1698.39,760.762 1700.51,758.736 1702.64,756.712 1704.76,754.689 1706.89,752.664 1709.01,750.638 1711.14,748.614 1713.26,746.59 1715.39,744.565 
  1717.51,742.542 1719.63,740.518 1721.76,738.494 1723.88,736.467 1726.01,734.444 1728.13,732.42 1730.26,730.394 1732.38,728.371 1734.51,726.347 1736.63,724.322 
  1738.76,722.298 1740.88,720.274 1743.01,718.25 1745.13,716.224 1747.26,714.2 1749.38,712.176 1751.51,710.152 1753.63,708.127 1755.76,706.103 1757.88,704.079 
  1760.01,702.054 1762.13,700.03 1764.26,698.006 1766.38,695.981 1768.5,693.957 1770.63,691.933 1772.75,689.908 1774.88,687.884 1777,685.86 1779.13,683.835 
  1781.25,681.811 1783.38,679.787 1785.5,677.762 1787.63,675.738 1789.75,673.714 1791.88,671.69 1794,669.665 1796.13,667.641 1798.25,665.616 1800.38,663.592 
  1802.5,661.568 1804.63,659.543 1806.75,657.519 1808.88,655.495 1811,653.471 1813.13,651.446 1815.25,649.422 1817.37,647.398 1819.5,645.373 1821.62,643.349 
  1823.75,641.325 1825.87,639.3 1828,637.276 1830.12,635.252 1832.25,633.228 1834.37,631.203 1836.5,629.179 1838.62,627.155 1840.75,625.13 1842.87,623.106 
  1845,621.082 1847.12,619.058 1849.25,617.033 1851.37,615.009 1853.5,612.985 1855.62,610.961 1857.75,608.936 1859.87,606.912 1862,604.888 1864.12,602.864 
  1866.24,600.84 1868.37,598.815 1870.49,596.791 1872.62,594.767 1874.74,592.743 1876.87,590.718 1878.99,588.694 1881.12,586.67 1883.24,584.646 1885.37,582.622 
  1887.49,580.598 1889.62,578.573 1891.74,576.549 1893.87,574.525 1895.99,572.501 1898.12,570.477 1900.24,568.453 1902.37,566.429 1904.49,564.404 1906.62,562.38 
  1908.74,560.356 1910.87,558.332 1912.99,556.308 1915.11,554.284 1917.24,552.26 1919.36,550.236 1921.49,548.212 1923.61,546.188 1925.74,544.164 1927.86,542.14 
  1929.99,540.116 1932.11,538.092 1934.24,536.068 1936.36,534.044 1938.49,532.02 1940.61,529.996 1942.74,527.972 1944.86,525.948 1946.99,523.924 1949.11,521.9 
  1951.24,519.876 1953.36,517.852 1955.49,515.828 1957.61,513.804 1959.74,511.781 1961.86,509.757 1963.98,507.733 1966.11,505.709 1968.23,503.685 1970.36,501.662 
  1972.48,499.638 1974.61,497.614 1976.73,495.59 1978.86,493.567 1980.98,491.543 1983.11,489.519 1985.23,487.496 1987.36,485.472 1989.48,483.448 1991.61,481.425 
  1993.73,479.401 1995.86,477.378 1997.98,475.354 2000.11,473.331 2002.23,471.307 2004.36,469.284 2006.48,467.261 2008.61,465.237 2010.73,463.214 2012.85,461.191 
  2014.98,459.167 2017.1,457.144 2019.23,455.121 2021.35,453.098 2023.48,451.074 2025.6,449.051 2027.73,447.028 2029.85,445.005 2031.98,442.982 2034.1,440.959 
  2036.23,438.936 2038.35,436.913 2040.48,434.891 2042.6,432.868 2044.73,430.845 2046.85,428.822 2048.98,426.8 2051.1,424.777 2053.23,422.754 2055.35,420.732 
  2057.48,418.709 2059.6,416.687 2061.72,414.665 2063.85,412.642 2065.97,410.62 2068.1,408.598 2070.22,406.576 2072.35,404.554 2074.47,402.532 2076.6,400.51 
  2078.72,398.488 2080.85,396.466 2082.97,394.444 2085.1,392.423 2087.22,390.401 2089.35,388.38 2091.47,386.358 2093.6,384.337 2095.72,382.316 2097.85,380.295 
  2099.97,378.274 2102.1,376.253 2104.22,374.232 2106.35,372.211 2108.47,370.19 2110.59,368.17 2112.72,366.149 2114.84,364.129 2116.97,362.109 2119.09,360.089 
  2121.22,358.069 2123.34,356.049 2125.47,354.029 2127.59,352.01 2129.72,349.99 2131.84,347.971 2133.97,345.952 2136.09,343.933 2138.22,341.914 2140.34,339.895 
  2142.47,337.876 2144.59,335.858 2146.72,333.84 2148.84,331.822 2150.97,329.804 2153.09,327.786 2155.22,325.768 2157.34,323.751 2159.46,321.734 2161.59,319.717 
  2163.71,317.7 2165.84,315.684 2167.96,313.667 2170.09,311.651 2172.21,309.636 2174.34,307.62 2176.46,305.605 2178.59,303.589 2180.71,301.575 2182.84,299.56 
  2184.96,297.546 2187.09,295.532 2189.21,293.518 2191.34,291.505 2193.46,289.492 2195.59,287.479 2197.71,285.466 2199.84,283.454 2201.96,281.443 2204.08,279.431 
  2206.21,277.42 2208.33,275.409 2210.46,273.399 2212.58,271.389 2214.71,269.38 2216.83,267.371 2218.96,265.362 2221.08,263.354 2223.21,261.346 2225.33,259.339 
  2227.46,257.332 2229.58,255.326 2231.71,253.32 2233.83,251.315 2235.96,249.31 2238.08,247.306 2240.21,245.303 2242.33,243.3 2244.46,241.297 2246.58,239.296 
  2248.71,237.295 2250.83,235.294 2252.95,233.294 2255.08,231.295 2257.2,229.297 2259.33,227.299 2261.45,225.303 2263.58,223.307 2265.7,221.311 2267.83,219.317 
  2269.95,217.323 2272.08,215.331 2274.2,213.339 2276.33,211.348 2278.45,209.358 2280.58,207.369 2282.7,205.381 2284.83,203.395 2286.95,201.409 2289.08,199.424 
  
  "/>
</svg>
