<?xml version="1.0" encoding="UTF-8"?>
<svg xmlns="http://www.w3.org/2000/svg" xmlns:xlink="http://www.w3.org/1999/xlink" width="600pt" height="300pt" viewBox="0 0 600 300" version="1.1">
<defs>
<g>
<symbol overflow="visible" id="zRs0aU+e0-0">
<path style="stroke:none;" d="M 0.59375 2.125 L 0.59375 -8.46875 L 6.59375 -8.46875 L 6.59375 2.125 Z M 1.265625 1.453125 L 5.9375 1.453125 L 5.9375 -7.78125 L 1.265625 -7.78125 Z M 1.265625 1.453125 "/>
</symbol>
<symbol overflow="visible" id="zRs0aU+e0-1">
<path style="stroke:none;" d="M -0.03125 -8.75 L 1.25 -8.75 L 3.671875 -5.15625 L 6.078125 -8.75 L 7.359375 -8.75 L 4.265625 -4.171875 L 4.265625 0 L 3.078125 0 L 3.078125 -4.171875 Z M -0.03125 -8.75 "/>
</symbol>
<symbol overflow="visible" id="zRs0aU+e0-2">
<path style="stroke:none;" d="M 1.484375 -1 L 3.421875 -1 L 3.421875 -7.671875 L 1.3125 -7.25 L 1.3125 -8.328125 L 3.40625 -8.75 L 4.59375 -8.75 L 4.59375 -1 L 6.53125 -1 L 6.53125 0 L 1.484375 0 Z M 1.484375 -1 "/>
</symbol>
<symbol overflow="visible" id="zRs0aU+e0-3">
<path style="stroke:none;" d="M 0.984375 -8.75 L 6.609375 -8.75 L 6.609375 -8.25 L 3.4375 0 L 2.203125 0 L 5.1875 -7.75 L 0.984375 -7.75 Z M 0.984375 -8.75 "/>
</symbol>
<symbol overflow="visible" id="zRs0aU+e1-0">
<path style="stroke:none;" d="M 0.59375 2.125 L 0.59375 -8.46875 L 6.59375 -8.46875 L 6.59375 2.125 Z M 1.265625 1.453125 L 5.9375 1.453125 L 5.9375 -7.78125 L 1.265625 -7.78125 Z M 1.265625 1.453125 "/>
</symbol>
<symbol overflow="visible" id="zRs0aU+e1-1">
<path style="stroke:none;" d="M 6.75 -3.546875 L 6.75 -3.03125 L 1.78125 -3.03125 C 1.832031 -2.28125 2.054688 -1.710938 2.453125 -1.328125 C 2.859375 -0.941406 3.414062 -0.75 4.125 -0.75 C 4.539062 -0.75 4.941406 -0.796875 5.328125 -0.890625 C 5.722656 -0.992188 6.113281 -1.148438 6.5 -1.359375 L 6.5 -0.328125 C 6.101562 -0.171875 5.703125 -0.0507812 5.296875 0.03125 C 4.890625 0.125 4.476562 0.171875 4.0625 0.171875 C 3.019531 0.171875 2.191406 -0.128906 1.578125 -0.734375 C 0.960938 -1.347656 0.65625 -2.175781 0.65625 -3.21875 C 0.65625 -4.289062 0.945312 -5.140625 1.53125 -5.765625 C 2.113281 -6.398438 2.894531 -6.71875 3.875 -6.71875 C 4.757812 -6.71875 5.457031 -6.429688 5.96875 -5.859375 C 6.488281 -5.296875 6.75 -4.523438 6.75 -3.546875 Z M 5.671875 -3.875 C 5.660156 -4.457031 5.492188 -4.925781 5.171875 -5.28125 C 4.847656 -5.632812 4.421875 -5.8125 3.890625 -5.8125 C 3.285156 -5.8125 2.800781 -5.640625 2.4375 -5.296875 C 2.082031 -4.953125 1.878906 -4.472656 1.828125 -3.859375 Z M 5.671875 -3.875 "/>
</symbol>
<symbol overflow="visible" id="zRs0aU+e1-2">
<path style="stroke:none;" d="M 4.109375 -3.296875 C 3.242188 -3.296875 2.640625 -3.195312 2.296875 -3 C 1.960938 -2.800781 1.796875 -2.460938 1.796875 -1.984375 C 1.796875 -1.597656 1.921875 -1.289062 2.171875 -1.0625 C 2.429688 -0.84375 2.773438 -0.734375 3.203125 -0.734375 C 3.804688 -0.734375 4.285156 -0.941406 4.640625 -1.359375 C 5.003906 -1.785156 5.1875 -2.351562 5.1875 -3.0625 L 5.1875 -3.296875 Z M 6.265625 -3.75 L 6.265625 0 L 5.1875 0 L 5.1875 -1 C 4.9375 -0.601562 4.628906 -0.304688 4.265625 -0.109375 C 3.898438 0.078125 3.453125 0.171875 2.921875 0.171875 C 2.242188 0.171875 1.707031 -0.015625 1.3125 -0.390625 C 0.914062 -0.773438 0.71875 -1.28125 0.71875 -1.90625 C 0.71875 -2.644531 0.960938 -3.203125 1.453125 -3.578125 C 1.953125 -3.953125 2.691406 -4.140625 3.671875 -4.140625 L 5.1875 -4.140625 L 5.1875 -4.25 C 5.1875 -4.75 5.019531 -5.132812 4.6875 -5.40625 C 4.363281 -5.675781 3.910156 -5.8125 3.328125 -5.8125 C 2.953125 -5.8125 2.582031 -5.765625 2.21875 -5.671875 C 1.863281 -5.578125 1.523438 -5.441406 1.203125 -5.265625 L 1.203125 -6.265625 C 1.597656 -6.421875 1.976562 -6.535156 2.34375 -6.609375 C 2.71875 -6.679688 3.082031 -6.71875 3.4375 -6.71875 C 4.382812 -6.71875 5.09375 -6.472656 5.5625 -5.984375 C 6.03125 -5.492188 6.265625 -4.75 6.265625 -3.75 Z M 6.265625 -3.75 "/>
</symbol>
<symbol overflow="visible" id="zRs0aU+e1-3">
<path style="stroke:none;" d="M 4.9375 -5.5625 C 4.8125 -5.625 4.675781 -5.671875 4.53125 -5.703125 C 4.394531 -5.742188 4.238281 -5.765625 4.0625 -5.765625 C 3.457031 -5.765625 2.988281 -5.566406 2.65625 -5.171875 C 2.332031 -4.773438 2.171875 -4.203125 2.171875 -3.453125 L 2.171875 0 L 1.09375 0 L 1.09375 -6.5625 L 2.171875 -6.5625 L 2.171875 -5.546875 C 2.398438 -5.941406 2.695312 -6.234375 3.0625 -6.421875 C 3.425781 -6.617188 3.867188 -6.71875 4.390625 -6.71875 C 4.460938 -6.71875 4.539062 -6.710938 4.625 -6.703125 C 4.71875 -6.691406 4.816406 -6.675781 4.921875 -6.65625 Z M 4.9375 -5.5625 "/>
</symbol>
<symbol overflow="visible" id="zRs0aU+e1-4">
<path style="stroke:none;" d="M 1.484375 -1 L 3.421875 -1 L 3.421875 -7.671875 L 1.3125 -7.25 L 1.3125 -8.328125 L 3.40625 -8.75 L 4.59375 -8.75 L 4.59375 -1 L 6.53125 -1 L 6.53125 0 L 1.484375 0 Z M 1.484375 -1 "/>
</symbol>
<symbol overflow="visible" id="zRs0aU+e1-5">
<path style="stroke:none;" d="M 1.3125 -0.1875 L 1.3125 -1.265625 C 1.613281 -1.117188 1.914062 -1.007812 2.21875 -0.9375 C 2.519531 -0.863281 2.820312 -0.828125 3.125 -0.828125 C 3.90625 -0.828125 4.5 -1.085938 4.90625 -1.609375 C 5.320312 -2.140625 5.554688 -2.941406 5.609375 -4.015625 C 5.390625 -3.671875 5.101562 -3.410156 4.75 -3.234375 C 4.40625 -3.054688 4.019531 -2.96875 3.59375 -2.96875 C 2.71875 -2.96875 2.023438 -3.226562 1.515625 -3.75 C 1.003906 -4.28125 0.75 -5.007812 0.75 -5.9375 C 0.75 -6.832031 1.015625 -7.550781 1.546875 -8.09375 C 2.078125 -8.632812 2.785156 -8.90625 3.671875 -8.90625 C 4.679688 -8.90625 5.453125 -8.515625 5.984375 -7.734375 C 6.523438 -6.960938 6.796875 -5.835938 6.796875 -4.359375 C 6.796875 -2.984375 6.46875 -1.882812 5.8125 -1.0625 C 5.15625 -0.238281 4.273438 0.171875 3.171875 0.171875 C 2.867188 0.171875 2.566406 0.140625 2.265625 0.078125 C 1.960938 0.0234375 1.644531 -0.0625 1.3125 -0.1875 Z M 3.671875 -3.890625 C 4.203125 -3.890625 4.625 -4.070312 4.9375 -4.4375 C 5.25 -4.800781 5.40625 -5.300781 5.40625 -5.9375 C 5.40625 -6.5625 5.25 -7.054688 4.9375 -7.421875 C 4.625 -7.785156 4.203125 -7.96875 3.671875 -7.96875 C 3.140625 -7.96875 2.71875 -7.785156 2.40625 -7.421875 C 2.101562 -7.054688 1.953125 -6.5625 1.953125 -5.9375 C 1.953125 -5.300781 2.101562 -4.800781 2.40625 -4.4375 C 2.71875 -4.070312 3.140625 -3.890625 3.671875 -3.890625 Z M 3.671875 -3.890625 "/>
</symbol>
<symbol overflow="visible" id="zRs0aU+e1-6">
<path style="stroke:none;" d="M 3.96875 -4.84375 C 3.4375 -4.84375 3.015625 -4.660156 2.703125 -4.296875 C 2.390625 -3.929688 2.234375 -3.4375 2.234375 -2.8125 C 2.234375 -2.175781 2.390625 -1.675781 2.703125 -1.3125 C 3.015625 -0.945312 3.4375 -0.765625 3.96875 -0.765625 C 4.5 -0.765625 4.914062 -0.945312 5.21875 -1.3125 C 5.53125 -1.675781 5.6875 -2.175781 5.6875 -2.8125 C 5.6875 -3.4375 5.53125 -3.929688 5.21875 -4.296875 C 4.914062 -4.660156 4.5 -4.84375 3.96875 -4.84375 Z M 6.3125 -8.5625 L 6.3125 -7.484375 C 6.007812 -7.617188 5.707031 -7.722656 5.40625 -7.796875 C 5.101562 -7.867188 4.804688 -7.90625 4.515625 -7.90625 C 3.734375 -7.90625 3.132812 -7.640625 2.71875 -7.109375 C 2.3125 -6.585938 2.078125 -5.796875 2.015625 -4.734375 C 2.242188 -5.066406 2.53125 -5.320312 2.875 -5.5 C 3.226562 -5.6875 3.613281 -5.78125 4.03125 -5.78125 C 4.90625 -5.78125 5.597656 -5.515625 6.109375 -4.984375 C 6.617188 -4.453125 6.875 -3.726562 6.875 -2.8125 C 6.875 -1.90625 6.609375 -1.179688 6.078125 -0.640625 C 5.546875 -0.0976562 4.84375 0.171875 3.96875 0.171875 C 2.945312 0.171875 2.171875 -0.210938 1.640625 -0.984375 C 1.109375 -1.765625 0.84375 -2.890625 0.84375 -4.359375 C 0.84375 -5.742188 1.171875 -6.847656 1.828125 -7.671875 C 2.484375 -8.492188 3.363281 -8.90625 4.46875 -8.90625 C 4.757812 -8.90625 5.054688 -8.875 5.359375 -8.8125 C 5.660156 -8.757812 5.976562 -8.675781 6.3125 -8.5625 Z M 6.3125 -8.5625 "/>
</symbol>
<symbol overflow="visible" id="zRs0aU+e1-7">
<path style="stroke:none;" d="M 1.296875 -8.75 L 5.9375 -8.75 L 5.9375 -7.75 L 2.375 -7.75 L 2.375 -5.609375 C 2.550781 -5.671875 2.722656 -5.710938 2.890625 -5.734375 C 3.066406 -5.765625 3.238281 -5.78125 3.40625 -5.78125 C 4.382812 -5.78125 5.160156 -5.507812 5.734375 -4.96875 C 6.304688 -4.4375 6.59375 -3.71875 6.59375 -2.8125 C 6.59375 -1.863281 6.296875 -1.128906 5.703125 -0.609375 C 5.117188 -0.0859375 4.296875 0.171875 3.234375 0.171875 C 2.859375 0.171875 2.476562 0.140625 2.09375 0.078125 C 1.71875 0.015625 1.328125 -0.078125 0.921875 -0.203125 L 0.921875 -1.390625 C 1.273438 -1.203125 1.640625 -1.0625 2.015625 -0.96875 C 2.390625 -0.875 2.785156 -0.828125 3.203125 -0.828125 C 3.878906 -0.828125 4.414062 -1.003906 4.8125 -1.359375 C 5.207031 -1.710938 5.40625 -2.195312 5.40625 -2.8125 C 5.40625 -3.414062 5.207031 -3.894531 4.8125 -4.25 C 4.414062 -4.601562 3.878906 -4.78125 3.203125 -4.78125 C 2.890625 -4.78125 2.570312 -4.742188 2.25 -4.671875 C 1.9375 -4.609375 1.617188 -4.503906 1.296875 -4.359375 Z M 1.296875 -8.75 "/>
</symbol>
<symbol overflow="visible" id="zRs0aU+e1-8">
<path style="stroke:none;" d="M 3.8125 -7.96875 C 3.207031 -7.96875 2.75 -7.664062 2.4375 -7.0625 C 2.132812 -6.46875 1.984375 -5.566406 1.984375 -4.359375 C 1.984375 -3.160156 2.132812 -2.257812 2.4375 -1.65625 C 2.75 -1.0625 3.207031 -0.765625 3.8125 -0.765625 C 4.425781 -0.765625 4.882812 -1.0625 5.1875 -1.65625 C 5.5 -2.257812 5.65625 -3.160156 5.65625 -4.359375 C 5.65625 -5.566406 5.5 -6.46875 5.1875 -7.0625 C 4.882812 -7.664062 4.425781 -7.96875 3.8125 -7.96875 Z M 3.8125 -8.90625 C 4.789062 -8.90625 5.539062 -8.515625 6.0625 -7.734375 C 6.582031 -6.960938 6.84375 -5.835938 6.84375 -4.359375 C 6.84375 -2.890625 6.582031 -1.765625 6.0625 -0.984375 C 5.539062 -0.210938 4.789062 0.171875 3.8125 0.171875 C 2.832031 0.171875 2.082031 -0.210938 1.5625 -0.984375 C 1.050781 -1.765625 0.796875 -2.890625 0.796875 -4.359375 C 0.796875 -5.835938 1.050781 -6.960938 1.5625 -7.734375 C 2.082031 -8.515625 2.832031 -8.90625 3.8125 -8.90625 Z M 3.8125 -8.90625 "/>
</symbol>
<symbol overflow="visible" id="zRs0aU+e1-9">
<path style="stroke:none;" d="M 0.984375 -8.75 L 6.609375 -8.75 L 6.609375 -8.25 L 3.4375 0 L 2.203125 0 L 5.1875 -7.75 L 0.984375 -7.75 Z M 0.984375 -8.75 "/>
</symbol>
<symbol overflow="visible" id="zRs0aU+e2-0">
<path style="stroke:none;" d="M 0.59375 2.125 L 0.59375 -8.46875 L 6.59375 -8.46875 L 6.59375 2.125 Z M 1.265625 1.453125 L 5.9375 1.453125 L 5.9375 -7.78125 L 1.265625 -7.78125 Z M 1.265625 1.453125 "/>
</symbol>
<symbol overflow="visible" id="zRs0aU+e2-1">
<path style="stroke:none;" d="M 1.484375 -1 L 3.421875 -1 L 3.421875 -7.671875 L 1.3125 -7.25 L 1.3125 -8.328125 L 3.40625 -8.75 L 4.59375 -8.75 L 4.59375 -1 L 6.53125 -1 L 6.53125 0 L 1.484375 0 Z M 1.484375 -1 "/>
</symbol>
<symbol overflow="visible" id="zRs0aU+e2-2">
<path style="stroke:none;" d="M 0.59375 -3.765625 L 3.75 -3.765625 L 3.75 -2.8125 L 0.59375 -2.8125 Z M 0.59375 -3.765625 "/>
</symbol>
<symbol overflow="visible" id="zRs0aU+e3-0">
<path style="stroke:none;" d="M 0.59375 2.125 L 0.59375 -8.46875 L 6.59375 -8.46875 L 6.59375 2.125 Z M 1.265625 1.453125 L 5.9375 1.453125 L 5.9375 -7.78125 L 1.265625 -7.78125 Z M 1.265625 1.453125 "/>
</symbol>
<symbol overflow="visible" id="zRs0aU+e3-1">
<path style="stroke:none;" d="M 1.3125 -0.1875 L 1.3125 -1.265625 C 1.613281 -1.117188 1.914062 -1.007812 2.21875 -0.9375 C 2.519531 -0.863281 2.820312 -0.828125 3.125 -0.828125 C 3.90625 -0.828125 4.5 -1.085938 4.90625 -1.609375 C 5.320312 -2.140625 5.554688 -2.941406 5.609375 -4.015625 C 5.390625 -3.671875 5.101562 -3.410156 4.75 -3.234375 C 4.40625 -3.054688 4.019531 -2.96875 3.59375 -2.96875 C 2.71875 -2.96875 2.023438 -3.226562 1.515625 -3.75 C 1.003906 -4.28125 0.75 -5.007812 0.75 -5.9375 C 0.75 -6.832031 1.015625 -7.550781 1.546875 -8.09375 C 2.078125 -8.632812 2.785156 -8.90625 3.671875 -8.90625 C 4.679688 -8.90625 5.453125 -8.515625 5.984375 -7.734375 C 6.523438 -6.960938 6.796875 -5.835938 6.796875 -4.359375 C 6.796875 -2.984375 6.46875 -1.882812 5.8125 -1.0625 C 5.15625 -0.238281 4.273438 0.171875 3.171875 0.171875 C 2.867188 0.171875 2.566406 0.140625 2.265625 0.078125 C 1.960938 0.0234375 1.644531 -0.0625 1.3125 -0.1875 Z M 3.671875 -3.890625 C 4.203125 -3.890625 4.625 -4.070312 4.9375 -4.4375 C 5.25 -4.800781 5.40625 -5.300781 5.40625 -5.9375 C 5.40625 -6.5625 5.25 -7.054688 4.9375 -7.421875 C 4.625 -7.785156 4.203125 -7.96875 3.671875 -7.96875 C 3.140625 -7.96875 2.71875 -7.785156 2.40625 -7.421875 C 2.101562 -7.054688 1.953125 -6.5625 1.953125 -5.9375 C 1.953125 -5.300781 2.101562 -4.800781 2.40625 -4.4375 C 2.71875 -4.070312 3.140625 -3.890625 3.671875 -3.890625 Z M 3.671875 -3.890625 "/>
</symbol>
<symbol overflow="visible" id="zRs0aU+e3-2">
<path style="stroke:none;" d="M 3.8125 -7.96875 C 3.207031 -7.96875 2.75 -7.664062 2.4375 -7.0625 C 2.132812 -6.46875 1.984375 -5.566406 1.984375 -4.359375 C 1.984375 -3.160156 2.132812 -2.257812 2.4375 -1.65625 C 2.75 -1.0625 3.207031 -0.765625 3.8125 -0.765625 C 4.425781 -0.765625 4.882812 -1.0625 5.1875 -1.65625 C 5.5 -2.257812 5.65625 -3.160156 5.65625 -4.359375 C 5.65625 -5.566406 5.5 -6.46875 5.1875 -7.0625 C 4.882812 -7.664062 4.425781 -7.96875 3.8125 -7.96875 Z M 3.8125 -8.90625 C 4.789062 -8.90625 5.539062 -8.515625 6.0625 -7.734375 C 6.582031 -6.960938 6.84375 -5.835938 6.84375 -4.359375 C 6.84375 -2.890625 6.582031 -1.765625 6.0625 -0.984375 C 5.539062 -0.210938 4.789062 0.171875 3.8125 0.171875 C 2.832031 0.171875 2.082031 -0.210938 1.5625 -0.984375 C 1.050781 -1.765625 0.796875 -2.890625 0.796875 -4.359375 C 0.796875 -5.835938 1.050781 -6.960938 1.5625 -7.734375 C 2.082031 -8.515625 2.832031 -8.90625 3.8125 -8.90625 Z M 3.8125 -8.90625 "/>
</symbol>
<symbol overflow="visible" id="zRs0aU+e4-0">
<path style="stroke:none;" d="M 0.59375 2.125 L 0.59375 -8.46875 L 6.59375 -8.46875 L 6.59375 2.125 Z M 1.265625 1.453125 L 5.9375 1.453125 L 5.9375 -7.78125 L 1.265625 -7.78125 Z M 1.265625 1.453125 "/>
</symbol>
<symbol overflow="visible" id="zRs0aU+e4-1">
<path style="stroke:none;" d="M 3.96875 -4.84375 C 3.4375 -4.84375 3.015625 -4.660156 2.703125 -4.296875 C 2.390625 -3.929688 2.234375 -3.4375 2.234375 -2.8125 C 2.234375 -2.175781 2.390625 -1.675781 2.703125 -1.3125 C 3.015625 -0.945312 3.4375 -0.765625 3.96875 -0.765625 C 4.5 -0.765625 4.914062 -0.945312 5.21875 -1.3125 C 5.53125 -1.675781 5.6875 -2.175781 5.6875 -2.8125 C 5.6875 -3.4375 5.53125 -3.929688 5.21875 -4.296875 C 4.914062 -4.660156 4.5 -4.84375 3.96875 -4.84375 Z M 6.3125 -8.5625 L 6.3125 -7.484375 C 6.007812 -7.617188 5.707031 -7.722656 5.40625 -7.796875 C 5.101562 -7.867188 4.804688 -7.90625 4.515625 -7.90625 C 3.734375 -7.90625 3.132812 -7.640625 2.71875 -7.109375 C 2.3125 -6.585938 2.078125 -5.796875 2.015625 -4.734375 C 2.242188 -5.066406 2.53125 -5.320312 2.875 -5.5 C 3.226562 -5.6875 3.613281 -5.78125 4.03125 -5.78125 C 4.90625 -5.78125 5.597656 -5.515625 6.109375 -4.984375 C 6.617188 -4.453125 6.875 -3.726562 6.875 -2.8125 C 6.875 -1.90625 6.609375 -1.179688 6.078125 -0.640625 C 5.546875 -0.0976562 4.84375 0.171875 3.96875 0.171875 C 2.945312 0.171875 2.171875 -0.210938 1.640625 -0.984375 C 1.109375 -1.765625 0.84375 -2.890625 0.84375 -4.359375 C 0.84375 -5.742188 1.171875 -6.847656 1.828125 -7.671875 C 2.484375 -8.492188 3.363281 -8.90625 4.46875 -8.90625 C 4.757812 -8.90625 5.054688 -8.875 5.359375 -8.8125 C 5.660156 -8.757812 5.976562 -8.675781 6.3125 -8.5625 Z M 6.3125 -8.5625 "/>
</symbol>
<symbol overflow="visible" id="zRs0aU+e4-2">
<path style="stroke:none;" d="M 1.484375 -1 L 3.421875 -1 L 3.421875 -7.671875 L 1.3125 -7.25 L 1.3125 -8.328125 L 3.40625 -8.75 L 4.59375 -8.75 L 4.59375 -1 L 6.53125 -1 L 6.53125 0 L 1.484375 0 Z M 1.484375 -1 "/>
</symbol>
<symbol overflow="visible" id="zRs0aU+e4-3">
<path style="stroke:none;" d="M 3.8125 -7.96875 C 3.207031 -7.96875 2.75 -7.664062 2.4375 -7.0625 C 2.132812 -6.46875 1.984375 -5.566406 1.984375 -4.359375 C 1.984375 -3.160156 2.132812 -2.257812 2.4375 -1.65625 C 2.75 -1.0625 3.207031 -0.765625 3.8125 -0.765625 C 4.425781 -0.765625 4.882812 -1.0625 5.1875 -1.65625 C 5.5 -2.257812 5.65625 -3.160156 5.65625 -4.359375 C 5.65625 -5.566406 5.5 -6.46875 5.1875 -7.0625 C 4.882812 -7.664062 4.425781 -7.96875 3.8125 -7.96875 Z M 3.8125 -8.90625 C 4.789062 -8.90625 5.539062 -8.515625 6.0625 -7.734375 C 6.582031 -6.960938 6.84375 -5.835938 6.84375 -4.359375 C 6.84375 -2.890625 6.582031 -1.765625 6.0625 -0.984375 C 5.539062 -0.210938 4.789062 0.171875 3.8125 0.171875 C 2.832031 0.171875 2.082031 -0.210938 1.5625 -0.984375 C 1.050781 -1.765625 0.796875 -2.890625 0.796875 -4.359375 C 0.796875 -5.835938 1.050781 -6.960938 1.5625 -7.734375 C 2.082031 -8.515625 2.832031 -8.90625 3.8125 -8.90625 Z M 3.8125 -8.90625 "/>
</symbol>
<symbol overflow="visible" id="zRs0aU+e5-0">
<path style="stroke:none;" d="M 2.125 -0.59375 L -8.46875 -0.59375 L -8.46875 -6.59375 L 2.125 -6.59375 Z M 1.453125 -1.265625 L 1.453125 -5.9375 L -7.78125 -5.9375 L -7.78125 -1.265625 Z M 1.453125 -1.265625 "/>
</symbol>
<symbol overflow="visible" id="zRs0aU+e5-1">
<path style="stroke:none;" d="M -8.078125 -7.734375 L -6.828125 -7.734375 C -7.203125 -7.328125 -7.476562 -6.898438 -7.65625 -6.453125 C -7.84375 -6.003906 -7.9375 -5.523438 -7.9375 -5.015625 C -7.9375 -4.015625 -7.628906 -3.25 -7.015625 -2.71875 C -6.398438 -2.1875 -5.515625 -1.921875 -4.359375 -1.921875 C -3.210938 -1.921875 -2.332031 -2.1875 -1.71875 -2.71875 C -1.101562 -3.25 -0.796875 -4.015625 -0.796875 -5.015625 C -0.796875 -5.523438 -0.890625 -6.003906 -1.078125 -6.453125 C -1.265625 -6.898438 -1.539062 -7.328125 -1.90625 -7.734375 L -0.671875 -7.734375 C -0.390625 -7.316406 -0.175781 -6.875 -0.03125 -6.40625 C 0.101562 -5.945312 0.171875 -5.460938 0.171875 -4.953125 C 0.171875 -3.617188 -0.234375 -2.570312 -1.046875 -1.8125 C -1.859375 -1.050781 -2.960938 -0.671875 -4.359375 -0.671875 C -5.765625 -0.671875 -6.875 -1.050781 -7.6875 -1.8125 C -8.5 -2.570312 -8.90625 -3.617188 -8.90625 -4.953125 C -8.90625 -5.472656 -8.832031 -5.960938 -8.6875 -6.421875 C -8.550781 -6.890625 -8.347656 -7.328125 -8.078125 -7.734375 Z M -8.078125 -7.734375 "/>
</symbol>
<symbol overflow="visible" id="zRs0aU+e5-2">
<path style="stroke:none;" d="M -5.5625 -4.9375 C -5.625 -4.8125 -5.671875 -4.675781 -5.703125 -4.53125 C -5.742188 -4.394531 -5.765625 -4.238281 -5.765625 -4.0625 C -5.765625 -3.457031 -5.566406 -2.988281 -5.171875 -2.65625 C -4.773438 -2.332031 -4.203125 -2.171875 -3.453125 -2.171875 L 0 -2.171875 L 0 -1.09375 L -6.5625 -1.09375 L -6.5625 -2.171875 L -5.546875 -2.171875 C -5.941406 -2.398438 -6.234375 -2.695312 -6.421875 -3.0625 C -6.617188 -3.425781 -6.71875 -3.867188 -6.71875 -4.390625 C -6.71875 -4.460938 -6.710938 -4.539062 -6.703125 -4.625 C -6.691406 -4.71875 -6.675781 -4.816406 -6.65625 -4.921875 Z M -5.5625 -4.9375 "/>
</symbol>
<symbol overflow="visible" id="zRs0aU+e5-3">
<path style="stroke:none;" d=""/>
</symbol>
<symbol overflow="visible" id="zRs0aU+e5-4">
<path style="stroke:none;" d="M -3.296875 -4.109375 C -3.296875 -3.242188 -3.195312 -2.640625 -3 -2.296875 C -2.800781 -1.960938 -2.460938 -1.796875 -1.984375 -1.796875 C -1.597656 -1.796875 -1.289062 -1.921875 -1.0625 -2.171875 C -0.84375 -2.429688 -0.734375 -2.773438 -0.734375 -3.203125 C -0.734375 -3.804688 -0.941406 -4.285156 -1.359375 -4.640625 C -1.785156 -5.003906 -2.351562 -5.1875 -3.0625 -5.1875 L -3.296875 -5.1875 Z M -3.75 -6.265625 L 0 -6.265625 L 0 -5.1875 L -1 -5.1875 C -0.601562 -4.9375 -0.304688 -4.628906 -0.109375 -4.265625 C 0.078125 -3.898438 0.171875 -3.453125 0.171875 -2.921875 C 0.171875 -2.242188 -0.015625 -1.707031 -0.390625 -1.3125 C -0.773438 -0.914062 -1.28125 -0.71875 -1.90625 -0.71875 C -2.644531 -0.71875 -3.203125 -0.960938 -3.578125 -1.453125 C -3.953125 -1.953125 -4.140625 -2.691406 -4.140625 -3.671875 L -4.140625 -5.1875 L -4.25 -5.1875 C -4.75 -5.1875 -5.132812 -5.019531 -5.40625 -4.6875 C -5.675781 -4.363281 -5.8125 -3.910156 -5.8125 -3.328125 C -5.8125 -2.953125 -5.765625 -2.582031 -5.671875 -2.21875 C -5.578125 -1.863281 -5.441406 -1.523438 -5.265625 -1.203125 L -6.265625 -1.203125 C -6.421875 -1.597656 -6.535156 -1.976562 -6.609375 -2.34375 C -6.679688 -2.71875 -6.71875 -3.082031 -6.71875 -3.4375 C -6.71875 -4.382812 -6.472656 -5.09375 -5.984375 -5.5625 C -5.492188 -6.03125 -4.75 -6.265625 -3.75 -6.265625 Z M -3.75 -6.265625 "/>
</symbol>
<symbol overflow="visible" id="zRs0aU+e6-0">
<path style="stroke:none;" d="M 2.125 -0.59375 L -8.46875 -0.59375 L -8.46875 -6.59375 L 2.125 -6.59375 Z M 1.453125 -1.265625 L 1.453125 -5.9375 L -7.78125 -5.9375 L -7.78125 -1.265625 Z M 1.453125 -1.265625 "/>
</symbol>
<symbol overflow="visible" id="zRs0aU+e6-1">
<path style="stroke:none;" d="M -3.296875 -4.109375 C -3.296875 -3.242188 -3.195312 -2.640625 -3 -2.296875 C -2.800781 -1.960938 -2.460938 -1.796875 -1.984375 -1.796875 C -1.597656 -1.796875 -1.289062 -1.921875 -1.0625 -2.171875 C -0.84375 -2.429688 -0.734375 -2.773438 -0.734375 -3.203125 C -0.734375 -3.804688 -0.941406 -4.285156 -1.359375 -4.640625 C -1.785156 -5.003906 -2.351562 -5.1875 -3.0625 -5.1875 L -3.296875 -5.1875 Z M -3.75 -6.265625 L 0 -6.265625 L 0 -5.1875 L -1 -5.1875 C -0.601562 -4.9375 -0.304688 -4.628906 -0.109375 -4.265625 C 0.078125 -3.898438 0.171875 -3.453125 0.171875 -2.921875 C 0.171875 -2.242188 -0.015625 -1.707031 -0.390625 -1.3125 C -0.773438 -0.914062 -1.28125 -0.71875 -1.90625 -0.71875 C -2.644531 -0.71875 -3.203125 -0.960938 -3.578125 -1.453125 C -3.953125 -1.953125 -4.140625 -2.691406 -4.140625 -3.671875 L -4.140625 -5.1875 L -4.25 -5.1875 C -4.75 -5.1875 -5.132812 -5.019531 -5.40625 -4.6875 C -5.675781 -4.363281 -5.8125 -3.910156 -5.8125 -3.328125 C -5.8125 -2.953125 -5.765625 -2.582031 -5.671875 -2.21875 C -5.578125 -1.863281 -5.441406 -1.523438 -5.265625 -1.203125 L -6.265625 -1.203125 C -6.421875 -1.597656 -6.535156 -1.976562 -6.609375 -2.34375 C -6.679688 -2.71875 -6.71875 -3.082031 -6.71875 -3.4375 C -6.71875 -4.382812 -6.472656 -5.09375 -5.984375 -5.5625 C -5.492188 -6.03125 -4.75 -6.265625 -3.75 -6.265625 Z M -3.75 -6.265625 "/>
</symbol>
<symbol overflow="visible" id="zRs0aU+e7-0">
<path style="stroke:none;" d="M 2.125 -0.59375 L -8.46875 -0.59375 L -8.46875 -6.59375 L 2.125 -6.59375 Z M 1.453125 -1.265625 L 1.453125 -5.9375 L -7.78125 -5.9375 L -7.78125 -1.265625 Z M 1.453125 -1.265625 "/>
</symbol>
<symbol overflow="visible" id="zRs0aU+e7-1">
<path style="stroke:none;" d="M -6.375 -5.3125 L -5.34375 -5.3125 C -5.5 -5.007812 -5.613281 -4.691406 -5.6875 -4.359375 C -5.769531 -4.035156 -5.8125 -3.695312 -5.8125 -3.34375 C -5.8125 -2.8125 -5.726562 -2.410156 -5.5625 -2.140625 C -5.40625 -1.867188 -5.160156 -1.734375 -4.828125 -1.734375 C -4.578125 -1.734375 -4.378906 -1.828125 -4.234375 -2.015625 C -4.097656 -2.210938 -3.96875 -2.601562 -3.84375 -3.1875 L -3.75 -3.546875 C -3.59375 -4.316406 -3.363281 -4.863281 -3.0625 -5.1875 C -2.757812 -5.507812 -2.34375 -5.671875 -1.8125 -5.671875 C -1.195312 -5.671875 -0.710938 -5.425781 -0.359375 -4.9375 C -0.00390625 -4.457031 0.171875 -3.796875 0.171875 -2.953125 C 0.171875 -2.597656 0.132812 -2.226562 0.0625 -1.84375 C 0 -1.46875 -0.0976562 -1.070312 -0.234375 -0.65625 L -1.359375 -0.65625 C -1.148438 -1.050781 -0.992188 -1.441406 -0.890625 -1.828125 C -0.785156 -2.210938 -0.734375 -2.597656 -0.734375 -2.984375 C -0.734375 -3.484375 -0.816406 -3.867188 -0.984375 -4.140625 C -1.160156 -4.421875 -1.410156 -4.5625 -1.734375 -4.5625 C -2.023438 -4.5625 -2.25 -4.460938 -2.40625 -4.265625 C -2.5625 -4.066406 -2.710938 -3.632812 -2.859375 -2.96875 L -2.9375 -2.59375 C -3.082031 -1.925781 -3.300781 -1.441406 -3.59375 -1.140625 C -3.882812 -0.847656 -4.28125 -0.703125 -4.78125 -0.703125 C -5.40625 -0.703125 -5.882812 -0.921875 -6.21875 -1.359375 C -6.550781 -1.796875 -6.71875 -2.414062 -6.71875 -3.21875 C -6.71875 -3.613281 -6.6875 -3.988281 -6.625 -4.34375 C -6.570312 -4.695312 -6.488281 -5.019531 -6.375 -5.3125 Z M -6.375 -5.3125 "/>
</symbol>
<symbol overflow="visible" id="zRs0aU+e7-2">
<path style="stroke:none;" d=""/>
</symbol>
<symbol overflow="visible" id="zRs0aU+e7-3">
<path style="stroke:none;" d="M -6.3125 -5.859375 L -5.296875 -5.859375 C -5.472656 -5.546875 -5.601562 -5.238281 -5.6875 -4.9375 C -5.769531 -4.632812 -5.8125 -4.328125 -5.8125 -4.015625 C -5.8125 -3.304688 -5.585938 -2.757812 -5.140625 -2.375 C -4.703125 -1.988281 -4.082031 -1.796875 -3.28125 -1.796875 C -2.476562 -1.796875 -1.851562 -1.988281 -1.40625 -2.375 C -0.96875 -2.757812 -0.75 -3.304688 -0.75 -4.015625 C -0.75 -4.328125 -0.789062 -4.632812 -0.875 -4.9375 C -0.957031 -5.238281 -1.082031 -5.546875 -1.25 -5.859375 L -0.25 -5.859375 C -0.113281 -5.554688 -0.0078125 -5.242188 0.0625 -4.921875 C 0.132812 -4.597656 0.171875 -4.253906 0.171875 -3.890625 C 0.171875 -2.898438 -0.132812 -2.113281 -0.75 -1.53125 C -1.375 -0.945312 -2.21875 -0.65625 -3.28125 -0.65625 C -4.34375 -0.65625 -5.179688 -0.945312 -5.796875 -1.53125 C -6.410156 -2.125 -6.71875 -2.9375 -6.71875 -3.96875 C -6.71875 -4.289062 -6.679688 -4.609375 -6.609375 -4.921875 C -6.546875 -5.242188 -6.445312 -5.554688 -6.3125 -5.859375 Z M -6.3125 -5.859375 "/>
</symbol>
<symbol overflow="visible" id="zRs0aU+e7-4">
<path style="stroke:none;" d="M -0.984375 -2.171875 L 2.5 -2.171875 L 2.5 -1.09375 L -6.5625 -1.09375 L -6.5625 -2.171875 L -5.5625 -2.171875 C -5.957031 -2.398438 -6.25 -2.6875 -6.4375 -3.03125 C -6.625 -3.375 -6.71875 -3.785156 -6.71875 -4.265625 C -6.71875 -5.066406 -6.398438 -5.71875 -5.765625 -6.21875 C -5.140625 -6.71875 -4.3125 -6.96875 -3.28125 -6.96875 C -2.25 -6.96875 -1.414062 -6.71875 -0.78125 -6.21875 C -0.144531 -5.71875 0.171875 -5.066406 0.171875 -4.265625 C 0.171875 -3.785156 0.078125 -3.375 -0.109375 -3.03125 C -0.304688 -2.6875 -0.597656 -2.398438 -0.984375 -2.171875 Z M -3.28125 -5.84375 C -4.070312 -5.84375 -4.691406 -5.675781 -5.140625 -5.34375 C -5.585938 -5.019531 -5.8125 -4.578125 -5.8125 -4.015625 C -5.8125 -3.441406 -5.585938 -2.988281 -5.140625 -2.65625 C -4.691406 -2.332031 -4.070312 -2.171875 -3.28125 -2.171875 C -2.488281 -2.171875 -1.863281 -2.332031 -1.40625 -2.65625 C -0.957031 -2.988281 -0.734375 -3.441406 -0.734375 -4.015625 C -0.734375 -4.578125 -0.957031 -5.019531 -1.40625 -5.34375 C -1.863281 -5.675781 -2.488281 -5.84375 -3.28125 -5.84375 Z M -3.28125 -5.84375 "/>
</symbol>
<symbol overflow="visible" id="zRs0aU+e8-0">
<path style="stroke:none;" d="M 2.125 -0.59375 L -8.46875 -0.59375 L -8.46875 -6.59375 L 2.125 -6.59375 Z M 1.453125 -1.265625 L 1.453125 -5.9375 L -7.78125 -5.9375 L -7.78125 -1.265625 Z M 1.453125 -1.265625 "/>
</symbol>
<symbol overflow="visible" id="zRs0aU+e8-1">
<path style="stroke:none;" d="M -0.984375 -2.171875 L 2.5 -2.171875 L 2.5 -1.09375 L -6.5625 -1.09375 L -6.5625 -2.171875 L -5.5625 -2.171875 C -5.957031 -2.398438 -6.25 -2.6875 -6.4375 -3.03125 C -6.625 -3.375 -6.71875 -3.785156 -6.71875 -4.265625 C -6.71875 -5.066406 -6.398438 -5.71875 -5.765625 -6.21875 C -5.140625 -6.71875 -4.3125 -6.96875 -3.28125 -6.96875 C -2.25 -6.96875 -1.414062 -6.71875 -0.78125 -6.21875 C -0.144531 -5.71875 0.171875 -5.066406 0.171875 -4.265625 C 0.171875 -3.785156 0.078125 -3.375 -0.109375 -3.03125 C -0.304688 -2.6875 -0.597656 -2.398438 -0.984375 -2.171875 Z M -3.28125 -5.84375 C -4.070312 -5.84375 -4.691406 -5.675781 -5.140625 -5.34375 C -5.585938 -5.019531 -5.8125 -4.578125 -5.8125 -4.015625 C -5.8125 -3.441406 -5.585938 -2.988281 -5.140625 -2.65625 C -4.691406 -2.332031 -4.070312 -2.171875 -3.28125 -2.171875 C -2.488281 -2.171875 -1.863281 -2.332031 -1.40625 -2.65625 C -0.957031 -2.988281 -0.734375 -3.441406 -0.734375 -4.015625 C -0.734375 -4.578125 -0.957031 -5.019531 -1.40625 -5.34375 C -1.863281 -5.675781 -2.488281 -5.84375 -3.28125 -5.84375 Z M -3.28125 -5.84375 "/>
</symbol>
<symbol overflow="visible" id="zRs0aU+e8-2">
<path style="stroke:none;" d="M -3.546875 -6.75 L -3.03125 -6.75 L -3.03125 -1.78125 C -2.28125 -1.832031 -1.710938 -2.054688 -1.328125 -2.453125 C -0.941406 -2.859375 -0.75 -3.414062 -0.75 -4.125 C -0.75 -4.539062 -0.796875 -4.941406 -0.890625 -5.328125 C -0.992188 -5.722656 -1.148438 -6.113281 -1.359375 -6.5 L -0.328125 -6.5 C -0.171875 -6.101562 -0.0507812 -5.703125 0.03125 -5.296875 C 0.125 -4.890625 0.171875 -4.476562 0.171875 -4.0625 C 0.171875 -3.019531 -0.128906 -2.191406 -0.734375 -1.578125 C -1.347656 -0.960938 -2.175781 -0.65625 -3.21875 -0.65625 C -4.289062 -0.65625 -5.140625 -0.945312 -5.765625 -1.53125 C -6.398438 -2.113281 -6.71875 -2.894531 -6.71875 -3.875 C -6.71875 -4.757812 -6.429688 -5.457031 -5.859375 -5.96875 C -5.296875 -6.488281 -4.523438 -6.75 -3.546875 -6.75 Z M -3.875 -5.671875 C -4.457031 -5.660156 -4.925781 -5.492188 -5.28125 -5.171875 C -5.632812 -4.847656 -5.8125 -4.421875 -5.8125 -3.890625 C -5.8125 -3.285156 -5.640625 -2.800781 -5.296875 -2.4375 C -4.953125 -2.082031 -4.472656 -1.878906 -3.859375 -1.828125 Z M -3.875 -5.671875 "/>
</symbol>
<symbol overflow="visible" id="zRs0aU+e8-3">
<path style="stroke:none;" d="M -6.5625 -1.125 L -6.5625 -2.203125 L 0 -2.203125 L 0 -1.125 Z M -9.125 -1.125 L -9.125 -2.203125 L -7.75 -2.203125 L -7.75 -1.125 Z M -9.125 -1.125 "/>
</symbol>
<symbol overflow="visible" id="zRs0aU+e8-4">
<path style="stroke:none;" d="M -8.421875 -2.203125 L -6.5625 -2.203125 L -6.5625 -4.421875 L -5.71875 -4.421875 L -5.71875 -2.203125 L -2.15625 -2.203125 C -1.625 -2.203125 -1.28125 -2.273438 -1.125 -2.421875 C -0.976562 -2.566406 -0.90625 -2.863281 -0.90625 -3.3125 L -0.90625 -4.421875 L 0 -4.421875 L 0 -3.3125 C 0 -2.476562 -0.15625 -1.898438 -0.46875 -1.578125 C -0.78125 -1.265625 -1.34375 -1.109375 -2.15625 -1.109375 L -5.71875 -1.109375 L -5.71875 -0.328125 L -6.5625 -0.328125 L -6.5625 -1.109375 L -8.421875 -1.109375 Z M -8.421875 -2.203125 "/>
</symbol>
<symbol overflow="visible" id="zRs0aU+e8-5">
<path style="stroke:none;" d="M -3.296875 -4.109375 C -3.296875 -3.242188 -3.195312 -2.640625 -3 -2.296875 C -2.800781 -1.960938 -2.460938 -1.796875 -1.984375 -1.796875 C -1.597656 -1.796875 -1.289062 -1.921875 -1.0625 -2.171875 C -0.84375 -2.429688 -0.734375 -2.773438 -0.734375 -3.203125 C -0.734375 -3.804688 -0.941406 -4.285156 -1.359375 -4.640625 C -1.785156 -5.003906 -2.351562 -5.1875 -3.0625 -5.1875 L -3.296875 -5.1875 Z M -3.75 -6.265625 L 0 -6.265625 L 0 -5.1875 L -1 -5.1875 C -0.601562 -4.9375 -0.304688 -4.628906 -0.109375 -4.265625 C 0.078125 -3.898438 0.171875 -3.453125 0.171875 -2.921875 C 0.171875 -2.242188 -0.015625 -1.707031 -0.390625 -1.3125 C -0.773438 -0.914062 -1.28125 -0.71875 -1.90625 -0.71875 C -2.644531 -0.71875 -3.203125 -0.960938 -3.578125 -1.453125 C -3.953125 -1.953125 -4.140625 -2.691406 -4.140625 -3.671875 L -4.140625 -5.1875 L -4.25 -5.1875 C -4.75 -5.1875 -5.132812 -5.019531 -5.40625 -4.6875 C -5.675781 -4.363281 -5.8125 -3.910156 -5.8125 -3.328125 C -5.8125 -2.953125 -5.765625 -2.582031 -5.671875 -2.21875 C -5.578125 -1.863281 -5.441406 -1.523438 -5.265625 -1.203125 L -6.265625 -1.203125 C -6.421875 -1.597656 -6.535156 -1.976562 -6.609375 -2.34375 C -6.679688 -2.71875 -6.71875 -3.082031 -6.71875 -3.4375 C -6.71875 -4.382812 -6.472656 -5.09375 -5.984375 -5.5625 C -5.492188 -6.03125 -4.75 -6.265625 -3.75 -6.265625 Z M -3.75 -6.265625 "/>
</symbol>
<symbol overflow="visible" id="zRs0aU+e9-0">
<path style="stroke:none;" d="M 2.125 -0.59375 L -8.46875 -0.59375 L -8.46875 -6.59375 L 2.125 -6.59375 Z M 1.453125 -1.265625 L 1.453125 -5.9375 L -7.78125 -5.9375 L -7.78125 -1.265625 Z M 1.453125 -1.265625 "/>
</symbol>
<symbol overflow="visible" id="zRs0aU+e9-1">
<path style="stroke:none;" d=""/>
</symbol>
<symbol overflow="visible" id="zRs0aU+e9-2">
<path style="stroke:none;" d="M -9.125 -1.125 L -9.125 -2.203125 L 0 -2.203125 L 0 -1.125 Z M -9.125 -1.125 "/>
</symbol>
<symbol overflow="visible" id="zRs0aU+e9-3">
<path style="stroke:none;" d="M -5.8125 -3.671875 C -5.8125 -3.097656 -5.582031 -2.640625 -5.125 -2.296875 C -4.675781 -1.960938 -4.0625 -1.796875 -3.28125 -1.796875 C -2.488281 -1.796875 -1.867188 -1.960938 -1.421875 -2.296875 C -0.972656 -2.628906 -0.75 -3.085938 -0.75 -3.671875 C -0.75 -4.242188 -0.972656 -4.695312 -1.421875 -5.03125 C -1.878906 -5.375 -2.5 -5.546875 -3.28125 -5.546875 C -4.050781 -5.546875 -4.664062 -5.375 -5.125 -5.03125 C -5.582031 -4.695312 -5.8125 -4.242188 -5.8125 -3.671875 Z M -6.71875 -3.671875 C -6.71875 -4.609375 -6.410156 -5.34375 -5.796875 -5.875 C -5.191406 -6.414062 -4.351562 -6.6875 -3.28125 -6.6875 C -2.207031 -6.6875 -1.363281 -6.414062 -0.75 -5.875 C -0.132812 -5.34375 0.171875 -4.609375 0.171875 -3.671875 C 0.171875 -2.734375 -0.132812 -1.992188 -0.75 -1.453125 C -1.363281 -0.921875 -2.207031 -0.65625 -3.28125 -0.65625 C -4.351562 -0.65625 -5.191406 -0.921875 -5.796875 -1.453125 C -6.410156 -1.992188 -6.71875 -2.734375 -6.71875 -3.671875 Z M -6.71875 -3.671875 "/>
</symbol>
<symbol overflow="visible" id="zRs0aU+e9-4">
<path style="stroke:none;" d="M -3.359375 -5.453125 C -4.140625 -5.453125 -4.742188 -5.289062 -5.171875 -4.96875 C -5.597656 -4.644531 -5.8125 -4.191406 -5.8125 -3.609375 C -5.8125 -3.035156 -5.597656 -2.585938 -5.171875 -2.265625 C -4.742188 -1.941406 -4.140625 -1.78125 -3.359375 -1.78125 C -2.578125 -1.78125 -1.972656 -1.941406 -1.546875 -2.265625 C -1.117188 -2.585938 -0.90625 -3.035156 -0.90625 -3.609375 C -0.90625 -4.191406 -1.117188 -4.644531 -1.546875 -4.96875 C -1.972656 -5.289062 -2.578125 -5.453125 -3.359375 -5.453125 Z M -0.8125 -6.53125 C 0.300781 -6.53125 1.128906 -6.28125 1.671875 -5.78125 C 2.222656 -5.289062 2.5 -4.53125 2.5 -3.5 C 2.5 -3.125 2.46875 -2.765625 2.40625 -2.421875 C 2.351562 -2.085938 2.269531 -1.765625 2.15625 -1.453125 L 1.109375 -1.453125 C 1.273438 -1.765625 1.398438 -2.078125 1.484375 -2.390625 C 1.566406 -2.703125 1.609375 -3.015625 1.609375 -3.328125 C 1.609375 -4.035156 1.421875 -4.566406 1.046875 -4.921875 C 0.679688 -5.273438 0.125 -5.453125 -0.625 -5.453125 L -1.15625 -5.453125 C -0.769531 -5.222656 -0.476562 -4.9375 -0.28125 -4.59375 C -0.09375 -4.25 0 -3.832031 0 -3.34375 C 0 -2.539062 -0.304688 -1.890625 -0.921875 -1.390625 C -1.535156 -0.898438 -2.347656 -0.65625 -3.359375 -0.65625 C -4.367188 -0.65625 -5.179688 -0.898438 -5.796875 -1.390625 C -6.410156 -1.890625 -6.71875 -2.539062 -6.71875 -3.34375 C -6.71875 -3.832031 -6.617188 -4.25 -6.421875 -4.59375 C -6.234375 -4.9375 -5.945312 -5.222656 -5.5625 -5.453125 L -6.5625 -5.453125 L -6.5625 -6.53125 Z M -0.8125 -6.53125 "/>
</symbol>
<symbol overflow="visible" id="zRs0aU+e9-5">
<path style="stroke:none;" d="M -6.3125 -5.859375 L -5.296875 -5.859375 C -5.472656 -5.546875 -5.601562 -5.238281 -5.6875 -4.9375 C -5.769531 -4.632812 -5.8125 -4.328125 -5.8125 -4.015625 C -5.8125 -3.304688 -5.585938 -2.757812 -5.140625 -2.375 C -4.703125 -1.988281 -4.082031 -1.796875 -3.28125 -1.796875 C -2.476562 -1.796875 -1.851562 -1.988281 -1.40625 -2.375 C -0.96875 -2.757812 -0.75 -3.304688 -0.75 -4.015625 C -0.75 -4.328125 -0.789062 -4.632812 -0.875 -4.9375 C -0.957031 -5.238281 -1.082031 -5.546875 -1.25 -5.859375 L -0.25 -5.859375 C -0.113281 -5.554688 -0.0078125 -5.242188 0.0625 -4.921875 C 0.132812 -4.597656 0.171875 -4.253906 0.171875 -3.890625 C 0.171875 -2.898438 -0.132812 -2.113281 -0.75 -1.53125 C -1.375 -0.945312 -2.21875 -0.65625 -3.28125 -0.65625 C -4.34375 -0.65625 -5.179688 -0.945312 -5.796875 -1.53125 C -6.410156 -2.125 -6.71875 -2.9375 -6.71875 -3.96875 C -6.71875 -4.289062 -6.679688 -4.609375 -6.609375 -4.921875 C -6.546875 -5.242188 -6.445312 -5.554688 -6.3125 -5.859375 Z M -6.3125 -5.859375 "/>
</symbol>
<symbol overflow="visible" id="zRs0aU+e9-6">
<path style="stroke:none;" d="M -3.546875 -6.75 L -3.03125 -6.75 L -3.03125 -1.78125 C -2.28125 -1.832031 -1.710938 -2.054688 -1.328125 -2.453125 C -0.941406 -2.859375 -0.75 -3.414062 -0.75 -4.125 C -0.75 -4.539062 -0.796875 -4.941406 -0.890625 -5.328125 C -0.992188 -5.722656 -1.148438 -6.113281 -1.359375 -6.5 L -0.328125 -6.5 C -0.171875 -6.101562 -0.0507812 -5.703125 0.03125 -5.296875 C 0.125 -4.890625 0.171875 -4.476562 0.171875 -4.0625 C 0.171875 -3.019531 -0.128906 -2.191406 -0.734375 -1.578125 C -1.347656 -0.960938 -2.175781 -0.65625 -3.21875 -0.65625 C -4.289062 -0.65625 -5.140625 -0.945312 -5.765625 -1.53125 C -6.398438 -2.113281 -6.71875 -2.894531 -6.71875 -3.875 C -6.71875 -4.757812 -6.429688 -5.457031 -5.859375 -5.96875 C -5.296875 -6.488281 -4.523438 -6.75 -3.546875 -6.75 Z M -3.875 -5.671875 C -4.457031 -5.660156 -4.925781 -5.492188 -5.28125 -5.171875 C -5.632812 -4.847656 -5.8125 -4.421875 -5.8125 -3.890625 C -5.8125 -3.285156 -5.640625 -2.800781 -5.296875 -2.4375 C -4.953125 -2.082031 -4.472656 -1.878906 -3.859375 -1.828125 Z M -3.875 -5.671875 "/>
</symbol>
<symbol overflow="visible" id="zRs0aU+e9-7">
<path style="stroke:none;" d="M -9.109375 -0.96875 L -9.109375 -1.90625 C -8.179688 -2.488281 -7.273438 -2.925781 -6.390625 -3.21875 C -5.515625 -3.507812 -4.640625 -3.65625 -3.765625 -3.65625 C -2.890625 -3.65625 -2.007812 -3.507812 -1.125 -3.21875 C -0.238281 -2.925781 0.660156 -2.488281 1.578125 -1.90625 L 1.578125 -0.96875 C 0.679688 -1.476562 -0.207031 -1.863281 -1.09375 -2.125 C -1.976562 -2.382812 -2.867188 -2.515625 -3.765625 -2.515625 C -4.671875 -2.515625 -5.5625 -2.382812 -6.4375 -2.125 C -7.320312 -1.863281 -8.210938 -1.476562 -9.109375 -0.96875 Z M -9.109375 -0.96875 "/>
</symbol>
<symbol overflow="visible" id="zRs0aU+e10-0">
<path style="stroke:none;" d="M 2.125 -0.59375 L -8.46875 -0.59375 L -8.46875 -6.59375 L 2.125 -6.59375 Z M 1.453125 -1.265625 L 1.453125 -5.9375 L -7.78125 -5.9375 L -7.78125 -1.265625 Z M 1.453125 -1.265625 "/>
</symbol>
<symbol overflow="visible" id="zRs0aU+e10-1">
<path style="stroke:none;" d="M -9.109375 -3.71875 C -8.210938 -3.195312 -7.320312 -2.804688 -6.4375 -2.546875 C -5.5625 -2.296875 -4.671875 -2.171875 -3.765625 -2.171875 C -2.867188 -2.171875 -1.976562 -2.296875 -1.09375 -2.546875 C -0.207031 -2.804688 0.679688 -3.195312 1.578125 -3.71875 L 1.578125 -2.78125 C 0.660156 -2.195312 -0.238281 -1.757812 -1.125 -1.46875 C -2.007812 -1.175781 -2.890625 -1.03125 -3.765625 -1.03125 C -4.640625 -1.03125 -5.515625 -1.175781 -6.390625 -1.46875 C -7.273438 -1.757812 -8.179688 -2.195312 -9.109375 -2.78125 Z M -9.109375 -3.71875 "/>
</symbol>
<symbol overflow="visible" id="zRs0aU+e10-2">
<path style="stroke:none;" d="M -6.375 -5.3125 L -5.34375 -5.3125 C -5.5 -5.007812 -5.613281 -4.691406 -5.6875 -4.359375 C -5.769531 -4.035156 -5.8125 -3.695312 -5.8125 -3.34375 C -5.8125 -2.8125 -5.726562 -2.410156 -5.5625 -2.140625 C -5.40625 -1.867188 -5.160156 -1.734375 -4.828125 -1.734375 C -4.578125 -1.734375 -4.378906 -1.828125 -4.234375 -2.015625 C -4.097656 -2.210938 -3.96875 -2.601562 -3.84375 -3.1875 L -3.75 -3.546875 C -3.59375 -4.316406 -3.363281 -4.863281 -3.0625 -5.1875 C -2.757812 -5.507812 -2.34375 -5.671875 -1.8125 -5.671875 C -1.195312 -5.671875 -0.710938 -5.425781 -0.359375 -4.9375 C -0.00390625 -4.457031 0.171875 -3.796875 0.171875 -2.953125 C 0.171875 -2.597656 0.132812 -2.226562 0.0625 -1.84375 C 0 -1.46875 -0.0976562 -1.070312 -0.234375 -0.65625 L -1.359375 -0.65625 C -1.148438 -1.050781 -0.992188 -1.441406 -0.890625 -1.828125 C -0.785156 -2.210938 -0.734375 -2.597656 -0.734375 -2.984375 C -0.734375 -3.484375 -0.816406 -3.867188 -0.984375 -4.140625 C -1.160156 -4.421875 -1.410156 -4.5625 -1.734375 -4.5625 C -2.023438 -4.5625 -2.25 -4.460938 -2.40625 -4.265625 C -2.5625 -4.066406 -2.710938 -3.632812 -2.859375 -2.96875 L -2.9375 -2.59375 C -3.082031 -1.925781 -3.300781 -1.441406 -3.59375 -1.140625 C -3.882812 -0.847656 -4.28125 -0.703125 -4.78125 -0.703125 C -5.40625 -0.703125 -5.882812 -0.921875 -6.21875 -1.359375 C -6.550781 -1.796875 -6.71875 -2.414062 -6.71875 -3.21875 C -6.71875 -3.613281 -6.6875 -3.988281 -6.625 -4.34375 C -6.570312 -4.695312 -6.488281 -5.019531 -6.375 -5.3125 Z M -6.375 -5.3125 "/>
</symbol>
<symbol overflow="visible" id="zRs0aU+e11-0">
<path style="stroke:none;" d="M 2.125 -0.59375 L -8.46875 -0.59375 L -8.46875 -6.59375 L 2.125 -6.59375 Z M 1.453125 -1.265625 L 1.453125 -5.9375 L -7.78125 -5.9375 L -7.78125 -1.265625 Z M 1.453125 -1.265625 "/>
</symbol>
<symbol overflow="visible" id="zRs0aU+e11-1">
<path style="stroke:none;" d="M -3.296875 -4.109375 C -3.296875 -3.242188 -3.195312 -2.640625 -3 -2.296875 C -2.800781 -1.960938 -2.460938 -1.796875 -1.984375 -1.796875 C -1.597656 -1.796875 -1.289062 -1.921875 -1.0625 -2.171875 C -0.84375 -2.429688 -0.734375 -2.773438 -0.734375 -3.203125 C -0.734375 -3.804688 -0.941406 -4.285156 -1.359375 -4.640625 C -1.785156 -5.003906 -2.351562 -5.1875 -3.0625 -5.1875 L -3.296875 -5.1875 Z M -3.75 -6.265625 L 0 -6.265625 L 0 -5.1875 L -1 -5.1875 C -0.601562 -4.9375 -0.304688 -4.628906 -0.109375 -4.265625 C 0.078125 -3.898438 0.171875 -3.453125 0.171875 -2.921875 C 0.171875 -2.242188 -0.015625 -1.707031 -0.390625 -1.3125 C -0.773438 -0.914062 -1.28125 -0.71875 -1.90625 -0.71875 C -2.644531 -0.71875 -3.203125 -0.960938 -3.578125 -1.453125 C -3.953125 -1.953125 -4.140625 -2.691406 -4.140625 -3.671875 L -4.140625 -5.1875 L -4.25 -5.1875 C -4.75 -5.1875 -5.132812 -5.019531 -5.40625 -4.6875 C -5.675781 -4.363281 -5.8125 -3.910156 -5.8125 -3.328125 C -5.8125 -2.953125 -5.765625 -2.582031 -5.671875 -2.21875 C -5.578125 -1.863281 -5.441406 -1.523438 -5.265625 -1.203125 L -6.265625 -1.203125 C -6.421875 -1.597656 -6.535156 -1.976562 -6.609375 -2.34375 C -6.679688 -2.71875 -6.71875 -3.082031 -6.71875 -3.4375 C -6.71875 -4.382812 -6.472656 -5.09375 -5.984375 -5.5625 C -5.492188 -6.03125 -4.75 -6.265625 -3.75 -6.265625 Z M -3.75 -6.265625 "/>
</symbol>
<symbol overflow="visible" id="zRs0aU+e11-2">
<path style="stroke:none;" d="M -9.125 -1.125 L -9.125 -2.203125 L 0 -2.203125 L 0 -1.125 Z M -9.125 -1.125 "/>
</symbol>
<symbol overflow="visible" id="zRs0aU+e12-0">
<path style="stroke:none;" d="M 0.59375 2.125 L 0.59375 -8.46875 L 6.59375 -8.46875 L 6.59375 2.125 Z M 1.265625 1.453125 L 5.9375 1.453125 L 5.9375 -7.78125 L 1.265625 -7.78125 Z M 1.265625 1.453125 "/>
</symbol>
<symbol overflow="visible" id="zRs0aU+e12-1">
<path style="stroke:none;" d="M 2.296875 -1 L 6.4375 -1 L 6.4375 0 L 0.875 0 L 0.875 -1 C 1.320312 -1.457031 1.929688 -2.078125 2.703125 -2.859375 C 3.484375 -3.648438 3.972656 -4.160156 4.171875 -4.390625 C 4.554688 -4.804688 4.820312 -5.160156 4.96875 -5.453125 C 5.125 -5.753906 5.203125 -6.046875 5.203125 -6.328125 C 5.203125 -6.796875 5.035156 -7.175781 4.703125 -7.46875 C 4.378906 -7.757812 3.957031 -7.90625 3.4375 -7.90625 C 3.0625 -7.90625 2.664062 -7.84375 2.25 -7.71875 C 1.84375 -7.59375 1.40625 -7.394531 0.9375 -7.125 L 0.9375 -8.328125 C 1.414062 -8.515625 1.859375 -8.65625 2.265625 -8.75 C 2.679688 -8.851562 3.0625 -8.90625 3.40625 -8.90625 C 4.3125 -8.90625 5.035156 -8.675781 5.578125 -8.21875 C 6.117188 -7.769531 6.390625 -7.164062 6.390625 -6.40625 C 6.390625 -6.050781 6.320312 -5.710938 6.1875 -5.390625 C 6.050781 -5.066406 5.804688 -4.6875 5.453125 -4.25 C 5.347656 -4.132812 5.035156 -3.804688 4.515625 -3.265625 C 3.992188 -2.722656 3.253906 -1.96875 2.296875 -1 Z M 2.296875 -1 "/>
</symbol>
<symbol overflow="visible" id="zRs0aU+e13-0">
<path style="stroke:none;" d="M 0.59375 2.125 L 0.59375 -8.46875 L 6.59375 -8.46875 L 6.59375 2.125 Z M 1.265625 1.453125 L 5.9375 1.453125 L 5.9375 -7.78125 L 1.265625 -7.78125 Z M 1.265625 1.453125 "/>
</symbol>
<symbol overflow="visible" id="zRs0aU+e13-1">
<path style="stroke:none;" d="M 0.59375 -3.765625 L 3.75 -3.765625 L 3.75 -2.8125 L 0.59375 -2.8125 Z M 0.59375 -3.765625 "/>
</symbol>
<symbol overflow="visible" id="zRs0aU+e14-0">
<path style="stroke:none;" d="M 0.59375 2.125 L 0.59375 -8.46875 L 6.59375 -8.46875 L 6.59375 2.125 Z M 1.265625 1.453125 L 5.9375 1.453125 L 5.9375 -7.78125 L 1.265625 -7.78125 Z M 1.265625 1.453125 "/>
</symbol>
<symbol overflow="visible" id="zRs0aU+e14-1">
<path style="stroke:none;" d="M 3.8125 -4.15625 C 3.25 -4.15625 2.804688 -4.003906 2.484375 -3.703125 C 2.160156 -3.398438 2 -2.988281 2 -2.46875 C 2 -1.9375 2.160156 -1.519531 2.484375 -1.21875 C 2.804688 -0.914062 3.25 -0.765625 3.8125 -0.765625 C 4.375 -0.765625 4.816406 -0.914062 5.140625 -1.21875 C 5.460938 -1.519531 5.625 -1.9375 5.625 -2.46875 C 5.625 -2.988281 5.460938 -3.398438 5.140625 -3.703125 C 4.828125 -4.003906 4.382812 -4.15625 3.8125 -4.15625 Z M 2.625 -4.65625 C 2.125 -4.78125 1.726562 -5.015625 1.4375 -5.359375 C 1.15625 -5.710938 1.015625 -6.140625 1.015625 -6.640625 C 1.015625 -7.335938 1.265625 -7.890625 1.765625 -8.296875 C 2.265625 -8.703125 2.945312 -8.90625 3.8125 -8.90625 C 4.6875 -8.90625 5.367188 -8.703125 5.859375 -8.296875 C 6.359375 -7.890625 6.609375 -7.335938 6.609375 -6.640625 C 6.609375 -6.140625 6.46875 -5.710938 6.1875 -5.359375 C 5.90625 -5.015625 5.507812 -4.78125 5 -4.65625 C 5.570312 -4.519531 6.015625 -4.257812 6.328125 -3.875 C 6.648438 -3.488281 6.8125 -3.019531 6.8125 -2.46875 C 6.8125 -1.613281 6.550781 -0.957031 6.03125 -0.5 C 5.519531 -0.0507812 4.78125 0.171875 3.8125 0.171875 C 2.851562 0.171875 2.113281 -0.0507812 1.59375 -0.5 C 1.070312 -0.957031 0.8125 -1.613281 0.8125 -2.46875 C 0.8125 -3.019531 0.972656 -3.488281 1.296875 -3.875 C 1.617188 -4.257812 2.0625 -4.519531 2.625 -4.65625 Z M 2.203125 -6.53125 C 2.203125 -6.070312 2.34375 -5.71875 2.625 -5.46875 C 2.90625 -5.21875 3.300781 -5.09375 3.8125 -5.09375 C 4.320312 -5.09375 4.71875 -5.21875 5 -5.46875 C 5.289062 -5.71875 5.4375 -6.070312 5.4375 -6.53125 C 5.4375 -6.976562 5.289062 -7.328125 5 -7.578125 C 4.71875 -7.835938 4.320312 -7.96875 3.8125 -7.96875 C 3.300781 -7.96875 2.90625 -7.835938 2.625 -7.578125 C 2.34375 -7.328125 2.203125 -6.976562 2.203125 -6.53125 Z M 2.203125 -6.53125 "/>
</symbol>
<symbol overflow="visible" id="zRs0aU+e15-0">
<path style="stroke:none;" d="M 0.59375 2.125 L 0.59375 -8.46875 L 6.59375 -8.46875 L 6.59375 2.125 Z M 1.265625 1.453125 L 5.9375 1.453125 L 5.9375 -7.78125 L 1.265625 -7.78125 Z M 1.265625 1.453125 "/>
</symbol>
<symbol overflow="visible" id="zRs0aU+e15-1">
<path style="stroke:none;" d="M 3.4375 0 L 0.09375 -8.75 L 1.328125 -8.75 L 4.109375 -1.390625 L 6.875 -8.75 L 8.109375 -8.75 L 4.78125 0 Z M 3.4375 0 "/>
</symbol>
<symbol overflow="visible" id="zRs0aU+e15-2">
<path style="stroke:none;" d="M 4.109375 -3.296875 C 3.242188 -3.296875 2.640625 -3.195312 2.296875 -3 C 1.960938 -2.800781 1.796875 -2.460938 1.796875 -1.984375 C 1.796875 -1.597656 1.921875 -1.289062 2.171875 -1.0625 C 2.429688 -0.84375 2.773438 -0.734375 3.203125 -0.734375 C 3.804688 -0.734375 4.285156 -0.941406 4.640625 -1.359375 C 5.003906 -1.785156 5.1875 -2.351562 5.1875 -3.0625 L 5.1875 -3.296875 Z M 6.265625 -3.75 L 6.265625 0 L 5.1875 0 L 5.1875 -1 C 4.9375 -0.601562 4.628906 -0.304688 4.265625 -0.109375 C 3.898438 0.078125 3.453125 0.171875 2.921875 0.171875 C 2.242188 0.171875 1.707031 -0.015625 1.3125 -0.390625 C 0.914062 -0.773438 0.71875 -1.28125 0.71875 -1.90625 C 0.71875 -2.644531 0.960938 -3.203125 1.453125 -3.578125 C 1.953125 -3.953125 2.691406 -4.140625 3.671875 -4.140625 L 5.1875 -4.140625 L 5.1875 -4.25 C 5.1875 -4.75 5.019531 -5.132812 4.6875 -5.40625 C 4.363281 -5.675781 3.910156 -5.8125 3.328125 -5.8125 C 2.953125 -5.8125 2.582031 -5.765625 2.21875 -5.671875 C 1.863281 -5.578125 1.523438 -5.441406 1.203125 -5.265625 L 1.203125 -6.265625 C 1.597656 -6.421875 1.976562 -6.535156 2.34375 -6.609375 C 2.71875 -6.679688 3.082031 -6.71875 3.4375 -6.71875 C 4.382812 -6.71875 5.09375 -6.472656 5.5625 -5.984375 C 6.03125 -5.492188 6.265625 -4.75 6.265625 -3.75 Z M 6.265625 -3.75 "/>
</symbol>
<symbol overflow="visible" id="zRs0aU+e15-3">
<path style="stroke:none;" d="M 4.9375 -5.5625 C 4.8125 -5.625 4.675781 -5.671875 4.53125 -5.703125 C 4.394531 -5.742188 4.238281 -5.765625 4.0625 -5.765625 C 3.457031 -5.765625 2.988281 -5.566406 2.65625 -5.171875 C 2.332031 -4.773438 2.171875 -4.203125 2.171875 -3.453125 L 2.171875 0 L 1.09375 0 L 1.09375 -6.5625 L 2.171875 -6.5625 L 2.171875 -5.546875 C 2.398438 -5.941406 2.695312 -6.234375 3.0625 -6.421875 C 3.425781 -6.617188 3.867188 -6.71875 4.390625 -6.71875 C 4.460938 -6.71875 4.539062 -6.710938 4.625 -6.703125 C 4.71875 -6.691406 4.816406 -6.675781 4.921875 -6.65625 Z M 4.9375 -5.5625 "/>
</symbol>
<symbol overflow="visible" id="zRs0aU+e15-4">
<path style="stroke:none;" d="M 2.203125 -8.421875 L 2.203125 -6.5625 L 4.421875 -6.5625 L 4.421875 -5.71875 L 2.203125 -5.71875 L 2.203125 -2.15625 C 2.203125 -1.625 2.273438 -1.28125 2.421875 -1.125 C 2.566406 -0.976562 2.863281 -0.90625 3.3125 -0.90625 L 4.421875 -0.90625 L 4.421875 0 L 3.3125 0 C 2.476562 0 1.898438 -0.15625 1.578125 -0.46875 C 1.265625 -0.78125 1.109375 -1.34375 1.109375 -2.15625 L 1.109375 -5.71875 L 0.328125 -5.71875 L 0.328125 -6.5625 L 1.109375 -6.5625 L 1.109375 -8.421875 Z M 2.203125 -8.421875 "/>
</symbol>
<symbol overflow="visible" id="zRs0aU+e15-5">
<path style="stroke:none;" d="M 1.125 -6.5625 L 2.203125 -6.5625 L 2.203125 0 L 1.125 0 Z M 1.125 -9.125 L 2.203125 -9.125 L 2.203125 -7.75 L 1.125 -7.75 Z M 1.125 -9.125 "/>
</symbol>
<symbol overflow="visible" id="zRs0aU+e15-6">
<path style="stroke:none;" d="M 3.671875 -5.8125 C 3.097656 -5.8125 2.640625 -5.582031 2.296875 -5.125 C 1.960938 -4.675781 1.796875 -4.0625 1.796875 -3.28125 C 1.796875 -2.488281 1.960938 -1.867188 2.296875 -1.421875 C 2.628906 -0.972656 3.085938 -0.75 3.671875 -0.75 C 4.242188 -0.75 4.695312 -0.972656 5.03125 -1.421875 C 5.375 -1.878906 5.546875 -2.5 5.546875 -3.28125 C 5.546875 -4.050781 5.375 -4.664062 5.03125 -5.125 C 4.695312 -5.582031 4.242188 -5.8125 3.671875 -5.8125 Z M 3.671875 -6.71875 C 4.609375 -6.71875 5.34375 -6.410156 5.875 -5.796875 C 6.414062 -5.191406 6.6875 -4.351562 6.6875 -3.28125 C 6.6875 -2.207031 6.414062 -1.363281 5.875 -0.75 C 5.34375 -0.132812 4.609375 0.171875 3.671875 0.171875 C 2.734375 0.171875 1.992188 -0.132812 1.453125 -0.75 C 0.921875 -1.363281 0.65625 -2.207031 0.65625 -3.28125 C 0.65625 -4.351562 0.921875 -5.191406 1.453125 -5.796875 C 1.992188 -6.410156 2.734375 -6.71875 3.671875 -6.71875 Z M 3.671875 -6.71875 "/>
</symbol>
<symbol overflow="visible" id="zRs0aU+e15-7">
<path style="stroke:none;" d="M 6.59375 -3.96875 L 6.59375 0 L 5.515625 0 L 5.515625 -3.921875 C 5.515625 -4.546875 5.390625 -5.007812 5.140625 -5.3125 C 4.898438 -5.625 4.539062 -5.78125 4.0625 -5.78125 C 3.476562 -5.78125 3.015625 -5.59375 2.671875 -5.21875 C 2.335938 -4.851562 2.171875 -4.347656 2.171875 -3.703125 L 2.171875 0 L 1.09375 0 L 1.09375 -6.5625 L 2.171875 -6.5625 L 2.171875 -5.546875 C 2.429688 -5.941406 2.734375 -6.234375 3.078125 -6.421875 C 3.429688 -6.617188 3.835938 -6.71875 4.296875 -6.71875 C 5.046875 -6.71875 5.613281 -6.484375 6 -6.015625 C 6.394531 -5.554688 6.59375 -4.875 6.59375 -3.96875 Z M 6.59375 -3.96875 "/>
</symbol>
<symbol overflow="visible" id="zRs0aU+e15-8">
<path style="stroke:none;" d="M 5.84375 -3.28125 C 5.84375 -4.070312 5.675781 -4.691406 5.34375 -5.140625 C 5.019531 -5.585938 4.578125 -5.8125 4.015625 -5.8125 C 3.441406 -5.8125 2.988281 -5.585938 2.65625 -5.140625 C 2.332031 -4.691406 2.171875 -4.070312 2.171875 -3.28125 C 2.171875 -2.488281 2.332031 -1.863281 2.65625 -1.40625 C 2.988281 -0.957031 3.441406 -0.734375 4.015625 -0.734375 C 4.578125 -0.734375 5.019531 -0.957031 5.34375 -1.40625 C 5.675781 -1.863281 5.84375 -2.488281 5.84375 -3.28125 Z M 2.171875 -5.5625 C 2.398438 -5.957031 2.6875 -6.25 3.03125 -6.4375 C 3.375 -6.625 3.785156 -6.71875 4.265625 -6.71875 C 5.066406 -6.71875 5.71875 -6.398438 6.21875 -5.765625 C 6.71875 -5.140625 6.96875 -4.3125 6.96875 -3.28125 C 6.96875 -2.25 6.71875 -1.414062 6.21875 -0.78125 C 5.71875 -0.144531 5.066406 0.171875 4.265625 0.171875 C 3.785156 0.171875 3.375 0.078125 3.03125 -0.109375 C 2.6875 -0.304688 2.398438 -0.597656 2.171875 -0.984375 L 2.171875 0 L 1.09375 0 L 1.09375 -9.125 L 2.171875 -9.125 Z M 2.171875 -5.5625 "/>
</symbol>
<symbol overflow="visible" id="zRs0aU+e15-9">
<path style="stroke:none;" d="M 6.75 -3.546875 L 6.75 -3.03125 L 1.78125 -3.03125 C 1.832031 -2.28125 2.054688 -1.710938 2.453125 -1.328125 C 2.859375 -0.941406 3.414062 -0.75 4.125 -0.75 C 4.539062 -0.75 4.941406 -0.796875 5.328125 -0.890625 C 5.722656 -0.992188 6.113281 -1.148438 6.5 -1.359375 L 6.5 -0.328125 C 6.101562 -0.171875 5.703125 -0.0507812 5.296875 0.03125 C 4.890625 0.125 4.476562 0.171875 4.0625 0.171875 C 3.019531 0.171875 2.191406 -0.128906 1.578125 -0.734375 C 0.960938 -1.347656 0.65625 -2.175781 0.65625 -3.21875 C 0.65625 -4.289062 0.945312 -5.140625 1.53125 -5.765625 C 2.113281 -6.398438 2.894531 -6.71875 3.875 -6.71875 C 4.757812 -6.71875 5.457031 -6.429688 5.96875 -5.859375 C 6.488281 -5.296875 6.75 -4.523438 6.75 -3.546875 Z M 5.671875 -3.875 C 5.660156 -4.457031 5.492188 -4.925781 5.171875 -5.28125 C 4.847656 -5.632812 4.421875 -5.8125 3.890625 -5.8125 C 3.285156 -5.8125 2.800781 -5.640625 2.4375 -5.296875 C 2.082031 -4.953125 1.878906 -4.472656 1.828125 -3.859375 Z M 5.671875 -3.875 "/>
</symbol>
<symbol overflow="visible" id="zRs0aU+e15-10">
<path style="stroke:none;" d=""/>
</symbol>
<symbol overflow="visible" id="zRs0aU+e15-11">
<path style="stroke:none;" d="M 6.234375 -5.296875 C 6.503906 -5.785156 6.828125 -6.144531 7.203125 -6.375 C 7.578125 -6.601562 8.019531 -6.71875 8.53125 -6.71875 C 9.21875 -6.71875 9.742188 -6.476562 10.109375 -6 C 10.484375 -5.519531 10.671875 -4.84375 10.671875 -3.96875 L 10.671875 0 L 9.59375 0 L 9.59375 -3.921875 C 9.59375 -4.554688 9.476562 -5.023438 9.25 -5.328125 C 9.03125 -5.628906 8.691406 -5.78125 8.234375 -5.78125 C 7.671875 -5.78125 7.226562 -5.59375 6.90625 -5.21875 C 6.582031 -4.851562 6.421875 -4.347656 6.421875 -3.703125 L 6.421875 0 L 5.34375 0 L 5.34375 -3.921875 C 5.34375 -4.554688 5.226562 -5.023438 5 -5.328125 C 4.78125 -5.628906 4.4375 -5.78125 3.96875 -5.78125 C 3.414062 -5.78125 2.976562 -5.59375 2.65625 -5.21875 C 2.332031 -4.851562 2.171875 -4.347656 2.171875 -3.703125 L 2.171875 0 L 1.09375 0 L 1.09375 -6.5625 L 2.171875 -6.5625 L 2.171875 -5.546875 C 2.421875 -5.941406 2.71875 -6.234375 3.0625 -6.421875 C 3.40625 -6.617188 3.8125 -6.71875 4.28125 -6.71875 C 4.757812 -6.71875 5.164062 -6.597656 5.5 -6.359375 C 5.832031 -6.117188 6.078125 -5.765625 6.234375 -5.296875 Z M 6.234375 -5.296875 "/>
</symbol>
<symbol overflow="visible" id="zRs0aU+e16-0">
<path style="stroke:none;" d="M 0.59375 2.125 L 0.59375 -8.46875 L 6.59375 -8.46875 L 6.59375 2.125 Z M 1.265625 1.453125 L 5.9375 1.453125 L 5.9375 -7.78125 L 1.265625 -7.78125 Z M 1.265625 1.453125 "/>
</symbol>
<symbol overflow="visible" id="zRs0aU+e16-1">
<path style="stroke:none;" d="M 1.125 -6.5625 L 2.203125 -6.5625 L 2.203125 0 L 1.125 0 Z M 1.125 -9.125 L 2.203125 -9.125 L 2.203125 -7.75 L 1.125 -7.75 Z M 1.125 -9.125 "/>
</symbol>
<symbol overflow="visible" id="zRs0aU+e16-2">
<path style="stroke:none;" d="M 4.109375 -3.296875 C 3.242188 -3.296875 2.640625 -3.195312 2.296875 -3 C 1.960938 -2.800781 1.796875 -2.460938 1.796875 -1.984375 C 1.796875 -1.597656 1.921875 -1.289062 2.171875 -1.0625 C 2.429688 -0.84375 2.773438 -0.734375 3.203125 -0.734375 C 3.804688 -0.734375 4.285156 -0.941406 4.640625 -1.359375 C 5.003906 -1.785156 5.1875 -2.351562 5.1875 -3.0625 L 5.1875 -3.296875 Z M 6.265625 -3.75 L 6.265625 0 L 5.1875 0 L 5.1875 -1 C 4.9375 -0.601562 4.628906 -0.304688 4.265625 -0.109375 C 3.898438 0.078125 3.453125 0.171875 2.921875 0.171875 C 2.242188 0.171875 1.707031 -0.015625 1.3125 -0.390625 C 0.914062 -0.773438 0.71875 -1.28125 0.71875 -1.90625 C 0.71875 -2.644531 0.960938 -3.203125 1.453125 -3.578125 C 1.953125 -3.953125 2.691406 -4.140625 3.671875 -4.140625 L 5.1875 -4.140625 L 5.1875 -4.25 C 5.1875 -4.75 5.019531 -5.132812 4.6875 -5.40625 C 4.363281 -5.675781 3.910156 -5.8125 3.328125 -5.8125 C 2.953125 -5.8125 2.582031 -5.765625 2.21875 -5.671875 C 1.863281 -5.578125 1.523438 -5.441406 1.203125 -5.265625 L 1.203125 -6.265625 C 1.597656 -6.421875 1.976562 -6.535156 2.34375 -6.609375 C 2.71875 -6.679688 3.082031 -6.71875 3.4375 -6.71875 C 4.382812 -6.71875 5.09375 -6.472656 5.5625 -5.984375 C 6.03125 -5.492188 6.265625 -4.75 6.265625 -3.75 Z M 6.265625 -3.75 "/>
</symbol>
<symbol overflow="visible" id="zRs0aU+e16-3">
<path style="stroke:none;" d=""/>
</symbol>
<symbol overflow="visible" id="zRs0aU+e16-4">
<path style="stroke:none;" d="M 2.203125 -8.421875 L 2.203125 -6.5625 L 4.421875 -6.5625 L 4.421875 -5.71875 L 2.203125 -5.71875 L 2.203125 -2.15625 C 2.203125 -1.625 2.273438 -1.28125 2.421875 -1.125 C 2.566406 -0.976562 2.863281 -0.90625 3.3125 -0.90625 L 4.421875 -0.90625 L 4.421875 0 L 3.3125 0 C 2.476562 0 1.898438 -0.15625 1.578125 -0.46875 C 1.265625 -0.78125 1.109375 -1.34375 1.109375 -2.15625 L 1.109375 -5.71875 L 0.328125 -5.71875 L 0.328125 -6.5625 L 1.109375 -6.5625 L 1.109375 -8.421875 Z M 2.203125 -8.421875 "/>
</symbol>
<symbol overflow="visible" id="zRs0aU+e16-5">
<path style="stroke:none;" d="M 1.125 -9.125 L 2.203125 -9.125 L 2.203125 0 L 1.125 0 Z M 1.125 -9.125 "/>
</symbol>
<symbol overflow="visible" id="zRs0aU+e16-6">
<path style="stroke:none;" d="M 6.59375 -3.96875 L 6.59375 0 L 5.515625 0 L 5.515625 -3.921875 C 5.515625 -4.546875 5.390625 -5.007812 5.140625 -5.3125 C 4.898438 -5.625 4.539062 -5.78125 4.0625 -5.78125 C 3.476562 -5.78125 3.015625 -5.59375 2.671875 -5.21875 C 2.335938 -4.851562 2.171875 -4.347656 2.171875 -3.703125 L 2.171875 0 L 1.09375 0 L 1.09375 -6.5625 L 2.171875 -6.5625 L 2.171875 -5.546875 C 2.429688 -5.941406 2.734375 -6.234375 3.078125 -6.421875 C 3.429688 -6.617188 3.835938 -6.71875 4.296875 -6.71875 C 5.046875 -6.71875 5.613281 -6.484375 6 -6.015625 C 6.394531 -5.554688 6.59375 -4.875 6.59375 -3.96875 Z M 6.59375 -3.96875 "/>
</symbol>
<symbol overflow="visible" id="zRs0aU+e16-7">
<path style="stroke:none;" d="M 5.453125 -5.5625 L 5.453125 -9.125 L 6.53125 -9.125 L 6.53125 0 L 5.453125 0 L 5.453125 -0.984375 C 5.222656 -0.597656 4.9375 -0.304688 4.59375 -0.109375 C 4.25 0.078125 3.832031 0.171875 3.34375 0.171875 C 2.550781 0.171875 1.90625 -0.144531 1.40625 -0.78125 C 0.90625 -1.414062 0.65625 -2.25 0.65625 -3.28125 C 0.65625 -4.3125 0.90625 -5.140625 1.40625 -5.765625 C 1.90625 -6.398438 2.550781 -6.71875 3.34375 -6.71875 C 3.832031 -6.71875 4.25 -6.625 4.59375 -6.4375 C 4.9375 -6.25 5.222656 -5.957031 5.453125 -5.5625 Z M 1.78125 -3.28125 C 1.78125 -2.488281 1.941406 -1.863281 2.265625 -1.40625 C 2.585938 -0.957031 3.035156 -0.734375 3.609375 -0.734375 C 4.179688 -0.734375 4.628906 -0.957031 4.953125 -1.40625 C 5.285156 -1.863281 5.453125 -2.488281 5.453125 -3.28125 C 5.453125 -4.070312 5.285156 -4.691406 4.953125 -5.140625 C 4.628906 -5.585938 4.179688 -5.8125 3.609375 -5.8125 C 3.035156 -5.8125 2.585938 -5.585938 2.265625 -5.140625 C 1.941406 -4.691406 1.78125 -4.070312 1.78125 -3.28125 Z M 1.78125 -3.28125 "/>
</symbol>
<symbol overflow="visible" id="zRs0aU+e16-8">
<path style="stroke:none;" d="M 3.671875 -5.8125 C 3.097656 -5.8125 2.640625 -5.582031 2.296875 -5.125 C 1.960938 -4.675781 1.796875 -4.0625 1.796875 -3.28125 C 1.796875 -2.488281 1.960938 -1.867188 2.296875 -1.421875 C 2.628906 -0.972656 3.085938 -0.75 3.671875 -0.75 C 4.242188 -0.75 4.695312 -0.972656 5.03125 -1.421875 C 5.375 -1.878906 5.546875 -2.5 5.546875 -3.28125 C 5.546875 -4.050781 5.375 -4.664062 5.03125 -5.125 C 4.695312 -5.582031 4.242188 -5.8125 3.671875 -5.8125 Z M 3.671875 -6.71875 C 4.609375 -6.71875 5.34375 -6.410156 5.875 -5.796875 C 6.414062 -5.191406 6.6875 -4.351562 6.6875 -3.28125 C 6.6875 -2.207031 6.414062 -1.363281 5.875 -0.75 C 5.34375 -0.132812 4.609375 0.171875 3.671875 0.171875 C 2.734375 0.171875 1.992188 -0.132812 1.453125 -0.75 C 0.921875 -1.363281 0.65625 -2.207031 0.65625 -3.28125 C 0.65625 -4.351562 0.921875 -5.191406 1.453125 -5.796875 C 1.992188 -6.410156 2.734375 -6.71875 3.671875 -6.71875 Z M 3.671875 -6.71875 "/>
</symbol>
<symbol overflow="visible" id="zRs0aU+e17-0">
<path style="stroke:none;" d="M 0.59375 2.125 L 0.59375 -8.46875 L 6.59375 -8.46875 L 6.59375 2.125 Z M 1.265625 1.453125 L 5.9375 1.453125 L 5.9375 -7.78125 L 1.265625 -7.78125 Z M 1.265625 1.453125 "/>
</symbol>
<symbol overflow="visible" id="zRs0aU+e17-1">
<path style="stroke:none;" d="M 4.109375 -3.296875 C 3.242188 -3.296875 2.640625 -3.195312 2.296875 -3 C 1.960938 -2.800781 1.796875 -2.460938 1.796875 -1.984375 C 1.796875 -1.597656 1.921875 -1.289062 2.171875 -1.0625 C 2.429688 -0.84375 2.773438 -0.734375 3.203125 -0.734375 C 3.804688 -0.734375 4.285156 -0.941406 4.640625 -1.359375 C 5.003906 -1.785156 5.1875 -2.351562 5.1875 -3.0625 L 5.1875 -3.296875 Z M 6.265625 -3.75 L 6.265625 0 L 5.1875 0 L 5.1875 -1 C 4.9375 -0.601562 4.628906 -0.304688 4.265625 -0.109375 C 3.898438 0.078125 3.453125 0.171875 2.921875 0.171875 C 2.242188 0.171875 1.707031 -0.015625 1.3125 -0.390625 C 0.914062 -0.773438 0.71875 -1.28125 0.71875 -1.90625 C 0.71875 -2.644531 0.960938 -3.203125 1.453125 -3.578125 C 1.953125 -3.953125 2.691406 -4.140625 3.671875 -4.140625 L 5.1875 -4.140625 L 5.1875 -4.25 C 5.1875 -4.75 5.019531 -5.132812 4.6875 -5.40625 C 4.363281 -5.675781 3.910156 -5.8125 3.328125 -5.8125 C 2.953125 -5.8125 2.582031 -5.765625 2.21875 -5.671875 C 1.863281 -5.578125 1.523438 -5.441406 1.203125 -5.265625 L 1.203125 -6.265625 C 1.597656 -6.421875 1.976562 -6.535156 2.34375 -6.609375 C 2.71875 -6.679688 3.082031 -6.71875 3.4375 -6.71875 C 4.382812 -6.71875 5.09375 -6.472656 5.5625 -5.984375 C 6.03125 -5.492188 6.265625 -4.75 6.265625 -3.75 Z M 6.265625 -3.75 "/>
</symbol>
<symbol overflow="visible" id="zRs0aU+e17-2">
<path style="stroke:none;" d="M 5.3125 -6.375 L 5.3125 -5.34375 C 5.007812 -5.5 4.691406 -5.613281 4.359375 -5.6875 C 4.035156 -5.769531 3.695312 -5.8125 3.34375 -5.8125 C 2.8125 -5.8125 2.410156 -5.726562 2.140625 -5.5625 C 1.867188 -5.40625 1.734375 -5.160156 1.734375 -4.828125 C 1.734375 -4.578125 1.828125 -4.378906 2.015625 -4.234375 C 2.210938 -4.097656 2.601562 -3.96875 3.1875 -3.84375 L 3.546875 -3.75 C 4.316406 -3.59375 4.863281 -3.363281 5.1875 -3.0625 C 5.507812 -2.757812 5.671875 -2.34375 5.671875 -1.8125 C 5.671875 -1.195312 5.425781 -0.710938 4.9375 -0.359375 C 4.457031 -0.00390625 3.796875 0.171875 2.953125 0.171875 C 2.597656 0.171875 2.226562 0.132812 1.84375 0.0625 C 1.46875 0 1.070312 -0.0976562 0.65625 -0.234375 L 0.65625 -1.359375 C 1.050781 -1.148438 1.441406 -0.992188 1.828125 -0.890625 C 2.210938 -0.785156 2.597656 -0.734375 2.984375 -0.734375 C 3.484375 -0.734375 3.867188 -0.816406 4.140625 -0.984375 C 4.421875 -1.160156 4.5625 -1.410156 4.5625 -1.734375 C 4.5625 -2.023438 4.460938 -2.25 4.265625 -2.40625 C 4.066406 -2.5625 3.632812 -2.710938 2.96875 -2.859375 L 2.59375 -2.9375 C 1.925781 -3.082031 1.441406 -3.300781 1.140625 -3.59375 C 0.847656 -3.882812 0.703125 -4.28125 0.703125 -4.78125 C 0.703125 -5.40625 0.921875 -5.882812 1.359375 -6.21875 C 1.796875 -6.550781 2.414062 -6.71875 3.21875 -6.71875 C 3.613281 -6.71875 3.988281 -6.6875 4.34375 -6.625 C 4.695312 -6.570312 5.019531 -6.488281 5.3125 -6.375 Z M 5.3125 -6.375 "/>
</symbol>
<symbol overflow="visible" id="zRs0aU+e17-3">
<path style="stroke:none;" d="M 6.75 -3.546875 L 6.75 -3.03125 L 1.78125 -3.03125 C 1.832031 -2.28125 2.054688 -1.710938 2.453125 -1.328125 C 2.859375 -0.941406 3.414062 -0.75 4.125 -0.75 C 4.539062 -0.75 4.941406 -0.796875 5.328125 -0.890625 C 5.722656 -0.992188 6.113281 -1.148438 6.5 -1.359375 L 6.5 -0.328125 C 6.101562 -0.171875 5.703125 -0.0507812 5.296875 0.03125 C 4.890625 0.125 4.476562 0.171875 4.0625 0.171875 C 3.019531 0.171875 2.191406 -0.128906 1.578125 -0.734375 C 0.960938 -1.347656 0.65625 -2.175781 0.65625 -3.21875 C 0.65625 -4.289062 0.945312 -5.140625 1.53125 -5.765625 C 2.113281 -6.398438 2.894531 -6.71875 3.875 -6.71875 C 4.757812 -6.71875 5.457031 -6.429688 5.96875 -5.859375 C 6.488281 -5.296875 6.75 -4.523438 6.75 -3.546875 Z M 5.671875 -3.875 C 5.660156 -4.457031 5.492188 -4.925781 5.171875 -5.28125 C 4.847656 -5.632812 4.421875 -5.8125 3.890625 -5.8125 C 3.285156 -5.8125 2.800781 -5.640625 2.4375 -5.296875 C 2.082031 -4.953125 1.878906 -4.472656 1.828125 -3.859375 Z M 5.671875 -3.875 "/>
</symbol>
<symbol overflow="visible" id="zRs0aU+e17-4">
<path style="stroke:none;" d="M 0.359375 -6.5625 L 1.5 -6.5625 L 3.546875 -1.0625 L 5.609375 -6.5625 L 6.75 -6.5625 L 4.28125 0 L 2.8125 0 Z M 0.359375 -6.5625 "/>
</symbol>
</g>
<clipPath id="clip1">
  <path d="M 63 147 L 580 147 L 580 252 L 63 252 Z M 63 147 "/>
</clipPath>
<clipPath id="clip2">
  <path d="M 63 29.25 L 580 29.25 L 580 72 L 63 72 Z M 63 29.25 "/>
</clipPath>
</defs>
<g id="surface1">
<rect x="0" y="0" width="600" height="300" style="fill:rgb(100%,100%,100%);fill-opacity:1;stroke:none;"/>
<path style=" stroke:none;fill-rule:nonzero;fill:rgb(100%,100%,100%);fill-opacity:1;" d="M 55.5 252 L 588 252 L 588 29.25 L 55.5 29.25 Z M 55.5 252 "/>
<path style="fill:none;stroke-width:1;stroke-linecap:butt;stroke-linejoin:miter;stroke:rgb(0%,0%,0%);stroke-opacity:0.12;stroke-miterlimit:10;" d="M 106.276042 336 L 106.276042 39 " transform="matrix(0.75,0,0,0.75,0,0)"/>
<path style="fill:none;stroke-width:1;stroke-linecap:butt;stroke-linejoin:miter;stroke:rgb(0%,0%,0%);stroke-opacity:0.12;stroke-miterlimit:10;" d="M 285.567708 336 L 285.567708 39 " transform="matrix(0.75,0,0,0.75,0,0)"/>
<path style="fill:none;stroke-width:1;stroke-linecap:butt;stroke-linejoin:miter;stroke:rgb(0%,0%,0%);stroke-opacity:0.12;stroke-miterlimit:10;" d="M 464.859375 336 L 464.859375 39 " transform="matrix(0.75,0,0,0.75,0,0)"/>
<path style="fill:none;stroke-width:1;stroke-linecap:butt;stroke-linejoin:miter;stroke:rgb(0%,0%,0%);stroke-opacity:0.12;stroke-miterlimit:10;" d="M 644.151042 336 L 644.151042 39 " transform="matrix(0.75,0,0,0.75,0,0)"/>
<path style="fill:none;stroke-width:1;stroke-linecap:butt;stroke-linejoin:miter;stroke:rgb(0%,0%,0%);stroke-opacity:0.12;stroke-miterlimit:10;" d="M 74 255.4375 L 784 255.4375 " transform="matrix(0.75,0,0,0.75,0,0)"/>
<path style="fill:none;stroke-width:1;stroke-linecap:butt;stroke-linejoin:miter;stroke:rgb(0%,0%,0%);stroke-opacity:0.12;stroke-miterlimit:10;" d="M 74 164.510417 L 784 164.510417 " transform="matrix(0.75,0,0,0.75,0,0)"/>
<path style="fill:none;stroke-width:1;stroke-linecap:butt;stroke-linejoin:miter;stroke:rgb(0%,0%,0%);stroke-opacity:0.12;stroke-miterlimit:10;" d="M 74 73.588542 L 784 73.588542 " transform="matrix(0.75,0,0,0.75,0,0)"/>
<g style="fill:rgb(0%,0%,0%);fill-opacity:1;">
  <use xlink:href="#zRs0aU+e0-1" x="308.804688" y="286.109375"/>
</g>
<g style="fill:rgb(0%,0%,0%);fill-opacity:1;">
  <use xlink:href="#zRs0aU+e1-1" x="316.136719" y="286.109375"/>
</g>
<g style="fill:rgb(0%,0%,0%);fill-opacity:1;">
  <use xlink:href="#zRs0aU+e1-2" x="323.519531" y="286.109375"/>
</g>
<g style="fill:rgb(0%,0%,0%);fill-opacity:1;">
  <use xlink:href="#zRs0aU+e1-3" x="330.875" y="286.109375"/>
</g>
<g style="fill:rgb(0%,0%,0%);fill-opacity:1;">
  <use xlink:href="#zRs0aU+e2-1" x="64.570312" y="269.890625"/>
</g>
<g style="fill:rgb(0%,0%,0%);fill-opacity:1;">
  <use xlink:href="#zRs0aU+e3-1" x="72.207031" y="269.890625"/>
</g>
<g style="fill:rgb(0%,0%,0%);fill-opacity:1;">
  <use xlink:href="#zRs0aU+e4-1" x="79.839844" y="269.890625"/>
</g>
<g style="fill:rgb(0%,0%,0%);fill-opacity:1;">
  <use xlink:href="#zRs0aU+e3-2" x="87.476562" y="269.890625"/>
</g>
<g style="fill:rgb(0%,0%,0%);fill-opacity:1;">
  <use xlink:href="#zRs0aU+e1-4" x="199.234375" y="269.890625"/>
</g>
<g style="fill:rgb(0%,0%,0%);fill-opacity:1;">
  <use xlink:href="#zRs0aU+e1-5" x="206.867187" y="269.890625"/>
</g>
<g style="fill:rgb(0%,0%,0%);fill-opacity:1;">
  <use xlink:href="#zRs0aU+e1-6" x="214.503906" y="269.890625"/>
</g>
<g style="fill:rgb(0%,0%,0%);fill-opacity:1;">
  <use xlink:href="#zRs0aU+e1-7" x="222.136719" y="269.890625"/>
</g>
<g style="fill:rgb(0%,0%,0%);fill-opacity:1;">
  <use xlink:href="#zRs0aU+e0-2" x="333.507812" y="269.890625"/>
</g>
<g style="fill:rgb(0%,0%,0%);fill-opacity:1;">
  <use xlink:href="#zRs0aU+e1-5" x="341.144531" y="269.890625"/>
</g>
<g style="fill:rgb(0%,0%,0%);fill-opacity:1;">
  <use xlink:href="#zRs0aU+e0-3" x="348.777344" y="269.890625"/>
</g>
<g style="fill:rgb(0%,0%,0%);fill-opacity:1;">
  <use xlink:href="#zRs0aU+e1-8" x="356.414062" y="269.890625"/>
</g>
<g style="fill:rgb(0%,0%,0%);fill-opacity:1;">
  <use xlink:href="#zRs0aU+e1-4" x="468.171875" y="269.890625"/>
</g>
<g style="fill:rgb(0%,0%,0%);fill-opacity:1;">
  <use xlink:href="#zRs0aU+e1-5" x="475.804688" y="269.890625"/>
</g>
<g style="fill:rgb(0%,0%,0%);fill-opacity:1;">
  <use xlink:href="#zRs0aU+e1-9" x="483.441406" y="269.890625"/>
</g>
<g style="fill:rgb(0%,0%,0%);fill-opacity:1;">
  <use xlink:href="#zRs0aU+e1-7" x="491.074219" y="269.890625"/>
</g>
<g style="fill:rgb(0%,0%,0%);fill-opacity:1;">
  <use xlink:href="#zRs0aU+e5-1" x="22.363281" y="218.789062"/>
</g>
<g style="fill:rgb(0%,0%,0%);fill-opacity:1;">
  <use xlink:href="#zRs0aU+e6-1" x="22.363281" y="210.410156"/>
</g>
<g style="fill:rgb(0%,0%,0%);fill-opacity:1;">
  <use xlink:href="#zRs0aU+e5-2" x="22.363281" y="203.054688"/>
</g>
<g style="fill:rgb(0%,0%,0%);fill-opacity:1;">
  <use xlink:href="#zRs0aU+e7-1" x="22.363281" y="198.125"/>
</g>
<g style="fill:rgb(0%,0%,0%);fill-opacity:1;">
  <use xlink:href="#zRs0aU+e5-3" x="22.363281" y="191.871094"/>
</g>
<g style="fill:rgb(0%,0%,0%);fill-opacity:1;">
  <use xlink:href="#zRs0aU+e8-1" x="22.363281" y="188.058594"/>
</g>
<g style="fill:rgb(0%,0%,0%);fill-opacity:1;">
  <use xlink:href="#zRs0aU+e8-2" x="22.363281" y="180.441406"/>
</g>
<g style="fill:rgb(0%,0%,0%);fill-opacity:1;">
  <use xlink:href="#zRs0aU+e5-2" x="22.363281" y="173.054688"/>
</g>
<g style="fill:rgb(0%,0%,0%);fill-opacity:1;">
  <use xlink:href="#zRs0aU+e7-2" x="22.363281" y="168.125"/>
</g>
<g style="fill:rgb(0%,0%,0%);fill-opacity:1;">
  <use xlink:href="#zRs0aU+e7-3" x="22.363281" y="164.308594"/>
</g>
<g style="fill:rgb(0%,0%,0%);fill-opacity:1;">
  <use xlink:href="#zRs0aU+e5-4" x="22.363281" y="157.710938"/>
</g>
<g style="fill:rgb(0%,0%,0%);fill-opacity:1;">
  <use xlink:href="#zRs0aU+e7-4" x="22.363281" y="150.355469"/>
</g>
<g style="fill:rgb(0%,0%,0%);fill-opacity:1;">
  <use xlink:href="#zRs0aU+e8-3" x="22.363281" y="142.742188"/>
</g>
<g style="fill:rgb(0%,0%,0%);fill-opacity:1;">
  <use xlink:href="#zRs0aU+e8-4" x="22.363281" y="139.40625"/>
</g>
<g style="fill:rgb(0%,0%,0%);fill-opacity:1;">
  <use xlink:href="#zRs0aU+e8-5" x="22.363281" y="134.703125"/>
</g>
<g style="fill:rgb(0%,0%,0%);fill-opacity:1;">
  <use xlink:href="#zRs0aU+e9-1" x="22.367188" y="127.347656"/>
</g>
<g style="fill:rgb(0%,0%,0%);fill-opacity:1;">
  <use xlink:href="#zRs0aU+e10-1" x="22.367188" y="123.535156"/>
</g>
<g style="fill:rgb(0%,0%,0%);fill-opacity:1;">
  <use xlink:href="#zRs0aU+e9-2" x="22.367188" y="118.851562"/>
</g>
<g style="fill:rgb(0%,0%,0%);fill-opacity:1;">
  <use xlink:href="#zRs0aU+e9-3" x="22.367188" y="115.515625"/>
</g>
<g style="fill:rgb(0%,0%,0%);fill-opacity:1;">
  <use xlink:href="#zRs0aU+e9-4" x="22.367188" y="108.175781"/>
</g>
<g style="fill:rgb(0%,0%,0%);fill-opacity:1;">
  <use xlink:href="#zRs0aU+e9-1" x="22.367188" y="100.558594"/>
</g>
<g style="fill:rgb(0%,0%,0%);fill-opacity:1;">
  <use xlink:href="#zRs0aU+e10-2" x="22.367188" y="96.746094"/>
</g>
<g style="fill:rgb(0%,0%,0%);fill-opacity:1;">
  <use xlink:href="#zRs0aU+e9-5" x="22.367188" y="90.492188"/>
</g>
<g style="fill:rgb(0%,0%,0%);fill-opacity:1;">
  <use xlink:href="#zRs0aU+e11-1" x="22.367188" y="83.894531"/>
</g>
<g style="fill:rgb(0%,0%,0%);fill-opacity:1;">
  <use xlink:href="#zRs0aU+e11-2" x="22.367188" y="76.539062"/>
</g>
<g style="fill:rgb(0%,0%,0%);fill-opacity:1;">
  <use xlink:href="#zRs0aU+e9-6" x="22.367188" y="73.207031"/>
</g>
<g style="fill:rgb(0%,0%,0%);fill-opacity:1;">
  <use xlink:href="#zRs0aU+e9-7" x="22.367188" y="65.824219"/>
</g>
<g style="fill:rgb(0%,0%,0%);fill-opacity:1;">
  <use xlink:href="#zRs0aU+e2-2" x="29.730469" y="195.730469"/>
</g>
<g style="fill:rgb(0%,0%,0%);fill-opacity:1;">
  <use xlink:href="#zRs0aU+e4-2" x="34.0625" y="195.730469"/>
</g>
<g style="fill:rgb(0%,0%,0%);fill-opacity:1;">
  <use xlink:href="#zRs0aU+e12-1" x="41.695312" y="195.730469"/>
</g>
<g style="fill:rgb(0%,0%,0%);fill-opacity:1;">
  <use xlink:href="#zRs0aU+e2-2" x="29.238281" y="127.539062"/>
</g>
<g style="fill:rgb(0%,0%,0%);fill-opacity:1;">
  <use xlink:href="#zRs0aU+e4-2" x="33.570312" y="127.539062"/>
</g>
<g style="fill:rgb(0%,0%,0%);fill-opacity:1;">
  <use xlink:href="#zRs0aU+e4-3" x="41.203125" y="127.539062"/>
</g>
<g style="fill:rgb(0%,0%,0%);fill-opacity:1;">
  <use xlink:href="#zRs0aU+e13-1" x="36.921875" y="59.34375"/>
</g>
<g style="fill:rgb(0%,0%,0%);fill-opacity:1;">
  <use xlink:href="#zRs0aU+e14-1" x="41.25" y="59.34375"/>
</g>
<g style="fill:rgb(0%,0%,0%);fill-opacity:1;">
  <use xlink:href="#zRs0aU+e15-1" x="216.347656" y="23.421875"/>
</g>
<g style="fill:rgb(0%,0%,0%);fill-opacity:1;">
  <use xlink:href="#zRs0aU+e15-2" x="224.558594" y="23.421875"/>
</g>
<g style="fill:rgb(0%,0%,0%);fill-opacity:1;">
  <use xlink:href="#zRs0aU+e15-3" x="231.910156" y="23.421875"/>
</g>
<g style="fill:rgb(0%,0%,0%);fill-opacity:1;">
  <use xlink:href="#zRs0aU+e16-1" x="236.84375" y="23.421875"/>
</g>
<g style="fill:rgb(0%,0%,0%);fill-opacity:1;">
  <use xlink:href="#zRs0aU+e16-2" x="240.179688" y="23.421875"/>
</g>
<g style="fill:rgb(0%,0%,0%);fill-opacity:1;">
  <use xlink:href="#zRs0aU+e15-4" x="247.53125" y="23.421875"/>
</g>
<g style="fill:rgb(0%,0%,0%);fill-opacity:1;">
  <use xlink:href="#zRs0aU+e15-5" x="252.238281" y="23.421875"/>
</g>
<g style="fill:rgb(0%,0%,0%);fill-opacity:1;">
  <use xlink:href="#zRs0aU+e15-6" x="255.570312" y="23.421875"/>
</g>
<g style="fill:rgb(0%,0%,0%);fill-opacity:1;">
  <use xlink:href="#zRs0aU+e15-7" x="262.914062" y="23.421875"/>
</g>
<g style="fill:rgb(0%,0%,0%);fill-opacity:1;">
  <use xlink:href="#zRs0aU+e16-3" x="270.519531" y="23.421875"/>
</g>
<g style="fill:rgb(0%,0%,0%);fill-opacity:1;">
  <use xlink:href="#zRs0aU+e17-1" x="274.332031" y="23.421875"/>
</g>
<g style="fill:rgb(0%,0%,0%);fill-opacity:1;">
  <use xlink:href="#zRs0aU+e16-4" x="281.6875" y="23.421875"/>
</g>
<g style="fill:rgb(0%,0%,0%);fill-opacity:1;">
  <use xlink:href="#zRs0aU+e16-3" x="286.390625" y="23.421875"/>
</g>
<g style="fill:rgb(0%,0%,0%);fill-opacity:1;">
  <use xlink:href="#zRs0aU+e15-8" x="290.207031" y="23.421875"/>
</g>
<g style="fill:rgb(0%,0%,0%);fill-opacity:1;">
  <use xlink:href="#zRs0aU+e15-2" x="297.824219" y="23.421875"/>
</g>
<g style="fill:rgb(0%,0%,0%);fill-opacity:1;">
  <use xlink:href="#zRs0aU+e17-2" x="305.175781" y="23.421875"/>
</g>
<g style="fill:rgb(0%,0%,0%);fill-opacity:1;">
  <use xlink:href="#zRs0aU+e15-9" x="311.429688" y="23.421875"/>
</g>
<g style="fill:rgb(0%,0%,0%);fill-opacity:1;">
  <use xlink:href="#zRs0aU+e16-5" x="318.8125" y="23.421875"/>
</g>
<g style="fill:rgb(0%,0%,0%);fill-opacity:1;">
  <use xlink:href="#zRs0aU+e16-1" x="322.144531" y="23.421875"/>
</g>
<g style="fill:rgb(0%,0%,0%);fill-opacity:1;">
  <use xlink:href="#zRs0aU+e16-6" x="325.480469" y="23.421875"/>
</g>
<g style="fill:rgb(0%,0%,0%);fill-opacity:1;">
  <use xlink:href="#zRs0aU+e17-3" x="333.085938" y="23.421875"/>
</g>
<g style="fill:rgb(0%,0%,0%);fill-opacity:1;">
  <use xlink:href="#zRs0aU+e15-10" x="340.46875" y="23.421875"/>
</g>
<g style="fill:rgb(0%,0%,0%);fill-opacity:1;">
  <use xlink:href="#zRs0aU+e15-2" x="344.28125" y="23.421875"/>
</g>
<g style="fill:rgb(0%,0%,0%);fill-opacity:1;">
  <use xlink:href="#zRs0aU+e15-7" x="351.636719" y="23.421875"/>
</g>
<g style="fill:rgb(0%,0%,0%);fill-opacity:1;">
  <use xlink:href="#zRs0aU+e16-7" x="359.242188" y="23.421875"/>
</g>
<g style="fill:rgb(0%,0%,0%);fill-opacity:1;">
  <use xlink:href="#zRs0aU+e16-3" x="366.859375" y="23.421875"/>
</g>
<g style="fill:rgb(0%,0%,0%);fill-opacity:1;">
  <use xlink:href="#zRs0aU+e16-8" x="370.671875" y="23.421875"/>
</g>
<g style="fill:rgb(0%,0%,0%);fill-opacity:1;">
  <use xlink:href="#zRs0aU+e17-4" x="378.015625" y="23.421875"/>
</g>
<g style="fill:rgb(0%,0%,0%);fill-opacity:1;">
  <use xlink:href="#zRs0aU+e15-9" x="385.117187" y="23.421875"/>
</g>
<g style="fill:rgb(0%,0%,0%);fill-opacity:1;">
  <use xlink:href="#zRs0aU+e15-3" x="392.5" y="23.421875"/>
</g>
<g style="fill:rgb(0%,0%,0%);fill-opacity:1;">
  <use xlink:href="#zRs0aU+e15-10" x="397.433594" y="23.421875"/>
</g>
<g style="fill:rgb(0%,0%,0%);fill-opacity:1;">
  <use xlink:href="#zRs0aU+e15-4" x="401.246094" y="23.421875"/>
</g>
<g style="fill:rgb(0%,0%,0%);fill-opacity:1;">
  <use xlink:href="#zRs0aU+e15-5" x="405.953125" y="23.421875"/>
</g>
<g style="fill:rgb(0%,0%,0%);fill-opacity:1;">
  <use xlink:href="#zRs0aU+e15-11" x="409.285156" y="23.421875"/>
</g>
<g style="fill:rgb(0%,0%,0%);fill-opacity:1;">
  <use xlink:href="#zRs0aU+e15-9" x="420.976562" y="23.421875"/>
</g>
<path style="fill:none;stroke-width:1.5;stroke-linecap:butt;stroke-linejoin:miter;stroke:rgb(67.843139%,84.705883%,90.196079%);stroke-opacity:1;stroke-miterlimit:10;" d="M 106.276042 153.911458 L 142.135417 146.71875 L 177.994792 139.838542 L 213.854167 134.651042 L 249.708333 129.854167 L 285.567708 124.682292 L 321.427083 119.947917 L 357.286458 116.067708 L 393.140625 112.135417 L 429 109.442708 L 464.859375 106.692708 L 500.71875 102.494792 L 536.578125 98.0625 L 572.432292 95.739583 L 608.291667 93.151042 L 644.151042 90.989583 L 680.010417 88.234375 L 715.864583 84.932292 L 751.723958 83.182292 " transform="matrix(0.75,0,0,0.75,0,0)"/>
<path style="fill:none;stroke-width:1.5;stroke-linecap:butt;stroke-linejoin:miter;stroke:rgb(67.843139%,84.705883%,90.196079%);stroke-opacity:1;stroke-miterlimit:10;" d="M 106.276042 137.484375 L 142.135417 132.828125 L 177.994792 128.963542 L 213.854167 124.276042 L 249.708333 119.296875 L 285.567708 112.802083 L 321.427083 107.890625 L 357.286458 107.630208 L 393.140625 99.796875 L 429 97.291667 L 464.859375 94.182292 L 500.71875 92.203125 L 536.578125 90.072917 L 572.432292 87.880208 L 608.291667 85.890625 L 644.151042 83.989583 L 680.010417 81.958333 L 715.864583 79.885417 L 751.723958 78.348958 " transform="matrix(0.75,0,0,0.75,0,0)"/>
<path style="fill:none;stroke-width:1.5;stroke-linecap:butt;stroke-linejoin:miter;stroke:rgb(67.843139%,84.705883%,90.196079%);stroke-opacity:1;stroke-miterlimit:10;" d="M 106.276042 90.8125 L 142.135417 89.348958 L 177.994792 88.15625 L 213.854167 85.833333 L 249.708333 85.0625 L 285.567708 83.755208 L 321.427083 82.734375 L 357.286458 80.682292 L 393.140625 79.1875 L 429 77.911458 L 464.859375 77.223958 L 500.71875 75.369792 L 536.578125 73.109375 L 572.432292 70.958333 L 608.291667 69.072917 L 644.151042 67.828125 L 680.010417 64.875 L 715.864583 63.072917 L 751.723958 63.953125 " transform="matrix(0.75,0,0,0.75,0,0)"/>
<path style="fill:none;stroke-width:1.5;stroke-linecap:butt;stroke-linejoin:miter;stroke:rgb(67.843139%,84.705883%,90.196079%);stroke-opacity:1;stroke-miterlimit:10;" d="M 106.276042 133.875 L 142.135417 127.828125 L 177.994792 121.197917 L 213.854167 116.901042 L 249.708333 112.348958 L 285.567708 108.223958 L 321.427083 104.572917 L 357.286458 100.958333 L 393.140625 97.854167 L 429 94.973958 L 464.859375 93 L 500.71875 90.380208 L 536.578125 88.802083 L 572.432292 87.432292 L 608.291667 87.234375 L 644.151042 86.072917 L 680.010417 84.682292 L 715.864583 83.583333 L 751.723958 82.489583 " transform="matrix(0.75,0,0,0.75,0,0)"/>
<path style="fill:none;stroke-width:1.5;stroke-linecap:butt;stroke-linejoin:miter;stroke:rgb(67.843139%,84.705883%,90.196079%);stroke-opacity:1;stroke-miterlimit:10;" d="M 106.276042 125.671875 L 142.135417 121.0625 L 177.994792 115.869792 L 213.854167 110.802083 L 249.708333 105.90625 L 285.567708 102.197917 L 321.427083 98.395833 L 357.286458 95.744792 L 393.140625 92.932292 L 429 90.369792 L 464.859375 88.458333 L 500.71875 86.291667 L 536.578125 83.713542 L 572.432292 81.947917 L 608.291667 80.875 L 644.151042 80.197917 L 680.010417 78.604167 L 715.864583 76.505208 L 751.723958 73.84375 " transform="matrix(0.75,0,0,0.75,0,0)"/>
<path style="fill:none;stroke-width:1.5;stroke-linecap:butt;stroke-linejoin:miter;stroke:rgb(67.843139%,84.705883%,90.196079%);stroke-opacity:1;stroke-miterlimit:10;" d="M 106.276042 134.619792 L 142.135417 127.40625 L 177.994792 120.744792 L 213.854167 115.119792 L 249.708333 110.458333 L 285.567708 105.947917 L 321.427083 102.28125 L 357.286458 99.770833 L 393.140625 97.036458 L 429 93.5 L 464.859375 90.041667 L 500.71875 86.489583 L 536.578125 84.369792 L 572.432292 82.635417 L 608.291667 81.890625 L 644.151042 80.286458 L 680.010417 77.546875 L 715.864583 74.088542 L 751.723958 71.317708 " transform="matrix(0.75,0,0,0.75,0,0)"/>
<path style="fill:none;stroke-width:1.5;stroke-linecap:butt;stroke-linejoin:miter;stroke:rgb(67.843139%,84.705883%,90.196079%);stroke-opacity:1;stroke-miterlimit:10;" d="M 106.276042 263.338542 L 142.135417 257.786458 L 177.994792 251.177083 L 213.854167 243.328125 L 249.708333 234.979167 L 285.567708 224.385417 L 321.427083 217.098958 L 357.286458 210.46875 L 393.140625 203.046875 L 429 196.963542 L 464.859375 190.177083 L 500.71875 183.5 L 536.578125 177.520833 L 572.432292 171.625 L 608.291667 167.770833 L 644.151042 161.479167 L 680.010417 154.369792 L 715.864583 147.041667 L 751.723958 145.1875 " transform="matrix(0.75,0,0,0.75,0,0)"/>
<path style="fill:none;stroke-width:1.5;stroke-linecap:butt;stroke-linejoin:miter;stroke:rgb(67.843139%,84.705883%,90.196079%);stroke-opacity:1;stroke-miterlimit:10;" d="M 106.276042 150.786458 L 142.135417 146.546875 L 177.994792 141.880208 L 213.854167 137.65625 L 249.708333 133.34375 L 285.567708 129.026042 L 321.427083 126.817708 L 357.286458 124.260417 L 393.140625 119.828125 L 429 116.651042 L 464.859375 115.364583 L 500.71875 113.229167 L 536.578125 111.046875 L 572.432292 107.942708 L 608.291667 107.463542 L 644.151042 105.838542 L 680.010417 103.921875 L 715.864583 102.713542 L 751.723958 98.635417 " transform="matrix(0.75,0,0,0.75,0,0)"/>
<path style="fill:none;stroke-width:1.5;stroke-linecap:butt;stroke-linejoin:miter;stroke:rgb(67.843139%,84.705883%,90.196079%);stroke-opacity:1;stroke-miterlimit:10;" d="M 106.276042 170.96875 L 142.135417 161.447917 L 177.994792 152.083333 L 213.854167 140.817708 L 249.708333 133.072917 L 285.567708 126.234375 L 321.427083 119.723958 L 357.286458 113.744792 L 393.140625 108.328125 L 429 103.864583 L 464.859375 99.380208 L 500.71875 95 L 536.578125 90.869792 L 572.432292 87.984375 L 608.291667 85.510417 L 644.151042 83.484375 L 680.010417 81.213542 L 715.864583 80.208333 L 751.723958 78.71875 " transform="matrix(0.75,0,0,0.75,0,0)"/>
<path style="fill:none;stroke-width:1.5;stroke-linecap:butt;stroke-linejoin:miter;stroke:rgb(67.843139%,84.705883%,90.196079%);stroke-opacity:1;stroke-miterlimit:10;" d="M 106.276042 266.119792 L 142.135417 249.546875 L 177.994792 236.697917 L 213.854167 222.260417 L 249.708333 208.927083 L 285.567708 197.333333 L 321.427083 185.854167 L 357.286458 172.541667 L 393.140625 159.140625 L 429 146.671875 L 464.859375 136.458333 L 500.71875 128.567708 L 536.578125 121.510417 L 572.432292 115.604167 L 608.291667 112.072917 L 644.151042 108.828125 L 680.010417 106.15625 L 715.864583 103.390625 L 751.723958 100.59375 " transform="matrix(0.75,0,0,0.75,0,0)"/>
<path style="fill:none;stroke-width:1.5;stroke-linecap:butt;stroke-linejoin:miter;stroke:rgb(67.843139%,84.705883%,90.196079%);stroke-opacity:1;stroke-miterlimit:10;" d="M 106.276042 164.442708 L 142.135417 157.541667 L 177.994792 150.442708 L 213.854167 143.328125 L 249.708333 134.78125 L 285.567708 127.010417 L 321.427083 120.114583 L 357.286458 114.328125 L 393.140625 108.072917 L 429 102.416667 L 464.859375 97.203125 L 500.71875 94.390625 L 536.578125 90.979167 L 572.432292 87.53125 L 608.291667 84.973958 L 644.151042 81.921875 L 680.010417 82.791667 L 715.864583 80.973958 L 751.723958 80.677083 " transform="matrix(0.75,0,0,0.75,0,0)"/>
<path style="fill:none;stroke-width:1.5;stroke-linecap:butt;stroke-linejoin:miter;stroke:rgb(67.843139%,84.705883%,90.196079%);stroke-opacity:1;stroke-miterlimit:10;" d="M 106.276042 149.739583 L 142.135417 140.489583 L 177.994792 134.03125 L 213.854167 128.947917 L 249.708333 123.208333 L 285.567708 118.505208 L 321.427083 114.135417 L 357.286458 110.078125 L 393.140625 110.005208 L 429 105.166667 L 464.859375 102.166667 L 500.71875 99.432292 L 536.578125 96.973958 L 572.432292 94.484375 L 608.291667 92.0625 L 644.151042 89.177083 L 680.010417 86.192708 L 715.864583 82.807292 L 751.723958 81.395833 " transform="matrix(0.75,0,0,0.75,0,0)"/>
<path style="fill:none;stroke-width:1.5;stroke-linecap:butt;stroke-linejoin:miter;stroke:rgb(67.843139%,84.705883%,90.196079%);stroke-opacity:1;stroke-miterlimit:10;" d="M 106.276042 236.723958 L 142.135417 227.432292 L 177.994792 217.145833 L 213.854167 209.270833 L 249.708333 200.333333 L 285.567708 191.114583 L 321.427083 179.5 L 357.286458 169.192708 L 393.140625 160.484375 L 429 151.802083 L 464.859375 144.385417 L 500.71875 137.6875 L 536.578125 131.34375 L 572.432292 124.807292 L 608.291667 119.651042 L 644.151042 115.229167 L 680.010417 110.895833 L 715.864583 106.645833 L 751.723958 102.442708 " transform="matrix(0.75,0,0,0.75,0,0)"/>
<path style="fill:none;stroke-width:1.5;stroke-linecap:butt;stroke-linejoin:miter;stroke:rgb(67.843139%,84.705883%,90.196079%);stroke-opacity:1;stroke-miterlimit:10;" d="M 106.276042 107.348958 L 142.135417 103.588542 L 177.994792 99.838542 L 213.854167 96.057292 L 249.708333 93.291667 L 285.567708 90.385417 L 321.427083 88.447917 L 357.286458 86.744792 L 393.140625 84.869792 L 429 82.5625 L 464.859375 81.067708 L 500.71875 80.052083 L 536.578125 78.276042 L 572.432292 77.541667 L 608.291667 75.25 L 644.151042 73.322917 L 680.010417 71.588542 L 715.864583 72.166667 L 751.723958 72.3125 " transform="matrix(0.75,0,0,0.75,0,0)"/>
<path style="fill:none;stroke-width:1.5;stroke-linecap:butt;stroke-linejoin:miter;stroke:rgb(67.843139%,84.705883%,90.196079%);stroke-opacity:1;stroke-miterlimit:10;" d="M 106.276042 130.979167 L 142.135417 126.239583 L 177.994792 121.145833 L 213.854167 116.8125 L 249.708333 111.75 L 285.567708 108.15625 L 321.427083 104.458333 L 357.286458 101.770833 L 393.140625 98.354167 L 429 95.109375 L 464.859375 92.0625 L 500.71875 89.958333 L 536.578125 87.390625 L 572.432292 84.796875 L 608.291667 82.927083 L 644.151042 81.135417 L 680.010417 79.4375 L 715.864583 77.838542 L 751.723958 75.151042 " transform="matrix(0.75,0,0,0.75,0,0)"/>
<g clip-path="url(#clip1)" clip-rule="nonzero">
<path style="fill:none;stroke-width:1.5;stroke-linecap:butt;stroke-linejoin:miter;stroke:rgb(67.843139%,84.705883%,90.196079%);stroke-opacity:1;stroke-miterlimit:10;" d="M 106.276042 322.5 L 142.135417 318.385417 L 177.994792 312.078125 L 213.854167 312.489583 L 249.708333 310.458333 L 285.567708 295.411458 L 321.427083 298.677083 L 357.286458 291.890625 L 393.140625 292.140625 L 429 279.010417 L 464.859375 275.739583 L 500.71875 273.567708 L 536.578125 264.166667 L 572.432292 254.989583 L 608.291667 244.494792 L 644.151042 235.203125 L 680.010417 229.59375 L 715.864583 220.604167 L 751.723958 218.21875 " transform="matrix(0.75,0,0,0.75,0,0)"/>
</g>
<path style="fill:none;stroke-width:1.5;stroke-linecap:butt;stroke-linejoin:miter;stroke:rgb(67.843139%,84.705883%,90.196079%);stroke-opacity:1;stroke-miterlimit:10;" d="M 106.276042 124.395833 L 142.135417 121.270833 L 177.994792 117.541667 L 213.854167 112.5 L 249.708333 107.671875 L 285.567708 104.390625 L 321.427083 101.692708 L 357.286458 98.364583 L 393.140625 96.401042 L 429 94.869792 L 464.859375 93.822917 L 500.71875 91.895833 L 536.578125 89.776042 L 572.432292 87.53125 L 608.291667 86.578125 L 644.151042 86.151042 L 680.010417 85.833333 L 715.864583 85.703125 L 751.723958 85.526042 " transform="matrix(0.75,0,0,0.75,0,0)"/>
<g clip-path="url(#clip2)" clip-rule="nonzero">
<path style="fill:none;stroke-width:1.5;stroke-linecap:butt;stroke-linejoin:miter;stroke:rgb(67.843139%,84.705883%,90.196079%);stroke-opacity:1;stroke-miterlimit:10;" d="M 106.276042 74.46875 L 142.135417 73.552083 L 177.994792 72.96875 L 213.854167 71.744792 L 249.708333 70.401042 L 285.567708 69.0625 L 321.427083 67.583333 L 357.286458 66.364583 L 393.140625 65.515625 L 429 64.161458 L 464.859375 62.921875 L 500.71875 62.171875 L 536.578125 59.057292 L 572.432292 57.114583 L 608.291667 56.197917 L 644.151042 55.71875 L 680.010417 54.255208 L 715.864583 53.286458 L 751.723958 52.5 " transform="matrix(0.75,0,0,0.75,0,0)"/>
</g>
<path style="fill:none;stroke-width:1;stroke-linecap:butt;stroke-linejoin:miter;stroke:rgb(0%,0%,0%);stroke-opacity:1;stroke-miterlimit:10;" d="M 106.276042 336.5 L 106.276042 342.5 " transform="matrix(0.75,0,0,0.75,0,0)"/>
<path style="fill:none;stroke-width:1;stroke-linecap:butt;stroke-linejoin:miter;stroke:rgb(0%,0%,0%);stroke-opacity:1;stroke-miterlimit:10;" d="M 285.567708 336.5 L 285.567708 342.5 " transform="matrix(0.75,0,0,0.75,0,0)"/>
<path style="fill:none;stroke-width:1;stroke-linecap:butt;stroke-linejoin:miter;stroke:rgb(0%,0%,0%);stroke-opacity:1;stroke-miterlimit:10;" d="M 464.859375 336.5 L 464.859375 342.5 " transform="matrix(0.75,0,0,0.75,0,0)"/>
<path style="fill:none;stroke-width:1;stroke-linecap:butt;stroke-linejoin:miter;stroke:rgb(0%,0%,0%);stroke-opacity:1;stroke-miterlimit:10;" d="M 644.151042 336.5 L 644.151042 342.5 " transform="matrix(0.75,0,0,0.75,0,0)"/>
<path style="fill:none;stroke-width:1;stroke-linecap:butt;stroke-linejoin:miter;stroke:rgb(0%,0%,0%);stroke-opacity:1;stroke-miterlimit:10;" d="M 73.5 255.4375 L 67.5 255.4375 " transform="matrix(0.75,0,0,0.75,0,0)"/>
<path style="fill:none;stroke-width:1;stroke-linecap:butt;stroke-linejoin:miter;stroke:rgb(0%,0%,0%);stroke-opacity:1;stroke-miterlimit:10;" d="M 73.5 164.510417 L 67.5 164.510417 " transform="matrix(0.75,0,0,0.75,0,0)"/>
<path style="fill:none;stroke-width:1;stroke-linecap:butt;stroke-linejoin:miter;stroke:rgb(0%,0%,0%);stroke-opacity:1;stroke-miterlimit:10;" d="M 73.5 73.588542 L 67.5 73.588542 " transform="matrix(0.75,0,0,0.75,0,0)"/>
<path style="fill:none;stroke-width:1;stroke-linecap:butt;stroke-linejoin:miter;stroke:rgb(0%,0%,0%);stroke-opacity:1;stroke-miterlimit:10;" d="M 73.5 336 L 784.5 336 " transform="matrix(0.75,0,0,0.75,0,0)"/>
<path style="fill:none;stroke-width:1;stroke-linecap:butt;stroke-linejoin:miter;stroke:rgb(0%,0%,0%);stroke-opacity:1;stroke-miterlimit:10;" d="M 74 336.5 L 74 38.5 " transform="matrix(0.75,0,0,0.75,0,0)"/>
<path style="fill:none;stroke-width:1;stroke-linecap:butt;stroke-linejoin:miter;stroke:rgb(0%,0%,0%);stroke-opacity:1;stroke-miterlimit:10;" d="M 73.5 39 L 784.5 39 " transform="matrix(0.75,0,0,0.75,0,0)"/>
<path style="fill:none;stroke-width:1;stroke-linecap:butt;stroke-linejoin:miter;stroke:rgb(0%,0%,0%);stroke-opacity:1;stroke-miterlimit:10;" d="M 784 336.5 L 784 38.5 " transform="matrix(0.75,0,0,0.75,0,0)"/>
</g>
</svg>
