<?xml version="1.0" encoding="utf-8"?>
<svg xmlns="http://www.w3.org/2000/svg" xmlns:xlink="http://www.w3.org/1999/xlink" width="600" height="400" viewBox="0 0 2400 1600">
<defs>
  <clipPath id="clip600">
    <rect x="0" y="0" width="2400" height="1600"/>
  </clipPath>
</defs>
<path clip-path="url(#clip600)" d="
M0 1600 L2400 1600 L2400 0 L0 0  Z
  " fill="#ffffff" fill-rule="evenodd" fill-opacity="1"/>
<defs>
  <clipPath id="clip601">
    <rect x="480" y="0" width="1681" height="1600"/>
  </clipPath>
</defs>
<path clip-path="url(#clip600)" d="
M102.74 1505.26 L2352.76 1505.26 L2352.76 62.9921 L102.74 62.9921  Z
  " fill="#ffffff" fill-rule="evenodd" fill-opacity="1"/>
<defs>
  <clipPath id="clip602">
    <rect x="102" y="62" width="2251" height="1443"/>
  </clipPath>
</defs>
<polyline clip-path="url(#clip602)" style="stroke:#000000; stroke-width:2; stroke-opacity:0.1; fill:none" points="
  166.42,1505.26 166.42,62.9921 
  "/>
<polyline clip-path="url(#clip602)" style="stroke:#000000; stroke-width:2; stroke-opacity:0.1; fill:none" points="
  697.084,1505.26 697.084,62.9921 
  "/>
<polyline clip-path="url(#clip602)" style="stroke:#000000; stroke-width:2; stroke-opacity:0.1; fill:none" points="
  1227.75,1505.26 1227.75,62.9921 
  "/>
<polyline clip-path="url(#clip602)" style="stroke:#000000; stroke-width:2; stroke-opacity:0.1; fill:none" points="
  1758.41,1505.26 1758.41,62.9921 
  "/>
<polyline clip-path="url(#clip602)" style="stroke:#000000; stroke-width:2; stroke-opacity:0.1; fill:none" points="
  2289.08,1505.26 2289.08,62.9921 
  "/>
<polyline clip-path="url(#clip600)" style="stroke:#000000; stroke-width:4; stroke-opacity:1; fill:none" points="
  102.74,1505.26 2352.76,1505.26 
  "/>
<polyline clip-path="url(#clip600)" style="stroke:#000000; stroke-width:4; stroke-opacity:1; fill:none" points="
  166.42,1505.26 166.42,1487.95 
  "/>
<polyline clip-path="url(#clip600)" style="stroke:#000000; stroke-width:4; stroke-opacity:1; fill:none" points="
  697.084,1505.26 697.084,1487.95 
  "/>
<polyline clip-path="url(#clip600)" style="stroke:#000000; stroke-width:4; stroke-opacity:1; fill:none" points="
  1227.75,1505.26 1227.75,1487.95 
  "/>
<polyline clip-path="url(#clip600)" style="stroke:#000000; stroke-width:4; stroke-opacity:1; fill:none" points="
  1758.41,1505.26 1758.41,1487.95 
  "/>
<polyline clip-path="url(#clip600)" style="stroke:#000000; stroke-width:4; stroke-opacity:1; fill:none" points="
  2289.08,1505.26 2289.08,1487.95 
  "/>
<path clip-path="url(#clip600)" d="M 0 0 M112.948 1549.1 L142.624 1549.1 L142.624 1553.04 L112.948 1553.04 L112.948 1549.1 Z" fill="#000000" fill-rule="evenodd" fill-opacity="1" /><path clip-path="url(#clip600)" d="M 0 0 M153.526 1562 L161.165 1562 L161.165 1535.63 L152.855 1537.3 L152.855 1533.04 L161.119 1531.37 L165.795 1531.37 L165.795 1562 L173.434 1562 L173.434 1565.93 L153.526 1565.93 L153.526 1562 Z" fill="#000000" fill-rule="evenodd" fill-opacity="1" /><path clip-path="url(#clip600)" d="M 0 0 M182.878 1560.05 L187.762 1560.05 L187.762 1565.93 L182.878 1565.93 L182.878 1560.05 Z" fill="#000000" fill-rule="evenodd" fill-opacity="1" /><path clip-path="url(#clip600)" d="M 0 0 M207.947 1534.45 Q204.336 1534.45 202.508 1538.02 Q200.702 1541.56 200.702 1548.69 Q200.702 1555.79 202.508 1559.36 Q204.336 1562.9 207.947 1562.9 Q211.582 1562.9 213.387 1559.36 Q215.216 1555.79 215.216 1548.69 Q215.216 1541.56 213.387 1538.02 Q211.582 1534.45 207.947 1534.45 M207.947 1530.75 Q213.758 1530.75 216.813 1535.35 Q219.892 1539.94 219.892 1548.69 Q219.892 1557.41 216.813 1562.02 Q213.758 1566.6 207.947 1566.6 Q202.137 1566.6 199.059 1562.02 Q196.003 1557.41 196.003 1548.69 Q196.003 1539.94 199.059 1535.35 Q202.137 1530.75 207.947 1530.75 Z" fill="#000000" fill-rule="evenodd" fill-opacity="1" /><path clip-path="url(#clip600)" d="M 0 0 M644.11 1549.1 L673.785 1549.1 L673.785 1553.04 L644.11 1553.04 L644.11 1549.1 Z" fill="#000000" fill-rule="evenodd" fill-opacity="1" /><path clip-path="url(#clip600)" d="M 0 0 M693.878 1534.45 Q690.267 1534.45 688.438 1538.02 Q686.633 1541.56 686.633 1548.69 Q686.633 1555.79 688.438 1559.36 Q690.267 1562.9 693.878 1562.9 Q697.512 1562.9 699.318 1559.36 Q701.146 1555.79 701.146 1548.69 Q701.146 1541.56 699.318 1538.02 Q697.512 1534.45 693.878 1534.45 M693.878 1530.75 Q699.688 1530.75 702.744 1535.35 Q705.822 1539.94 705.822 1548.69 Q705.822 1557.41 702.744 1562.02 Q699.688 1566.6 693.878 1566.6 Q688.068 1566.6 684.989 1562.02 Q681.934 1557.41 681.934 1548.69 Q681.934 1539.94 684.989 1535.35 Q688.068 1530.75 693.878 1530.75 Z" fill="#000000" fill-rule="evenodd" fill-opacity="1" /><path clip-path="url(#clip600)" d="M 0 0 M714.04 1560.05 L718.924 1560.05 L718.924 1565.93 L714.04 1565.93 L714.04 1560.05 Z" fill="#000000" fill-rule="evenodd" fill-opacity="1" /><path clip-path="url(#clip600)" d="M 0 0 M729.156 1531.37 L747.512 1531.37 L747.512 1535.31 L733.438 1535.31 L733.438 1543.78 Q734.456 1543.43 735.475 1543.27 Q736.493 1543.08 737.512 1543.08 Q743.299 1543.08 746.679 1546.26 Q750.058 1549.43 750.058 1554.84 Q750.058 1560.42 746.586 1563.52 Q743.114 1566.6 736.794 1566.6 Q734.618 1566.6 732.35 1566.23 Q730.105 1565.86 727.697 1565.12 L727.697 1560.42 Q729.781 1561.56 732.003 1562.11 Q734.225 1562.67 736.702 1562.67 Q740.706 1562.67 743.044 1560.56 Q745.382 1558.46 745.382 1554.84 Q745.382 1551.23 743.044 1549.13 Q740.706 1547.02 736.702 1547.02 Q734.827 1547.02 732.952 1547.44 Q731.1 1547.85 729.156 1548.73 L729.156 1531.37 Z" fill="#000000" fill-rule="evenodd" fill-opacity="1" /><path clip-path="url(#clip600)" d="M 0 0 M1205.13 1534.45 Q1201.52 1534.45 1199.69 1538.02 Q1197.89 1541.56 1197.89 1548.69 Q1197.89 1555.79 1199.69 1559.36 Q1201.52 1562.9 1205.13 1562.9 Q1208.77 1562.9 1210.57 1559.36 Q1212.4 1555.79 1212.4 1548.69 Q1212.4 1541.56 1210.57 1538.02 Q1208.77 1534.45 1205.13 1534.45 M1205.13 1530.75 Q1210.94 1530.75 1214 1535.35 Q1217.08 1539.94 1217.08 1548.69 Q1217.08 1557.41 1214 1562.02 Q1210.94 1566.6 1205.13 1566.6 Q1199.32 1566.6 1196.24 1562.02 Q1193.19 1557.41 1193.19 1548.69 Q1193.19 1539.94 1196.24 1535.35 Q1199.32 1530.75 1205.13 1530.75 Z" fill="#000000" fill-rule="evenodd" fill-opacity="1" /><path clip-path="url(#clip600)" d="M 0 0 M1225.29 1560.05 L1230.18 1560.05 L1230.18 1565.93 L1225.29 1565.93 L1225.29 1560.05 Z" fill="#000000" fill-rule="evenodd" fill-opacity="1" /><path clip-path="url(#clip600)" d="M 0 0 M1250.36 1534.45 Q1246.75 1534.45 1244.92 1538.02 Q1243.12 1541.56 1243.12 1548.69 Q1243.12 1555.79 1244.92 1559.36 Q1246.75 1562.9 1250.36 1562.9 Q1254 1562.9 1255.8 1559.36 Q1257.63 1555.79 1257.63 1548.69 Q1257.63 1541.56 1255.8 1538.02 Q1254 1534.45 1250.36 1534.45 M1250.36 1530.75 Q1256.17 1530.75 1259.23 1535.35 Q1262.31 1539.94 1262.31 1548.69 Q1262.31 1557.41 1259.23 1562.02 Q1256.17 1566.6 1250.36 1566.6 Q1244.55 1566.6 1241.47 1562.02 Q1238.42 1557.41 1238.42 1548.69 Q1238.42 1539.94 1241.47 1535.35 Q1244.55 1530.75 1250.36 1530.75 Z" fill="#000000" fill-rule="evenodd" fill-opacity="1" /><path clip-path="url(#clip600)" d="M 0 0 M1736.29 1534.45 Q1732.68 1534.45 1730.85 1538.02 Q1729.05 1541.56 1729.05 1548.69 Q1729.05 1555.79 1730.85 1559.36 Q1732.68 1562.9 1736.29 1562.9 Q1739.93 1562.9 1741.73 1559.36 Q1743.56 1555.79 1743.56 1548.69 Q1743.56 1541.56 1741.73 1538.02 Q1739.93 1534.45 1736.29 1534.45 M1736.29 1530.75 Q1742.1 1530.75 1745.16 1535.35 Q1748.24 1539.94 1748.24 1548.69 Q1748.24 1557.41 1745.16 1562.02 Q1742.1 1566.6 1736.29 1566.6 Q1730.48 1566.6 1727.41 1562.02 Q1724.35 1557.41 1724.35 1548.69 Q1724.35 1539.94 1727.41 1535.35 Q1730.48 1530.75 1736.29 1530.75 Z" fill="#000000" fill-rule="evenodd" fill-opacity="1" /><path clip-path="url(#clip600)" d="M 0 0 M1756.46 1560.05 L1761.34 1560.05 L1761.34 1565.93 L1756.46 1565.93 L1756.46 1560.05 Z" fill="#000000" fill-rule="evenodd" fill-opacity="1" /><path clip-path="url(#clip600)" d="M 0 0 M1771.57 1531.37 L1789.93 1531.37 L1789.93 1535.31 L1775.85 1535.31 L1775.85 1543.78 Q1776.87 1543.43 1777.89 1543.27 Q1778.91 1543.08 1779.93 1543.08 Q1785.72 1543.08 1789.09 1546.26 Q1792.47 1549.43 1792.47 1554.84 Q1792.47 1560.42 1789 1563.52 Q1785.53 1566.6 1779.21 1566.6 Q1777.03 1566.6 1774.77 1566.23 Q1772.52 1565.86 1770.11 1565.12 L1770.11 1560.42 Q1772.2 1561.56 1774.42 1562.11 Q1776.64 1562.67 1779.12 1562.67 Q1783.12 1562.67 1785.46 1560.56 Q1787.8 1558.46 1787.8 1554.84 Q1787.8 1551.23 1785.46 1549.13 Q1783.12 1547.02 1779.12 1547.02 Q1777.24 1547.02 1775.37 1547.44 Q1773.52 1547.85 1771.57 1548.73 L1771.57 1531.37 Z" fill="#000000" fill-rule="evenodd" fill-opacity="1" /><path clip-path="url(#clip600)" d="M 0 0 M2256.23 1562 L2263.87 1562 L2263.87 1535.63 L2255.56 1537.3 L2255.56 1533.04 L2263.82 1531.37 L2268.5 1531.37 L2268.5 1562 L2276.14 1562 L2276.14 1565.93 L2256.23 1565.93 L2256.23 1562 Z" fill="#000000" fill-rule="evenodd" fill-opacity="1" /><path clip-path="url(#clip600)" d="M 0 0 M2285.58 1560.05 L2290.47 1560.05 L2290.47 1565.93 L2285.58 1565.93 L2285.58 1560.05 Z" fill="#000000" fill-rule="evenodd" fill-opacity="1" /><path clip-path="url(#clip600)" d="M 0 0 M2310.65 1534.45 Q2307.04 1534.45 2305.21 1538.02 Q2303.4 1541.56 2303.4 1548.69 Q2303.4 1555.79 2305.21 1559.36 Q2307.04 1562.9 2310.65 1562.9 Q2314.28 1562.9 2316.09 1559.36 Q2317.92 1555.79 2317.92 1548.69 Q2317.92 1541.56 2316.09 1538.02 Q2314.28 1534.45 2310.65 1534.45 M2310.65 1530.75 Q2316.46 1530.75 2319.52 1535.35 Q2322.59 1539.94 2322.59 1548.69 Q2322.59 1557.41 2319.52 1562.02 Q2316.46 1566.6 2310.65 1566.6 Q2304.84 1566.6 2301.76 1562.02 Q2298.71 1557.41 2298.71 1548.69 Q2298.71 1539.94 2301.76 1535.35 Q2304.84 1530.75 2310.65 1530.75 Z" fill="#000000" fill-rule="evenodd" fill-opacity="1" /><path clip-path="url(#clip600)" d="M 0 0 M1244.36 1614.48 L1231.47 1631.82 L1245.03 1650.12 L1238.12 1650.12 L1227.75 1636.12 L1217.37 1650.12 L1210.47 1650.12 L1224.31 1631.47 L1211.64 1614.48 L1218.55 1614.48 L1228 1627.18 L1237.46 1614.48 L1244.36 1614.48 Z" fill="#000000" fill-rule="evenodd" fill-opacity="1" /><polyline clip-path="url(#clip602)" style="stroke:#000000; stroke-width:2; stroke-opacity:0.1; fill:none" points="
  102.74,1341.67 2352.76,1341.67 
  "/>
<polyline clip-path="url(#clip602)" style="stroke:#000000; stroke-width:2; stroke-opacity:0.1; fill:none" points="
  102.74,1111.17 2352.76,1111.17 
  "/>
<polyline clip-path="url(#clip602)" style="stroke:#000000; stroke-width:2; stroke-opacity:0.1; fill:none" points="
  102.74,880.673 2352.76,880.673 
  "/>
<polyline clip-path="url(#clip602)" style="stroke:#000000; stroke-width:2; stroke-opacity:0.1; fill:none" points="
  102.74,650.173 2352.76,650.173 
  "/>
<polyline clip-path="url(#clip602)" style="stroke:#000000; stroke-width:2; stroke-opacity:0.1; fill:none" points="
  102.74,419.672 2352.76,419.672 
  "/>
<polyline clip-path="url(#clip602)" style="stroke:#000000; stroke-width:2; stroke-opacity:0.1; fill:none" points="
  102.74,189.171 2352.76,189.171 
  "/>
<polyline clip-path="url(#clip600)" style="stroke:#000000; stroke-width:4; stroke-opacity:1; fill:none" points="
  102.74,1505.26 102.74,62.9921 
  "/>
<polyline clip-path="url(#clip600)" style="stroke:#000000; stroke-width:4; stroke-opacity:1; fill:none" points="
  102.74,1341.67 129.74,1341.67 
  "/>
<polyline clip-path="url(#clip600)" style="stroke:#000000; stroke-width:4; stroke-opacity:1; fill:none" points="
  102.74,1111.17 129.74,1111.17 
  "/>
<polyline clip-path="url(#clip600)" style="stroke:#000000; stroke-width:4; stroke-opacity:1; fill:none" points="
  102.74,880.673 129.74,880.673 
  "/>
<polyline clip-path="url(#clip600)" style="stroke:#000000; stroke-width:4; stroke-opacity:1; fill:none" points="
  102.74,650.173 129.74,650.173 
  "/>
<polyline clip-path="url(#clip600)" style="stroke:#000000; stroke-width:4; stroke-opacity:1; fill:none" points="
  102.74,419.672 129.74,419.672 
  "/>
<polyline clip-path="url(#clip600)" style="stroke:#000000; stroke-width:4; stroke-opacity:1; fill:none" points="
  102.74,189.171 129.74,189.171 
  "/>
<path clip-path="url(#clip600)" d="M 0 0 M5.67567 1342.13 L35.3514 1342.13 L35.3514 1346.06 L5.67567 1346.06 L5.67567 1342.13 Z" fill="#000000" fill-rule="evenodd" fill-opacity="1" /><path clip-path="url(#clip600)" d="M 0 0 M59.6106 1340.32 Q62.967 1341.04 64.842 1343.31 Q66.7402 1345.58 66.7402 1348.91 Q66.7402 1354.02 63.2217 1356.83 Q59.7032 1359.63 53.2217 1359.63 Q51.0458 1359.63 48.731 1359.19 Q46.4393 1358.77 43.9856 1357.91 L43.9856 1353.4 Q45.9301 1354.53 48.2449 1355.11 Q50.5597 1355.69 53.0828 1355.69 Q57.4809 1355.69 59.7726 1353.95 Q62.0874 1352.22 62.0874 1348.91 Q62.0874 1345.85 59.9346 1344.14 Q57.805 1342.4 53.9856 1342.4 L49.9578 1342.4 L49.9578 1338.56 L54.1708 1338.56 Q57.6198 1338.56 59.4485 1337.2 Q61.2772 1335.81 61.2772 1333.21 Q61.2772 1330.55 59.3791 1329.14 Q57.5041 1327.71 53.9856 1327.71 Q52.0643 1327.71 49.8652 1328.12 Q47.6662 1328.54 45.0273 1329.42 L45.0273 1325.25 Q47.6893 1324.51 50.0041 1324.14 Q52.3421 1323.77 54.4023 1323.77 Q59.7263 1323.77 62.8281 1326.2 Q65.93 1328.61 65.93 1332.73 Q65.93 1335.6 64.2865 1337.59 Q62.643 1339.56 59.6106 1340.32 Z" fill="#000000" fill-rule="evenodd" fill-opacity="1" /><path clip-path="url(#clip600)" d="M 0 0 M6.62474 1111.63 L36.3005 1111.63 L36.3005 1115.56 L6.62474 1115.56 L6.62474 1111.63 Z" fill="#000000" fill-rule="evenodd" fill-opacity="1" /><path clip-path="url(#clip600)" d="M 0 0 M50.4208 1124.52 L66.7402 1124.52 L66.7402 1128.45 L44.7958 1128.45 L44.7958 1124.52 Q47.4579 1121.76 52.0412 1117.13 Q56.6476 1112.48 57.8282 1111.14 Q60.0735 1108.62 60.9532 1106.88 Q61.8559 1105.12 61.8559 1103.43 Q61.8559 1100.68 59.9115 1098.94 Q57.9902 1097.2 54.8884 1097.2 Q52.6893 1097.2 50.2356 1097.97 Q47.8051 1098.73 45.0273 1100.28 L45.0273 1095.56 Q47.8514 1094.43 50.3051 1093.85 Q52.7588 1093.27 54.7958 1093.27 Q60.1661 1093.27 63.3605 1095.95 Q66.555 1098.64 66.555 1103.13 Q66.555 1105.26 65.7448 1107.18 Q64.9578 1109.08 62.8513 1111.67 Q62.2726 1112.34 59.1708 1115.56 Q56.0689 1118.76 50.4208 1124.52 Z" fill="#000000" fill-rule="evenodd" fill-opacity="1" /><path clip-path="url(#clip600)" d="M 0 0 M6.25437 881.125 L35.9301 881.125 L35.9301 885.06 L6.25437 885.06 L6.25437 881.125 Z" fill="#000000" fill-rule="evenodd" fill-opacity="1" /><path clip-path="url(#clip600)" d="M 0 0 M46.8329 894.018 L54.4717 894.018 L54.4717 867.653 L46.1616 869.319 L46.1616 865.06 L54.4254 863.393 L59.1013 863.393 L59.1013 894.018 L66.7402 894.018 L66.7402 897.953 L46.8329 897.953 L46.8329 894.018 Z" fill="#000000" fill-rule="evenodd" fill-opacity="1" /><path clip-path="url(#clip600)" d="M 0 0 M54.7958 635.971 Q51.1847 635.971 49.356 639.536 Q47.5504 643.078 47.5504 650.207 Q47.5504 657.314 49.356 660.879 Q51.1847 664.42 54.7958 664.42 Q58.43 664.42 60.2356 660.879 Q62.0643 657.314 62.0643 650.207 Q62.0643 643.078 60.2356 639.536 Q58.43 635.971 54.7958 635.971 M54.7958 632.268 Q60.6059 632.268 63.6615 636.874 Q66.7402 641.457 66.7402 650.207 Q66.7402 658.934 63.6615 663.541 Q60.6059 668.124 54.7958 668.124 Q48.9856 668.124 45.9069 663.541 Q42.8514 658.934 42.8514 650.207 Q42.8514 641.457 45.9069 636.874 Q48.9856 632.268 54.7958 632.268 Z" fill="#000000" fill-rule="evenodd" fill-opacity="1" /><path clip-path="url(#clip600)" d="M 0 0 M46.8329 433.017 L54.4717 433.017 L54.4717 406.651 L46.1616 408.318 L46.1616 404.059 L54.4254 402.392 L59.1013 402.392 L59.1013 433.017 L66.7402 433.017 L66.7402 436.952 L46.8329 436.952 L46.8329 433.017 Z" fill="#000000" fill-rule="evenodd" fill-opacity="1" /><path clip-path="url(#clip600)" d="M 0 0 M50.4208 202.516 L66.7402 202.516 L66.7402 206.451 L44.7958 206.451 L44.7958 202.516 Q47.4579 199.761 52.0412 195.132 Q56.6476 190.479 57.8282 189.136 Q60.0735 186.613 60.9532 184.877 Q61.8559 183.118 61.8559 181.428 Q61.8559 178.673 59.9115 176.937 Q57.9902 175.201 54.8884 175.201 Q52.6893 175.201 50.2356 175.965 Q47.8051 176.729 45.0273 178.28 L45.0273 173.558 Q47.8514 172.424 50.3051 171.845 Q52.7588 171.266 54.7958 171.266 Q60.1661 171.266 63.3605 173.951 Q66.555 176.636 66.555 181.127 Q66.555 183.257 65.7448 185.178 Q64.9578 187.076 62.8513 189.669 Q62.2726 190.34 59.1708 193.558 Q56.0689 196.752 50.4208 202.516 Z" fill="#000000" fill-rule="evenodd" fill-opacity="1" /><path clip-path="url(#clip600)" d="M 0 0 M-41.2702 782.439 Q-34.9045 784.922 -32.9629 787.277 Q-31.0214 789.632 -31.0214 793.579 L-31.0214 798.258 L-35.923 798.258 L-35.923 794.82 Q-35.923 792.401 -37.0688 791.065 Q-38.2146 789.728 -42.4796 788.105 L-45.1532 787.054 L-80.2283 801.473 L-80.2283 795.266 L-52.3465 784.126 L-80.2283 772.986 L-80.2283 766.779 L-41.2702 782.439 Z" fill="#000000" fill-rule="evenodd" fill-opacity="1" /><path clip-path="url(#clip600)" d="M 0 0 M816.156 18.8205 L816.156 41.5461 L826.445 41.5461 Q832.157 41.5461 835.276 38.5889 Q838.395 35.6318 838.395 30.163 Q838.395 24.7348 835.276 21.7777 Q832.157 18.8205 826.445 18.8205 L816.156 18.8205 M807.973 12.096 L826.445 12.096 Q836.613 12.096 841.798 16.714 Q847.024 21.2916 847.024 30.163 Q847.024 39.1155 841.798 43.6931 Q836.613 48.2706 826.445 48.2706 L816.156 48.2706 L816.156 72.576 L807.973 72.576 L807.973 12.096 Z" fill="#000000" fill-rule="evenodd" fill-opacity="1" /><path clip-path="url(#clip600)" d="M 0 0 M882.51 34.1734 Q881.254 33.4443 879.755 33.1202 Q878.297 32.7556 876.514 32.7556 Q870.195 32.7556 866.792 36.8875 Q863.43 40.9789 863.43 48.6757 L863.43 72.576 L855.936 72.576 L855.936 27.2059 L863.43 27.2059 L863.43 34.2544 Q865.779 30.1225 869.547 28.1376 Q873.314 26.1121 878.702 26.1121 Q879.472 26.1121 880.403 26.2337 Q881.335 26.3147 882.469 26.5172 L882.51 34.1734 Z" fill="#000000" fill-rule="evenodd" fill-opacity="1" /><path clip-path="url(#clip600)" d="M 0 0 M890.328 27.2059 L897.782 27.2059 L897.782 72.576 L890.328 72.576 L890.328 27.2059 M890.328 9.54393 L897.782 9.54393 L897.782 18.9825 L890.328 18.9825 L890.328 9.54393 Z" fill="#000000" fill-rule="evenodd" fill-opacity="1" /><path clip-path="url(#clip600)" d="M 0 0 M930.959 32.4315 Q924.963 32.4315 921.479 37.1306 Q917.996 41.7891 917.996 49.9314 Q917.996 58.0738 921.439 62.7728 Q924.923 67.4314 930.959 67.4314 Q936.913 67.4314 940.397 62.7323 Q943.881 58.0333 943.881 49.9314 Q943.881 41.8701 940.397 37.1711 Q936.913 32.4315 930.959 32.4315 M930.959 26.1121 Q940.681 26.1121 946.23 32.4315 Q951.78 38.7509 951.78 49.9314 Q951.78 61.0714 946.23 67.4314 Q940.681 73.7508 930.959 73.7508 Q921.196 73.7508 915.646 67.4314 Q910.137 61.0714 910.137 49.9314 Q910.137 38.7509 915.646 32.4315 Q921.196 26.1121 930.959 26.1121 Z" fill="#000000" fill-rule="evenodd" fill-opacity="1" /><path clip-path="url(#clip600)" d="M 0 0 M990.426 34.1734 Q989.17 33.4443 987.671 33.1202 Q986.213 32.7556 984.43 32.7556 Q978.111 32.7556 974.708 36.8875 Q971.346 40.9789 971.346 48.6757 L971.346 72.576 L963.852 72.576 L963.852 27.2059 L971.346 27.2059 L971.346 34.2544 Q973.696 30.1225 977.463 28.1376 Q981.23 26.1121 986.618 26.1121 Q987.388 26.1121 988.319 26.2337 Q989.251 26.3147 990.385 26.5172 L990.426 34.1734 Z" fill="#000000" fill-rule="evenodd" fill-opacity="1" /><path clip-path="url(#clip600)" d="M 0 0 M998.69 62.2867 L1007.24 62.2867 L1007.24 72.576 L998.69 72.576 L998.69 62.2867 M998.69 29.6769 L1007.24 29.6769 L1007.24 39.9662 L998.69 39.9662 L998.69 29.6769 Z" fill="#000000" fill-rule="evenodd" fill-opacity="1" /><path clip-path="url(#clip600)" d="M 0 0 M1074.08 9.54393 L1074.08 15.7418 L1066.95 15.7418 Q1062.94 15.7418 1061.36 17.3622 Q1059.82 18.9825 1059.82 23.1955 L1059.82 27.2059 L1072.09 27.2059 L1072.09 32.9987 L1059.82 32.9987 L1059.82 72.576 L1052.32 72.576 L1052.32 32.9987 L1045.19 32.9987 L1045.19 27.2059 L1052.32 27.2059 L1052.32 24.0462 Q1052.32 16.471 1055.85 13.0277 Q1059.37 9.54393 1067.03 9.54393 L1074.08 9.54393 Z" fill="#000000" fill-rule="evenodd" fill-opacity="1" /><path clip-path="url(#clip600)" d="M 0 0 M1079.55 54.671 L1079.55 27.2059 L1087 27.2059 L1087 54.3874 Q1087 60.8284 1089.51 64.0691 Q1092.02 67.2693 1097.05 67.2693 Q1103.08 67.2693 1106.57 63.421 Q1110.09 59.5726 1110.09 52.9291 L1110.09 27.2059 L1117.54 27.2059 L1117.54 72.576 L1110.09 72.576 L1110.09 65.6084 Q1107.38 69.7404 1103.77 71.7658 Q1100.21 73.7508 1095.47 73.7508 Q1087.65 73.7508 1083.6 68.8897 Q1079.55 64.0286 1079.55 54.671 M1098.3 26.1121 L1098.3 26.1121 Z" fill="#000000" fill-rule="evenodd" fill-opacity="1" /><path clip-path="url(#clip600)" d="M 0 0 M1170.61 45.1919 L1170.61 72.576 L1163.16 72.576 L1163.16 45.4349 Q1163.16 38.994 1160.64 35.7938 Q1158.13 32.5936 1153.11 32.5936 Q1147.07 32.5936 1143.59 36.4419 Q1140.11 40.2903 1140.11 46.9338 L1140.11 72.576 L1132.61 72.576 L1132.61 27.2059 L1140.11 27.2059 L1140.11 34.2544 Q1142.78 30.163 1146.39 28.1376 Q1150.03 26.1121 1154.77 26.1121 Q1162.59 26.1121 1166.6 30.9732 Q1170.61 35.7938 1170.61 45.1919 Z" fill="#000000" fill-rule="evenodd" fill-opacity="1" /><path clip-path="url(#clip600)" d="M 0 0 M1218.13 28.9478 L1218.13 35.9153 Q1214.97 34.1734 1211.77 33.3227 Q1208.61 32.4315 1205.37 32.4315 Q1198.12 32.4315 1194.11 37.0496 Q1190.09 41.6271 1190.09 49.9314 Q1190.09 58.2358 1194.11 62.8538 Q1198.12 67.4314 1205.37 67.4314 Q1208.61 67.4314 1211.77 66.5807 Q1214.97 65.6895 1218.13 63.9476 L1218.13 70.8341 Q1215.01 72.2924 1211.65 73.0216 Q1208.32 73.7508 1204.56 73.7508 Q1194.31 73.7508 1188.27 67.3098 Q1182.24 60.8689 1182.24 49.9314 Q1182.24 38.832 1188.31 32.472 Q1194.43 26.1121 1205.04 26.1121 Q1208.49 26.1121 1211.77 26.8413 Q1215.05 27.5299 1218.13 28.9478 Z" fill="#000000" fill-rule="evenodd" fill-opacity="1" /><path clip-path="url(#clip600)" d="M 0 0 M1238.46 14.324 L1238.46 27.2059 L1253.82 27.2059 L1253.82 32.9987 L1238.46 32.9987 L1238.46 57.6282 Q1238.46 63.1779 1239.96 64.7578 Q1241.5 66.3376 1246.16 66.3376 L1253.82 66.3376 L1253.82 72.576 L1246.16 72.576 Q1237.53 72.576 1234.25 69.3758 Q1230.97 66.1351 1230.97 57.6282 L1230.97 32.9987 L1225.5 32.9987 L1225.5 27.2059 L1230.97 27.2059 L1230.97 14.324 L1238.46 14.324 Z" fill="#000000" fill-rule="evenodd" fill-opacity="1" /><path clip-path="url(#clip600)" d="M 0 0 M1263.62 27.2059 L1271.07 27.2059 L1271.07 72.576 L1263.62 72.576 L1263.62 27.2059 M1263.62 9.54393 L1271.07 9.54393 L1271.07 18.9825 L1263.62 18.9825 L1263.62 9.54393 Z" fill="#000000" fill-rule="evenodd" fill-opacity="1" /><path clip-path="url(#clip600)" d="M 0 0 M1304.25 32.4315 Q1298.25 32.4315 1294.77 37.1306 Q1291.29 41.7891 1291.29 49.9314 Q1291.29 58.0738 1294.73 62.7728 Q1298.21 67.4314 1304.25 67.4314 Q1310.2 67.4314 1313.69 62.7323 Q1317.17 58.0333 1317.17 49.9314 Q1317.17 41.8701 1313.69 37.1711 Q1310.2 32.4315 1304.25 32.4315 M1304.25 26.1121 Q1313.97 26.1121 1319.52 32.4315 Q1325.07 38.7509 1325.07 49.9314 Q1325.07 61.0714 1319.52 67.4314 Q1313.97 73.7508 1304.25 73.7508 Q1294.49 73.7508 1288.94 67.4314 Q1283.43 61.0714 1283.43 49.9314 Q1283.43 38.7509 1288.94 32.4315 Q1294.49 26.1121 1304.25 26.1121 Z" fill="#000000" fill-rule="evenodd" fill-opacity="1" /><path clip-path="url(#clip600)" d="M 0 0 M1375.14 45.1919 L1375.14 72.576 L1367.69 72.576 L1367.69 45.4349 Q1367.69 38.994 1365.17 35.7938 Q1362.66 32.5936 1357.64 32.5936 Q1351.6 32.5936 1348.12 36.4419 Q1344.64 40.2903 1344.64 46.9338 L1344.64 72.576 L1337.14 72.576 L1337.14 27.2059 L1344.64 27.2059 L1344.64 34.2544 Q1347.31 30.163 1350.92 28.1376 Q1354.56 26.1121 1359.3 26.1121 Q1367.12 26.1121 1371.13 30.9732 Q1375.14 35.7938 1375.14 45.1919 Z" fill="#000000" fill-rule="evenodd" fill-opacity="1" /><path clip-path="url(#clip600)" d="M 0 0 M1445.3 28.5427 L1445.3 35.5912 Q1442.14 33.9709 1438.74 33.1607 Q1435.34 32.3505 1431.69 32.3505 Q1426.14 32.3505 1423.35 34.0519 Q1420.59 35.7533 1420.59 39.156 Q1420.59 41.7486 1422.58 43.2475 Q1424.56 44.7058 1430.56 46.0426 L1433.11 46.6097 Q1441.05 48.3111 1444.37 51.4303 Q1447.73 54.509 1447.73 60.0587 Q1447.73 66.3781 1442.71 70.0644 Q1437.73 73.7508 1428.98 73.7508 Q1425.33 73.7508 1421.36 73.0216 Q1417.43 72.3329 1413.06 70.9151 L1413.06 63.2184 Q1417.19 65.3654 1421.2 66.4591 Q1425.21 67.5124 1429.14 67.5124 Q1434.4 67.5124 1437.24 65.73 Q1440.08 63.9071 1440.08 60.6258 Q1440.08 57.5877 1438.01 55.9673 Q1435.98 54.3469 1429.06 52.8481 L1426.47 52.2405 Q1419.54 50.7821 1416.46 47.7845 Q1413.38 44.7463 1413.38 39.4801 Q1413.38 33.0797 1417.92 29.5959 Q1422.45 26.1121 1430.8 26.1121 Q1434.93 26.1121 1438.58 26.7198 Q1442.22 27.3274 1445.3 28.5427 Z" fill="#000000" fill-rule="evenodd" fill-opacity="1" /><path clip-path="url(#clip600)" d="M 0 0 M1466.81 65.7705 L1466.81 89.8329 L1459.32 89.8329 L1459.32 27.2059 L1466.81 27.2059 L1466.81 34.0924 Q1469.16 30.0415 1472.73 28.0971 Q1476.33 26.1121 1481.31 26.1121 Q1489.58 26.1121 1494.72 32.6746 Q1499.91 39.2371 1499.91 49.9314 Q1499.91 60.6258 1494.72 67.1883 Q1489.58 73.7508 1481.31 73.7508 Q1476.33 73.7508 1472.73 71.8063 Q1469.16 69.8214 1466.81 65.7705 M1492.17 49.9314 Q1492.17 41.7081 1488.77 37.0496 Q1485.41 32.3505 1479.49 32.3505 Q1473.58 32.3505 1470.17 37.0496 Q1466.81 41.7081 1466.81 49.9314 Q1466.81 58.1548 1470.17 62.8538 Q1473.58 67.5124 1479.49 67.5124 Q1485.41 67.5124 1488.77 62.8538 Q1492.17 58.1548 1492.17 49.9314 Z" fill="#000000" fill-rule="evenodd" fill-opacity="1" /><path clip-path="url(#clip600)" d="M 0 0 M1532.88 49.7694 Q1523.85 49.7694 1520.37 51.8354 Q1516.88 53.9013 1516.88 58.8839 Q1516.88 62.8538 1519.47 65.2034 Q1522.11 67.5124 1526.6 67.5124 Q1532.8 67.5124 1536.53 63.1374 Q1540.3 58.7219 1540.3 51.4303 L1540.3 49.7694 L1532.88 49.7694 M1547.75 46.6907 L1547.75 72.576 L1540.3 72.576 L1540.3 65.6895 Q1537.74 69.8214 1533.94 71.8063 Q1530.13 73.7508 1524.62 73.7508 Q1517.65 73.7508 1513.52 69.8619 Q1509.43 65.9325 1509.43 59.3701 Q1509.43 51.7138 1514.53 47.825 Q1519.68 43.9361 1529.84 43.9361 L1540.3 43.9361 L1540.3 43.2069 Q1540.3 38.0623 1536.89 35.2672 Q1533.53 32.4315 1527.41 32.4315 Q1523.52 32.4315 1519.84 33.3632 Q1516.15 34.295 1512.75 36.1584 L1512.75 29.2718 Q1516.84 27.692 1520.69 26.9223 Q1524.54 26.1121 1528.18 26.1121 Q1538.03 26.1121 1542.89 31.2163 Q1547.75 36.3204 1547.75 46.6907 Z" fill="#000000" fill-rule="evenodd" fill-opacity="1" /><path clip-path="url(#clip600)" d="M 0 0 M1595.75 28.9478 L1595.75 35.9153 Q1592.59 34.1734 1589.39 33.3227 Q1586.23 32.4315 1582.99 32.4315 Q1575.74 32.4315 1571.73 37.0496 Q1567.72 41.6271 1567.72 49.9314 Q1567.72 58.2358 1571.73 62.8538 Q1575.74 67.4314 1582.99 67.4314 Q1586.23 67.4314 1589.39 66.5807 Q1592.59 65.6895 1595.75 63.9476 L1595.75 70.8341 Q1592.63 72.2924 1589.27 73.0216 Q1585.95 73.7508 1582.18 73.7508 Q1571.93 73.7508 1565.9 67.3098 Q1559.86 60.8689 1559.86 49.9314 Q1559.86 38.832 1565.94 32.472 Q1572.05 26.1121 1582.67 26.1121 Q1586.11 26.1121 1589.39 26.8413 Q1592.67 27.5299 1595.75 28.9478 Z" fill="#000000" fill-rule="evenodd" fill-opacity="1" /><path clip-path="url(#clip600)" d="M 0 0 M1647.52 48.0275 L1647.52 51.6733 L1613.25 51.6733 Q1613.74 59.3701 1617.87 63.421 Q1622.04 67.4314 1629.46 67.4314 Q1633.75 67.4314 1637.76 66.3781 Q1641.81 65.3249 1645.78 63.2184 L1645.78 70.267 Q1641.77 71.9684 1637.56 72.8596 Q1633.34 73.7508 1629.01 73.7508 Q1618.15 73.7508 1611.79 67.4314 Q1605.47 61.1119 1605.47 50.3365 Q1605.47 39.1965 1611.47 32.6746 Q1617.51 26.1121 1627.71 26.1121 Q1636.87 26.1121 1642.18 32.0264 Q1647.52 37.9003 1647.52 48.0275 M1640.07 45.84 Q1639.99 39.7232 1636.63 36.0774 Q1633.3 32.4315 1627.8 32.4315 Q1621.56 32.4315 1617.79 35.9558 Q1614.06 39.4801 1613.5 45.8805 L1640.07 45.84 Z" fill="#000000" fill-rule="evenodd" fill-opacity="1" /><polyline clip-path="url(#clip602)" style="stroke:#009af9; stroke-width:4; stroke-opacity:1; fill:none" points="
  166.42,553.263 187.861,552.983 209.302,552.706 230.743,552.427 252.184,552.152 273.625,551.872 295.066,551.587 316.507,551.319 337.948,551.035 359.389,550.756 
  380.83,550.477 402.271,550.197 423.712,549.919 445.153,549.643 466.593,549.362 488.034,549.084 509.475,548.807 530.916,548.532 552.357,548.249 573.798,547.973 
  595.239,547.697 616.68,547.413 638.121,547.135 659.562,546.856 681.003,546.579 702.444,546.297 723.885,546.022 745.326,545.745 766.767,545.468 788.208,545.187 
  809.649,544.908 831.09,544.635 852.531,544.352 873.972,544.07 895.413,543.793 916.854,543.514 938.295,543.236 959.736,542.96 981.177,542.682 1002.62,542.406 
  1024.06,542.127 1045.5,541.846 1066.94,541.567 1088.38,541.288 1109.82,541.006 1131.26,540.728 1152.7,540.452 1174.15,540.177 1195.59,539.898 1217.03,539.615 
  1238.47,539.342 1259.91,539.058 1281.35,538.782 1302.79,538.502 1324.23,538.225 1345.67,537.947 1367.11,537.673 1388.56,537.391 1410,537.114 1431.44,536.829 
  1452.88,536.558 1474.32,536.277 1495.76,536 1517.2,535.723 1538.64,535.441 1560.08,535.164 1581.52,534.888 1602.97,534.605 1624.41,534.331 1645.85,534.051 
  1667.29,533.772 1688.73,533.49 1710.17,533.211 1731.61,532.939 1753.05,532.661 1774.49,532.38 1795.93,532.098 1817.37,531.819 1838.82,531.538 1860.26,531.267 
  1881.7,530.984 1903.14,530.709 1924.58,530.43 1946.02,530.147 1967.46,529.87 1988.9,529.594 2010.34,529.316 2031.78,529.036 2053.23,528.758 2074.67,528.479 
  2096.11,528.201 2117.55,527.922 2138.99,527.644 2160.43,527.362 2181.87,527.085 2203.31,526.809 2224.75,526.53 2246.19,526.254 2267.64,525.978 2289.08,525.692 
  
  "/>
<polyline clip-path="url(#clip602)" style="stroke:#e26f46; stroke-width:4; stroke-opacity:1; fill:none" points="
  166.42,692.196 187.861,693.254 209.302,694.321 230.743,695.39 252.184,696.447 273.625,697.514 295.066,698.574 316.507,699.644 337.948,700.705 359.389,701.771 
  380.83,702.833 402.271,703.898 423.712,704.961 445.153,706.022 466.593,707.087 488.034,708.155 509.475,709.219 530.916,710.28 552.357,711.349 573.798,712.408 
  595.239,713.477 616.68,714.541 638.121,715.606 659.562,716.666 681.003,717.738 702.444,718.796 723.885,719.865 745.326,720.932 766.767,721.992 788.208,723.059 
  809.649,724.117 831.09,725.185 852.531,726.246 873.972,727.31 895.413,728.38 916.854,729.443 938.295,730.504 959.736,731.571 981.177,732.631 1002.62,733.693 
  1024.06,734.762 1045.5,735.826 1066.94,736.894 1088.38,737.951 1109.82,739.021 1131.26,740.086 1152.7,741.149 1174.15,742.213 1195.59,743.275 1217.03,744.339 
  1238.47,745.406 1259.91,746.469 1281.35,747.531 1302.79,748.599 1324.23,749.665 1345.67,750.725 1367.11,751.791 1388.56,752.856 1410,753.914 1431.44,754.982 
  1452.88,756.05 1474.32,757.112 1495.76,758.176 1517.2,759.241 1538.64,760.304 1560.08,761.367 1581.52,762.436 1602.97,763.497 1624.41,764.562 1645.85,765.623 
  1667.29,766.69 1688.73,767.754 1710.17,768.821 1731.61,769.884 1753.05,770.944 1774.49,772.01 1795.93,773.074 1817.37,774.138 1838.82,775.201 1860.26,776.271 
  1881.7,777.332 1903.14,778.395 1924.58,779.46 1946.02,780.523 1967.46,781.588 1988.9,782.651 2010.34,783.716 2031.78,784.777 2053.23,785.846 2074.67,786.912 
  2096.11,787.972 2117.55,789.04 2138.99,790.102 2160.43,791.166 2181.87,792.23 2203.31,793.299 2224.75,794.361 2246.19,795.427 2267.64,796.487 2289.08,797.548 
  
  "/>
<polyline clip-path="url(#clip602)" style="stroke:#3da44d; stroke-width:4; stroke-opacity:1; fill:none" points="
  166.42,1167.87 187.861,1161.66 209.302,1155.45 230.743,1149.24 252.184,1143.03 273.625,1136.82 295.066,1130.62 316.507,1124.41 337.948,1118.2 359.389,1112 
  380.83,1105.78 402.271,1099.58 423.712,1093.37 445.153,1087.17 466.593,1080.97 488.034,1074.75 509.475,1068.54 530.916,1062.34 552.357,1056.13 573.798,1049.92 
  595.239,1043.71 616.68,1037.51 638.121,1031.3 659.562,1025.09 681.003,1018.89 702.444,1012.68 723.885,1006.47 745.326,1000.26 766.767,994.057 788.208,987.847 
  809.649,981.638 831.09,975.436 852.531,969.224 873.972,963.02 895.413,956.809 916.854,950.605 938.295,944.396 959.736,938.191 981.177,931.985 1002.62,925.776 
  1024.06,919.569 1045.5,913.357 1066.94,907.155 1088.38,900.945 1109.82,894.742 1131.26,888.53 1152.7,882.321 1174.15,876.115 1195.59,869.908 1217.03,863.707 
  1238.47,857.497 1259.91,851.287 1281.35,845.079 1302.79,838.872 1324.23,832.665 1345.67,826.462 1367.11,820.252 1388.56,814.045 1410,807.845 1431.44,801.627 
  1452.88,795.421 1474.32,789.215 1495.76,783.006 1517.2,776.801 1538.64,770.588 1560.08,764.389 1581.52,758.177 1602.97,751.973 1624.41,745.761 1645.85,739.558 
  1667.29,733.349 1688.73,727.141 1710.17,720.93 1731.61,714.723 1753.05,708.518 1774.49,702.31 1795.93,696.107 1817.37,689.896 1838.82,683.686 1860.26,677.48 
  1881.7,671.275 1903.14,665.066 1924.58,658.864 1946.02,652.649 1967.46,646.446 1988.9,640.237 2010.34,634.03 2031.78,627.823 2053.23,621.617 2074.67,615.408 
  2096.11,609.201 2117.55,602.993 2138.99,596.784 2160.43,590.578 2181.87,584.369 2203.31,578.167 2224.75,571.951 2246.19,565.744 2267.64,559.537 2289.08,553.335 
  
  "/>
<polyline clip-path="url(#clip602)" style="stroke:#c271d2; stroke-width:4; stroke-opacity:1; fill:none" points="
  166.42,725.835 187.861,724.392 209.302,722.942 230.743,721.493 252.184,720.04 273.625,718.599 295.066,717.152 316.507,715.701 337.948,714.253 359.389,712.802 
  380.83,711.354 402.271,709.908 423.712,708.469 445.153,707.017 466.593,705.566 488.034,704.119 509.475,702.676 530.916,701.221 552.357,699.776 573.798,698.33 
  595.239,696.886 616.68,695.438 638.121,693.991 659.562,692.541 681.003,691.091 702.444,689.641 723.885,688.198 745.326,686.748 766.767,685.305 788.208,683.852 
  809.649,682.404 831.09,680.958 852.531,679.512 873.972,678.062 895.413,676.618 916.854,675.17 938.295,673.722 959.736,672.27 981.177,670.824 1002.62,669.38 
  1024.06,667.929 1045.5,666.484 1066.94,665.034 1088.38,663.591 1109.82,662.144 1131.26,660.694 1152.7,659.241 1174.15,657.797 1195.59,656.352 1217.03,654.903 
  1238.47,653.455 1259.91,652.004 1281.35,650.559 1302.79,649.112 1324.23,647.662 1345.67,646.216 1367.11,644.77 1388.56,643.323 1410,641.87 1431.44,640.425 
  1452.88,638.976 1474.32,637.531 1495.76,636.083 1517.2,634.636 1538.64,633.187 1560.08,631.739 1581.52,630.293 1602.97,628.847 1624.41,627.395 1645.85,625.947 
  1667.29,624.501 1688.73,623.055 1710.17,621.608 1731.61,620.156 1753.05,618.713 1774.49,617.265 1795.93,615.818 1817.37,614.375 1838.82,612.922 1860.26,611.478 
  1881.7,610.027 1903.14,608.575 1924.58,607.13 1946.02,605.689 1967.46,604.232 1988.9,602.789 2010.34,601.339 2031.78,599.893 2053.23,598.447 2074.67,596.994 
  2096.11,595.551 2117.55,594.102 2138.99,592.655 2160.43,591.205 2181.87,589.76 2203.31,588.312 2224.75,586.862 2246.19,585.414 2267.64,583.97 2289.08,582.524 
  
  "/>
<polyline clip-path="url(#clip602)" style="stroke:#ac8d18; stroke-width:4; stroke-opacity:1; fill:none" points="
  166.42,595.341 187.861,602.37 209.302,609.398 230.743,616.425 252.184,623.45 273.625,630.481 295.066,637.507 316.507,644.532 337.948,651.561 359.389,658.588 
  380.83,665.615 402.271,672.642 423.712,679.67 445.153,686.696 466.593,693.72 488.034,700.752 509.475,707.778 530.916,714.799 552.357,721.832 573.798,728.858 
  595.239,735.884 616.68,742.911 638.121,749.94 659.562,756.965 681.003,763.994 702.444,771.014 723.885,778.04 745.326,785.07 766.767,792.099 788.208,799.125 
  809.649,806.155 831.09,813.178 852.531,820.205 873.972,827.235 895.413,834.261 916.854,841.29 938.295,848.319 959.736,855.347 981.177,862.373 1002.62,869.396 
  1024.06,876.423 1045.5,883.453 1066.94,890.474 1088.38,897.503 1109.82,904.533 1131.26,911.557 1152.7,918.585 1174.15,925.61 1195.59,932.638 1217.03,939.67 
  1238.47,946.697 1259.91,953.722 1281.35,960.743 1302.79,967.777 1324.23,974.803 1345.67,981.83 1367.11,988.859 1388.56,995.882 1410,1002.91 1431.44,1009.93 
  1452.88,1016.97 1474.32,1023.99 1495.76,1031.02 1517.2,1038.04 1538.64,1045.07 1560.08,1052.09 1581.52,1059.13 1602.97,1066.15 1624.41,1073.17 1645.85,1080.21 
  1667.29,1087.24 1688.73,1094.26 1710.17,1101.28 1731.61,1108.31 1753.05,1115.34 1774.49,1122.37 1795.93,1129.39 1817.37,1136.42 1838.82,1143.45 1860.26,1150.48 
  1881.7,1157.5 1903.14,1164.53 1924.58,1171.56 1946.02,1178.58 1967.46,1185.61 1988.9,1192.64 2010.34,1199.66 2031.78,1206.69 2053.23,1213.72 2074.67,1220.74 
  2096.11,1227.77 2117.55,1234.8 2138.99,1241.82 2160.43,1248.85 2181.87,1255.88 2203.31,1262.91 2224.75,1269.94 2246.19,1276.96 2267.64,1283.99 2289.08,1291.01 
  
  "/>
<polyline clip-path="url(#clip602)" style="stroke:#00a9ad; stroke-width:4; stroke-opacity:1; fill:none" points="
  166.42,502.244 187.861,510.435 209.302,518.633 230.743,526.829 252.184,535.021 273.625,543.215 295.066,551.413 316.507,559.605 337.948,567.8 359.389,575.994 
  380.83,584.188 402.271,592.385 423.712,600.577 445.153,608.776 466.593,616.967 488.034,625.166 509.475,633.357 530.916,641.554 552.357,649.744 573.798,657.941 
  595.239,666.135 616.68,674.333 638.121,682.526 659.562,690.725 681.003,698.917 702.444,707.107 723.885,715.308 745.326,723.5 766.767,731.697 788.208,739.887 
  809.649,748.08 831.09,756.279 852.531,764.472 873.972,772.669 895.413,780.863 916.854,789.058 938.295,797.252 959.736,805.448 981.177,813.643 1002.62,821.836 
  1024.06,830.032 1045.5,838.228 1066.94,846.422 1088.38,854.613 1109.82,862.813 1131.26,871.01 1152.7,879.198 1174.15,887.395 1195.59,895.585 1217.03,903.787 
  1238.47,911.979 1259.91,920.172 1281.35,928.367 1302.79,936.562 1324.23,944.755 1345.67,952.956 1367.11,961.146 1388.56,969.341 1410,977.537 1431.44,985.734 
  1452.88,993.926 1474.32,1002.12 1495.76,1010.32 1517.2,1018.51 1538.64,1026.7 1560.08,1034.9 1581.52,1043.09 1602.97,1051.29 1624.41,1059.48 1645.85,1067.68 
  1667.29,1075.87 1688.73,1084.07 1710.17,1092.26 1731.61,1100.46 1753.05,1108.65 1774.49,1116.85 1795.93,1125.04 1817.37,1133.24 1838.82,1141.43 1860.26,1149.63 
  1881.7,1157.82 1903.14,1166.02 1924.58,1174.21 1946.02,1182.41 1967.46,1190.6 1988.9,1198.8 2010.34,1206.99 2031.78,1215.19 2053.23,1223.38 2074.67,1231.58 
  2096.11,1239.77 2117.55,1247.97 2138.99,1256.16 2160.43,1264.35 2181.87,1272.55 2203.31,1280.74 2224.75,1288.94 2246.19,1297.13 2267.64,1305.33 2289.08,1313.52 
  
  "/>
<polyline clip-path="url(#clip602)" style="stroke:#ed5d92; stroke-width:4; stroke-opacity:1; fill:none" points="
  166.42,650.562 187.861,647.684 209.302,644.798 230.743,641.914 252.184,639.036 273.625,636.154 295.066,633.268 316.507,630.386 337.948,627.503 359.389,624.625 
  380.83,621.74 402.271,618.859 423.712,615.976 445.153,613.095 466.593,610.211 488.034,607.33 509.475,604.443 530.916,601.564 552.357,598.682 573.798,595.797 
  595.239,592.913 616.68,590.034 638.121,587.151 659.562,584.269 681.003,581.391 702.444,578.503 723.885,575.619 745.326,572.739 766.767,569.849 788.208,566.976 
  809.649,564.092 831.09,561.205 852.531,558.326 873.972,555.446 895.413,552.561 916.854,549.672 938.295,546.796 959.736,543.911 981.177,541.033 1002.62,538.151 
  1024.06,535.269 1045.5,532.382 1066.94,529.503 1088.38,526.624 1109.82,523.737 1131.26,520.858 1152.7,517.97 1174.15,515.088 1195.59,512.203 1217.03,509.325 
  1238.47,506.448 1259.91,503.563 1281.35,500.672 1302.79,497.798 1324.23,494.916 1345.67,492.031 1367.11,489.151 1388.56,486.262 1410,483.381 1431.44,480.505 
  1452.88,477.615 1474.32,474.736 1495.76,471.851 1517.2,468.974 1538.64,466.09 1560.08,463.207 1581.52,460.322 1602.97,457.442 1624.41,454.558 1645.85,451.675 
  1667.29,448.795 1688.73,445.907 1710.17,443.026 1731.61,440.144 1753.05,437.262 1774.49,434.383 1795.93,431.498 1817.37,428.617 1838.82,425.732 1860.26,422.847 
  1881.7,419.968 1903.14,417.085 1924.58,414.204 1946.02,411.321 1967.46,408.435 1988.9,405.554 2010.34,402.673 2031.78,399.793 2053.23,396.908 2074.67,394.026 
  2096.11,391.145 2117.55,388.263 2138.99,385.379 2160.43,382.493 2181.87,379.608 2203.31,376.727 2224.75,373.85 2246.19,370.97 2267.64,368.084 2289.08,365.201 
  
  "/>
<polyline clip-path="url(#clip602)" style="stroke:#c68125; stroke-width:4; stroke-opacity:1; fill:none" points="
  166.42,759.034 187.861,761.765 209.302,764.5 230.743,767.237 252.184,769.967 273.625,772.705 295.066,775.438 316.507,778.171 337.948,780.904 359.389,783.644 
  380.83,786.379 402.271,789.108 423.712,791.848 445.153,794.575 466.593,797.311 488.034,800.045 509.475,802.778 530.916,805.515 552.357,808.25 573.798,810.984 
  595.239,813.712 616.68,816.453 638.121,819.18 659.562,821.921 681.003,824.654 702.444,827.39 723.885,830.12 745.326,832.857 766.767,835.589 788.208,838.326 
  809.649,841.059 831.09,843.789 852.531,846.528 873.972,849.262 895.413,851.994 916.854,854.726 938.295,857.462 959.736,860.2 981.177,862.927 1002.62,865.664 
  1024.06,868.4 1045.5,871.137 1066.94,873.866 1088.38,876.606 1109.82,879.336 1131.26,882.074 1152.7,884.806 1174.15,887.543 1195.59,890.275 1217.03,893.007 
  1238.47,895.747 1259.91,898.478 1281.35,901.21 1302.79,903.946 1324.23,906.677 1345.67,909.416 1367.11,912.147 1388.56,914.885 1410,917.615 1431.44,920.353 
  1452.88,923.084 1474.32,925.822 1495.76,928.552 1517.2,931.287 1538.64,934.021 1560.08,936.755 1581.52,939.495 1602.97,942.224 1624.41,944.961 1645.85,947.694 
  1667.29,950.428 1688.73,953.158 1710.17,955.898 1731.61,958.631 1753.05,961.366 1774.49,964.099 1795.93,966.831 1817.37,969.563 1838.82,972.302 1860.26,975.032 
  1881.7,977.768 1903.14,980.503 1924.58,983.236 1946.02,985.972 1967.46,988.705 1988.9,991.44 2010.34,994.173 2031.78,996.908 2053.23,999.64 2074.67,1002.38 
  2096.11,1005.11 2117.55,1007.84 2138.99,1010.58 2160.43,1013.31 2181.87,1016.05 2203.31,1018.78 2224.75,1021.52 2246.19,1024.25 2267.64,1026.98 2289.08,1029.72 
  
  "/>
<polyline clip-path="url(#clip602)" style="stroke:#00a98d; stroke-width:4; stroke-opacity:1; fill:none" points="
  166.42,732.813 187.861,726.46 209.302,720.104 230.743,713.749 252.184,707.4 273.625,701.039 295.066,694.692 316.507,688.337 337.948,681.982 359.389,675.629 
  380.83,669.278 402.271,662.921 423.712,656.57 445.153,650.219 466.593,643.864 488.034,637.509 509.475,631.153 530.916,624.801 552.357,618.45 573.798,612.092 
  595.239,605.741 616.68,599.39 638.121,593.031 659.562,586.681 681.003,580.325 702.444,573.971 723.885,567.617 745.326,561.266 766.767,554.913 788.208,548.56 
  809.649,542.205 831.09,535.857 852.531,529.501 873.972,523.143 895.413,516.791 916.854,510.433 938.295,504.082 959.736,497.729 981.177,491.377 1002.62,485.021 
  1024.06,478.668 1045.5,472.315 1066.94,465.962 1088.38,459.615 1109.82,453.256 1131.26,446.902 1152.7,440.548 1174.15,434.195 1195.59,427.841 1217.03,421.488 
  1238.47,415.134 1259.91,408.783 1281.35,402.433 1302.79,396.076 1324.23,389.715 1345.67,383.366 1367.11,377.015 1388.56,370.661 1410,364.302 1431.44,357.952 
  1452.88,351.596 1474.32,345.246 1495.76,338.888 1517.2,332.537 1538.64,326.184 1560.08,319.83 1581.52,313.476 1602.97,307.125 1624.41,300.772 1645.85,294.416 
  1667.29,288.06 1688.73,281.712 1710.17,275.356 1731.61,269.002 1753.05,262.649 1774.49,256.295 1795.93,249.943 1817.37,243.587 1838.82,237.238 1860.26,230.879 
  1881.7,224.528 1903.14,218.175 1924.58,211.816 1946.02,205.464 1967.46,199.113 1988.9,192.757 2010.34,186.409 2031.78,180.05 2053.23,173.698 2074.67,167.343 
  2096.11,160.989 2117.55,154.637 2138.99,148.282 2160.43,141.93 2181.87,135.575 2203.31,129.227 2224.75,122.87 2246.19,116.517 2267.64,110.161 2289.08,103.811 
  
  "/>
<polyline clip-path="url(#clip602)" style="stroke:#8e971d; stroke-width:4; stroke-opacity:1; fill:none" points="
  166.42,801.603 187.861,806.519 209.302,811.439 230.743,816.353 252.184,821.274 273.625,826.19 295.066,831.108 316.507,836.029 337.948,840.941 359.389,845.862 
  380.83,850.779 402.271,855.695 423.712,860.613 445.153,865.532 466.593,870.449 488.034,875.365 509.475,880.284 530.916,885.199 552.357,890.12 573.798,895.035 
  595.239,899.956 616.68,904.872 638.121,909.789 659.562,914.703 681.003,919.625 702.444,924.538 723.885,929.459 745.326,934.375 766.767,939.293 788.208,944.213 
  809.649,949.127 831.09,954.042 852.531,958.961 873.972,963.883 895.413,968.797 916.854,973.719 938.295,978.634 959.736,983.551 981.177,988.469 1002.62,993.39 
  1024.06,998.304 1045.5,1003.22 1066.94,1008.14 1088.38,1013.06 1109.82,1017.97 1131.26,1022.9 1152.7,1027.81 1174.15,1032.72 1195.59,1037.65 1217.03,1042.56 
  1238.47,1047.48 1259.91,1052.4 1281.35,1057.32 1302.79,1062.23 1324.23,1067.15 1345.67,1072.07 1367.11,1076.99 1388.56,1081.9 1410,1086.83 1431.44,1091.74 
  1452.88,1096.65 1474.32,1101.57 1495.76,1106.49 1517.2,1111.41 1538.64,1116.32 1560.08,1121.24 1581.52,1126.16 1602.97,1131.08 1624.41,1136 1645.85,1140.91 
  1667.29,1145.83 1688.73,1150.75 1710.17,1155.66 1731.61,1160.59 1753.05,1165.5 1774.49,1170.42 1795.93,1175.34 1817.37,1180.26 1838.82,1185.18 1860.26,1190.09 
  1881.7,1195.01 1903.14,1199.92 1924.58,1204.84 1946.02,1209.76 1967.46,1214.68 1988.9,1219.6 2010.34,1224.51 2031.78,1229.43 2053.23,1234.35 2074.67,1239.27 
  2096.11,1244.18 2117.55,1249.1 2138.99,1254.02 2160.43,1258.94 2181.87,1263.85 2203.31,1268.78 2224.75,1273.69 2246.19,1278.61 2267.64,1283.52 2289.08,1288.44 
  
  "/>
<polyline clip-path="url(#clip602)" style="stroke:#00a8cb; stroke-width:4; stroke-opacity:1; fill:none" points="
  166.42,819.388 187.861,817.249 209.302,815.111 230.743,812.973 252.184,810.833 273.625,808.699 295.066,806.559 316.507,804.419 337.948,802.288 359.389,800.142 
  380.83,798.005 402.271,795.866 423.712,793.724 445.153,791.585 466.593,789.451 488.034,787.311 509.475,785.177 530.916,783.036 552.357,780.895 573.798,778.755 
  595.239,776.621 616.68,774.482 638.121,772.35 659.562,770.205 681.003,768.067 702.444,765.931 723.885,763.788 745.326,761.649 766.767,759.513 788.208,757.375 
  809.649,755.237 831.09,753.1 852.531,750.956 873.972,748.82 895.413,746.683 916.854,744.543 938.295,742.409 959.736,740.269 981.177,738.125 1002.62,735.988 
  1024.06,733.849 1045.5,731.713 1066.94,729.574 1088.38,727.438 1109.82,725.299 1131.26,723.158 1152.7,721.021 1174.15,718.888 1195.59,716.739 1217.03,714.606 
  1238.47,712.465 1259.91,710.327 1281.35,708.188 1302.79,706.053 1324.23,703.914 1345.67,701.77 1367.11,699.637 1388.56,697.495 1410,695.363 1431.44,693.218 
  1452.88,691.082 1474.32,688.942 1495.76,686.807 1517.2,684.666 1538.64,682.529 1560.08,680.394 1581.52,678.247 1602.97,676.111 1624.41,673.978 1645.85,671.837 
  1667.29,669.697 1688.73,667.56 1710.17,665.42 1731.61,663.281 1753.05,661.147 1774.49,659.006 1795.93,656.868 1817.37,654.726 1838.82,652.593 1860.26,650.45 
  1881.7,648.312 1903.14,646.177 1924.58,644.036 1946.02,641.9 1967.46,639.76 1988.9,637.623 2010.34,635.482 2031.78,633.345 2053.23,631.206 2074.67,629.069 
  2096.11,626.926 2117.55,624.789 2138.99,622.648 2160.43,620.514 2181.87,618.375 2203.31,616.234 2224.75,614.096 2246.19,611.959 2267.64,609.819 2289.08,607.68 
  
  "/>
<polyline clip-path="url(#clip602)" style="stroke:#9b7fe8; stroke-width:4; stroke-opacity:1; fill:none" points="
  166.42,243.403 187.861,251.48 209.302,259.562 230.743,267.641 252.184,275.721 273.625,283.802 295.066,291.879 316.507,299.956 337.948,308.038 359.389,316.115 
  380.83,324.196 402.271,332.273 423.712,340.357 445.153,348.428 466.593,356.518 488.034,364.59 509.475,372.667 530.916,380.749 552.357,388.834 573.798,396.908 
  595.239,404.987 616.68,413.064 638.121,421.149 659.562,429.23 681.003,437.304 702.444,445.388 723.885,453.467 745.326,461.547 766.767,469.622 788.208,477.702 
  809.649,485.778 831.09,493.862 852.531,501.943 873.972,510.023 895.413,518.099 916.854,526.178 938.295,534.255 959.736,542.339 981.177,550.417 1002.62,558.497 
  1024.06,566.575 1045.5,574.656 1066.94,582.733 1088.38,590.815 1109.82,598.895 1131.26,606.976 1152.7,615.058 1174.15,623.135 1195.59,631.208 1217.03,639.292 
  1238.47,647.369 1259.91,655.448 1281.35,663.528 1302.79,671.606 1324.23,679.687 1345.67,687.765 1367.11,695.844 1388.56,703.923 1410,711.998 1431.44,720.083 
  1452.88,728.163 1474.32,736.24 1495.76,744.319 1517.2,752.396 1538.64,760.477 1560.08,768.562 1581.52,776.643 1602.97,784.719 1624.41,792.793 1645.85,800.878 
  1667.29,808.955 1688.73,817.04 1710.17,825.114 1731.61,833.198 1753.05,841.276 1774.49,849.352 1795.93,857.434 1817.37,865.515 1838.82,873.593 1860.26,881.672 
  1881.7,889.748 1903.14,897.83 1924.58,905.907 1946.02,913.987 1967.46,922.069 1988.9,930.147 2010.34,938.224 2031.78,946.307 2053.23,954.383 2074.67,962.464 
  2096.11,970.546 2117.55,978.619 2138.99,986.699 2160.43,994.779 2181.87,1002.85 2203.31,1010.94 2224.75,1019.02 2246.19,1027.1 2267.64,1035.18 2289.08,1043.26 
  
  "/>
<polyline clip-path="url(#clip602)" style="stroke:#608cf6; stroke-width:4; stroke-opacity:1; fill:none" points="
  166.42,457.218 187.861,460.426 209.302,463.636 230.743,466.848 252.184,470.062 273.625,473.26 295.066,476.47 316.507,479.68 337.948,482.889 359.389,486.094 
  380.83,489.303 402.271,492.515 423.712,495.72 445.153,498.928 466.593,502.132 488.034,505.346 509.475,508.554 530.916,511.759 552.357,514.968 573.798,518.182 
  595.239,521.381 616.68,524.596 638.121,527.8 659.562,531.01 681.003,534.218 702.444,537.426 723.885,540.633 745.326,543.843 766.767,547.052 788.208,550.261 
  809.649,553.467 831.09,556.676 852.531,559.885 873.972,563.09 895.413,566.303 916.854,569.51 938.295,572.717 959.736,575.924 981.177,579.132 1002.62,582.341 
  1024.06,585.547 1045.5,588.758 1066.94,591.966 1088.38,595.175 1109.82,598.381 1131.26,601.595 1152.7,604.797 1174.15,608.005 1195.59,611.214 1217.03,614.423 
  1238.47,617.632 1259.91,620.837 1281.35,624.047 1302.79,627.254 1324.23,630.46 1345.67,633.674 1367.11,636.881 1388.56,640.089 1410,643.294 1431.44,646.506 
  1452.88,649.711 1474.32,652.921 1495.76,656.131 1517.2,659.335 1538.64,662.545 1560.08,665.754 1581.52,668.965 1602.97,672.169 1624.41,675.384 1645.85,678.59 
  1667.29,681.796 1688.73,685.002 1710.17,688.207 1731.61,691.418 1753.05,694.632 1774.49,697.832 1795.93,701.043 1817.37,704.257 1838.82,707.463 1860.26,710.669 
  1881.7,713.879 1903.14,717.088 1924.58,720.296 1946.02,723.501 1967.46,726.708 1988.9,729.917 2010.34,733.132 2031.78,736.336 2053.23,739.542 2074.67,742.75 
  2096.11,745.959 2117.55,749.166 2138.99,752.373 2160.43,755.585 2181.87,758.793 2203.31,762 2224.75,765.209 2246.19,768.412 2267.64,771.623 2289.08,774.833 
  
  "/>
<polyline clip-path="url(#clip602)" style="stroke:#f05f73; stroke-width:4; stroke-opacity:1; fill:none" points="
  166.42,274.705 187.861,281.152 209.302,287.605 230.743,294.05 252.184,300.497 273.625,306.946 295.066,313.399 316.507,319.842 337.948,326.283 359.389,332.742 
  380.83,339.189 402.271,345.639 423.712,352.084 445.153,358.538 466.593,364.98 488.034,371.43 509.475,377.875 530.916,384.323 552.357,390.774 573.798,397.222 
  595.239,403.674 616.68,410.116 638.121,416.566 659.562,423.019 681.003,429.465 702.444,435.916 723.885,442.364 745.326,448.81 766.767,455.258 788.208,461.708 
  809.649,468.155 831.09,474.606 852.531,481.051 873.972,487.498 895.413,493.949 916.854,500.397 938.295,506.847 959.736,513.292 981.177,519.742 1002.62,526.189 
  1024.06,532.64 1045.5,539.091 1066.94,545.538 1088.38,551.984 1109.82,558.433 1131.26,564.875 1152.7,571.327 1174.15,577.777 1195.59,584.226 1217.03,590.678 
  1238.47,597.126 1259.91,603.573 1281.35,610.018 1302.79,616.471 1324.23,622.918 1345.67,629.368 1367.11,635.813 1388.56,642.263 1410,648.708 1431.44,655.158 
  1452.88,661.604 1474.32,668.054 1495.76,674.501 1517.2,680.954 1538.64,687.403 1560.08,693.851 1581.52,700.297 1602.97,706.745 1624.41,713.192 1645.85,719.647 
  1667.29,726.091 1688.73,732.539 1710.17,738.988 1731.61,745.435 1753.05,751.884 1774.49,758.331 1795.93,764.785 1817.37,771.228 1838.82,777.677 1860.26,784.125 
  1881.7,790.575 1903.14,797.025 1924.58,803.472 1946.02,809.92 1967.46,816.37 1988.9,822.816 2010.34,829.266 2031.78,835.711 2053.23,842.158 2074.67,848.607 
  2096.11,855.062 2117.55,861.51 2138.99,867.959 2160.43,874.404 2181.87,880.852 2203.31,887.301 2224.75,893.748 2246.19,900.196 2267.64,906.65 2289.08,913.095 
  
  "/>
<polyline clip-path="url(#clip602)" style="stroke:#dd64b5; stroke-width:4; stroke-opacity:1; fill:none" points="
  166.42,318.266 187.861,320.264 209.302,322.251 230.743,324.246 252.184,326.238 273.625,328.226 295.066,330.22 316.507,332.217 337.948,334.206 359.389,336.197 
  380.83,338.196 402.271,340.183 423.712,342.182 445.153,344.168 466.593,346.164 488.034,348.156 509.475,350.15 530.916,352.14 552.357,354.136 573.798,356.125 
  595.239,358.117 616.68,360.113 638.121,362.102 659.562,364.095 681.003,366.091 702.444,368.081 723.885,370.073 745.326,372.067 766.767,374.055 788.208,376.047 
  809.649,378.042 831.09,380.032 852.531,382.029 873.972,384.021 895.413,386.017 916.854,388.01 938.295,390.001 959.736,391.994 981.177,393.982 1002.62,395.979 
  1024.06,397.968 1045.5,399.963 1066.94,401.96 1088.38,403.946 1109.82,405.944 1131.26,407.938 1152.7,409.923 1174.15,411.92 1195.59,413.908 1217.03,415.906 
  1238.47,417.894 1259.91,419.891 1281.35,421.879 1302.79,423.872 1324.23,425.869 1345.67,427.86 1367.11,429.856 1388.56,431.845 1410,433.833 1431.44,435.826 
  1452.88,437.823 1474.32,439.814 1495.76,441.805 1517.2,443.799 1538.64,445.79 1560.08,447.788 1581.52,449.774 1602.97,451.767 1624.41,453.761 1645.85,455.754 
  1667.29,457.75 1688.73,459.739 1710.17,461.729 1731.61,463.728 1753.05,465.714 1774.49,467.712 1795.93,469.704 1817.37,471.695 1838.82,473.687 1860.26,475.683 
  1881.7,477.669 1903.14,479.665 1924.58,481.658 1946.02,483.654 1967.46,485.645 1988.9,487.633 2010.34,489.627 2031.78,491.62 2053.23,493.615 2074.67,495.605 
  2096.11,497.598 2117.55,499.589 2138.99,501.582 2160.43,503.578 2181.87,505.568 2203.31,507.562 2224.75,509.551 2246.19,511.552 2267.64,513.536 2289.08,515.528 
  
  "/>
<polyline clip-path="url(#clip602)" style="stroke:#6b9e32; stroke-width:4; stroke-opacity:1; fill:none" points="
  166.42,589.422 187.861,589.81 209.302,590.196 230.743,590.577 252.184,590.963 273.625,591.35 295.066,591.734 316.507,592.119 337.948,592.502 359.389,592.885 
  380.83,593.275 402.271,593.655 423.712,594.043 445.153,594.427 466.593,594.809 488.034,595.196 509.475,595.581 530.916,595.963 552.357,596.352 573.798,596.735 
  595.239,597.12 616.68,597.5 638.121,597.889 659.562,598.272 681.003,598.658 702.444,599.043 723.885,599.43 745.326,599.811 766.767,600.199 788.208,600.582 
  809.649,600.971 831.09,601.346 852.531,601.733 873.972,602.118 895.413,602.505 916.854,602.89 938.295,603.279 959.736,603.659 981.177,604.046 1002.62,604.426 
  1024.06,604.816 1045.5,605.2 1066.94,605.585 1088.38,605.968 1109.82,606.353 1131.26,606.738 1152.7,607.124 1174.15,607.505 1195.59,607.89 1217.03,608.277 
  1238.47,608.664 1259.91,609.049 1281.35,609.429 1302.79,609.817 1324.23,610.205 1345.67,610.589 1367.11,610.974 1388.56,611.354 1410,611.739 1431.44,612.121 
  1452.88,612.505 1474.32,612.891 1495.76,613.277 1517.2,613.664 1538.64,614.051 1560.08,614.429 1581.52,614.816 1602.97,615.201 1624.41,615.592 1645.85,615.976 
  1667.29,616.362 1688.73,616.738 1710.17,617.126 1731.61,617.512 1753.05,617.898 1774.49,618.281 1795.93,618.669 1817.37,619.052 1838.82,619.436 1860.26,619.824 
  1881.7,620.207 1903.14,620.589 1924.58,620.971 1946.02,621.363 1967.46,621.74 1988.9,622.124 2010.34,622.516 2031.78,622.898 2053.23,623.279 2074.67,623.668 
  2096.11,624.051 2117.55,624.44 2138.99,624.82 2160.43,625.205 2181.87,625.592 2203.31,625.979 2224.75,626.357 2246.19,626.748 2267.64,627.133 2289.08,627.515 
  
  "/>
<polyline clip-path="url(#clip602)" style="stroke:#009af9; stroke-width:4; stroke-opacity:1; fill:none" points="
  166.42,1117.75 187.861,1109.01 209.302,1100.27 230.743,1091.53 252.184,1082.79 273.625,1074.06 295.066,1065.31 316.507,1056.57 337.948,1047.84 359.389,1039.1 
  380.83,1030.36 402.271,1021.62 423.712,1012.88 445.153,1004.15 466.593,995.402 488.034,986.665 509.475,977.93 530.916,969.191 552.357,960.455 573.798,951.71 
  595.239,942.969 616.68,934.239 638.121,925.5 659.562,916.76 681.003,908.019 702.444,899.278 723.885,890.54 745.326,881.799 766.767,873.066 788.208,864.323 
  809.649,855.583 831.09,846.849 852.531,838.111 873.972,829.37 895.413,820.629 916.854,811.896 938.295,803.153 959.736,794.416 981.177,785.678 1002.62,776.94 
  1024.06,768.199 1045.5,759.459 1066.94,750.725 1088.38,741.984 1109.82,733.242 1131.26,724.504 1152.7,715.765 1174.15,707.028 1195.59,698.292 1217.03,689.552 
  1238.47,680.814 1259.91,672.075 1281.35,663.335 1302.79,654.592 1324.23,645.858 1345.67,637.119 1367.11,628.384 1388.56,619.645 1410,610.901 1431.44,602.169 
  1452.88,593.425 1474.32,584.684 1495.76,575.949 1517.2,567.21 1538.64,558.472 1560.08,549.733 1581.52,540.997 1602.97,532.256 1624.41,523.513 1645.85,514.774 
  1667.29,506.038 1688.73,497.299 1710.17,488.56 1731.61,479.822 1753.05,471.08 1774.49,462.347 1795.93,453.605 1817.37,444.864 1838.82,436.123 1860.26,427.39 
  1881.7,418.651 1903.14,409.913 1924.58,401.171 1946.02,392.433 1967.46,383.702 1988.9,374.963 2010.34,366.214 2031.78,357.479 2053.23,348.742 2074.67,340.002 
  2096.11,331.263 2117.55,322.521 2138.99,313.784 2160.43,305.045 2181.87,296.307 2203.31,287.566 2224.75,278.828 2246.19,270.089 2267.64,261.354 2289.08,252.614 
  
  "/>
<polyline clip-path="url(#clip602)" style="stroke:#e26f46; stroke-width:4; stroke-opacity:1; fill:none" points="
  166.42,752.929 187.861,757.042 209.302,761.157 230.743,765.27 252.184,769.383 273.625,773.485 295.066,777.601 316.507,781.709 337.948,785.823 359.389,789.936 
  380.83,794.048 402.271,798.158 423.712,802.275 445.153,806.385 466.593,810.494 488.034,814.607 509.475,818.717 530.916,822.83 552.357,826.943 573.798,831.055 
  595.239,835.165 616.68,839.275 638.121,843.393 659.562,847.503 681.003,851.616 702.444,855.723 723.885,859.837 745.326,863.947 766.767,868.059 788.208,872.173 
  809.649,876.286 831.09,880.397 852.531,884.51 873.972,888.618 895.413,892.73 916.854,896.844 938.295,900.952 959.736,905.067 981.177,909.179 1002.62,913.295 
  1024.06,917.399 1045.5,921.515 1066.94,925.622 1088.38,929.735 1109.82,933.851 1131.26,937.961 1152.7,942.071 1174.15,946.181 1195.59,950.293 1217.03,954.408 
  1238.47,958.523 1259.91,962.635 1281.35,966.744 1302.79,970.854 1324.23,974.969 1345.67,979.079 1367.11,983.186 1388.56,987.301 1410,991.414 1431.44,995.527 
  1452.88,999.637 1474.32,1003.75 1495.76,1007.86 1517.2,1011.97 1538.64,1016.09 1560.08,1020.19 1581.52,1024.31 1602.97,1028.42 1624.41,1032.53 1645.85,1036.64 
  1667.29,1040.76 1688.73,1044.87 1710.17,1048.97 1731.61,1053.09 1753.05,1057.21 1774.49,1061.31 1795.93,1065.42 1817.37,1069.54 1838.82,1073.65 1860.26,1077.76 
  1881.7,1081.87 1903.14,1085.98 1924.58,1090.09 1946.02,1094.21 1967.46,1098.32 1988.9,1102.43 2010.34,1106.54 2031.78,1110.65 2053.23,1114.76 2074.67,1118.88 
  2096.11,1122.99 2117.55,1127.1 2138.99,1131.21 2160.43,1135.32 2181.87,1139.44 2203.31,1143.55 2224.75,1147.66 2246.19,1151.77 2267.64,1155.88 2289.08,1159.99 
  
  "/>
<polyline clip-path="url(#clip602)" style="stroke:#3da44d; stroke-width:4; stroke-opacity:1; fill:none" points="
  166.42,368.734 187.861,379.8 209.302,390.871 230.743,401.936 252.184,413.009 273.625,424.068 295.066,435.141 316.507,446.203 337.948,457.276 359.389,468.343 
  380.83,479.413 402.271,490.481 423.712,501.544 445.153,512.611 466.593,523.681 488.034,534.751 509.475,545.816 530.916,556.883 552.357,567.95 573.798,579.02 
  595.239,590.09 616.68,601.158 638.121,612.221 659.562,623.29 681.003,634.361 702.444,645.426 723.885,656.497 745.326,667.566 766.767,678.624 788.208,689.699 
  809.649,700.763 831.09,711.836 852.531,722.898 873.972,733.966 895.413,745.037 916.854,756.102 938.295,767.167 959.736,778.238 981.177,789.305 1002.62,800.375 
  1024.06,811.441 1045.5,822.507 1066.94,833.578 1088.38,844.643 1109.82,855.706 1131.26,866.78 1152.7,877.846 1174.15,888.914 1195.59,899.984 1217.03,911.052 
  1238.47,922.115 1259.91,933.186 1281.35,944.256 1302.79,955.318 1324.23,966.388 1345.67,977.457 1367.11,988.524 1388.56,999.592 1410,1010.66 1431.44,1021.73 
  1452.88,1032.8 1474.32,1043.86 1495.76,1054.93 1517.2,1066 1538.64,1077.07 1560.08,1088.14 1581.52,1099.2 1602.97,1110.27 1624.41,1121.34 1645.85,1132.4 
  1667.29,1143.47 1688.73,1154.54 1710.17,1165.61 1731.61,1176.68 1753.05,1187.75 1774.49,1198.81 1795.93,1209.88 1817.37,1220.95 1838.82,1232.02 1860.26,1243.08 
  1881.7,1254.15 1903.14,1265.22 1924.58,1276.28 1946.02,1287.35 1967.46,1298.42 1988.9,1309.49 2010.34,1320.56 2031.78,1331.62 2053.23,1342.69 2074.67,1353.76 
  2096.11,1364.83 2117.55,1375.9 2138.99,1386.96 2160.43,1398.03 2181.87,1409.1 2203.31,1420.17 2224.75,1431.23 2246.19,1442.3 2267.64,1453.37 2289.08,1464.44 
  
  "/>
<polyline clip-path="url(#clip602)" style="stroke:#c271d2; stroke-width:4; stroke-opacity:1; fill:none" points="
  166.42,460.722 187.861,463.337 209.302,465.958 230.743,468.575 252.184,471.192 273.625,473.807 295.066,476.422 316.507,479.041 337.948,481.663 359.389,484.277 
  380.83,486.892 402.271,489.508 423.712,492.126 445.153,494.743 466.593,497.359 488.034,499.979 509.475,502.594 530.916,505.219 552.357,507.828 573.798,510.449 
  595.239,513.059 616.68,515.679 638.121,518.296 659.562,520.916 681.003,523.533 702.444,526.147 723.885,528.766 745.326,531.38 766.767,533.999 788.208,536.618 
  809.649,539.234 831.09,541.853 852.531,544.465 873.972,547.084 895.413,549.699 916.854,552.315 938.295,554.935 959.736,557.547 981.177,560.173 1002.62,562.789 
  1024.06,565.402 1045.5,568.023 1066.94,570.639 1088.38,573.253 1109.82,575.877 1131.26,578.49 1152.7,581.108 1174.15,583.723 1195.59,586.346 1217.03,588.958 
  1238.47,591.576 1259.91,594.195 1281.35,596.81 1302.79,599.424 1324.23,602.044 1345.67,604.662 1367.11,607.278 1388.56,609.897 1410,612.512 1431.44,615.131 
  1452.88,617.745 1474.32,620.365 1495.76,622.984 1517.2,625.596 1538.64,628.219 1560.08,630.829 1581.52,633.445 1602.97,636.066 1624.41,638.683 1645.85,641.3 
  1667.29,643.919 1688.73,646.535 1710.17,649.149 1731.61,651.77 1753.05,654.383 1774.49,657.001 1795.93,659.62 1817.37,662.24 1838.82,664.856 1860.26,667.472 
  1881.7,670.088 1903.14,672.706 1924.58,675.325 1946.02,677.943 1967.46,680.558 1988.9,683.18 2010.34,685.792 2031.78,688.414 2053.23,691.024 2074.67,693.647 
  2096.11,696.257 2117.55,698.876 2138.99,701.495 2160.43,704.114 2181.87,706.728 2203.31,709.345 2224.75,711.962 2246.19,714.575 2267.64,717.198 2289.08,719.814 
  
  "/>
<polyline clip-path="url(#clip602)" style="stroke:#ac8d18; stroke-width:4; stroke-opacity:1; fill:none" points="
  166.42,1177.96 187.861,1173.69 209.302,1169.43 230.743,1165.17 252.184,1160.91 273.625,1156.65 295.066,1152.38 316.507,1148.11 337.948,1143.86 359.389,1139.6 
  380.83,1135.34 402.271,1131.07 423.712,1126.81 445.153,1122.54 466.593,1118.28 488.034,1114.02 509.475,1109.76 530.916,1105.5 552.357,1101.23 573.798,1096.97 
  595.239,1092.71 616.68,1088.45 638.121,1084.19 659.562,1079.93 681.003,1075.66 702.444,1071.4 723.885,1067.13 745.326,1062.88 766.767,1058.61 788.208,1054.35 
  809.649,1050.09 831.09,1045.82 852.531,1041.56 873.972,1037.3 895.413,1033.04 916.854,1028.78 938.295,1024.51 959.736,1020.25 981.177,1015.99 1002.62,1011.73 
  1024.06,1007.46 1045.5,1003.2 1066.94,998.941 1088.38,994.677 1109.82,990.412 1131.26,986.154 1152.7,981.894 1174.15,977.631 1195.59,973.36 1217.03,969.102 
  1238.47,964.844 1259.91,960.577 1281.35,956.315 1302.79,952.055 1324.23,947.792 1345.67,943.531 1367.11,939.266 1388.56,935.003 1410,930.749 1431.44,926.482 
  1452.88,922.219 1474.32,917.956 1495.76,913.699 1517.2,909.435 1538.64,905.17 1560.08,900.907 1581.52,896.644 1602.97,892.384 1624.41,888.121 1645.85,883.856 
  1667.29,879.596 1688.73,875.337 1710.17,871.072 1731.61,866.808 1753.05,862.551 1774.49,858.286 1795.93,854.021 1817.37,849.757 1838.82,845.495 1860.26,841.236 
  1881.7,836.973 1903.14,832.708 1924.58,828.45 1946.02,824.188 1967.46,819.925 1988.9,815.661 2010.34,811.398 2031.78,807.142 2053.23,802.873 2074.67,798.615 
  2096.11,794.349 2117.55,790.089 2138.99,785.826 2160.43,781.563 2181.87,777.301 2203.31,773.041 2224.75,768.776 2246.19,764.509 2267.64,760.251 2289.08,755.991 
  
  "/>
</svg>
