<?xml version="1.0" encoding="utf-8"?>
<svg xmlns="http://www.w3.org/2000/svg" xmlns:xlink="http://www.w3.org/1999/xlink" width="600" height="400" viewBox="0 0 2400 1600">
<defs>
  <clipPath id="clip630">
    <rect x="0" y="0" width="2400" height="1600"/>
  </clipPath>
</defs>
<path clip-path="url(#clip630)" d="
M0 1600 L2400 1600 L2400 0 L0 0  Z
  " fill="#ffffff" fill-rule="evenodd" fill-opacity="1"/>
<defs>
  <clipPath id="clip631">
    <rect x="480" y="0" width="1681" height="1600"/>
  </clipPath>
</defs>
<path clip-path="url(#clip630)" d="
M102.74 1505.26 L2352.76 1505.26 L2352.76 62.9921 L102.74 62.9921  Z
  " fill="#ffffff" fill-rule="evenodd" fill-opacity="1"/>
<defs>
  <clipPath id="clip632">
    <rect x="102" y="62" width="2251" height="1443"/>
  </clipPath>
</defs>
<polyline clip-path="url(#clip632)" style="stroke:#000000; stroke-width:2; stroke-opacity:0.1; fill:none" points="
  166.42,1505.26 166.42,62.9921 
  "/>
<polyline clip-path="url(#clip632)" style="stroke:#000000; stroke-width:2; stroke-opacity:0.1; fill:none" points="
  697.084,1505.26 697.084,62.9921 
  "/>
<polyline clip-path="url(#clip632)" style="stroke:#000000; stroke-width:2; stroke-opacity:0.1; fill:none" points="
  1227.75,1505.26 1227.75,62.9921 
  "/>
<polyline clip-path="url(#clip632)" style="stroke:#000000; stroke-width:2; stroke-opacity:0.1; fill:none" points="
  1758.41,1505.26 1758.41,62.9921 
  "/>
<polyline clip-path="url(#clip632)" style="stroke:#000000; stroke-width:2; stroke-opacity:0.1; fill:none" points="
  2289.08,1505.26 2289.08,62.9921 
  "/>
<polyline clip-path="url(#clip630)" style="stroke:#000000; stroke-width:4; stroke-opacity:1; fill:none" points="
  102.74,1505.26 2352.76,1505.26 
  "/>
<polyline clip-path="url(#clip630)" style="stroke:#000000; stroke-width:4; stroke-opacity:1; fill:none" points="
  166.42,1505.26 166.42,1487.95 
  "/>
<polyline clip-path="url(#clip630)" style="stroke:#000000; stroke-width:4; stroke-opacity:1; fill:none" points="
  697.084,1505.26 697.084,1487.95 
  "/>
<polyline clip-path="url(#clip630)" style="stroke:#000000; stroke-width:4; stroke-opacity:1; fill:none" points="
  1227.75,1505.26 1227.75,1487.95 
  "/>
<polyline clip-path="url(#clip630)" style="stroke:#000000; stroke-width:4; stroke-opacity:1; fill:none" points="
  1758.41,1505.26 1758.41,1487.95 
  "/>
<polyline clip-path="url(#clip630)" style="stroke:#000000; stroke-width:4; stroke-opacity:1; fill:none" points="
  2289.08,1505.26 2289.08,1487.95 
  "/>
<path clip-path="url(#clip630)" d="M 0 0 M112.948 1549.1 L142.624 1549.1 L142.624 1553.04 L112.948 1553.04 L112.948 1549.1 Z" fill="#000000" fill-rule="evenodd" fill-opacity="1" /><path clip-path="url(#clip630)" d="M 0 0 M153.526 1562 L161.165 1562 L161.165 1535.63 L152.855 1537.3 L152.855 1533.04 L161.119 1531.37 L165.795 1531.37 L165.795 1562 L173.434 1562 L173.434 1565.93 L153.526 1565.93 L153.526 1562 Z" fill="#000000" fill-rule="evenodd" fill-opacity="1" /><path clip-path="url(#clip630)" d="M 0 0 M182.878 1560.05 L187.762 1560.05 L187.762 1565.93 L182.878 1565.93 L182.878 1560.05 Z" fill="#000000" fill-rule="evenodd" fill-opacity="1" /><path clip-path="url(#clip630)" d="M 0 0 M207.947 1534.45 Q204.336 1534.45 202.508 1538.02 Q200.702 1541.56 200.702 1548.69 Q200.702 1555.79 202.508 1559.36 Q204.336 1562.9 207.947 1562.9 Q211.582 1562.9 213.387 1559.36 Q215.216 1555.79 215.216 1548.69 Q215.216 1541.56 213.387 1538.02 Q211.582 1534.45 207.947 1534.45 M207.947 1530.75 Q213.758 1530.75 216.813 1535.35 Q219.892 1539.94 219.892 1548.69 Q219.892 1557.41 216.813 1562.02 Q213.758 1566.6 207.947 1566.6 Q202.137 1566.6 199.059 1562.02 Q196.003 1557.41 196.003 1548.69 Q196.003 1539.94 199.059 1535.35 Q202.137 1530.75 207.947 1530.75 Z" fill="#000000" fill-rule="evenodd" fill-opacity="1" /><path clip-path="url(#clip630)" d="M 0 0 M644.11 1549.1 L673.785 1549.1 L673.785 1553.04 L644.11 1553.04 L644.11 1549.1 Z" fill="#000000" fill-rule="evenodd" fill-opacity="1" /><path clip-path="url(#clip630)" d="M 0 0 M693.878 1534.45 Q690.267 1534.45 688.438 1538.02 Q686.633 1541.56 686.633 1548.69 Q686.633 1555.79 688.438 1559.36 Q690.267 1562.9 693.878 1562.9 Q697.512 1562.9 699.318 1559.36 Q701.146 1555.79 701.146 1548.69 Q701.146 1541.56 699.318 1538.02 Q697.512 1534.45 693.878 1534.45 M693.878 1530.75 Q699.688 1530.75 702.744 1535.35 Q705.822 1539.94 705.822 1548.69 Q705.822 1557.41 702.744 1562.02 Q699.688 1566.6 693.878 1566.6 Q688.068 1566.6 684.989 1562.02 Q681.934 1557.41 681.934 1548.69 Q681.934 1539.94 684.989 1535.35 Q688.068 1530.75 693.878 1530.75 Z" fill="#000000" fill-rule="evenodd" fill-opacity="1" /><path clip-path="url(#clip630)" d="M 0 0 M714.04 1560.05 L718.924 1560.05 L718.924 1565.93 L714.04 1565.93 L714.04 1560.05 Z" fill="#000000" fill-rule="evenodd" fill-opacity="1" /><path clip-path="url(#clip630)" d="M 0 0 M729.156 1531.37 L747.512 1531.37 L747.512 1535.31 L733.438 1535.31 L733.438 1543.78 Q734.456 1543.43 735.475 1543.27 Q736.493 1543.08 737.512 1543.08 Q743.299 1543.08 746.679 1546.26 Q750.058 1549.43 750.058 1554.84 Q750.058 1560.42 746.586 1563.52 Q743.114 1566.6 736.794 1566.6 Q734.618 1566.6 732.35 1566.23 Q730.105 1565.86 727.697 1565.12 L727.697 1560.42 Q729.781 1561.56 732.003 1562.11 Q734.225 1562.67 736.702 1562.67 Q740.706 1562.67 743.044 1560.56 Q745.382 1558.46 745.382 1554.84 Q745.382 1551.23 743.044 1549.13 Q740.706 1547.02 736.702 1547.02 Q734.827 1547.02 732.952 1547.44 Q731.1 1547.85 729.156 1548.73 L729.156 1531.37 Z" fill="#000000" fill-rule="evenodd" fill-opacity="1" /><path clip-path="url(#clip630)" d="M 0 0 M1205.13 1534.45 Q1201.52 1534.45 1199.69 1538.02 Q1197.89 1541.56 1197.89 1548.69 Q1197.89 1555.79 1199.69 1559.36 Q1201.52 1562.9 1205.13 1562.9 Q1208.77 1562.9 1210.57 1559.36 Q1212.4 1555.79 1212.4 1548.69 Q1212.4 1541.56 1210.57 1538.02 Q1208.77 1534.45 1205.13 1534.45 M1205.13 1530.75 Q1210.94 1530.75 1214 1535.35 Q1217.08 1539.94 1217.08 1548.69 Q1217.08 1557.41 1214 1562.02 Q1210.94 1566.6 1205.13 1566.6 Q1199.32 1566.6 1196.24 1562.02 Q1193.19 1557.41 1193.19 1548.69 Q1193.19 1539.94 1196.24 1535.35 Q1199.32 1530.75 1205.13 1530.75 Z" fill="#000000" fill-rule="evenodd" fill-opacity="1" /><path clip-path="url(#clip630)" d="M 0 0 M1225.29 1560.05 L1230.18 1560.05 L1230.18 1565.93 L1225.29 1565.93 L1225.29 1560.05 Z" fill="#000000" fill-rule="evenodd" fill-opacity="1" /><path clip-path="url(#clip630)" d="M 0 0 M1250.36 1534.45 Q1246.75 1534.45 1244.92 1538.02 Q1243.12 1541.56 1243.12 1548.69 Q1243.12 1555.79 1244.92 1559.36 Q1246.75 1562.9 1250.36 1562.9 Q1254 1562.9 1255.8 1559.36 Q1257.63 1555.79 1257.63 1548.69 Q1257.63 1541.56 1255.8 1538.02 Q1254 1534.45 1250.36 1534.45 M1250.36 1530.75 Q1256.17 1530.75 1259.23 1535.35 Q1262.31 1539.94 1262.31 1548.69 Q1262.31 1557.41 1259.23 1562.02 Q1256.17 1566.6 1250.36 1566.6 Q1244.55 1566.6 1241.47 1562.02 Q1238.42 1557.41 1238.42 1548.69 Q1238.42 1539.94 1241.47 1535.35 Q1244.55 1530.75 1250.36 1530.75 Z" fill="#000000" fill-rule="evenodd" fill-opacity="1" /><path clip-path="url(#clip630)" d="M 0 0 M1736.29 1534.45 Q1732.68 1534.45 1730.85 1538.02 Q1729.05 1541.56 1729.05 1548.69 Q1729.05 1555.79 1730.85 1559.36 Q1732.68 1562.9 1736.29 1562.9 Q1739.93 1562.9 1741.73 1559.36 Q1743.56 1555.79 1743.56 1548.69 Q1743.56 1541.56 1741.73 1538.02 Q1739.93 1534.45 1736.29 1534.45 M1736.29 1530.75 Q1742.1 1530.75 1745.16 1535.35 Q1748.24 1539.94 1748.24 1548.69 Q1748.24 1557.41 1745.16 1562.02 Q1742.1 1566.6 1736.29 1566.6 Q1730.48 1566.6 1727.41 1562.02 Q1724.35 1557.41 1724.35 1548.69 Q1724.35 1539.94 1727.41 1535.35 Q1730.48 1530.75 1736.29 1530.75 Z" fill="#000000" fill-rule="evenodd" fill-opacity="1" /><path clip-path="url(#clip630)" d="M 0 0 M1756.46 1560.05 L1761.34 1560.05 L1761.34 1565.93 L1756.46 1565.93 L1756.46 1560.05 Z" fill="#000000" fill-rule="evenodd" fill-opacity="1" /><path clip-path="url(#clip630)" d="M 0 0 M1771.57 1531.37 L1789.93 1531.37 L1789.93 1535.31 L1775.85 1535.31 L1775.85 1543.78 Q1776.87 1543.43 1777.89 1543.27 Q1778.91 1543.08 1779.93 1543.08 Q1785.72 1543.08 1789.09 1546.26 Q1792.47 1549.43 1792.47 1554.84 Q1792.47 1560.42 1789 1563.52 Q1785.53 1566.6 1779.21 1566.6 Q1777.03 1566.6 1774.77 1566.23 Q1772.52 1565.86 1770.11 1565.12 L1770.11 1560.42 Q1772.2 1561.56 1774.42 1562.11 Q1776.64 1562.67 1779.12 1562.67 Q1783.12 1562.67 1785.46 1560.56 Q1787.8 1558.46 1787.8 1554.84 Q1787.8 1551.23 1785.46 1549.13 Q1783.12 1547.02 1779.12 1547.02 Q1777.24 1547.02 1775.37 1547.44 Q1773.52 1547.85 1771.57 1548.73 L1771.57 1531.37 Z" fill="#000000" fill-rule="evenodd" fill-opacity="1" /><path clip-path="url(#clip630)" d="M 0 0 M2256.23 1562 L2263.87 1562 L2263.87 1535.63 L2255.56 1537.3 L2255.56 1533.04 L2263.82 1531.37 L2268.5 1531.37 L2268.5 1562 L2276.14 1562 L2276.14 1565.93 L2256.23 1565.93 L2256.23 1562 Z" fill="#000000" fill-rule="evenodd" fill-opacity="1" /><path clip-path="url(#clip630)" d="M 0 0 M2285.58 1560.05 L2290.47 1560.05 L2290.47 1565.93 L2285.58 1565.93 L2285.58 1560.05 Z" fill="#000000" fill-rule="evenodd" fill-opacity="1" /><path clip-path="url(#clip630)" d="M 0 0 M2310.65 1534.45 Q2307.04 1534.45 2305.21 1538.02 Q2303.4 1541.56 2303.4 1548.69 Q2303.4 1555.79 2305.21 1559.36 Q2307.04 1562.9 2310.65 1562.9 Q2314.28 1562.9 2316.09 1559.36 Q2317.92 1555.79 2317.92 1548.69 Q2317.92 1541.56 2316.09 1538.02 Q2314.28 1534.45 2310.65 1534.45 M2310.65 1530.75 Q2316.46 1530.75 2319.52 1535.35 Q2322.59 1539.94 2322.59 1548.69 Q2322.59 1557.41 2319.52 1562.02 Q2316.46 1566.6 2310.65 1566.6 Q2304.84 1566.6 2301.76 1562.02 Q2298.71 1557.41 2298.71 1548.69 Q2298.71 1539.94 2301.76 1535.35 Q2304.84 1530.75 2310.65 1530.75 Z" fill="#000000" fill-rule="evenodd" fill-opacity="1" /><path clip-path="url(#clip630)" d="M 0 0 M1244.36 1614.48 L1231.47 1631.82 L1245.03 1650.12 L1238.12 1650.12 L1227.75 1636.12 L1217.37 1650.12 L1210.47 1650.12 L1224.31 1631.47 L1211.64 1614.48 L1218.55 1614.48 L1228 1627.18 L1237.46 1614.48 L1244.36 1614.48 Z" fill="#000000" fill-rule="evenodd" fill-opacity="1" /><polyline clip-path="url(#clip632)" style="stroke:#000000; stroke-width:2; stroke-opacity:0.1; fill:none" points="
  102.74,1315.39 2352.76,1315.39 
  "/>
<polyline clip-path="url(#clip632)" style="stroke:#000000; stroke-width:2; stroke-opacity:0.1; fill:none" points="
  102.74,1095.77 2352.76,1095.77 
  "/>
<polyline clip-path="url(#clip632)" style="stroke:#000000; stroke-width:2; stroke-opacity:0.1; fill:none" points="
  102.74,876.147 2352.76,876.147 
  "/>
<polyline clip-path="url(#clip632)" style="stroke:#000000; stroke-width:2; stroke-opacity:0.1; fill:none" points="
  102.74,656.525 2352.76,656.525 
  "/>
<polyline clip-path="url(#clip632)" style="stroke:#000000; stroke-width:2; stroke-opacity:0.1; fill:none" points="
  102.74,436.903 2352.76,436.903 
  "/>
<polyline clip-path="url(#clip632)" style="stroke:#000000; stroke-width:2; stroke-opacity:0.1; fill:none" points="
  102.74,217.281 2352.76,217.281 
  "/>
<polyline clip-path="url(#clip630)" style="stroke:#000000; stroke-width:4; stroke-opacity:1; fill:none" points="
  102.74,1505.26 102.74,62.9921 
  "/>
<polyline clip-path="url(#clip630)" style="stroke:#000000; stroke-width:4; stroke-opacity:1; fill:none" points="
  102.74,1315.39 129.74,1315.39 
  "/>
<polyline clip-path="url(#clip630)" style="stroke:#000000; stroke-width:4; stroke-opacity:1; fill:none" points="
  102.74,1095.77 129.74,1095.77 
  "/>
<polyline clip-path="url(#clip630)" style="stroke:#000000; stroke-width:4; stroke-opacity:1; fill:none" points="
  102.74,876.147 129.74,876.147 
  "/>
<polyline clip-path="url(#clip630)" style="stroke:#000000; stroke-width:4; stroke-opacity:1; fill:none" points="
  102.74,656.525 129.74,656.525 
  "/>
<polyline clip-path="url(#clip630)" style="stroke:#000000; stroke-width:4; stroke-opacity:1; fill:none" points="
  102.74,436.903 129.74,436.903 
  "/>
<polyline clip-path="url(#clip630)" style="stroke:#000000; stroke-width:4; stroke-opacity:1; fill:none" points="
  102.74,217.281 129.74,217.281 
  "/>
<path clip-path="url(#clip630)" d="M 0 0 M-38.9769 1315.84 L-9.3011 1315.84 L-9.3011 1319.78 L-38.9769 1319.78 L-38.9769 1315.84 Z" fill="#000000" fill-rule="evenodd" fill-opacity="1" /><path clip-path="url(#clip630)" d="M 0 0 M10.7914 1301.19 Q7.18029 1301.19 5.3516 1304.75 Q3.54605 1308.3 3.54605 1315.43 Q3.54605 1322.53 5.3516 1326.1 Q7.18029 1329.64 10.7914 1329.64 Q14.4256 1329.64 16.2312 1326.1 Q18.0599 1322.53 18.0599 1315.43 Q18.0599 1308.3 16.2312 1304.75 Q14.4256 1301.19 10.7914 1301.19 M10.7914 1297.49 Q16.6015 1297.49 19.6571 1302.09 Q22.7358 1306.68 22.7358 1315.43 Q22.7358 1324.15 19.6571 1328.76 Q16.6015 1333.34 10.7914 1333.34 Q4.98123 1333.34 1.90254 1328.76 Q-1.153 1324.15 -1.153 1315.43 Q-1.153 1306.68 1.90254 1302.09 Q4.98123 1297.49 10.7914 1297.49 Z" fill="#000000" fill-rule="evenodd" fill-opacity="1" /><path clip-path="url(#clip630)" d="M 0 0 M30.9533 1326.79 L35.8375 1326.79 L35.8375 1332.67 L30.9533 1332.67 L30.9533 1326.79 Z" fill="#000000" fill-rule="evenodd" fill-opacity="1" /><path clip-path="url(#clip630)" d="M 0 0 M46.8329 1328.74 L54.4717 1328.74 L54.4717 1302.37 L46.1616 1304.04 L46.1616 1299.78 L54.4254 1298.11 L59.1013 1298.11 L59.1013 1328.74 L66.7402 1328.74 L66.7402 1332.67 L46.8329 1332.67 L46.8329 1328.74 Z" fill="#000000" fill-rule="evenodd" fill-opacity="1" /><path clip-path="url(#clip630)" d="M 0 0 M9.56454 1081.57 Q5.95345 1081.57 4.12475 1085.13 Q2.31921 1088.67 2.31921 1095.8 Q2.31921 1102.91 4.12475 1106.47 Q5.95345 1110.02 9.56454 1110.02 Q13.1988 1110.02 15.0043 1106.47 Q16.833 1102.91 16.833 1095.8 Q16.833 1088.67 15.0043 1085.13 Q13.1988 1081.57 9.56454 1081.57 M9.56454 1077.86 Q15.3747 1077.86 18.4302 1082.47 Q21.5089 1087.05 21.5089 1095.8 Q21.5089 1104.53 18.4302 1109.14 Q15.3747 1113.72 9.56454 1113.72 Q3.75438 1113.72 0.675697 1109.14 Q-2.37984 1104.53 -2.37984 1095.8 Q-2.37984 1087.05 0.675697 1082.47 Q3.75438 1077.86 9.56454 1077.86 Z" fill="#000000" fill-rule="evenodd" fill-opacity="1" /><path clip-path="url(#clip630)" d="M 0 0 M29.7265 1107.17 L34.6107 1107.17 L34.6107 1113.05 L29.7265 1113.05 L29.7265 1107.17 Z" fill="#000000" fill-rule="evenodd" fill-opacity="1" /><path clip-path="url(#clip630)" d="M 0 0 M54.7958 1081.57 Q51.1847 1081.57 49.356 1085.13 Q47.5504 1088.67 47.5504 1095.8 Q47.5504 1102.91 49.356 1106.47 Q51.1847 1110.02 54.7958 1110.02 Q58.43 1110.02 60.2356 1106.47 Q62.0643 1102.91 62.0643 1095.8 Q62.0643 1088.67 60.2356 1085.13 Q58.43 1081.57 54.7958 1081.57 M54.7958 1077.86 Q60.6059 1077.86 63.6615 1082.47 Q66.7402 1087.05 66.7402 1095.8 Q66.7402 1104.53 63.6615 1109.14 Q60.6059 1113.72 54.7958 1113.72 Q48.9856 1113.72 45.9069 1109.14 Q42.8514 1104.53 42.8514 1095.8 Q42.8514 1087.05 45.9069 1082.47 Q48.9856 1077.86 54.7958 1077.86 Z" fill="#000000" fill-rule="evenodd" fill-opacity="1" /><path clip-path="url(#clip630)" d="M 0 0 M10.7914 861.946 Q7.18029 861.946 5.3516 865.51 Q3.54605 869.052 3.54605 876.182 Q3.54605 883.288 5.3516 886.853 Q7.18029 890.394 10.7914 890.394 Q14.4256 890.394 16.2312 886.853 Q18.0599 883.288 18.0599 876.182 Q18.0599 869.052 16.2312 865.51 Q14.4256 861.946 10.7914 861.946 M10.7914 858.242 Q16.6015 858.242 19.6571 862.848 Q22.7358 867.432 22.7358 876.182 Q22.7358 884.908 19.6571 889.515 Q16.6015 894.098 10.7914 894.098 Q4.98123 894.098 1.90254 889.515 Q-1.153 884.908 -1.153 876.182 Q-1.153 867.432 1.90254 862.848 Q4.98123 858.242 10.7914 858.242 Z" fill="#000000" fill-rule="evenodd" fill-opacity="1" /><path clip-path="url(#clip630)" d="M 0 0 M30.9533 887.547 L35.8375 887.547 L35.8375 893.427 L30.9533 893.427 L30.9533 887.547 Z" fill="#000000" fill-rule="evenodd" fill-opacity="1" /><path clip-path="url(#clip630)" d="M 0 0 M46.8329 889.492 L54.4717 889.492 L54.4717 863.126 L46.1616 864.793 L46.1616 860.533 L54.4254 858.867 L59.1013 858.867 L59.1013 889.492 L66.7402 889.492 L66.7402 893.427 L46.8329 893.427 L46.8329 889.492 Z" fill="#000000" fill-rule="evenodd" fill-opacity="1" /><path clip-path="url(#clip630)" d="M 0 0 M11.1618 642.324 Q7.55066 642.324 5.72197 645.888 Q3.91642 649.43 3.91642 656.56 Q3.91642 663.666 5.72197 667.231 Q7.55066 670.772 11.1618 670.772 Q14.796 670.772 16.6015 667.231 Q18.4302 663.666 18.4302 656.56 Q18.4302 649.43 16.6015 645.888 Q14.796 642.324 11.1618 642.324 M11.1618 638.62 Q16.9719 638.62 20.0274 643.226 Q23.1061 647.81 23.1061 656.56 Q23.1061 665.286 20.0274 669.893 Q16.9719 674.476 11.1618 674.476 Q5.3516 674.476 2.27291 669.893 Q-0.782629 665.286 -0.782629 656.56 Q-0.782629 647.81 2.27291 643.226 Q5.3516 638.62 11.1618 638.62 Z" fill="#000000" fill-rule="evenodd" fill-opacity="1" /><path clip-path="url(#clip630)" d="M 0 0 M31.3237 667.925 L36.2079 667.925 L36.2079 673.805 L31.3237 673.805 L31.3237 667.925 Z" fill="#000000" fill-rule="evenodd" fill-opacity="1" /><path clip-path="url(#clip630)" d="M 0 0 M50.4208 669.87 L66.7402 669.87 L66.7402 673.805 L44.7958 673.805 L44.7958 669.87 Q47.4579 667.115 52.0412 662.485 Q56.6476 657.833 57.8282 656.49 Q60.0735 653.967 60.9532 652.231 Q61.8559 650.472 61.8559 648.782 Q61.8559 646.027 59.9115 644.291 Q57.9902 642.555 54.8884 642.555 Q52.6893 642.555 50.2356 643.319 Q47.8051 644.083 45.0273 645.634 L45.0273 640.911 Q47.8514 639.777 50.3051 639.199 Q52.7588 638.62 54.7958 638.62 Q60.1661 638.62 63.3605 641.305 Q66.555 643.99 66.555 648.481 Q66.555 650.611 65.7448 652.532 Q64.9578 654.43 62.8513 657.023 Q62.2726 657.694 59.1708 660.911 Q56.0689 664.106 50.4208 669.87 Z" fill="#000000" fill-rule="evenodd" fill-opacity="1" /><path clip-path="url(#clip630)" d="M 0 0 M10.2127 422.702 Q6.60159 422.702 4.7729 426.266 Q2.96735 429.808 2.96735 436.938 Q2.96735 444.044 4.7729 447.609 Q6.60159 451.15 10.2127 451.15 Q13.8469 451.15 15.6525 447.609 Q17.4812 444.044 17.4812 436.938 Q17.4812 429.808 15.6525 426.266 Q13.8469 422.702 10.2127 422.702 M10.2127 418.998 Q16.0228 418.998 19.0784 423.604 Q22.1571 428.188 22.1571 436.938 Q22.1571 445.664 19.0784 450.271 Q16.0228 454.854 10.2127 454.854 Q4.40253 454.854 1.32384 450.271 Q-1.7317 445.664 -1.7317 436.938 Q-1.7317 428.188 1.32384 423.604 Q4.40253 418.998 10.2127 418.998 Z" fill="#000000" fill-rule="evenodd" fill-opacity="1" /><path clip-path="url(#clip630)" d="M 0 0 M30.3746 448.303 L35.2588 448.303 L35.2588 454.183 L30.3746 454.183 L30.3746 448.303 Z" fill="#000000" fill-rule="evenodd" fill-opacity="1" /><path clip-path="url(#clip630)" d="M 0 0 M59.6106 435.549 Q62.967 436.266 64.842 438.535 Q66.7402 440.803 66.7402 444.137 Q66.7402 449.252 63.2217 452.053 Q59.7032 454.854 53.2217 454.854 Q51.0458 454.854 48.731 454.414 Q46.4393 453.998 43.9856 453.141 L43.9856 448.627 Q45.9301 449.762 48.2449 450.34 Q50.5597 450.919 53.0828 450.919 Q57.4809 450.919 59.7726 449.183 Q62.0874 447.447 62.0874 444.137 Q62.0874 441.081 59.9346 439.368 Q57.805 437.632 53.9856 437.632 L49.9578 437.632 L49.9578 433.789 L54.1708 433.789 Q57.6198 433.789 59.4485 432.424 Q61.2772 431.035 61.2772 428.442 Q61.2772 425.78 59.3791 424.368 Q57.5041 422.933 53.9856 422.933 Q52.0643 422.933 49.8652 423.35 Q47.6662 423.766 45.0273 424.646 L45.0273 420.479 Q47.6893 419.739 50.0041 419.368 Q52.3421 418.998 54.4023 418.998 Q59.7263 418.998 62.8281 421.428 Q65.93 423.836 65.93 427.956 Q65.93 430.826 64.2865 432.817 Q62.643 434.785 59.6106 435.549 Z" fill="#000000" fill-rule="evenodd" fill-opacity="1" /><path clip-path="url(#clip630)" d="M 0 0 M9.07843 203.08 Q5.46734 203.08 3.63864 206.644 Q1.8331 210.186 1.8331 217.316 Q1.8331 224.422 3.63864 227.987 Q5.46734 231.528 9.07843 231.528 Q12.7127 231.528 14.5182 227.987 Q16.3469 224.422 16.3469 217.316 Q16.3469 210.186 14.5182 206.644 Q12.7127 203.08 9.07843 203.08 M9.07843 199.376 Q14.8886 199.376 17.9441 203.982 Q21.0228 208.566 21.0228 217.316 Q21.0228 226.042 17.9441 230.649 Q14.8886 235.232 9.07843 235.232 Q3.26828 235.232 0.189588 230.649 Q-2.86595 226.042 -2.86595 217.316 Q-2.86595 208.566 0.189588 203.982 Q3.26828 199.376 9.07843 199.376 Z" fill="#000000" fill-rule="evenodd" fill-opacity="1" /><path clip-path="url(#clip630)" d="M 0 0 M29.2404 228.681 L34.1246 228.681 L34.1246 234.561 L29.2404 234.561 L29.2404 228.681 Z" fill="#000000" fill-rule="evenodd" fill-opacity="1" /><path clip-path="url(#clip630)" d="M 0 0 M57.1569 204.075 L45.3514 222.524 L57.1569 222.524 L57.1569 204.075 M55.93 200.001 L61.8096 200.001 L61.8096 222.524 L66.7402 222.524 L66.7402 226.413 L61.8096 226.413 L61.8096 234.561 L57.1569 234.561 L57.1569 226.413 L41.5551 226.413 L41.5551 221.899 L55.93 200.001 Z" fill="#000000" fill-rule="evenodd" fill-opacity="1" /><path clip-path="url(#clip630)" d="M 0 0 M-85.9227 782.439 Q-79.557 784.922 -77.6155 787.277 Q-75.6739 789.632 -75.6739 793.579 L-75.6739 798.258 L-80.5755 798.258 L-80.5755 794.82 Q-80.5755 792.401 -81.7213 791.065 Q-82.8672 789.728 -87.1322 788.105 L-89.8058 787.054 L-124.881 801.473 L-124.881 795.266 L-96.999 784.126 L-124.881 772.986 L-124.881 766.779 L-85.9227 782.439 Z" fill="#000000" fill-rule="evenodd" fill-opacity="1" /><path clip-path="url(#clip630)" d="M 0 0 M955.689 17.6457 Q946.777 17.6457 941.511 24.2892 Q936.285 30.9327 936.285 42.3968 Q936.285 53.8203 941.511 60.4638 Q946.777 67.1073 955.689 67.1073 Q964.601 67.1073 969.786 60.4638 Q975.012 53.8203 975.012 42.3968 Q975.012 30.9327 969.786 24.2892 Q964.601 17.6457 955.689 17.6457 M955.689 11.0023 Q968.409 11.0023 976.025 19.5497 Q983.641 28.0566 983.641 42.3968 Q983.641 56.6965 976.025 65.2439 Q968.409 73.7508 955.689 73.7508 Q942.929 73.7508 935.273 65.2439 Q927.657 56.737 927.657 42.3968 Q927.657 28.0566 935.273 19.5497 Q942.929 11.0023 955.689 11.0023 Z" fill="#000000" fill-rule="evenodd" fill-opacity="1" /><path clip-path="url(#clip630)" d="M 0 0 M1028.69 49.9314 Q1028.69 41.7081 1025.28 37.0496 Q1021.92 32.3505 1016.01 32.3505 Q1010.09 32.3505 1006.69 37.0496 Q1003.33 41.7081 1003.33 49.9314 Q1003.33 58.1548 1006.69 62.8538 Q1010.09 67.5124 1016.01 67.5124 Q1021.92 67.5124 1025.28 62.8538 Q1028.69 58.1548 1028.69 49.9314 M1003.33 34.0924 Q1005.68 30.0415 1009.24 28.0971 Q1012.85 26.1121 1017.83 26.1121 Q1026.09 26.1121 1031.24 32.6746 Q1036.42 39.2371 1036.42 49.9314 Q1036.42 60.6258 1031.24 67.1883 Q1026.09 73.7508 1017.83 73.7508 Q1012.85 73.7508 1009.24 71.8063 Q1005.68 69.8214 1003.33 65.7705 L1003.33 72.576 L995.834 72.576 L995.834 9.54393 L1003.33 9.54393 L1003.33 34.0924 Z" fill="#000000" fill-rule="evenodd" fill-opacity="1" /><path clip-path="url(#clip630)" d="M 0 0 M1077.7 28.5427 L1077.7 35.5912 Q1074.54 33.9709 1071.14 33.1607 Q1067.74 32.3505 1064.09 32.3505 Q1058.54 32.3505 1055.75 34.0519 Q1052.99 35.7533 1052.99 39.156 Q1052.99 41.7486 1054.98 43.2475 Q1056.96 44.7058 1062.96 46.0426 L1065.51 46.6097 Q1073.45 48.3111 1076.77 51.4303 Q1080.13 54.509 1080.13 60.0587 Q1080.13 66.3781 1075.11 70.0644 Q1070.13 73.7508 1061.38 73.7508 Q1057.73 73.7508 1053.76 73.0216 Q1049.83 72.3329 1045.46 70.9151 L1045.46 63.2184 Q1049.59 65.3654 1053.6 66.4591 Q1057.61 67.5124 1061.54 67.5124 Q1066.81 67.5124 1069.64 65.73 Q1072.48 63.9071 1072.48 60.6258 Q1072.48 57.5877 1070.41 55.9673 Q1068.39 54.3469 1061.46 52.8481 L1058.87 52.2405 Q1051.94 50.7821 1048.86 47.7845 Q1045.78 44.7463 1045.78 39.4801 Q1045.78 33.0797 1050.32 29.5959 Q1054.86 26.1121 1063.2 26.1121 Q1067.33 26.1121 1070.98 26.7198 Q1074.62 27.3274 1077.7 28.5427 Z" fill="#000000" fill-rule="evenodd" fill-opacity="1" /><path clip-path="url(#clip630)" d="M 0 0 M1130.81 48.0275 L1130.81 51.6733 L1096.54 51.6733 Q1097.03 59.3701 1101.16 63.421 Q1105.33 67.4314 1112.74 67.4314 Q1117.04 67.4314 1121.05 66.3781 Q1125.1 65.3249 1129.07 63.2184 L1129.07 70.267 Q1125.06 71.9684 1120.84 72.8596 Q1116.63 73.7508 1112.3 73.7508 Q1101.44 73.7508 1095.08 67.4314 Q1088.76 61.1119 1088.76 50.3365 Q1088.76 39.1965 1094.76 32.6746 Q1100.79 26.1121 1111 26.1121 Q1120.16 26.1121 1125.46 32.0264 Q1130.81 37.9003 1130.81 48.0275 M1123.36 45.84 Q1123.28 39.7232 1119.91 36.0774 Q1116.59 32.4315 1111.08 32.4315 Q1104.84 32.4315 1101.08 35.9558 Q1097.35 39.4801 1096.78 45.8805 L1123.36 45.84 Z" fill="#000000" fill-rule="evenodd" fill-opacity="1" /><path clip-path="url(#clip630)" d="M 0 0 M1169.33 34.1734 Q1168.08 33.4443 1166.58 33.1202 Q1165.12 32.7556 1163.34 32.7556 Q1157.02 32.7556 1153.62 36.8875 Q1150.25 40.9789 1150.25 48.6757 L1150.25 72.576 L1142.76 72.576 L1142.76 27.2059 L1150.25 27.2059 L1150.25 34.2544 Q1152.6 30.1225 1156.37 28.1376 Q1160.14 26.1121 1165.53 26.1121 Q1166.3 26.1121 1167.23 26.2337 Q1168.16 26.3147 1169.29 26.5172 L1169.33 34.1734 Z" fill="#000000" fill-rule="evenodd" fill-opacity="1" /><path clip-path="url(#clip630)" d="M 0 0 M1171.81 27.2059 L1179.7 27.2059 L1193.88 65.2844 L1208.06 27.2059 L1215.96 27.2059 L1198.95 72.576 L1188.82 72.576 L1171.81 27.2059 Z" fill="#000000" fill-rule="evenodd" fill-opacity="1" /><path clip-path="url(#clip630)" d="M 0 0 M1265.06 48.0275 L1265.06 51.6733 L1230.79 51.6733 Q1231.27 59.3701 1235.4 63.421 Q1239.58 67.4314 1246.99 67.4314 Q1251.28 67.4314 1255.29 66.3781 Q1259.35 65.3249 1263.31 63.2184 L1263.31 70.267 Q1259.3 71.9684 1255.09 72.8596 Q1250.88 73.7508 1246.54 73.7508 Q1235.69 73.7508 1229.33 67.4314 Q1223.01 61.1119 1223.01 50.3365 Q1223.01 39.1965 1229 32.6746 Q1235.04 26.1121 1245.25 26.1121 Q1254.4 26.1121 1259.71 32.0264 Q1265.06 37.9003 1265.06 48.0275 M1257.6 45.84 Q1257.52 39.7232 1254.16 36.0774 Q1250.84 32.4315 1245.33 32.4315 Q1239.09 32.4315 1235.32 35.9558 Q1231.6 39.4801 1231.03 45.8805 L1257.6 45.84 Z" fill="#000000" fill-rule="evenodd" fill-opacity="1" /><path clip-path="url(#clip630)" d="M 0 0 M1307.15 34.0924 L1307.15 9.54393 L1314.6 9.54393 L1314.6 72.576 L1307.15 72.576 L1307.15 65.7705 Q1304.8 69.8214 1301.19 71.8063 Q1297.63 73.7508 1292.6 73.7508 Q1284.38 73.7508 1279.19 67.1883 Q1274.05 60.6258 1274.05 49.9314 Q1274.05 39.2371 1279.19 32.6746 Q1284.38 26.1121 1292.6 26.1121 Q1297.63 26.1121 1301.19 28.0971 Q1304.8 30.0415 1307.15 34.0924 M1281.75 49.9314 Q1281.75 58.1548 1285.11 62.8538 Q1288.51 67.5124 1294.43 67.5124 Q1300.34 67.5124 1303.74 62.8538 Q1307.15 58.1548 1307.15 49.9314 Q1307.15 41.7081 1303.74 37.0496 Q1300.34 32.3505 1294.43 32.3505 Q1288.51 32.3505 1285.11 37.0496 Q1281.75 41.7081 1281.75 49.9314 Z" fill="#000000" fill-rule="evenodd" fill-opacity="1" /><path clip-path="url(#clip630)" d="M 0 0 M1386.18 34.0924 L1386.18 9.54393 L1393.63 9.54393 L1393.63 72.576 L1386.18 72.576 L1386.18 65.7705 Q1383.83 69.8214 1380.22 71.8063 Q1376.66 73.7508 1371.64 73.7508 Q1363.41 73.7508 1358.23 67.1883 Q1353.08 60.6258 1353.08 49.9314 Q1353.08 39.2371 1358.23 32.6746 Q1363.41 26.1121 1371.64 26.1121 Q1376.66 26.1121 1380.22 28.0971 Q1383.83 30.0415 1386.18 34.0924 M1360.78 49.9314 Q1360.78 58.1548 1364.14 62.8538 Q1367.54 67.5124 1373.46 67.5124 Q1379.37 67.5124 1382.78 62.8538 Q1386.18 58.1548 1386.18 49.9314 Q1386.18 41.7081 1382.78 37.0496 Q1379.37 32.3505 1373.46 32.3505 Q1367.54 32.3505 1364.14 37.0496 Q1360.78 41.7081 1360.78 49.9314 Z" fill="#000000" fill-rule="evenodd" fill-opacity="1" /><path clip-path="url(#clip630)" d="M 0 0 M1429.6 49.7694 Q1420.57 49.7694 1417.09 51.8354 Q1413.6 53.9013 1413.6 58.8839 Q1413.6 62.8538 1416.2 65.2034 Q1418.83 67.5124 1423.33 67.5124 Q1429.52 67.5124 1433.25 63.1374 Q1437.02 58.7219 1437.02 51.4303 L1437.02 49.7694 L1429.6 49.7694 M1444.47 46.6907 L1444.47 72.576 L1437.02 72.576 L1437.02 65.6895 Q1434.47 69.8214 1430.66 71.8063 Q1426.85 73.7508 1421.34 73.7508 Q1414.37 73.7508 1410.24 69.8619 Q1406.15 65.9325 1406.15 59.3701 Q1406.15 51.7138 1411.25 47.825 Q1416.4 43.9361 1426.57 43.9361 L1437.02 43.9361 L1437.02 43.2069 Q1437.02 38.0623 1433.61 35.2672 Q1430.25 32.4315 1424.14 32.4315 Q1420.25 32.4315 1416.56 33.3632 Q1412.87 34.295 1409.47 36.1584 L1409.47 29.2718 Q1413.56 27.692 1417.41 26.9223 Q1421.26 26.1121 1424.91 26.1121 Q1434.75 26.1121 1439.61 31.2163 Q1444.47 36.3204 1444.47 46.6907 Z" fill="#000000" fill-rule="evenodd" fill-opacity="1" /><path clip-path="url(#clip630)" d="M 0 0 M1467.2 14.324 L1467.2 27.2059 L1482.55 27.2059 L1482.55 32.9987 L1467.2 32.9987 L1467.2 57.6282 Q1467.2 63.1779 1468.7 64.7578 Q1470.24 66.3376 1474.89 66.3376 L1482.55 66.3376 L1482.55 72.576 L1474.89 72.576 Q1466.27 72.576 1462.98 69.3758 Q1459.7 66.1351 1459.7 57.6282 L1459.7 32.9987 L1454.23 32.9987 L1454.23 27.2059 L1459.7 27.2059 L1459.7 14.324 L1467.2 14.324 Z" fill="#000000" fill-rule="evenodd" fill-opacity="1" /><path clip-path="url(#clip630)" d="M 0 0 M1512.97 49.7694 Q1503.94 49.7694 1500.45 51.8354 Q1496.97 53.9013 1496.97 58.8839 Q1496.97 62.8538 1499.56 65.2034 Q1502.2 67.5124 1506.69 67.5124 Q1512.89 67.5124 1516.62 63.1374 Q1520.39 58.7219 1520.39 51.4303 L1520.39 49.7694 L1512.97 49.7694 M1527.84 46.6907 L1527.84 72.576 L1520.39 72.576 L1520.39 65.6895 Q1517.83 69.8214 1514.03 71.8063 Q1510.22 73.7508 1504.71 73.7508 Q1497.74 73.7508 1493.61 69.8619 Q1489.52 65.9325 1489.52 59.3701 Q1489.52 51.7138 1494.62 47.825 Q1499.77 43.9361 1509.93 43.9361 L1520.39 43.9361 L1520.39 43.2069 Q1520.39 38.0623 1516.98 35.2672 Q1513.62 32.4315 1507.5 32.4315 Q1503.61 32.4315 1499.93 33.3632 Q1496.24 34.295 1492.84 36.1584 L1492.84 29.2718 Q1496.93 27.692 1500.78 26.9223 Q1504.63 26.1121 1508.27 26.1121 Q1518.12 26.1121 1522.98 31.2163 Q1527.84 36.3204 1527.84 46.6907 Z" fill="#000000" fill-rule="evenodd" fill-opacity="1" /><circle clip-path="url(#clip632)" cx="166.42" cy="170.109" r="14" fill="#009af9" fill-rule="evenodd" fill-opacity="1" stroke="#000000" stroke-opacity="1" stroke-width="3.2"/>
<circle clip-path="url(#clip632)" cx="402.271" cy="103.811" r="14" fill="#009af9" fill-rule="evenodd" fill-opacity="1" stroke="#000000" stroke-opacity="1" stroke-width="3.2"/>
<circle clip-path="url(#clip632)" cx="638.121" cy="414.15" r="14" fill="#009af9" fill-rule="evenodd" fill-opacity="1" stroke="#000000" stroke-opacity="1" stroke-width="3.2"/>
<circle clip-path="url(#clip632)" cx="873.972" cy="470.826" r="14" fill="#009af9" fill-rule="evenodd" fill-opacity="1" stroke="#000000" stroke-opacity="1" stroke-width="3.2"/>
<circle clip-path="url(#clip632)" cx="1109.82" cy="875.468" r="14" fill="#009af9" fill-rule="evenodd" fill-opacity="1" stroke="#000000" stroke-opacity="1" stroke-width="3.2"/>
<circle clip-path="url(#clip632)" cx="1345.67" cy="833.569" r="14" fill="#009af9" fill-rule="evenodd" fill-opacity="1" stroke="#000000" stroke-opacity="1" stroke-width="3.2"/>
<circle clip-path="url(#clip632)" cx="1581.52" cy="355.43" r="14" fill="#009af9" fill-rule="evenodd" fill-opacity="1" stroke="#000000" stroke-opacity="1" stroke-width="3.2"/>
<circle clip-path="url(#clip632)" cx="1817.37" cy="1464.44" r="14" fill="#009af9" fill-rule="evenodd" fill-opacity="1" stroke="#000000" stroke-opacity="1" stroke-width="3.2"/>
<circle clip-path="url(#clip632)" cx="2053.23" cy="1078.18" r="14" fill="#009af9" fill-rule="evenodd" fill-opacity="1" stroke="#000000" stroke-opacity="1" stroke-width="3.2"/>
<circle clip-path="url(#clip632)" cx="2289.08" cy="1185.27" r="14" fill="#009af9" fill-rule="evenodd" fill-opacity="1" stroke="#000000" stroke-opacity="1" stroke-width="3.2"/>
</svg>
