<?xml version="1.0" encoding="utf-8"?>
<svg xmlns="http://www.w3.org/2000/svg" xmlns:xlink="http://www.w3.org/1999/xlink" width="600" height="400" viewBox="0 0 2400 1600">
<defs>
  <clipPath id="clip460">
    <rect x="0" y="0" width="2400" height="1600"/>
  </clipPath>
</defs>
<path clip-path="url(#clip460)" d="
M0 1600 L2400 1600 L2400 0 L0 0  Z
  " fill="#ffffff" fill-rule="evenodd" fill-opacity="1"/>
<defs>
  <clipPath id="clip461">
    <rect x="480" y="0" width="1681" height="1600"/>
  </clipPath>
</defs>
<path clip-path="url(#clip460)" d="
M102.74 1505.26 L2352.76 1505.26 L2352.76 62.9921 L102.74 62.9921  Z
  " fill="#ffffff" fill-rule="evenodd" fill-opacity="1"/>
<defs>
  <clipPath id="clip462">
    <rect x="102" y="62" width="2251" height="1443"/>
  </clipPath>
</defs>
<polyline clip-path="url(#clip462)" style="stroke:#000000; stroke-width:2; stroke-opacity:0.1; fill:none" points="
  166.42,1505.26 166.42,62.9921 
  "/>
<polyline clip-path="url(#clip462)" style="stroke:#000000; stroke-width:2; stroke-opacity:0.1; fill:none" points="
  697.084,1505.26 697.084,62.9921 
  "/>
<polyline clip-path="url(#clip462)" style="stroke:#000000; stroke-width:2; stroke-opacity:0.1; fill:none" points="
  1227.75,1505.26 1227.75,62.9921 
  "/>
<polyline clip-path="url(#clip462)" style="stroke:#000000; stroke-width:2; stroke-opacity:0.1; fill:none" points="
  1758.41,1505.26 1758.41,62.9921 
  "/>
<polyline clip-path="url(#clip462)" style="stroke:#000000; stroke-width:2; stroke-opacity:0.1; fill:none" points="
  2289.08,1505.26 2289.08,62.9921 
  "/>
<polyline clip-path="url(#clip460)" style="stroke:#000000; stroke-width:4; stroke-opacity:1; fill:none" points="
  102.74,1505.26 2352.76,1505.26 
  "/>
<polyline clip-path="url(#clip460)" style="stroke:#000000; stroke-width:4; stroke-opacity:1; fill:none" points="
  166.42,1505.26 166.42,1487.95 
  "/>
<polyline clip-path="url(#clip460)" style="stroke:#000000; stroke-width:4; stroke-opacity:1; fill:none" points="
  697.084,1505.26 697.084,1487.95 
  "/>
<polyline clip-path="url(#clip460)" style="stroke:#000000; stroke-width:4; stroke-opacity:1; fill:none" points="
  1227.75,1505.26 1227.75,1487.95 
  "/>
<polyline clip-path="url(#clip460)" style="stroke:#000000; stroke-width:4; stroke-opacity:1; fill:none" points="
  1758.41,1505.26 1758.41,1487.95 
  "/>
<polyline clip-path="url(#clip460)" style="stroke:#000000; stroke-width:4; stroke-opacity:1; fill:none" points="
  2289.08,1505.26 2289.08,1487.95 
  "/>
<path clip-path="url(#clip460)" d="M 0 0 M112.948 1549.1 L142.624 1549.1 L142.624 1553.04 L112.948 1553.04 L112.948 1549.1 Z" fill="#000000" fill-rule="evenodd" fill-opacity="1" /><path clip-path="url(#clip460)" d="M 0 0 M153.526 1562 L161.165 1562 L161.165 1535.63 L152.855 1537.3 L152.855 1533.04 L161.119 1531.37 L165.795 1531.37 L165.795 1562 L173.434 1562 L173.434 1565.93 L153.526 1565.93 L153.526 1562 Z" fill="#000000" fill-rule="evenodd" fill-opacity="1" /><path clip-path="url(#clip460)" d="M 0 0 M182.878 1560.05 L187.762 1560.05 L187.762 1565.93 L182.878 1565.93 L182.878 1560.05 Z" fill="#000000" fill-rule="evenodd" fill-opacity="1" /><path clip-path="url(#clip460)" d="M 0 0 M207.947 1534.45 Q204.336 1534.45 202.508 1538.02 Q200.702 1541.56 200.702 1548.69 Q200.702 1555.79 202.508 1559.36 Q204.336 1562.9 207.947 1562.9 Q211.582 1562.9 213.387 1559.36 Q215.216 1555.79 215.216 1548.69 Q215.216 1541.56 213.387 1538.02 Q211.582 1534.45 207.947 1534.45 M207.947 1530.75 Q213.758 1530.75 216.813 1535.35 Q219.892 1539.94 219.892 1548.69 Q219.892 1557.41 216.813 1562.02 Q213.758 1566.6 207.947 1566.6 Q202.137 1566.6 199.059 1562.02 Q196.003 1557.41 196.003 1548.69 Q196.003 1539.94 199.059 1535.35 Q202.137 1530.75 207.947 1530.75 Z" fill="#000000" fill-rule="evenodd" fill-opacity="1" /><path clip-path="url(#clip460)" d="M 0 0 M644.11 1549.1 L673.785 1549.1 L673.785 1553.04 L644.11 1553.04 L644.11 1549.1 Z" fill="#000000" fill-rule="evenodd" fill-opacity="1" /><path clip-path="url(#clip460)" d="M 0 0 M693.878 1534.45 Q690.267 1534.45 688.438 1538.02 Q686.633 1541.56 686.633 1548.69 Q686.633 1555.79 688.438 1559.36 Q690.267 1562.9 693.878 1562.9 Q697.512 1562.9 699.318 1559.36 Q701.146 1555.79 701.146 1548.69 Q701.146 1541.56 699.318 1538.02 Q697.512 1534.45 693.878 1534.45 M693.878 1530.75 Q699.688 1530.75 702.744 1535.35 Q705.822 1539.94 705.822 1548.69 Q705.822 1557.41 702.744 1562.02 Q699.688 1566.6 693.878 1566.6 Q688.068 1566.6 684.989 1562.02 Q681.934 1557.41 681.934 1548.69 Q681.934 1539.94 684.989 1535.35 Q688.068 1530.75 693.878 1530.75 Z" fill="#000000" fill-rule="evenodd" fill-opacity="1" /><path clip-path="url(#clip460)" d="M 0 0 M714.04 1560.05 L718.924 1560.05 L718.924 1565.93 L714.04 1565.93 L714.04 1560.05 Z" fill="#000000" fill-rule="evenodd" fill-opacity="1" /><path clip-path="url(#clip460)" d="M 0 0 M729.156 1531.37 L747.512 1531.37 L747.512 1535.31 L733.438 1535.31 L733.438 1543.78 Q734.456 1543.43 735.475 1543.27 Q736.493 1543.08 737.512 1543.08 Q743.299 1543.08 746.679 1546.26 Q750.058 1549.43 750.058 1554.84 Q750.058 1560.42 746.586 1563.52 Q743.114 1566.6 736.794 1566.6 Q734.618 1566.6 732.35 1566.23 Q730.105 1565.86 727.697 1565.12 L727.697 1560.42 Q729.781 1561.56 732.003 1562.11 Q734.225 1562.67 736.702 1562.67 Q740.706 1562.67 743.044 1560.56 Q745.382 1558.46 745.382 1554.84 Q745.382 1551.23 743.044 1549.13 Q740.706 1547.02 736.702 1547.02 Q734.827 1547.02 732.952 1547.44 Q731.1 1547.85 729.156 1548.73 L729.156 1531.37 Z" fill="#000000" fill-rule="evenodd" fill-opacity="1" /><path clip-path="url(#clip460)" d="M 0 0 M1205.13 1534.45 Q1201.52 1534.45 1199.69 1538.02 Q1197.89 1541.56 1197.89 1548.69 Q1197.89 1555.79 1199.69 1559.36 Q1201.52 1562.9 1205.13 1562.9 Q1208.77 1562.9 1210.57 1559.36 Q1212.4 1555.79 1212.4 1548.69 Q1212.4 1541.56 1210.57 1538.02 Q1208.77 1534.45 1205.13 1534.45 M1205.13 1530.75 Q1210.94 1530.75 1214 1535.35 Q1217.08 1539.94 1217.08 1548.69 Q1217.08 1557.41 1214 1562.02 Q1210.94 1566.6 1205.13 1566.6 Q1199.32 1566.6 1196.24 1562.02 Q1193.19 1557.41 1193.19 1548.69 Q1193.19 1539.94 1196.24 1535.35 Q1199.32 1530.75 1205.13 1530.75 Z" fill="#000000" fill-rule="evenodd" fill-opacity="1" /><path clip-path="url(#clip460)" d="M 0 0 M1225.29 1560.05 L1230.18 1560.05 L1230.18 1565.93 L1225.29 1565.93 L1225.29 1560.05 Z" fill="#000000" fill-rule="evenodd" fill-opacity="1" /><path clip-path="url(#clip460)" d="M 0 0 M1250.36 1534.45 Q1246.75 1534.45 1244.92 1538.02 Q1243.12 1541.56 1243.12 1548.69 Q1243.12 1555.79 1244.92 1559.36 Q1246.75 1562.9 1250.36 1562.9 Q1254 1562.9 1255.8 1559.36 Q1257.63 1555.79 1257.63 1548.69 Q1257.63 1541.56 1255.8 1538.02 Q1254 1534.45 1250.36 1534.45 M1250.36 1530.75 Q1256.17 1530.75 1259.23 1535.35 Q1262.31 1539.94 1262.31 1548.69 Q1262.31 1557.41 1259.23 1562.02 Q1256.17 1566.6 1250.36 1566.6 Q1244.55 1566.6 1241.47 1562.02 Q1238.42 1557.41 1238.42 1548.69 Q1238.42 1539.94 1241.47 1535.35 Q1244.55 1530.75 1250.36 1530.75 Z" fill="#000000" fill-rule="evenodd" fill-opacity="1" /><path clip-path="url(#clip460)" d="M 0 0 M1736.29 1534.45 Q1732.68 1534.45 1730.85 1538.02 Q1729.05 1541.56 1729.05 1548.69 Q1729.05 1555.79 1730.85 1559.36 Q1732.68 1562.9 1736.29 1562.9 Q1739.93 1562.9 1741.73 1559.36 Q1743.56 1555.79 1743.56 1548.69 Q1743.56 1541.56 1741.73 1538.02 Q1739.93 1534.45 1736.29 1534.45 M1736.29 1530.75 Q1742.1 1530.75 1745.16 1535.35 Q1748.24 1539.94 1748.24 1548.69 Q1748.24 1557.41 1745.16 1562.02 Q1742.1 1566.6 1736.29 1566.6 Q1730.48 1566.6 1727.41 1562.02 Q1724.35 1557.41 1724.35 1548.69 Q1724.35 1539.94 1727.41 1535.35 Q1730.48 1530.75 1736.29 1530.75 Z" fill="#000000" fill-rule="evenodd" fill-opacity="1" /><path clip-path="url(#clip460)" d="M 0 0 M1756.46 1560.05 L1761.34 1560.05 L1761.34 1565.93 L1756.46 1565.93 L1756.46 1560.05 Z" fill="#000000" fill-rule="evenodd" fill-opacity="1" /><path clip-path="url(#clip460)" d="M 0 0 M1771.57 1531.37 L1789.93 1531.37 L1789.93 1535.31 L1775.85 1535.31 L1775.85 1543.78 Q1776.87 1543.43 1777.89 1543.27 Q1778.91 1543.08 1779.93 1543.08 Q1785.72 1543.08 1789.09 1546.26 Q1792.47 1549.43 1792.47 1554.84 Q1792.47 1560.42 1789 1563.52 Q1785.53 1566.6 1779.21 1566.6 Q1777.03 1566.6 1774.77 1566.23 Q1772.52 1565.86 1770.11 1565.12 L1770.11 1560.42 Q1772.2 1561.56 1774.42 1562.11 Q1776.64 1562.67 1779.12 1562.67 Q1783.12 1562.67 1785.46 1560.56 Q1787.8 1558.46 1787.8 1554.84 Q1787.8 1551.23 1785.46 1549.13 Q1783.12 1547.02 1779.12 1547.02 Q1777.24 1547.02 1775.37 1547.44 Q1773.52 1547.85 1771.57 1548.73 L1771.57 1531.37 Z" fill="#000000" fill-rule="evenodd" fill-opacity="1" /><path clip-path="url(#clip460)" d="M 0 0 M2256.23 1562 L2263.87 1562 L2263.87 1535.63 L2255.56 1537.3 L2255.56 1533.04 L2263.82 1531.37 L2268.5 1531.37 L2268.5 1562 L2276.14 1562 L2276.14 1565.93 L2256.23 1565.93 L2256.23 1562 Z" fill="#000000" fill-rule="evenodd" fill-opacity="1" /><path clip-path="url(#clip460)" d="M 0 0 M2285.58 1560.05 L2290.47 1560.05 L2290.47 1565.93 L2285.58 1565.93 L2285.58 1560.05 Z" fill="#000000" fill-rule="evenodd" fill-opacity="1" /><path clip-path="url(#clip460)" d="M 0 0 M2310.65 1534.45 Q2307.04 1534.45 2305.21 1538.02 Q2303.4 1541.56 2303.4 1548.69 Q2303.4 1555.79 2305.21 1559.36 Q2307.04 1562.9 2310.65 1562.9 Q2314.28 1562.9 2316.09 1559.36 Q2317.92 1555.79 2317.92 1548.69 Q2317.92 1541.56 2316.09 1538.02 Q2314.28 1534.45 2310.65 1534.45 M2310.65 1530.75 Q2316.46 1530.75 2319.52 1535.35 Q2322.59 1539.94 2322.59 1548.69 Q2322.59 1557.41 2319.52 1562.02 Q2316.46 1566.6 2310.65 1566.6 Q2304.84 1566.6 2301.76 1562.02 Q2298.71 1557.41 2298.71 1548.69 Q2298.71 1539.94 2301.76 1535.35 Q2304.84 1530.75 2310.65 1530.75 Z" fill="#000000" fill-rule="evenodd" fill-opacity="1" /><path clip-path="url(#clip460)" d="M 0 0 M1244.36 1614.48 L1231.47 1631.82 L1245.03 1650.12 L1238.12 1650.12 L1227.75 1636.12 L1217.37 1650.12 L1210.47 1650.12 L1224.31 1631.47 L1211.64 1614.48 L1218.55 1614.48 L1228 1627.18 L1237.46 1614.48 L1244.36 1614.48 Z" fill="#000000" fill-rule="evenodd" fill-opacity="1" /><polyline clip-path="url(#clip462)" style="stroke:#000000; stroke-width:2; stroke-opacity:0.1; fill:none" points="
  102.74,1315 2352.76,1315 
  "/>
<polyline clip-path="url(#clip462)" style="stroke:#000000; stroke-width:2; stroke-opacity:0.1; fill:none" points="
  102.74,1037.23 2352.76,1037.23 
  "/>
<polyline clip-path="url(#clip462)" style="stroke:#000000; stroke-width:2; stroke-opacity:0.1; fill:none" points="
  102.74,759.463 2352.76,759.463 
  "/>
<polyline clip-path="url(#clip462)" style="stroke:#000000; stroke-width:2; stroke-opacity:0.1; fill:none" points="
  102.74,481.694 2352.76,481.694 
  "/>
<polyline clip-path="url(#clip462)" style="stroke:#000000; stroke-width:2; stroke-opacity:0.1; fill:none" points="
  102.74,203.924 2352.76,203.924 
  "/>
<polyline clip-path="url(#clip460)" style="stroke:#000000; stroke-width:4; stroke-opacity:1; fill:none" points="
  102.74,1505.26 102.74,62.9921 
  "/>
<polyline clip-path="url(#clip460)" style="stroke:#000000; stroke-width:4; stroke-opacity:1; fill:none" points="
  102.74,1315 129.74,1315 
  "/>
<polyline clip-path="url(#clip460)" style="stroke:#000000; stroke-width:4; stroke-opacity:1; fill:none" points="
  102.74,1037.23 129.74,1037.23 
  "/>
<polyline clip-path="url(#clip460)" style="stroke:#000000; stroke-width:4; stroke-opacity:1; fill:none" points="
  102.74,759.463 129.74,759.463 
  "/>
<polyline clip-path="url(#clip460)" style="stroke:#000000; stroke-width:4; stroke-opacity:1; fill:none" points="
  102.74,481.694 129.74,481.694 
  "/>
<polyline clip-path="url(#clip460)" style="stroke:#000000; stroke-width:4; stroke-opacity:1; fill:none" points="
  102.74,203.924 129.74,203.924 
  "/>
<path clip-path="url(#clip460)" d="M 0 0 M-38.6065 1315.45 L-8.93073 1315.45 L-8.93073 1319.39 L-38.6065 1319.39 L-38.6065 1315.45 Z" fill="#000000" fill-rule="evenodd" fill-opacity="1" /><path clip-path="url(#clip460)" d="M 0 0 M11.1618 1300.8 Q7.55066 1300.8 5.72197 1304.36 Q3.91642 1307.91 3.91642 1315.04 Q3.91642 1322.14 5.72197 1325.71 Q7.55066 1329.25 11.1618 1329.25 Q14.796 1329.25 16.6015 1325.71 Q18.4302 1322.14 18.4302 1315.04 Q18.4302 1307.91 16.6015 1304.36 Q14.796 1300.8 11.1618 1300.8 M11.1618 1297.1 Q16.9719 1297.1 20.0274 1301.7 Q23.1061 1306.29 23.1061 1315.04 Q23.1061 1323.76 20.0274 1328.37 Q16.9719 1332.95 11.1618 1332.95 Q5.3516 1332.95 2.27291 1328.37 Q-0.782629 1323.76 -0.782629 1315.04 Q-0.782629 1306.29 2.27291 1301.7 Q5.3516 1297.1 11.1618 1297.1 Z" fill="#000000" fill-rule="evenodd" fill-opacity="1" /><path clip-path="url(#clip460)" d="M 0 0 M31.3237 1326.4 L36.2079 1326.4 L36.2079 1332.28 L31.3237 1332.28 L31.3237 1326.4 Z" fill="#000000" fill-rule="evenodd" fill-opacity="1" /><path clip-path="url(#clip460)" d="M 0 0 M50.4208 1328.35 L66.7402 1328.35 L66.7402 1332.28 L44.7958 1332.28 L44.7958 1328.35 Q47.4579 1325.59 52.0412 1320.96 Q56.6476 1316.31 57.8282 1314.97 Q60.0735 1312.44 60.9532 1310.71 Q61.8559 1308.95 61.8559 1307.26 Q61.8559 1304.5 59.9115 1302.77 Q57.9902 1301.03 54.8884 1301.03 Q52.6893 1301.03 50.2356 1301.8 Q47.8051 1302.56 45.0273 1304.11 L45.0273 1299.39 Q47.8514 1298.25 50.3051 1297.68 Q52.7588 1297.1 54.7958 1297.1 Q60.1661 1297.1 63.3605 1299.78 Q66.555 1302.47 66.555 1306.96 Q66.555 1309.09 65.7448 1311.01 Q64.9578 1312.91 62.8513 1315.5 Q62.2726 1316.17 59.1708 1319.39 Q56.0689 1322.58 50.4208 1328.35 Z" fill="#000000" fill-rule="evenodd" fill-opacity="1" /><path clip-path="url(#clip460)" d="M 0 0 M9.56454 1023.03 Q5.95345 1023.03 4.12475 1026.6 Q2.31921 1030.14 2.31921 1037.27 Q2.31921 1044.37 4.12475 1047.94 Q5.95345 1051.48 9.56454 1051.48 Q13.1988 1051.48 15.0043 1047.94 Q16.833 1044.37 16.833 1037.27 Q16.833 1030.14 15.0043 1026.6 Q13.1988 1023.03 9.56454 1023.03 M9.56454 1019.33 Q15.3747 1019.33 18.4302 1023.93 Q21.5089 1028.52 21.5089 1037.27 Q21.5089 1045.99 18.4302 1050.6 Q15.3747 1055.18 9.56454 1055.18 Q3.75438 1055.18 0.675697 1050.6 Q-2.37984 1045.99 -2.37984 1037.27 Q-2.37984 1028.52 0.675697 1023.93 Q3.75438 1019.33 9.56454 1019.33 Z" fill="#000000" fill-rule="evenodd" fill-opacity="1" /><path clip-path="url(#clip460)" d="M 0 0 M29.7265 1048.63 L34.6107 1048.63 L34.6107 1054.51 L29.7265 1054.51 L29.7265 1048.63 Z" fill="#000000" fill-rule="evenodd" fill-opacity="1" /><path clip-path="url(#clip460)" d="M 0 0 M54.7958 1023.03 Q51.1847 1023.03 49.356 1026.6 Q47.5504 1030.14 47.5504 1037.27 Q47.5504 1044.37 49.356 1047.94 Q51.1847 1051.48 54.7958 1051.48 Q58.43 1051.48 60.2356 1047.94 Q62.0643 1044.37 62.0643 1037.27 Q62.0643 1030.14 60.2356 1026.6 Q58.43 1023.03 54.7958 1023.03 M54.7958 1019.33 Q60.6059 1019.33 63.6615 1023.93 Q66.7402 1028.52 66.7402 1037.27 Q66.7402 1045.99 63.6615 1050.6 Q60.6059 1055.18 54.7958 1055.18 Q48.9856 1055.18 45.9069 1050.6 Q42.8514 1045.99 42.8514 1037.27 Q42.8514 1028.52 45.9069 1023.93 Q48.9856 1019.33 54.7958 1019.33 Z" fill="#000000" fill-rule="evenodd" fill-opacity="1" /><path clip-path="url(#clip460)" d="M 0 0 M11.1618 745.262 Q7.55066 745.262 5.72197 748.826 Q3.91642 752.368 3.91642 759.498 Q3.91642 766.604 5.72197 770.169 Q7.55066 773.71 11.1618 773.71 Q14.796 773.71 16.6015 770.169 Q18.4302 766.604 18.4302 759.498 Q18.4302 752.368 16.6015 748.826 Q14.796 745.262 11.1618 745.262 M11.1618 741.558 Q16.9719 741.558 20.0274 746.164 Q23.1061 750.748 23.1061 759.498 Q23.1061 768.224 20.0274 772.831 Q16.9719 777.414 11.1618 777.414 Q5.3516 777.414 2.27291 772.831 Q-0.782629 768.224 -0.782629 759.498 Q-0.782629 750.748 2.27291 746.164 Q5.3516 741.558 11.1618 741.558 Z" fill="#000000" fill-rule="evenodd" fill-opacity="1" /><path clip-path="url(#clip460)" d="M 0 0 M31.3237 770.863 L36.2079 770.863 L36.2079 776.743 L31.3237 776.743 L31.3237 770.863 Z" fill="#000000" fill-rule="evenodd" fill-opacity="1" /><path clip-path="url(#clip460)" d="M 0 0 M50.4208 772.808 L66.7402 772.808 L66.7402 776.743 L44.7958 776.743 L44.7958 772.808 Q47.4579 770.053 52.0412 765.423 Q56.6476 760.771 57.8282 759.428 Q60.0735 756.905 60.9532 755.169 Q61.8559 753.41 61.8559 751.72 Q61.8559 748.965 59.9115 747.229 Q57.9902 745.493 54.8884 745.493 Q52.6893 745.493 50.2356 746.257 Q47.8051 747.021 45.0273 748.572 L45.0273 743.85 Q47.8514 742.715 50.3051 742.137 Q52.7588 741.558 54.7958 741.558 Q60.1661 741.558 63.3605 744.243 Q66.555 746.928 66.555 751.419 Q66.555 753.549 65.7448 755.47 Q64.9578 757.368 62.8513 759.961 Q62.2726 760.632 59.1708 763.849 Q56.0689 767.044 50.4208 772.808 Z" fill="#000000" fill-rule="evenodd" fill-opacity="1" /><path clip-path="url(#clip460)" d="M 0 0 M9.07843 467.492 Q5.46734 467.492 3.63864 471.057 Q1.8331 474.599 1.8331 481.728 Q1.8331 488.835 3.63864 492.4 Q5.46734 495.941 9.07843 495.941 Q12.7127 495.941 14.5182 492.4 Q16.3469 488.835 16.3469 481.728 Q16.3469 474.599 14.5182 471.057 Q12.7127 467.492 9.07843 467.492 M9.07843 463.789 Q14.8886 463.789 17.9441 468.395 Q21.0228 472.978 21.0228 481.728 Q21.0228 490.455 17.9441 495.062 Q14.8886 499.645 9.07843 499.645 Q3.26828 499.645 0.189588 495.062 Q-2.86595 490.455 -2.86595 481.728 Q-2.86595 472.978 0.189588 468.395 Q3.26828 463.789 9.07843 463.789 Z" fill="#000000" fill-rule="evenodd" fill-opacity="1" /><path clip-path="url(#clip460)" d="M 0 0 M29.2404 493.094 L34.1246 493.094 L34.1246 498.974 L29.2404 498.974 L29.2404 493.094 Z" fill="#000000" fill-rule="evenodd" fill-opacity="1" /><path clip-path="url(#clip460)" d="M 0 0 M57.1569 468.488 L45.3514 486.937 L57.1569 486.937 L57.1569 468.488 M55.93 464.414 L61.8096 464.414 L61.8096 486.937 L66.7402 486.937 L66.7402 490.826 L61.8096 490.826 L61.8096 498.974 L57.1569 498.974 L57.1569 490.826 L41.5551 490.826 L41.5551 486.312 L55.93 464.414 Z" fill="#000000" fill-rule="evenodd" fill-opacity="1" /><path clip-path="url(#clip460)" d="M 0 0 M9.4025 189.723 Q5.79141 189.723 3.96272 193.288 Q2.15717 196.83 2.15717 203.959 Q2.15717 211.066 3.96272 214.63 Q5.79141 218.172 9.4025 218.172 Q13.0367 218.172 14.8423 214.63 Q16.671 211.066 16.671 203.959 Q16.671 196.83 14.8423 193.288 Q13.0367 189.723 9.4025 189.723 M9.4025 186.019 Q15.2127 186.019 18.2682 190.626 Q21.3469 195.209 21.3469 203.959 Q21.3469 212.686 18.2682 217.292 Q15.2127 221.876 9.4025 221.876 Q3.59235 221.876 0.51366 217.292 Q-2.54188 212.686 -2.54188 203.959 Q-2.54188 195.209 0.51366 190.626 Q3.59235 186.019 9.4025 186.019 Z" fill="#000000" fill-rule="evenodd" fill-opacity="1" /><path clip-path="url(#clip460)" d="M 0 0 M29.5644 215.325 L34.4487 215.325 L34.4487 221.204 L29.5644 221.204 L29.5644 215.325 Z" fill="#000000" fill-rule="evenodd" fill-opacity="1" /><path clip-path="url(#clip460)" d="M 0 0 M55.2124 202.061 Q52.0643 202.061 50.2125 204.214 Q48.3838 206.366 48.3838 210.116 Q48.3838 213.843 50.2125 216.019 Q52.0643 218.172 55.2124 218.172 Q58.3606 218.172 60.1893 216.019 Q62.0411 213.843 62.0411 210.116 Q62.0411 206.366 60.1893 204.214 Q58.3606 202.061 55.2124 202.061 M64.4948 187.408 L64.4948 191.667 Q62.7355 190.834 60.93 190.394 Q59.1476 189.955 57.3884 189.955 Q52.7588 189.955 50.3051 193.08 Q47.8745 196.205 47.5273 202.524 Q48.893 200.51 50.9532 199.445 Q53.0134 198.357 55.4902 198.357 Q60.6985 198.357 63.7078 201.529 Q66.7402 204.677 66.7402 210.116 Q66.7402 215.441 63.592 218.658 Q60.4439 221.876 55.2124 221.876 Q49.2171 221.876 46.0458 217.292 Q42.8745 212.686 42.8745 203.959 Q42.8745 195.765 46.7634 190.904 Q50.6523 186.019 57.2032 186.019 Q58.9624 186.019 60.7448 186.367 Q62.5504 186.714 64.4948 187.408 Z" fill="#000000" fill-rule="evenodd" fill-opacity="1" /><path clip-path="url(#clip460)" d="M 0 0 M-85.5523 782.439 Q-79.1866 784.922 -77.2451 787.277 Q-75.3035 789.632 -75.3035 793.579 L-75.3035 798.258 L-80.2051 798.258 L-80.2051 794.82 Q-80.2051 792.401 -81.351 791.065 Q-82.4968 789.728 -86.7618 788.105 L-89.4354 787.054 L-124.51 801.473 L-124.51 795.266 L-96.6287 784.126 L-124.51 772.986 L-124.51 766.779 L-85.5523 782.439 Z" fill="#000000" fill-rule="evenodd" fill-opacity="1" /><path clip-path="url(#clip460)" d="M 0 0 M728.13 18.8205 L728.13 41.5461 L738.419 41.5461 Q744.131 41.5461 747.25 38.5889 Q750.369 35.6318 750.369 30.163 Q750.369 24.7348 747.25 21.7777 Q744.131 18.8205 738.419 18.8205 L728.13 18.8205 M719.947 12.096 L738.419 12.096 Q748.587 12.096 753.772 16.714 Q758.998 21.2916 758.998 30.163 Q758.998 39.1155 753.772 43.6931 Q748.587 48.2706 738.419 48.2706 L728.13 48.2706 L728.13 72.576 L719.947 72.576 L719.947 12.096 Z" fill="#000000" fill-rule="evenodd" fill-opacity="1" /><path clip-path="url(#clip460)" d="M 0 0 M784.275 32.4315 Q778.28 32.4315 774.796 37.1306 Q771.312 41.7891 771.312 49.9314 Q771.312 58.0738 774.756 62.7728 Q778.239 67.4314 784.275 67.4314 Q790.23 67.4314 793.714 62.7323 Q797.198 58.0333 797.198 49.9314 Q797.198 41.8701 793.714 37.1711 Q790.23 32.4315 784.275 32.4315 M784.275 26.1121 Q793.997 26.1121 799.547 32.4315 Q805.097 38.7509 805.097 49.9314 Q805.097 61.0714 799.547 67.4314 Q793.997 73.7508 784.275 73.7508 Q774.513 73.7508 768.963 67.4314 Q763.454 61.0714 763.454 49.9314 Q763.454 38.7509 768.963 32.4315 Q774.513 26.1121 784.275 26.1121 Z" fill="#000000" fill-rule="evenodd" fill-opacity="1" /><path clip-path="url(#clip460)" d="M 0 0 M846.376 28.5427 L846.376 35.5912 Q843.216 33.9709 839.813 33.1607 Q836.41 32.3505 832.765 32.3505 Q827.215 32.3505 824.42 34.0519 Q821.665 35.7533 821.665 39.156 Q821.665 41.7486 823.65 43.2475 Q825.635 44.7058 831.63 46.0426 L834.182 46.6097 Q842.122 48.3111 845.444 51.4303 Q848.806 54.509 848.806 60.0587 Q848.806 66.3781 843.783 70.0644 Q838.8 73.7508 830.051 73.7508 Q826.405 73.7508 822.435 73.0216 Q818.505 72.3329 814.13 70.9151 L814.13 63.2184 Q818.262 65.3654 822.273 66.4591 Q826.283 67.5124 830.213 67.5124 Q835.479 67.5124 838.314 65.73 Q841.15 63.9071 841.15 60.6258 Q841.15 57.5877 839.084 55.9673 Q837.059 54.3469 830.132 52.8481 L827.539 52.2405 Q820.612 50.7821 817.533 47.7845 Q814.455 44.7463 814.455 39.4801 Q814.455 33.0797 818.992 29.5959 Q823.529 26.1121 831.873 26.1121 Q836.005 26.1121 839.651 26.7198 Q843.297 27.3274 846.376 28.5427 Z" fill="#000000" fill-rule="evenodd" fill-opacity="1" /><path clip-path="url(#clip460)" d="M 0 0 M868.048 14.324 L868.048 27.2059 L883.401 27.2059 L883.401 32.9987 L868.048 32.9987 L868.048 57.6282 Q868.048 63.1779 869.547 64.7578 Q871.086 66.3376 875.745 66.3376 L883.401 66.3376 L883.401 72.576 L875.745 72.576 Q867.116 72.576 863.835 69.3758 Q860.554 66.1351 860.554 57.6282 L860.554 32.9987 L855.085 32.9987 L855.085 27.2059 L860.554 27.2059 L860.554 14.324 L868.048 14.324 Z" fill="#000000" fill-rule="evenodd" fill-opacity="1" /><path clip-path="url(#clip460)" d="M 0 0 M932.012 48.0275 L932.012 51.6733 L897.741 51.6733 Q898.227 59.3701 902.359 63.421 Q906.532 67.4314 913.945 67.4314 Q918.239 67.4314 922.249 66.3781 Q926.3 65.3249 930.27 63.2184 L930.27 70.267 Q926.259 71.9684 922.047 72.8596 Q917.834 73.7508 913.499 73.7508 Q902.643 73.7508 896.283 67.4314 Q889.963 61.1119 889.963 50.3365 Q889.963 39.1965 895.959 32.6746 Q901.995 26.1121 912.203 26.1121 Q921.358 26.1121 926.665 32.0264 Q932.012 37.9003 932.012 48.0275 M924.558 45.84 Q924.477 39.7232 921.115 36.0774 Q917.793 32.4315 912.284 32.4315 Q906.045 32.4315 902.278 35.9558 Q898.551 39.4801 897.984 45.8805 L924.558 45.84 Z" fill="#000000" fill-rule="evenodd" fill-opacity="1" /><path clip-path="url(#clip460)" d="M 0 0 M970.536 34.1734 Q969.28 33.4443 967.781 33.1202 Q966.323 32.7556 964.541 32.7556 Q958.221 32.7556 954.818 36.8875 Q951.456 40.9789 951.456 48.6757 L951.456 72.576 L943.962 72.576 L943.962 27.2059 L951.456 27.2059 L951.456 34.2544 Q953.806 30.1225 957.573 28.1376 Q961.34 26.1121 966.728 26.1121 Q967.498 26.1121 968.429 26.2337 Q969.361 26.3147 970.495 26.5172 L970.536 34.1734 Z" fill="#000000" fill-rule="evenodd" fill-opacity="1" /><path clip-path="url(#clip460)" d="M 0 0 M978.354 27.2059 L985.808 27.2059 L985.808 72.576 L978.354 72.576 L978.354 27.2059 M978.354 9.54393 L985.808 9.54393 L985.808 18.9825 L978.354 18.9825 L978.354 9.54393 Z" fill="#000000" fill-rule="evenodd" fill-opacity="1" /><path clip-path="url(#clip460)" d="M 0 0 M1018.98 32.4315 Q1012.99 32.4315 1009.51 37.1306 Q1006.02 41.7891 1006.02 49.9314 Q1006.02 58.0738 1009.47 62.7728 Q1012.95 67.4314 1018.98 67.4314 Q1024.94 67.4314 1028.42 62.7323 Q1031.91 58.0333 1031.91 49.9314 Q1031.91 41.8701 1028.42 37.1711 Q1024.94 32.4315 1018.98 32.4315 M1018.98 26.1121 Q1028.71 26.1121 1034.26 32.4315 Q1039.81 38.7509 1039.81 49.9314 Q1039.81 61.0714 1034.26 67.4314 Q1028.71 73.7508 1018.98 73.7508 Q1009.22 73.7508 1003.67 67.4314 Q998.163 61.0714 998.163 49.9314 Q998.163 38.7509 1003.67 32.4315 Q1009.22 26.1121 1018.98 26.1121 Z" fill="#000000" fill-rule="evenodd" fill-opacity="1" /><path clip-path="url(#clip460)" d="M 0 0 M1078.45 34.1734 Q1077.2 33.4443 1075.7 33.1202 Q1074.24 32.7556 1072.46 32.7556 Q1066.14 32.7556 1062.73 36.8875 Q1059.37 40.9789 1059.37 48.6757 L1059.37 72.576 L1051.88 72.576 L1051.88 27.2059 L1059.37 27.2059 L1059.37 34.2544 Q1061.72 30.1225 1065.49 28.1376 Q1069.26 26.1121 1074.64 26.1121 Q1075.41 26.1121 1076.35 26.2337 Q1077.28 26.3147 1078.41 26.5172 L1078.45 34.1734 Z" fill="#000000" fill-rule="evenodd" fill-opacity="1" /><path clip-path="url(#clip460)" d="M 0 0 M1086.72 62.2867 L1095.26 62.2867 L1095.26 72.576 L1086.72 72.576 L1086.72 62.2867 M1086.72 29.6769 L1095.26 29.6769 L1095.26 39.9662 L1086.72 39.9662 L1086.72 29.6769 Z" fill="#000000" fill-rule="evenodd" fill-opacity="1" /><path clip-path="url(#clip460)" d="M 0 0 M1162.1 9.54393 L1162.1 15.7418 L1154.97 15.7418 Q1150.96 15.7418 1149.38 17.3622 Q1147.84 18.9825 1147.84 23.1955 L1147.84 27.2059 L1160.12 27.2059 L1160.12 32.9987 L1147.84 32.9987 L1147.84 72.576 L1140.35 72.576 L1140.35 32.9987 L1133.22 32.9987 L1133.22 27.2059 L1140.35 27.2059 L1140.35 24.0462 Q1140.35 16.471 1143.87 13.0277 Q1147.4 9.54393 1155.05 9.54393 L1162.1 9.54393 Z" fill="#000000" fill-rule="evenodd" fill-opacity="1" /><path clip-path="url(#clip460)" d="M 0 0 M1167.57 54.671 L1167.57 27.2059 L1175.03 27.2059 L1175.03 54.3874 Q1175.03 60.8284 1177.54 64.0691 Q1180.05 67.2693 1185.07 67.2693 Q1191.11 67.2693 1194.59 63.421 Q1198.12 59.5726 1198.12 52.9291 L1198.12 27.2059 L1205.57 27.2059 L1205.57 72.576 L1198.12 72.576 L1198.12 65.6084 Q1195.4 69.7404 1191.8 71.7658 Q1188.23 73.7508 1183.49 73.7508 Q1175.67 73.7508 1171.62 68.8897 Q1167.57 64.0286 1167.57 54.671 M1186.33 26.1121 L1186.33 26.1121 Z" fill="#000000" fill-rule="evenodd" fill-opacity="1" /><path clip-path="url(#clip460)" d="M 0 0 M1258.64 45.1919 L1258.64 72.576 L1251.18 72.576 L1251.18 45.4349 Q1251.18 38.994 1248.67 35.7938 Q1246.16 32.5936 1241.14 32.5936 Q1235.1 32.5936 1231.62 36.4419 Q1228.13 40.2903 1228.13 46.9338 L1228.13 72.576 L1220.64 72.576 L1220.64 27.2059 L1228.13 27.2059 L1228.13 34.2544 Q1230.81 30.163 1234.41 28.1376 Q1238.06 26.1121 1242.8 26.1121 Q1250.62 26.1121 1254.63 30.9732 Q1258.64 35.7938 1258.64 45.1919 Z" fill="#000000" fill-rule="evenodd" fill-opacity="1" /><path clip-path="url(#clip460)" d="M 0 0 M1306.15 28.9478 L1306.15 35.9153 Q1302.99 34.1734 1299.79 33.3227 Q1296.63 32.4315 1293.39 32.4315 Q1286.14 32.4315 1282.13 37.0496 Q1278.12 41.6271 1278.12 49.9314 Q1278.12 58.2358 1282.13 62.8538 Q1286.14 67.4314 1293.39 67.4314 Q1296.63 67.4314 1299.79 66.5807 Q1302.99 65.6895 1306.15 63.9476 L1306.15 70.8341 Q1303.03 72.2924 1299.67 73.0216 Q1296.35 73.7508 1292.58 73.7508 Q1282.33 73.7508 1276.3 67.3098 Q1270.26 60.8689 1270.26 49.9314 Q1270.26 38.832 1276.34 32.472 Q1282.46 26.1121 1293.07 26.1121 Q1296.51 26.1121 1299.79 26.8413 Q1303.07 27.5299 1306.15 28.9478 Z" fill="#000000" fill-rule="evenodd" fill-opacity="1" /><path clip-path="url(#clip460)" d="M 0 0 M1326.49 14.324 L1326.49 27.2059 L1341.84 27.2059 L1341.84 32.9987 L1326.49 32.9987 L1326.49 57.6282 Q1326.49 63.1779 1327.99 64.7578 Q1329.53 66.3376 1334.19 66.3376 L1341.84 66.3376 L1341.84 72.576 L1334.19 72.576 Q1325.56 72.576 1322.28 69.3758 Q1318.99 66.1351 1318.99 57.6282 L1318.99 32.9987 L1313.53 32.9987 L1313.53 27.2059 L1318.99 27.2059 L1318.99 14.324 L1326.49 14.324 Z" fill="#000000" fill-rule="evenodd" fill-opacity="1" /><path clip-path="url(#clip460)" d="M 0 0 M1351.64 27.2059 L1359.1 27.2059 L1359.1 72.576 L1351.64 72.576 L1351.64 27.2059 M1351.64 9.54393 L1359.1 9.54393 L1359.1 18.9825 L1351.64 18.9825 L1351.64 9.54393 Z" fill="#000000" fill-rule="evenodd" fill-opacity="1" /><path clip-path="url(#clip460)" d="M 0 0 M1392.28 32.4315 Q1386.28 32.4315 1382.8 37.1306 Q1379.31 41.7891 1379.31 49.9314 Q1379.31 58.0738 1382.76 62.7728 Q1386.24 67.4314 1392.28 67.4314 Q1398.23 67.4314 1401.71 62.7323 Q1405.2 58.0333 1405.2 49.9314 Q1405.2 41.8701 1401.71 37.1711 Q1398.23 32.4315 1392.28 32.4315 M1392.28 26.1121 Q1402 26.1121 1407.55 32.4315 Q1413.1 38.7509 1413.1 49.9314 Q1413.1 61.0714 1407.55 67.4314 Q1402 73.7508 1392.28 73.7508 Q1382.51 73.7508 1376.96 67.4314 Q1371.45 61.0714 1371.45 49.9314 Q1371.45 38.7509 1376.96 32.4315 Q1382.51 26.1121 1392.28 26.1121 Z" fill="#000000" fill-rule="evenodd" fill-opacity="1" /><path clip-path="url(#clip460)" d="M 0 0 M1463.17 45.1919 L1463.17 72.576 L1455.71 72.576 L1455.71 45.4349 Q1455.71 38.994 1453.2 35.7938 Q1450.69 32.5936 1445.67 32.5936 Q1439.63 32.5936 1436.15 36.4419 Q1432.66 40.2903 1432.66 46.9338 L1432.66 72.576 L1425.17 72.576 L1425.17 27.2059 L1432.66 27.2059 L1432.66 34.2544 Q1435.34 30.163 1438.94 28.1376 Q1442.59 26.1121 1447.33 26.1121 Q1455.15 26.1121 1459.16 30.9732 Q1463.17 35.7938 1463.17 45.1919 Z" fill="#000000" fill-rule="evenodd" fill-opacity="1" /><path clip-path="url(#clip460)" d="M 0 0 M1533.33 28.5427 L1533.33 35.5912 Q1530.17 33.9709 1526.77 33.1607 Q1523.36 32.3505 1519.72 32.3505 Q1514.17 32.3505 1511.37 34.0519 Q1508.62 35.7533 1508.62 39.156 Q1508.62 41.7486 1510.6 43.2475 Q1512.59 44.7058 1518.58 46.0426 L1521.13 46.6097 Q1529.07 48.3111 1532.4 51.4303 Q1535.76 54.509 1535.76 60.0587 Q1535.76 66.3781 1530.74 70.0644 Q1525.75 73.7508 1517 73.7508 Q1513.36 73.7508 1509.39 73.0216 Q1505.46 72.3329 1501.08 70.9151 L1501.08 63.2184 Q1505.21 65.3654 1509.23 66.4591 Q1513.24 67.5124 1517.16 67.5124 Q1522.43 67.5124 1525.27 65.73 Q1528.1 63.9071 1528.1 60.6258 Q1528.1 57.5877 1526.04 55.9673 Q1524.01 54.3469 1517.08 52.8481 L1514.49 52.2405 Q1507.56 50.7821 1504.49 47.7845 Q1501.41 44.7463 1501.41 39.4801 Q1501.41 33.0797 1505.94 29.5959 Q1510.48 26.1121 1518.83 26.1121 Q1522.96 26.1121 1526.6 26.7198 Q1530.25 27.3274 1533.33 28.5427 Z" fill="#000000" fill-rule="evenodd" fill-opacity="1" /><path clip-path="url(#clip460)" d="M 0 0 M1554.84 65.7705 L1554.84 89.8329 L1547.34 89.8329 L1547.34 27.2059 L1554.84 27.2059 L1554.84 34.0924 Q1557.19 30.0415 1560.75 28.0971 Q1564.36 26.1121 1569.34 26.1121 Q1577.6 26.1121 1582.75 32.6746 Q1587.93 39.2371 1587.93 49.9314 Q1587.93 60.6258 1582.75 67.1883 Q1577.6 73.7508 1569.34 73.7508 Q1564.36 73.7508 1560.75 71.8063 Q1557.19 69.8214 1554.84 65.7705 M1580.2 49.9314 Q1580.2 41.7081 1576.79 37.0496 Q1573.43 32.3505 1567.52 32.3505 Q1561.6 32.3505 1558.2 37.0496 Q1554.84 41.7081 1554.84 49.9314 Q1554.84 58.1548 1558.2 62.8538 Q1561.6 67.5124 1567.52 67.5124 Q1573.43 67.5124 1576.79 62.8538 Q1580.2 58.1548 1580.2 49.9314 Z" fill="#000000" fill-rule="evenodd" fill-opacity="1" /><path clip-path="url(#clip460)" d="M 0 0 M1620.91 49.7694 Q1611.88 49.7694 1608.39 51.8354 Q1604.91 53.9013 1604.91 58.8839 Q1604.91 62.8538 1607.5 65.2034 Q1610.13 67.5124 1614.63 67.5124 Q1620.83 67.5124 1624.55 63.1374 Q1628.32 58.7219 1628.32 51.4303 L1628.32 49.7694 L1620.91 49.7694 M1635.78 46.6907 L1635.78 72.576 L1628.32 72.576 L1628.32 65.6895 Q1625.77 69.8214 1621.96 71.8063 Q1618.15 73.7508 1612.64 73.7508 Q1605.68 73.7508 1601.55 69.8619 Q1597.45 65.9325 1597.45 59.3701 Q1597.45 51.7138 1602.56 47.825 Q1607.7 43.9361 1617.87 43.9361 L1628.32 43.9361 L1628.32 43.2069 Q1628.32 38.0623 1624.92 35.2672 Q1621.56 32.4315 1615.44 32.4315 Q1611.55 32.4315 1607.86 33.3632 Q1604.18 34.295 1600.78 36.1584 L1600.78 29.2718 Q1604.87 27.692 1608.72 26.9223 Q1612.56 26.1121 1616.21 26.1121 Q1626.05 26.1121 1630.91 31.2163 Q1635.78 36.3204 1635.78 46.6907 Z" fill="#000000" fill-rule="evenodd" fill-opacity="1" /><path clip-path="url(#clip460)" d="M 0 0 M1683.78 28.9478 L1683.78 35.9153 Q1680.62 34.1734 1677.42 33.3227 Q1674.26 32.4315 1671.02 32.4315 Q1663.77 32.4315 1659.76 37.0496 Q1655.75 41.6271 1655.75 49.9314 Q1655.75 58.2358 1659.76 62.8538 Q1663.77 67.4314 1671.02 67.4314 Q1674.26 67.4314 1677.42 66.5807 Q1680.62 65.6895 1683.78 63.9476 L1683.78 70.8341 Q1680.66 72.2924 1677.3 73.0216 Q1673.98 73.7508 1670.21 73.7508 Q1659.96 73.7508 1653.92 67.3098 Q1647.89 60.8689 1647.89 49.9314 Q1647.89 38.832 1653.96 32.472 Q1660.08 26.1121 1670.69 26.1121 Q1674.14 26.1121 1677.42 26.8413 Q1680.7 27.5299 1683.78 28.9478 Z" fill="#000000" fill-rule="evenodd" fill-opacity="1" /><path clip-path="url(#clip460)" d="M 0 0 M1735.55 48.0275 L1735.55 51.6733 L1701.28 51.6733 Q1701.76 59.3701 1705.9 63.421 Q1710.07 67.4314 1717.48 67.4314 Q1721.78 67.4314 1725.79 66.3781 Q1729.84 65.3249 1733.81 63.2184 L1733.81 70.267 Q1729.8 71.9684 1725.58 72.8596 Q1721.37 73.7508 1717.04 73.7508 Q1706.18 73.7508 1699.82 67.4314 Q1693.5 61.1119 1693.5 50.3365 Q1693.5 39.1965 1699.5 32.6746 Q1705.53 26.1121 1715.74 26.1121 Q1724.9 26.1121 1730.2 32.0264 Q1735.55 37.9003 1735.55 48.0275 M1728.1 45.84 Q1728.01 39.7232 1724.65 36.0774 Q1721.33 32.4315 1715.82 32.4315 Q1709.58 32.4315 1705.82 35.9558 Q1702.09 39.4801 1701.52 45.8805 L1728.1 45.84 Z" fill="#000000" fill-rule="evenodd" fill-opacity="1" /><circle clip-path="url(#clip462)" cx="166.42" cy="451.863" r="14" fill="#009af9" fill-rule="evenodd" fill-opacity="1" stroke="#000000" stroke-opacity="1" stroke-width="3.2"/>
<circle clip-path="url(#clip462)" cx="402.271" cy="409.938" r="14" fill="#009af9" fill-rule="evenodd" fill-opacity="1" stroke="#000000" stroke-opacity="1" stroke-width="3.2"/>
<circle clip-path="url(#clip462)" cx="638.121" cy="606.19" r="14" fill="#009af9" fill-rule="evenodd" fill-opacity="1" stroke="#000000" stroke-opacity="1" stroke-width="3.2"/>
<circle clip-path="url(#clip462)" cx="873.972" cy="642.03" r="14" fill="#009af9" fill-rule="evenodd" fill-opacity="1" stroke="#000000" stroke-opacity="1" stroke-width="3.2"/>
<circle clip-path="url(#clip462)" cx="1109.82" cy="897.918" r="14" fill="#009af9" fill-rule="evenodd" fill-opacity="1" stroke="#000000" stroke-opacity="1" stroke-width="3.2"/>
<circle clip-path="url(#clip462)" cx="1345.67" cy="871.422" r="14" fill="#009af9" fill-rule="evenodd" fill-opacity="1" stroke="#000000" stroke-opacity="1" stroke-width="3.2"/>
<circle clip-path="url(#clip462)" cx="1581.52" cy="569.057" r="14" fill="#009af9" fill-rule="evenodd" fill-opacity="1" stroke="#000000" stroke-opacity="1" stroke-width="3.2"/>
<circle clip-path="url(#clip462)" cx="1817.37" cy="1270.37" r="14" fill="#009af9" fill-rule="evenodd" fill-opacity="1" stroke="#000000" stroke-opacity="1" stroke-width="3.2"/>
<circle clip-path="url(#clip462)" cx="2053.23" cy="1026.11" r="14" fill="#009af9" fill-rule="evenodd" fill-opacity="1" stroke="#000000" stroke-opacity="1" stroke-width="3.2"/>
<circle clip-path="url(#clip462)" cx="2289.08" cy="1093.83" r="14" fill="#009af9" fill-rule="evenodd" fill-opacity="1" stroke="#000000" stroke-opacity="1" stroke-width="3.2"/>
<path clip-path="url(#clip462)" d="
M166.42 748.033 L187.861 754.094 L209.302 760.176 L230.743 766.277 L252.184 772.398 L273.625 778.54 L295.066 784.703 L316.507 790.886 L337.948 797.091 L359.389 803.316 
  L380.83 809.564 L402.271 815.832 L423.712 822.123 L445.153 828.436 L466.593 834.771 L488.034 841.129 L509.475 847.51 L530.916 853.913 L552.357 860.339 L573.798 866.789 
  L595.239 873.262 L616.68 879.759 L638.121 886.279 L659.562 892.823 L681.003 899.392 L702.444 905.985 L723.885 912.602 L745.326 919.244 L766.767 925.91 L788.208 932.602 
  L809.649 939.318 L831.09 946.06 L852.531 952.827 L873.972 959.619 L895.413 966.437 L916.854 973.28 L938.295 980.15 L959.736 987.044 L981.177 993.965 L1002.62 1000.91 
  L1024.06 1007.89 L1045.5 1014.88 L1066.94 1021.91 L1088.38 1028.96 L1109.82 1036.04 L1131.26 1043.14 L1152.7 1050.27 L1174.15 1057.43 L1195.59 1064.61 L1217.03 1071.82 
  L1238.47 1079.06 L1259.91 1086.32 L1281.35 1093.61 L1302.79 1100.93 L1324.23 1108.27 L1345.67 1115.64 L1367.11 1123.04 L1388.56 1130.46 L1410 1137.9 L1431.44 1145.38 
  L1452.88 1152.88 L1474.32 1160.4 L1495.76 1167.96 L1517.2 1175.53 L1538.64 1183.14 L1560.08 1190.77 L1581.52 1198.42 L1602.97 1206.1 L1624.41 1213.81 L1645.85 1221.54 
  L1667.29 1229.3 L1688.73 1237.08 L1710.17 1244.88 L1731.61 1252.71 L1753.05 1260.57 L1774.49 1268.45 L1795.93 1276.35 L1817.37 1284.28 L1838.82 1292.24 L1860.26 1300.21 
  L1881.7 1308.21 L1903.14 1316.24 L1924.58 1324.28 L1946.02 1332.35 L1967.46 1340.44 L1988.9 1348.56 L2010.34 1356.7 L2031.78 1364.86 L2053.23 1373.04 L2074.67 1381.24 
  L2096.11 1389.47 L2117.55 1397.72 L2138.99 1405.98 L2160.43 1414.27 L2181.87 1422.58 L2203.31 1430.91 L2224.75 1439.27 L2246.19 1447.64 L2267.64 1456.03 L2289.08 1464.44 
  L2289.08 820.219 L2267.64 814.158 L2246.19 808.076 L2224.75 801.975 L2203.31 795.854 L2181.87 789.712 L2160.43 783.549 L2138.99 777.366 L2117.55 771.161 L2096.11 764.936 
  L2074.67 758.688 L2053.23 752.42 L2031.78 746.129 L2010.34 739.816 L1988.9 733.481 L1967.46 727.123 L1946.02 720.742 L1924.58 714.339 L1903.14 707.913 L1881.7 701.463 
  L1860.26 694.99 L1838.82 688.493 L1817.37 681.973 L1795.93 675.429 L1774.49 668.86 L1753.05 662.267 L1731.61 655.65 L1710.17 649.008 L1688.73 642.342 L1667.29 635.65 
  L1645.85 628.934 L1624.41 622.192 L1602.97 615.425 L1581.52 608.633 L1560.08 601.815 L1538.64 594.972 L1517.2 588.102 L1495.76 581.207 L1474.32 574.287 L1452.88 567.34 
  L1431.44 560.367 L1410 553.368 L1388.56 546.342 L1367.11 539.291 L1345.67 532.213 L1324.23 525.109 L1302.79 517.978 L1281.35 510.821 L1259.91 503.637 L1238.47 496.427 
  L1217.03 489.191 L1195.59 481.928 L1174.15 474.639 L1152.7 467.323 L1131.26 459.981 L1109.82 452.612 L1088.38 445.217 L1066.94 437.796 L1045.5 430.348 L1024.06 422.874 
  L1002.62 415.374 L981.177 407.848 L959.736 400.296 L938.295 392.718 L916.854 385.115 L895.413 377.485 L873.972 369.83 L852.531 362.15 L831.09 354.444 L809.649 346.712 
  L788.208 338.956 L766.767 331.175 L745.326 323.368 L723.885 315.537 L702.444 307.682 L681.003 299.801 L659.562 291.897 L638.121 283.969 L616.68 276.016 L595.239 268.04 
  L573.798 260.04 L552.357 252.017 L530.916 243.97 L509.475 235.901 L488.034 227.808 L466.593 219.693 L445.153 211.555 L423.712 203.395 L402.271 195.213 L380.83 187.009 
  L359.389 178.784 L337.948 170.537 L316.507 162.268 L295.066 153.979 L273.625 145.668 L252.184 137.337 L230.743 128.986 L209.302 120.614 L187.861 112.222 L166.42 103.811 
   Z
  " fill="#e26f46" fill-rule="evenodd" fill-opacity="0.5"/>
<polyline clip-path="url(#clip462)" style="stroke:#e26f46; stroke-width:4; stroke-opacity:1; fill:none" points="
  166.42,425.922 187.861,433.158 209.302,440.395 230.743,447.631 252.184,454.868 273.625,462.104 295.066,469.341 316.507,476.577 337.948,483.814 359.389,491.05 
  380.83,498.286 402.271,505.523 423.712,512.759 445.153,519.996 466.593,527.232 488.034,534.469 509.475,541.705 530.916,548.942 552.357,556.178 573.798,563.414 
  595.239,570.651 616.68,577.887 638.121,585.124 659.562,592.36 681.003,599.597 702.444,606.833 723.885,614.07 745.326,621.306 766.767,628.542 788.208,635.779 
  809.649,643.015 831.09,650.252 852.531,657.488 873.972,664.725 895.413,671.961 916.854,679.198 938.295,686.434 959.736,693.67 981.177,700.907 1002.62,708.143 
  1024.06,715.38 1045.5,722.616 1066.94,729.853 1088.38,737.089 1109.82,744.326 1131.26,751.562 1152.7,758.798 1174.15,766.035 1195.59,773.271 1217.03,780.508 
  1238.47,787.744 1259.91,794.981 1281.35,802.217 1302.79,809.454 1324.23,816.69 1345.67,823.926 1367.11,831.163 1388.56,838.399 1410,845.636 1431.44,852.872 
  1452.88,860.109 1474.32,867.345 1495.76,874.582 1517.2,881.818 1538.64,889.054 1560.08,896.291 1581.52,903.527 1602.97,910.764 1624.41,918 1645.85,925.237 
  1667.29,932.473 1688.73,939.71 1710.17,946.946 1731.61,954.182 1753.05,961.419 1774.49,968.655 1795.93,975.892 1817.37,983.128 1838.82,990.365 1860.26,997.601 
  1881.7,1004.84 1903.14,1012.07 1924.58,1019.31 1946.02,1026.55 1967.46,1033.78 1988.9,1041.02 2010.34,1048.26 2031.78,1055.49 2053.23,1062.73 2074.67,1069.97 
  2096.11,1077.2 2117.55,1084.44 2138.99,1091.67 2160.43,1098.91 2181.87,1106.15 2203.31,1113.38 2224.75,1120.62 2246.19,1127.86 2267.64,1135.09 2289.08,1142.33 
  
  "/>
<polyline clip-path="url(#clip462)" style="stroke:#3da44d; stroke-width:4; stroke-opacity:1; fill:none" points="
  166.42,425.922 187.861,433.158 209.302,440.395 230.743,447.631 252.184,454.868 273.625,462.104 295.066,469.341 316.507,476.577 337.948,483.814 359.389,491.05 
  380.83,498.286 402.271,505.523 423.712,512.759 445.153,519.996 466.593,527.232 488.034,534.469 509.475,541.705 530.916,548.942 552.357,556.178 573.798,563.414 
  595.239,570.651 616.68,577.887 638.121,585.124 659.562,592.36 681.003,599.597 702.444,606.833 723.885,614.07 745.326,621.306 766.767,628.542 788.208,635.779 
  809.649,643.015 831.09,650.252 852.531,657.488 873.972,664.725 895.413,671.961 916.854,679.198 938.295,686.434 959.736,693.67 981.177,700.907 1002.62,708.143 
  1024.06,715.38 1045.5,722.616 1066.94,729.853 1088.38,737.089 1109.82,744.326 1131.26,751.562 1152.7,758.798 1174.15,766.035 1195.59,773.271 1217.03,780.508 
  1238.47,787.744 1259.91,794.981 1281.35,802.217 1302.79,809.454 1324.23,816.69 1345.67,823.926 1367.11,831.163 1388.56,838.399 1410,845.636 1431.44,852.872 
  1452.88,860.109 1474.32,867.345 1495.76,874.582 1517.2,881.818 1538.64,889.054 1560.08,896.291 1581.52,903.527 1602.97,910.764 1624.41,918 1645.85,925.237 
  1667.29,932.473 1688.73,939.71 1710.17,946.946 1731.61,954.182 1753.05,961.419 1774.49,968.655 1795.93,975.892 1817.37,983.128 1838.82,990.365 1860.26,997.601 
  1881.7,1004.84 1903.14,1012.07 1924.58,1019.31 1946.02,1026.55 1967.46,1033.78 1988.9,1041.02 2010.34,1048.26 2031.78,1055.49 2053.23,1062.73 2074.67,1069.97 
  2096.11,1077.2 2117.55,1084.44 2138.99,1091.67 2160.43,1098.91 2181.87,1106.15 2203.31,1113.38 2224.75,1120.62 2246.19,1127.86 2267.64,1135.09 2289.08,1142.33 
  
  "/>
<polyline clip-path="url(#clip462)" style="stroke:#c271d2; stroke-width:4; stroke-opacity:1; fill:none" points="
  166.42,378.322 187.861,385.521 209.302,392.7 230.743,399.911 252.184,407.087 273.625,414.286 295.066,421.496 316.507,428.726 337.948,435.894 359.389,443.113 
  380.83,450.34 402.271,457.495 423.712,464.692 445.153,471.89 466.593,479.1 488.034,486.268 509.475,493.492 530.916,500.705 552.357,507.918 573.798,515.097 
  595.239,522.299 616.68,529.541 638.121,536.704 659.562,543.877 681.003,551.086 702.444,558.28 723.885,565.485 745.326,572.705 766.767,579.906 788.208,587.132 
  809.649,594.325 831.09,601.508 852.531,608.701 873.972,615.895 895.413,623.065 916.854,630.27 938.295,637.489 959.736,644.714 981.177,651.912 1002.62,659.073 
  1024.06,666.321 1045.5,673.47 1066.94,680.694 1088.38,687.877 1109.82,695.092 1131.26,702.298 1152.7,709.532 1174.15,716.706 1195.59,723.918 1217.03,731.058 
  1238.47,738.323 1259.91,745.506 1281.35,752.716 1302.79,759.926 1324.23,767.097 1345.67,774.312 1367.11,781.535 1388.56,788.696 1410,795.931 1431.44,803.114 
  1452.88,810.313 1474.32,817.485 1495.76,824.68 1517.2,831.93 1538.64,839.137 1560.08,846.315 1581.52,853.482 1602.97,860.676 1624.41,867.86 1645.85,875.12 
  1667.29,882.279 1688.73,889.512 1710.17,896.707 1731.61,903.872 1753.05,911.085 1774.49,918.303 1795.93,925.509 1817.37,932.696 1838.82,939.893 1860.26,947.093 
  1881.7,954.294 1903.14,961.49 1924.58,968.694 1946.02,975.868 1967.46,983.071 1988.9,990.299 2010.34,997.492 2031.78,1004.71 2053.23,1011.93 2074.67,1019.07 
  2096.11,1026.3 2117.55,1033.5 2138.99,1040.73 2160.43,1047.94 2181.87,1055.07 2203.31,1062.31 2224.75,1069.48 2246.19,1076.73 2267.64,1083.9 2289.08,1091.11 
  
  "/>
<polyline clip-path="url(#clip462)" style="stroke:#ac8d18; stroke-width:4; stroke-opacity:1; fill:none" points="
  166.42,393.349 187.861,401.312 209.302,409.268 230.743,417.182 252.184,425.122 273.625,433.107 295.066,441.06 316.507,448.99 337.948,456.979 359.389,464.895 
  380.83,472.884 402.271,480.846 423.712,488.809 445.153,496.728 466.593,504.75 488.034,512.657 509.475,520.651 530.916,528.639 552.357,536.556 573.798,544.537 
  595.239,552.444 616.68,560.432 638.121,568.364 659.562,576.319 681.003,584.324 702.444,592.272 723.885,600.198 745.326,608.177 766.767,616.101 788.208,624.039 
  809.649,632.033 831.09,639.993 852.531,647.977 873.972,655.87 895.413,663.879 916.854,671.839 938.295,679.794 959.736,687.745 981.177,695.685 1002.62,703.638 
  1024.06,711.615 1045.5,719.567 1066.94,727.502 1088.38,735.492 1109.82,743.465 1131.26,751.387 1152.7,759.354 1174.15,767.319 1195.59,775.223 1217.03,783.209 
  1238.47,791.196 1259.91,799.139 1281.35,807.092 1302.79,815.056 1324.23,823.005 1345.67,830.951 1367.11,838.943 1388.56,846.878 1410,854.838 1431.44,862.768 
  1452.88,870.746 1474.32,878.699 1495.76,886.681 1517.2,894.626 1538.64,902.551 1560.08,910.519 1581.52,918.48 1602.97,926.434 1624.41,934.377 1645.85,942.387 
  1667.29,950.315 1688.73,958.261 1710.17,966.224 1731.61,974.167 1753.05,982.133 1774.49,990.082 1795.93,998.041 1817.37,1005.97 1838.82,1013.96 1860.26,1021.94 
  1881.7,1029.86 1903.14,1037.85 1924.58,1045.79 1946.02,1053.74 1967.46,1061.69 1988.9,1069.69 2010.34,1077.63 2031.78,1085.6 2053.23,1093.52 2074.67,1101.45 
  2096.11,1109.48 2117.55,1117.4 2138.99,1125.36 2160.43,1133.32 2181.87,1141.29 2203.31,1149.22 2224.75,1157.23 2246.19,1165.16 2267.64,1173.13 2289.08,1181.1 
  
  "/>
<polyline clip-path="url(#clip462)" style="stroke:#00a9ad; stroke-width:4; stroke-opacity:1; fill:none" points="
  166.42,354.82 187.861,364.334 209.302,373.87 230.743,383.43 252.184,393.028 273.625,402.512 295.066,412.068 316.507,421.6 337.948,431.148 359.389,440.687 
  380.83,450.227 402.271,459.804 423.712,469.306 445.153,478.855 466.593,488.425 488.034,497.939 509.475,507.511 530.916,517.05 552.357,526.596 573.798,536.116 
  595.239,545.651 616.68,555.24 638.121,564.74 659.562,574.318 681.003,583.829 702.444,593.404 723.885,602.927 745.326,612.494 766.767,622.053 788.208,631.583 
  809.649,641.13 831.09,650.636 852.531,660.22 873.972,669.747 895.413,679.323 916.854,688.835 938.295,698.363 959.736,707.921 981.177,717.462 1002.62,727.065 
  1024.06,736.582 1045.5,746.108 1066.94,755.645 1088.38,765.196 1109.82,774.742 1131.26,784.321 1152.7,793.842 1174.15,803.395 1195.59,813.001 1217.03,822.455 
  1238.47,832.007 1259.91,841.566 1281.35,851.097 1302.79,860.654 1324.23,870.154 1345.67,879.768 1367.11,889.271 1388.56,898.851 1410,908.35 1431.44,917.931 
  1452.88,927.461 1474.32,937.005 1495.76,946.519 1517.2,956.065 1538.64,965.629 1560.08,975.17 1581.52,984.747 1602.97,994.258 1624.41,1003.78 1645.85,1013.33 
  1667.29,1022.9 1688.73,1032.44 1710.17,1042.02 1731.61,1051.5 1753.05,1061.09 1774.49,1070.61 1795.93,1080.16 1817.37,1089.71 1838.82,1099.26 1860.26,1108.79 
  1881.7,1118.34 1903.14,1127.88 1924.58,1137.41 1946.02,1146.97 1967.46,1156.5 1988.9,1166.08 2010.34,1175.56 2031.78,1185.1 2053.23,1194.65 2074.67,1204.24 
  2096.11,1213.78 2117.55,1223.32 2138.99,1232.84 2160.43,1242.39 2181.87,1251.92 2203.31,1261.52 2224.75,1271.07 2246.19,1280.58 2267.64,1290.12 2289.08,1299.65 
  
  "/>
<polyline clip-path="url(#clip462)" style="stroke:#ed5d92; stroke-width:4; stroke-opacity:1; fill:none" points="
  166.42,372.535 187.861,380.8 209.302,389.223 230.743,397.584 252.184,405.911 273.625,414.269 295.066,422.673 316.507,430.968 337.948,439.348 359.389,447.722 
  380.83,456.117 402.271,464.481 423.712,472.846 445.153,481.191 466.593,489.529 488.034,497.871 509.475,506.273 530.916,514.611 552.357,523.013 573.798,531.324 
  595.239,539.687 616.68,548.062 638.121,556.436 659.562,564.773 681.003,573.168 702.444,581.521 723.885,589.884 745.326,598.208 766.767,606.578 788.208,614.972 
  809.649,623.307 831.09,631.685 852.531,640.032 873.972,648.431 895.413,656.799 916.854,665.142 938.295,673.451 959.736,681.844 981.177,690.224 1002.62,698.579 
  1024.06,706.938 1045.5,715.273 1066.94,723.651 1088.38,732.016 1109.82,740.359 1131.26,748.734 1152.7,757.109 1174.15,765.472 1195.59,773.788 1217.03,782.175 
  1238.47,790.522 1259.91,798.902 1281.35,807.262 1302.79,815.631 1324.23,823.984 1345.67,832.335 1367.11,840.713 1388.56,849.085 1410,857.415 1431.44,865.772 
  1452.88,874.143 1474.32,882.521 1495.76,890.883 1517.2,899.207 1538.64,907.61 1560.08,915.971 1581.52,924.337 1602.97,932.731 1624.41,941.046 1645.85,949.445 
  1667.29,957.777 1688.73,966.098 1710.17,974.485 1731.61,982.901 1753.05,991.184 1774.49,999.585 1795.93,1007.92 1817.37,1016.3 1838.82,1024.67 1860.26,1032.98 
  1881.7,1041.39 1903.14,1049.74 1924.58,1058.1 1946.02,1066.44 1967.46,1074.83 1988.9,1083.18 2010.34,1091.53 2031.78,1099.88 2053.23,1108.28 2074.67,1116.65 
  2096.11,1124.99 2117.55,1133.39 2138.99,1141.71 2160.43,1150.06 2181.87,1158.42 2203.31,1166.81 2224.75,1175.16 2246.19,1183.5 2267.64,1191.88 2289.08,1200.24 
  
  "/>
<polyline clip-path="url(#clip462)" style="stroke:#c68125; stroke-width:4; stroke-opacity:1; fill:none" points="
  166.42,418.81 187.861,425.983 209.302,433.161 230.743,440.312 252.184,447.443 273.625,454.642 295.066,461.798 316.507,468.902 337.948,476.1 359.389,483.253 
  380.83,490.395 402.271,497.554 423.712,504.727 445.153,511.863 466.593,519.04 488.034,526.134 509.475,533.281 530.916,540.461 552.357,547.628 573.798,554.775 
  595.239,561.957 616.68,569.08 638.121,576.234 659.562,583.413 681.003,590.563 702.444,597.735 723.885,604.904 745.326,612.068 766.767,619.217 788.208,626.343 
  809.649,633.497 831.09,640.682 852.531,647.783 873.972,654.956 895.413,662.136 916.854,669.269 938.295,676.427 959.736,683.567 981.177,690.73 1002.62,697.928 
  1024.06,705.087 1045.5,712.227 1066.94,719.334 1088.38,726.549 1109.82,733.691 1131.26,740.85 1152.7,748.024 1174.15,755.142 1195.59,762.294 1217.03,769.441 
  1238.47,776.629 1259.91,783.773 1281.35,790.907 1302.79,798.067 1324.23,805.217 1345.67,812.362 1367.11,819.552 1388.56,826.691 1410,833.808 1431.44,841.039 
  1452.88,848.193 1474.32,855.319 1495.76,862.45 1517.2,869.632 1538.64,876.771 1560.08,883.967 1581.52,891.058 1602.97,898.262 1624.41,905.419 1645.85,912.563 
  1667.29,919.676 1688.73,926.848 1710.17,934.018 1731.61,941.181 1753.05,948.368 1774.49,955.511 1795.93,962.613 1817.37,969.778 1838.82,976.981 1860.26,984.108 
  1881.7,991.264 1903.14,998.409 1924.58,1005.55 1946.02,1012.69 1967.46,1019.88 1988.9,1027.07 2010.34,1034.22 2031.78,1041.32 2053.23,1048.52 2074.67,1055.67 
  2096.11,1062.81 2117.55,1070.01 2138.99,1077.15 2160.43,1084.3 2181.87,1091.43 2203.31,1098.58 2224.75,1105.77 2246.19,1112.9 2267.64,1120.06 2289.08,1127.21 
  
  "/>
<polyline clip-path="url(#clip462)" style="stroke:#00a98d; stroke-width:4; stroke-opacity:1; fill:none" points="
  166.42,383.796 187.861,392.071 209.302,400.317 230.743,408.626 252.184,416.881 273.625,425.193 295.066,433.447 316.507,441.74 337.948,449.981 359.389,458.268 
  380.83,466.539 402.271,474.842 423.712,483.111 445.153,491.422 466.593,499.682 488.034,507.919 509.475,516.244 530.916,524.503 552.357,532.799 573.798,541.04 
  595.239,549.299 616.68,557.61 638.121,565.878 659.562,574.175 681.003,582.448 702.444,590.725 723.885,598.995 745.326,607.284 766.767,615.56 788.208,623.825 
  809.649,632.113 831.09,640.407 852.531,648.674 873.972,656.924 895.413,665.246 916.854,673.54 938.295,681.765 959.736,690.061 981.177,698.299 1002.62,706.633 
  1024.06,714.888 1045.5,723.15 1066.94,731.432 1088.38,739.712 1109.82,747.974 1131.26,756.305 1152.7,764.548 1174.15,772.821 1195.59,781.115 1217.03,789.412 
  1238.47,797.667 1259.91,805.956 1281.35,814.234 1302.79,822.487 1324.23,830.754 1345.67,839.036 1367.11,847.331 1388.56,855.619 1410,863.894 1431.44,872.174 
  1452.88,880.442 1474.32,888.748 1495.76,897.009 1517.2,905.27 1538.64,913.548 1560.08,921.839 1581.52,930.107 1602.97,938.388 1624.41,946.666 1645.85,954.942 
  1667.29,963.252 1688.73,971.529 1710.17,979.781 1731.61,988.062 1753.05,996.363 1774.49,1004.62 1795.93,1012.92 1817.37,1021.2 1838.82,1029.45 1860.26,1037.75 
  1881.7,1045.99 1903.14,1054.31 1924.58,1062.59 1946.02,1070.85 1967.46,1079.14 1988.9,1087.4 2010.34,1095.69 2031.78,1103.93 2053.23,1112.24 2074.67,1120.47 
  2096.11,1128.79 2117.55,1137.05 2138.99,1145.32 2160.43,1153.61 2181.87,1161.92 2203.31,1170.18 2224.75,1178.43 2246.19,1186.72 2267.64,1195 2289.08,1203.31 
  
  "/>
<polyline clip-path="url(#clip462)" style="stroke:#8e971d; stroke-width:4; stroke-opacity:1; fill:none" points="
  166.42,414.249 187.861,421.943 209.302,429.638 230.743,437.353 252.184,445.043 273.625,452.745 295.066,460.401 316.507,468.122 337.948,475.816 359.389,483.487 
  380.83,491.163 402.271,498.885 423.712,506.569 445.153,514.266 466.593,521.994 488.034,529.639 509.475,537.32 530.916,545.033 552.357,552.658 573.798,560.427 
  595.239,568.107 616.68,575.76 638.121,583.482 659.562,591.194 681.003,598.86 702.444,606.499 723.885,614.239 745.326,621.908 766.767,629.636 788.208,637.337 
  809.649,645.031 831.09,652.686 852.531,660.406 873.972,668.124 895.413,675.777 916.854,683.496 938.295,691.144 959.736,698.84 981.177,706.505 1002.62,714.24 
  1024.06,721.972 1045.5,729.647 1066.94,737.262 1088.38,745.025 1109.82,752.723 1131.26,760.396 1152.7,768.107 1174.15,775.741 1195.59,783.448 1217.03,791.192 
  1238.47,798.817 1259.91,806.536 1281.35,814.212 1302.79,821.943 1324.23,829.626 1345.67,837.311 1367.11,844.978 1388.56,852.691 1410,860.372 1431.44,868.058 
  1452.88,875.767 1474.32,883.414 1495.76,891.119 1517.2,898.81 1538.64,906.506 1560.08,914.227 1581.52,921.902 1602.97,929.6 1624.41,937.27 1645.85,944.939 
  1667.29,952.665 1688.73,960.346 1710.17,968.052 1731.61,975.741 1753.05,983.4 1774.49,991.103 1795.93,998.807 1817.37,1006.52 1838.82,1014.19 1860.26,1021.89 
  1881.7,1029.59 1903.14,1037.29 1924.58,1044.96 1946.02,1052.63 1967.46,1060.29 1988.9,1068 2010.34,1075.73 2031.78,1083.44 2053.23,1091.11 2074.67,1098.79 
  2096.11,1106.5 2117.55,1114.2 2138.99,1121.88 2160.43,1129.58 2181.87,1137.24 2203.31,1144.97 2224.75,1152.64 2246.19,1160.32 2267.64,1168.01 2289.08,1175.75 
  
  "/>
<polyline clip-path="url(#clip462)" style="stroke:#00a8cb; stroke-width:4; stroke-opacity:1; fill:none" points="
  166.42,552.576 187.861,557.317 209.302,562.116 230.743,566.81 252.184,571.554 273.625,576.298 295.066,581.023 316.507,585.782 337.948,590.536 359.389,595.275 
  380.83,599.964 402.271,604.755 423.712,609.435 445.153,614.236 466.593,618.962 488.034,623.719 509.475,628.43 530.916,633.193 552.357,637.911 573.798,642.676 
  595.239,647.412 616.68,652.114 638.121,656.897 659.562,661.638 681.003,666.355 702.444,671.076 723.885,675.834 745.326,680.604 766.767,685.283 788.208,690.05 
  809.649,694.8 831.09,699.566 852.531,704.266 873.972,709.058 895.413,713.757 916.854,718.534 938.295,723.256 959.736,728.02 981.177,732.744 1002.62,737.464 
  1024.06,742.253 1045.5,746.971 1066.94,751.694 1088.38,756.45 1109.82,761.164 1131.26,765.942 1152.7,770.657 1174.15,775.427 1195.59,780.131 1217.03,784.908 
  1238.47,789.624 1259.91,794.396 1281.35,799.102 1302.79,803.849 1324.23,808.585 1345.67,813.329 1367.11,818.114 1388.56,822.814 1410,827.574 1431.44,832.307 
  1452.88,837.047 1474.32,841.754 1495.76,846.541 1517.2,851.273 1538.64,856.023 1560.08,860.748 1581.52,865.471 1602.97,870.198 1624.41,874.978 1645.85,879.677 
  1667.29,884.434 1688.73,889.182 1710.17,893.916 1731.61,898.674 1753.05,903.399 1774.49,908.146 1795.93,912.882 1817.37,917.629 1838.82,922.349 1860.26,927.108 
  1881.7,931.832 1903.14,936.588 1924.58,941.327 1946.02,946.06 1967.46,950.802 1988.9,955.55 2010.34,960.306 2031.78,965.058 2053.23,969.769 2074.67,974.505 
  2096.11,979.263 2117.55,983.965 2138.99,988.725 2160.43,993.471 2181.87,998.244 2203.31,1002.93 2224.75,1007.73 2246.19,1012.45 2267.64,1017.18 2289.08,1021.93 
  
  "/>
<polyline clip-path="url(#clip462)" style="stroke:#9b7fe8; stroke-width:4; stroke-opacity:1; fill:none" points="
  166.42,524.861 187.861,530.47 209.302,536.11 230.743,541.782 252.184,547.418 273.625,553.054 295.066,558.671 316.507,564.315 337.948,569.977 359.389,575.578 
  380.83,581.232 402.271,586.9 423.712,592.49 445.153,598.158 466.593,603.771 488.034,609.41 509.475,615.04 530.916,620.698 552.357,626.343 573.798,631.983 
  595.239,637.616 616.68,643.301 638.121,648.918 659.562,654.516 681.003,660.169 702.444,665.768 723.885,671.426 745.326,677.071 766.767,682.72 788.208,688.339 
  809.649,693.98 831.09,699.624 852.531,705.27 873.972,710.958 895.413,716.558 916.854,722.185 938.295,727.823 959.736,733.47 981.177,739.098 1002.62,744.744 
  1024.06,750.375 1045.5,756.034 1066.94,761.709 1088.38,767.314 1109.82,772.894 1131.26,778.569 1152.7,784.224 1174.15,789.861 1195.59,795.458 1217.03,801.121 
  1238.47,806.742 1259.91,812.404 1281.35,818.011 1302.79,823.672 1324.23,829.314 1345.67,834.949 1367.11,840.579 1388.56,846.241 1410,851.878 1431.44,857.503 
  1452.88,863.113 1474.32,868.803 1495.76,874.423 1517.2,880.059 1538.64,885.701 1560.08,891.328 1581.52,896.981 1602.97,902.599 1624.41,908.282 1645.85,913.866 
  1667.29,919.53 1688.73,925.173 1710.17,930.76 1731.61,936.411 1753.05,942.072 1774.49,947.695 1795.93,953.377 1817.37,958.969 1838.82,964.622 1860.26,970.248 
  1881.7,975.878 1903.14,981.535 1924.58,987.162 1946.02,992.811 1967.46,998.436 1988.9,1004.12 2010.34,1009.73 2031.78,1015.38 2053.23,1020.99 2074.67,1026.66 
  2096.11,1032.29 2117.55,1037.96 2138.99,1043.58 2160.43,1049.19 2181.87,1054.85 2203.31,1060.48 2224.75,1066.12 2246.19,1071.78 2267.64,1077.36 2289.08,1083.04 
  
  "/>
<polyline clip-path="url(#clip462)" style="stroke:#608cf6; stroke-width:4; stroke-opacity:1; fill:none" points="
  166.42,424.543 187.861,431.341 209.302,438.131 230.743,444.934 252.184,451.728 273.625,458.509 295.066,465.318 316.507,472.083 337.948,478.903 359.389,485.679 
  380.83,492.5 402.271,499.287 423.712,506.078 445.153,512.84 466.593,519.663 488.034,526.416 509.475,533.237 530.916,540.019 552.357,546.819 573.798,553.631 
  595.239,560.392 616.68,567.165 638.121,573.966 659.562,580.802 681.003,587.558 702.444,594.394 723.885,601.168 745.326,607.955 766.767,614.752 788.208,621.578 
  809.649,628.336 831.09,635.113 852.531,641.919 873.972,648.734 895.413,655.497 916.854,662.34 938.295,669.117 959.736,675.87 981.177,682.7 1002.62,689.476 
  1024.06,696.245 1045.5,703.071 1066.94,709.878 1088.38,716.627 1109.82,723.444 1131.26,730.224 1152.7,737.057 1174.15,743.821 1195.59,750.666 1217.03,757.42 
  1238.47,764.203 1259.91,771.014 1281.35,777.815 1302.79,784.595 1324.23,791.375 1345.67,798.173 1367.11,804.975 1388.56,811.78 1410,818.567 1431.44,825.331 
  1452.88,832.151 1474.32,838.951 1495.76,845.717 1517.2,852.547 1538.64,859.291 1560.08,866.162 1581.52,872.929 1602.97,879.707 1624.41,886.524 1645.85,893.288 
  1667.29,900.083 1688.73,906.871 1710.17,913.677 1731.61,920.476 1753.05,927.275 1774.49,934.058 1795.93,940.857 1817.37,947.613 1838.82,954.408 1860.26,961.236 
  1881.7,968.001 1903.14,974.841 1924.58,981.598 1946.02,988.41 1967.46,995.184 1988.9,1002.02 2010.34,1008.78 2031.78,1015.57 2053.23,1022.37 2074.67,1029.17 
  2096.11,1035.97 2117.55,1042.75 2138.99,1049.54 2160.43,1056.34 2181.87,1063.12 2203.31,1069.95 2224.75,1076.72 2246.19,1083.5 2267.64,1090.35 2289.08,1097.07 
  
  "/>
<polyline clip-path="url(#clip462)" style="stroke:#f05f73; stroke-width:4; stroke-opacity:1; fill:none" points="
  166.42,375.232 187.861,382.519 209.302,389.708 230.743,396.908 252.184,404.16 273.625,411.377 295.066,418.645 316.507,425.859 337.948,433.058 359.389,440.271 
  380.83,447.53 402.271,454.757 423.712,462.047 445.153,469.215 466.593,476.447 488.034,483.699 509.475,490.891 530.916,498.116 552.357,505.356 573.798,512.59 
  595.239,519.828 616.68,527.068 638.121,534.248 659.562,541.494 681.003,548.733 702.444,555.947 723.885,563.217 745.326,570.434 766.767,577.612 788.208,584.851 
  809.649,592.078 831.09,599.321 852.531,606.544 873.972,613.793 895.413,621.021 916.854,628.224 938.295,635.462 959.736,642.735 981.177,649.876 1002.62,657.147 
  1024.06,664.359 1045.5,671.584 1066.94,678.814 1088.38,686.07 1109.82,693.288 1131.26,700.475 1152.7,707.745 1174.15,714.942 1195.59,722.227 1217.03,729.395 
  1238.47,736.643 1259.91,743.86 1281.35,751.12 1302.79,758.321 1324.23,765.562 1345.67,772.824 1367.11,779.98 1388.56,787.223 1410,794.503 1431.44,801.704 
  1452.88,808.922 1474.32,816.161 1495.76,823.372 1517.2,830.598 1538.64,837.862 1560.08,845.069 1581.52,852.303 1602.97,859.501 1624.41,866.776 1645.85,873.967 
  1667.29,881.194 1688.73,888.45 1710.17,895.659 1731.61,902.903 1753.05,910.125 1774.49,917.36 1795.93,924.567 1817.37,931.808 1838.82,939.034 1860.26,946.275 
  1881.7,953.458 1903.14,960.701 1924.58,967.909 1946.02,975.175 1967.46,982.393 1988.9,989.597 2010.34,996.833 2031.78,1004.07 2053.23,1011.29 2074.67,1018.51 
  2096.11,1025.73 2117.55,1033.01 2138.99,1040.23 2160.43,1047.44 2181.87,1054.68 2203.31,1061.91 2224.75,1069.11 2246.19,1076.33 2267.64,1083.58 2289.08,1090.8 
  
  "/>
<polyline clip-path="url(#clip462)" style="stroke:#dd64b5; stroke-width:4; stroke-opacity:1; fill:none" points="
  166.42,433.557 187.861,440.018 209.302,446.549 230.743,452.958 252.184,459.524 273.625,465.953 295.066,472.408 316.507,478.904 337.948,485.443 359.389,491.883 
  380.83,498.362 402.271,504.818 423.712,511.349 445.153,517.852 466.593,524.291 488.034,530.805 509.475,537.288 530.916,543.786 552.357,550.233 573.798,556.72 
  595.239,563.175 616.68,569.695 638.121,576.189 659.562,582.682 681.003,589.135 702.444,595.618 723.885,602.08 745.326,608.601 766.767,615.07 788.208,621.559 
  809.649,628.037 831.09,634.528 852.531,640.991 873.972,647.499 895.413,653.991 916.854,660.483 938.295,666.991 959.736,673.459 981.177,679.888 1002.62,686.407 
  1024.06,692.871 1045.5,699.354 1066.94,705.845 1088.38,712.314 1109.82,718.812 1131.26,725.285 1152.7,731.765 1174.15,738.248 1195.59,744.691 1217.03,751.224 
  1238.47,757.711 1259.91,764.178 1281.35,770.654 1302.79,777.121 1324.23,783.612 1345.67,790.144 1367.11,796.643 1388.56,803.1 1410,809.534 1431.44,816.07 
  1452.88,822.527 1474.32,829.059 1495.76,835.499 1517.2,842.023 1538.64,848.499 1560.08,854.946 1581.52,861.453 1602.97,867.952 1624.41,874.426 1645.85,880.907 
  1667.29,887.361 1688.73,893.867 1710.17,900.334 1731.61,906.822 1753.05,913.327 1774.49,919.793 1795.93,926.262 1817.37,932.772 1838.82,939.229 1860.26,945.723 
  1881.7,952.236 1903.14,958.666 1924.58,965.148 1946.02,971.643 1967.46,978.093 1988.9,984.615 2010.34,991.079 2031.78,997.646 2053.23,1004.1 2074.67,1010.56 
  2096.11,1017.03 2117.55,1023.53 2138.99,1030.01 2160.43,1036.5 2181.87,1043 2203.31,1049.39 2224.75,1055.91 2246.19,1062.41 2267.64,1068.9 2289.08,1075.36 
  
  "/>
<polyline clip-path="url(#clip462)" style="stroke:#6b9e32; stroke-width:4; stroke-opacity:1; fill:none" points="
  166.42,357.045 187.861,365.766 209.302,374.443 230.743,383.127 252.184,391.758 273.625,400.48 295.066,409.167 316.507,417.812 337.948,426.5 359.389,435.226 
  380.83,443.83 402.271,452.563 423.712,461.213 445.153,469.901 466.593,478.585 488.034,487.262 509.475,495.929 530.916,504.625 552.357,513.308 573.798,521.991 
  595.239,530.658 616.68,539.337 638.121,548.032 659.562,556.678 681.003,565.397 702.444,574.067 723.885,582.743 745.326,591.408 766.767,600.084 788.208,608.768 
  809.649,617.434 831.09,626.136 852.531,634.816 873.972,643.498 895.413,652.155 916.854,660.885 938.295,669.518 959.736,678.19 981.177,686.874 1002.62,695.56 
  1024.06,704.248 1045.5,712.901 1066.94,721.596 1088.38,730.264 1109.82,738.921 1131.26,747.653 1152.7,756.32 1174.15,765.002 1195.59,773.652 1217.03,782.367 
  1238.47,791.015 1259.91,799.71 1281.35,808.407 1302.79,817.048 1324.23,825.742 1345.67,834.429 1367.11,843.132 1388.56,851.775 1410,860.511 1431.44,869.175 
  1452.88,877.83 1474.32,886.493 1495.76,895.15 1517.2,903.846 1538.64,912.577 1560.08,921.185 1581.52,929.889 1602.97,938.618 1624.41,947.282 1645.85,955.944 
  1667.29,964.631 1688.73,973.319 1710.17,981.998 1731.61,990.653 1753.05,999.32 1774.49,1008.01 1795.93,1016.74 1817.37,1025.38 1838.82,1034.04 1860.26,1042.73 
  1881.7,1051.41 1903.14,1060.08 1924.58,1068.75 1946.02,1077.46 1967.46,1086.14 1988.9,1094.8 2010.34,1103.49 2031.78,1112.12 2053.23,1120.83 2074.67,1129.52 
  2096.11,1138.18 2117.55,1146.9 2138.99,1155.59 2160.43,1164.23 2181.87,1172.9 2203.31,1181.6 2224.75,1190.3 2246.19,1198.94 2267.64,1207.58 2289.08,1216.35 
  
  "/>
<polyline clip-path="url(#clip462)" style="stroke:#009af9; stroke-width:4; stroke-opacity:1; fill:none" points="
  166.42,510.165 187.861,517.091 209.302,524.007 230.743,530.996 252.184,537.885 273.625,544.83 295.066,551.724 316.507,558.643 337.948,565.594 359.389,572.518 
  380.83,579.483 402.271,586.353 423.712,593.301 445.153,600.271 466.593,607.178 488.034,614.131 509.475,621.062 530.916,627.97 552.357,634.905 573.798,641.843 
  595.239,648.76 616.68,655.716 638.121,662.623 659.562,669.535 681.003,676.488 702.444,683.416 723.885,690.365 745.326,697.264 766.767,704.205 788.208,711.13 
  809.649,718.081 831.09,725.034 852.531,731.955 873.972,738.86 895.413,745.799 916.854,752.677 938.295,759.631 959.736,766.58 981.177,773.514 1002.62,780.478 
  1024.06,787.403 1045.5,794.322 1066.94,801.225 1088.38,808.193 1109.82,815.119 1131.26,822.059 1152.7,828.966 1174.15,835.907 1195.59,842.807 1217.03,849.756 
  1238.47,856.666 1259.91,863.608 1281.35,870.527 1302.79,877.499 1324.23,884.429 1345.67,891.358 1367.11,898.267 1388.56,905.195 1410,912.114 1431.44,919.103 
  1452.88,925.994 1474.32,932.927 1495.76,939.863 1517.2,946.778 1538.64,953.713 1560.08,960.636 1581.52,967.616 1602.97,974.495 1624.41,981.438 1645.85,988.36 
  1667.29,995.304 1688.73,1002.25 1710.17,1009.17 1731.61,1016.1 1753.05,1023.04 1774.49,1029.95 1795.93,1036.9 1817.37,1043.8 1838.82,1050.71 1860.26,1057.65 
  1881.7,1064.64 1903.14,1071.56 1924.58,1078.51 1946.02,1085.4 1967.46,1092.33 1988.9,1099.27 2010.34,1106.19 2031.78,1113.11 2053.23,1120.1 2074.67,1127 
  2096.11,1133.9 2117.55,1140.84 2138.99,1147.74 2160.43,1154.72 2181.87,1161.63 2203.31,1168.54 2224.75,1175.5 2246.19,1182.47 2267.64,1189.36 2289.08,1196.28 
  
  "/>
<polyline clip-path="url(#clip462)" style="stroke:#e26f46; stroke-width:4; stroke-opacity:1; fill:none" points="
  166.42,590.346 187.861,594.771 209.302,599.292 230.743,603.72 252.184,608.215 273.625,612.679 295.066,617.168 316.507,621.612 337.948,626.117 359.389,630.561 
  380.83,635.019 402.271,639.523 423.712,643.959 445.153,648.431 466.593,652.936 488.034,657.384 509.475,661.85 530.916,666.327 552.357,670.758 573.798,675.224 
  595.239,679.715 616.68,684.16 638.121,688.662 659.562,693.125 681.003,697.632 702.444,702.106 723.885,706.563 745.326,711.04 766.767,715.463 788.208,719.972 
  809.649,724.413 831.09,728.907 852.531,733.414 873.972,737.826 895.413,742.346 916.854,746.823 938.295,751.235 959.736,755.737 981.177,760.171 1002.62,764.687 
  1024.06,769.123 1045.5,773.626 1066.94,778.055 1088.38,782.528 1109.82,787.04 1131.26,791.497 1152.7,795.994 1174.15,800.436 1195.59,804.87 1217.03,809.339 
  1238.47,813.852 1259.91,818.302 1281.35,822.76 1302.79,827.24 1324.23,831.698 1345.67,836.221 1367.11,840.63 1388.56,845.108 1410,849.585 1431.44,854.064 
  1452.88,858.559 1474.32,863.002 1495.76,867.445 1517.2,871.971 1538.64,876.385 1560.08,880.903 1581.52,885.368 1602.97,889.823 1624.41,894.29 1645.85,898.786 
  1667.29,903.206 1688.73,907.703 1710.17,912.175 1731.61,916.677 1753.05,921.131 1774.49,925.564 1795.93,930.043 1817.37,934.518 1838.82,939.015 1860.26,943.458 
  1881.7,947.934 1903.14,952.39 1924.58,956.861 1946.02,961.364 1967.46,965.814 1988.9,970.296 2010.34,974.734 2031.78,979.277 2053.23,983.672 2074.67,988.136 
  2096.11,992.632 2117.55,997.104 2138.99,1001.57 2160.43,1006.01 2181.87,1010.51 2203.31,1014.99 2224.75,1019.45 2246.19,1023.92 2267.64,1028.38 2289.08,1032.84 
  
  "/>
<polyline clip-path="url(#clip462)" style="stroke:#3da44d; stroke-width:4; stroke-opacity:1; fill:none" points="
  166.42,511.475 187.861,516.735 209.302,522.026 230.743,527.3 252.184,532.548 273.625,537.836 295.066,543.107 316.507,548.361 337.948,553.665 359.389,558.924 
  380.83,564.201 402.271,569.429 423.712,574.736 445.153,579.99 466.593,585.279 488.034,590.553 509.475,595.845 530.916,601.078 552.357,606.38 573.798,611.64 
  595.239,616.95 616.68,622.14 638.121,627.431 659.562,632.697 681.003,637.995 702.444,643.264 723.885,648.571 745.326,653.806 766.767,659.093 788.208,664.329 
  809.649,669.644 831.09,674.909 852.531,680.187 873.972,685.444 895.413,690.717 916.854,695.993 938.295,701.277 959.736,706.514 981.177,711.789 1002.62,717.08 
  1024.06,722.368 1045.5,727.646 1066.94,732.877 1088.38,738.178 1109.82,743.476 1131.26,748.741 1152.7,754.014 1174.15,759.25 1195.59,764.523 1217.03,769.767 
  1238.47,775.036 1259.91,780.319 1281.35,785.598 1302.79,790.89 1324.23,796.187 1345.67,801.4 1367.11,806.687 1388.56,811.965 1410,817.29 1431.44,822.554 
  1452.88,827.836 1474.32,833.037 1495.76,838.335 1517.2,843.62 1538.64,848.899 1560.08,854.162 1581.52,859.457 1602.97,864.718 1624.41,869.985 1645.85,875.278 
  1667.29,880.54 1688.73,885.787 1710.17,891.032 1731.61,896.367 1753.05,901.573 1774.49,906.84 1795.93,912.174 1817.37,917.425 1838.82,922.666 1860.26,927.972 
  1881.7,933.228 1903.14,938.537 1924.58,943.768 1946.02,949.044 1967.46,954.332 1988.9,959.63 2010.34,964.843 2031.78,970.167 2053.23,975.436 2074.67,980.687 
  2096.11,985.991 2117.55,991.211 2138.99,996.505 2160.43,1001.79 2181.87,1007.04 2203.31,1012.34 2224.75,1017.58 2246.19,1022.86 2267.64,1028.15 2289.08,1033.41 
  
  "/>
<polyline clip-path="url(#clip462)" style="stroke:#c271d2; stroke-width:4; stroke-opacity:1; fill:none" points="
  166.42,499.721 187.861,506.327 209.302,512.897 230.743,519.556 252.184,526.101 273.625,532.703 295.066,539.34 316.507,545.945 337.948,552.573 359.389,559.13 
  380.83,565.709 402.271,572.38 423.712,578.993 445.153,585.584 466.593,592.169 488.034,598.757 509.475,605.365 530.916,611.947 552.357,618.598 573.798,625.167 
  595.239,631.764 616.68,638.407 638.121,645.015 659.562,651.601 681.003,658.189 702.444,664.838 723.885,671.408 745.326,678.023 766.767,684.634 788.208,691.243 
  809.649,697.833 831.09,704.426 852.531,711.069 873.972,717.653 895.413,724.228 916.854,730.843 938.295,737.443 959.736,744.061 981.177,750.689 1002.62,757.282 
  1024.06,763.89 1045.5,770.495 1066.94,777.091 1088.38,783.655 1109.82,790.297 1131.26,796.904 1152.7,803.533 1174.15,810.142 1195.59,816.7 1217.03,823.359 
  1238.47,829.92 1259.91,836.509 1281.35,843.139 1302.79,849.739 1324.23,856.355 1345.67,862.95 1367.11,869.58 1388.56,876.169 1410,882.734 1431.44,889.334 
  1452.88,895.961 1474.32,902.562 1495.76,909.171 1517.2,915.774 1538.64,922.358 1560.08,929.011 1581.52,935.584 1602.97,942.17 1624.41,948.754 1645.85,955.404 
  1667.29,962.003 1688.73,968.613 1710.17,975.196 1731.61,981.804 1753.05,988.475 1774.49,995.076 1795.93,1001.6 1817.37,1008.23 1838.82,1014.85 1860.26,1021.44 
  1881.7,1028.05 1903.14,1034.62 1924.58,1041.24 1946.02,1047.84 1967.46,1054.45 1988.9,1061.04 2010.34,1067.64 2031.78,1074.25 2053.23,1080.88 2074.67,1087.47 
  2096.11,1094.09 2117.55,1100.72 2138.99,1107.3 2160.43,1113.9 2181.87,1120.49 2203.31,1127.03 2224.75,1133.7 2246.19,1140.28 2267.64,1146.91 2289.08,1153.53 
  
  "/>
<polyline clip-path="url(#clip462)" style="stroke:#ac8d18; stroke-width:4; stroke-opacity:1; fill:none" points="
  166.42,467.367 187.861,473.981 209.302,480.688 230.743,487.362 252.184,494.007 273.625,500.681 295.066,507.334 316.507,514.009 337.948,520.682 359.389,527.357 
  380.83,534.007 402.271,540.66 423.712,547.378 445.153,554.031 466.593,560.709 488.034,567.34 509.475,574.029 530.916,580.678 552.357,587.346 573.798,594.029 
  595.239,600.709 616.68,607.372 638.121,614.048 659.562,620.688 681.003,627.359 702.444,634.047 723.885,640.682 745.326,647.371 766.767,654.04 788.208,660.744 
  809.649,667.347 831.09,674.052 852.531,680.681 873.972,687.353 895.413,694.062 916.854,700.716 938.295,707.363 959.736,714.014 981.177,720.689 1002.62,727.379 
  1024.06,734.075 1045.5,740.742 1066.94,747.386 1088.38,754.041 1109.82,760.733 1131.26,767.386 1152.7,774.014 1174.15,780.71 1195.59,787.389 1217.03,794.066 
  1238.47,800.718 1259.91,807.358 1281.35,814.076 1302.79,820.677 1324.23,827.407 1345.67,834.038 1367.11,840.741 1388.56,847.381 1410,854.07 1431.44,860.726 
  1452.88,867.427 1474.32,874.066 1495.76,880.687 1517.2,887.378 1538.64,894.095 1560.08,900.713 1581.52,907.39 1602.97,914.076 1624.41,920.756 1645.85,927.413 
  1667.29,934.078 1688.73,940.74 1710.17,947.385 1731.61,954.065 1753.05,960.725 1774.49,967.406 1795.93,974.036 1817.37,980.713 1838.82,987.387 1860.26,994.053 
  1881.7,1000.74 1903.14,1007.41 1924.58,1014.08 1946.02,1020.71 1967.46,1027.41 1988.9,1034.06 2010.34,1040.72 2031.78,1047.42 2053.23,1054.06 2074.67,1060.73 
  2096.11,1067.39 2117.55,1074.13 2138.99,1080.76 2160.43,1087.4 2181.87,1094.1 2203.31,1100.7 2224.75,1107.42 2246.19,1114.05 2267.64,1120.76 2289.08,1127.43 
  
  "/>
<polyline clip-path="url(#clip462)" style="stroke:#00a9ad; stroke-width:4; stroke-opacity:1; fill:none" points="
  166.42,534.522 187.861,540.878 209.302,547.169 230.743,553.458 252.184,559.789 273.625,566.126 295.066,572.42 316.507,578.729 337.948,585.037 359.389,591.368 
  380.83,597.699 402.271,604.02 423.712,610.297 445.153,616.625 466.593,622.964 488.034,629.265 509.475,635.609 530.916,641.934 552.357,648.17 573.798,654.547 
  595.239,660.826 616.68,667.187 638.121,673.454 659.562,679.772 681.003,686.113 702.444,692.405 723.885,698.703 745.326,705.045 766.767,711.349 788.208,717.69 
  809.649,723.985 831.09,730.285 852.531,736.633 873.972,742.923 895.413,749.196 916.854,755.569 938.295,761.866 959.736,768.184 981.177,774.52 1002.62,780.839 
  1024.06,787.11 1045.5,793.451 1066.94,799.786 1088.38,806.054 1109.82,812.386 1131.26,818.719 1152.7,825.022 1174.15,831.341 1195.59,837.703 1217.03,843.994 
  1238.47,850.305 1259.91,856.603 1281.35,862.882 1302.79,869.24 1324.23,875.569 1345.67,881.896 1367.11,888.163 1388.56,894.491 1410,900.855 1431.44,907.107 
  1452.88,913.444 1474.32,919.771 1495.76,926.088 1517.2,932.412 1538.64,938.724 1560.08,945.041 1581.52,951.33 1602.97,957.691 1624.41,963.995 1645.85,970.31 
  1667.29,976.596 1688.73,982.961 1710.17,989.212 1731.61,995.533 1753.05,1001.86 1774.49,1008.18 1795.93,1014.52 1817.37,1020.78 1838.82,1027.14 1860.26,1033.4 
  1881.7,1039.75 1903.14,1046.11 1924.58,1052.37 1946.02,1058.72 1967.46,1065.03 1988.9,1071.34 2010.34,1077.62 2031.78,1083.97 2053.23,1090.28 2074.67,1096.63 
  2096.11,1102.9 2117.55,1109.23 2138.99,1115.57 2160.43,1121.86 2181.87,1128.17 2203.31,1134.48 2224.75,1140.78 2246.19,1147.12 2267.64,1153.47 2289.08,1159.75 
  
  "/>
<polyline clip-path="url(#clip462)" style="stroke:#ed5d92; stroke-width:4; stroke-opacity:1; fill:none" points="
  166.42,380.76 187.861,388.005 209.302,395.229 230.743,402.459 252.184,409.672 273.625,416.931 295.066,424.146 316.507,431.453 337.948,438.625 359.389,445.899 
  380.83,453.064 402.271,460.322 423.712,467.551 445.153,474.816 466.593,482.047 488.034,489.259 509.475,496.509 530.916,503.716 552.357,510.964 573.798,518.209 
  595.239,525.432 616.68,532.683 638.121,539.877 659.562,547.13 681.003,554.344 702.444,561.562 723.885,568.826 745.326,576.015 766.767,583.32 788.208,590.545 
  809.649,597.749 831.09,605.015 852.531,612.242 873.972,619.448 895.413,626.738 916.854,633.94 938.295,641.176 959.736,648.398 981.177,655.68 1002.62,662.87 
  1024.06,670.111 1045.5,677.36 1066.94,684.577 1088.38,691.791 1109.82,699.043 1131.26,706.292 1152.7,713.509 1174.15,720.764 1195.59,727.983 1217.03,735.233 
  1238.47,742.435 1259.91,749.693 1281.35,756.949 1302.79,764.138 1324.23,771.425 1345.67,778.598 1367.11,785.822 1388.56,793.089 1410,800.319 1431.44,807.553 
  1452.88,814.799 1474.32,822.03 1495.76,829.231 1517.2,836.499 1538.64,843.702 1560.08,850.943 1581.52,858.191 1602.97,865.455 1624.41,872.676 1645.85,879.902 
  1667.29,887.127 1688.73,894.371 1710.17,901.621 1731.61,908.862 1753.05,916.075 1774.49,923.348 1795.93,930.544 1817.37,937.815 1838.82,944.991 1860.26,952.279 
  1881.7,959.447 1903.14,966.697 1924.58,973.95 1946.02,981.2 1967.46,988.413 1988.9,995.641 2010.34,1002.87 2031.78,1010.08 2053.23,1017.36 2074.67,1024.58 
  2096.11,1031.85 2117.55,1039.06 2138.99,1046.29 2160.43,1053.53 2181.87,1060.77 2203.31,1068.03 2224.75,1075.19 2246.19,1082.43 2267.64,1089.69 2289.08,1096.94 
  
  "/>
</svg>
